<svg width="57" height="58" viewBox="0 0 57 58" fill="none" xmlns="http://www.w3.org/2000/svg"><path d="M43.7989 57.8893L12.9655 57.9195C6.18221 57.9259 0.627581 52.2121 0.619873 45.2207L0.590581 13.4419C0.584415 6.45059 6.12825 0.72564 12.9116 0.717695L43.7449 0.687505C50.5282 0.68115 56.0829 6.39498 56.0906 13.3863L56.1199 45.1651C56.1276 52.158 50.5822 57.883 43.7989 57.8893Z" fill="url(#paint0_radial_17_20897)"/><path d="M43.7989 57.8893L12.9655 57.9195C6.18221 57.9259 0.627581 52.2121 0.619873 45.2207L0.590581 13.4419C0.584415 6.45059 6.12825 0.72564 12.9116 0.717695L43.7449 0.687505C50.5282 0.68115 56.0829 6.39498 56.0906 13.3863L56.1199 45.1651C56.1276 52.158 50.5822 57.883 43.7989 57.8893Z" fill="url(#paint1_radial_17_20897)"/><path d="M28.356 40.4268C22.4067 40.4268 17.5643 35.4375 17.5643 29.3042C17.5643 23.1709 22.4067 18.1816 28.356 18.1816C34.3053 18.1816 39.1477 23.1709 39.1477 29.3042C39.1477 35.4375 34.3053 40.4268 28.356 40.4268ZM28.356 21.3595C24.1056 21.3595 20.6477 24.9235 20.6477 29.3042C20.6477 33.6849 24.1056 37.2489 28.356 37.2489C32.6064 37.2489 36.0643 33.6849 36.0643 29.3042C36.0643 24.9235 32.6064 21.3595 28.356 21.3595Z" fill="white"/><path d="M39.9185 19.7707C41.1956 19.7707 42.231 18.7036 42.231 17.3873C42.231 16.071 41.1956 15.0039 39.9185 15.0039C38.6413 15.0039 37.606 16.071 37.606 17.3873C37.606 18.7036 38.6413 19.7707 39.9185 19.7707Z" fill="white"/><path d="M37.606 49.9599H19.106C13.1567 49.9599 8.31433 44.9706 8.31433 38.8373V19.77C8.31433 13.6367 13.1567 8.64746 19.106 8.64746H37.606C43.5553 8.64746 48.3977 13.6367 48.3977 19.77V38.8373C48.3977 44.9706 43.5553 49.9599 37.606 49.9599ZM19.106 11.8253C14.8556 11.8253 11.3977 15.3893 11.3977 19.77V38.8373C11.3977 43.218 14.8556 46.782 19.106 46.782H37.606C41.8564 46.782 45.3143 43.218 45.3143 38.8373V19.77C45.3143 15.3893 41.8564 11.8253 37.606 11.8253H19.106Z" fill="white"/><defs><radialGradient id="paint0_radial_17_20897" cx="0" cy="0" r="1" gradientUnits="userSpaceOnUse" gradientTransform="translate(21.2335 57.9608) scale(69.2193 71.3418)"><stop stop-color="#FFDD55"/><stop offset="0.328" stop-color="#FF543F"/><stop offset="0.348" stop-color="#FC5245"/><stop offset="0.504" stop-color="#E64771"/><stop offset="0.643" stop-color="#D53E91"/><stop offset="0.761" stop-color="#CC39A4"/><stop offset="0.841" stop-color="#C837AB"/></radialGradient><radialGradient id="paint1_radial_17_20897" cx="0" cy="0" r="1" gradientUnits="userSpaceOnUse" gradientTransform="translate(9.52608 -0.0270372) scale(45.9617 31.5633)"><stop stop-color="#4168C9"/><stop offset="0.999" stop-color="#4168C9" stop-opacity="0"/></radialGradient></defs></svg>