<svg width="57" height="59" viewBox="0 0 57 59" fill="none" xmlns="http://www.w3.org/2000/svg"><path d="M28.5507 58.0862C43.9927 58.0862 56.5108 45.1841 56.5108 29.2687C56.5108 13.3532 43.9927 0.451172 28.5507 0.451172C13.1088 0.451172 0.590576 13.3532 0.590576 29.2687C0.590576 45.1841 13.1088 58.0862 28.5507 58.0862Z" fill="url(#paint0_linear_17_20911)"/><path d="M16.8273 23.9064H22.2396V41.8238H16.8273V23.9064ZM19.5239 14.9971C20.3557 14.9971 21.1535 15.3376 21.7417 15.9439C22.3299 16.5501 22.6603 17.3723 22.6603 18.2297C22.6603 19.087 22.3299 19.9092 21.7417 20.5155C21.1535 21.1217 20.3557 21.4623 19.5239 21.4623C18.6921 21.4623 17.8943 21.1217 17.3061 20.5155C16.7179 19.9092 16.3875 19.087 16.3875 18.2297C16.3875 17.3723 16.7179 16.5501 17.3061 15.9439C17.8943 15.3376 18.6921 14.9971 19.5239 14.9971Z" fill="white"/><path d="M25.6246 23.9067H30.8265V26.3509C31.3505 25.4388 32.1026 24.6887 33.0043 24.1789C33.906 23.6692 34.924 23.4186 35.9519 23.4534C41.4215 23.4534 42.4351 27.1591 42.4351 31.9883V41.8438H37.0994V33.2103C37.0994 31.1407 37.0994 28.46 34.2881 28.46C31.4768 28.46 31.0369 30.7267 31.0369 33.0526V41.9226H25.6246V23.9067Z" fill="white"/><defs><linearGradient id="paint0_linear_17_20911" x1="48.3255" y1="8.88748" x2="7.58174" y2="48.4191" gradientUnits="userSpaceOnUse"><stop stop-color="#007AB5"/><stop offset="1" stop-color="#0046E5"/></linearGradient></defs></svg>