<svg width="75" height="103" viewBox="0 0 75 103" fill="none" xmlns="http://www.w3.org/2000/svg"><path d="M10.6123 73.7459C9.19771 67.8891 12.8588 62.5136 16.3467 58.122C19.7755 53.8233 23.8378 49.7315 28.8881 47.3879C34.4029 44.829 41.5562 44.7318 47.4299 46.1211C53.2108 47.5019 57.045 52.1511 60.098 56.9396C63.0539 61.5846 66.3054 67.5681 66.6347 73.1801C66.9641 78.7921 63.8858 84.6785 61.0523 89.3361C58.1725 94.0697 54.2411 98.2037 48.7812 99.8084C45.8844 100.653 42.8188 101.037 39.8333 101.417C36.6283 101.839 33.3008 102.262 30.0747 101.983C23.6478 101.396 18.3356 95.9953 14.6365 91.0759C10.625 85.7426 10.3801 78.9567 10.5236 72.5467C10.5236 71.8626 8.87679 72.2047 8.86412 72.7536C8.72899 78.7752 8.86412 85.1556 12.1874 90.4087C13.9271 93.1576 16.3552 95.6068 18.7452 97.7899C20.8186 99.6859 23.1537 101.371 25.8478 102.241C28.829 103.203 31.9833 103.085 35.0659 102.819C38.6709 102.519 42.258 102.033 45.8126 101.362C51.3655 100.307 55.9471 97.9124 59.6124 93.563C63.3967 88.9893 66.166 83.6638 67.7369 77.9391C69.4808 71.3475 66.4363 64.6545 63.2397 58.9792C60.3471 53.8444 56.5509 48.2113 50.8419 45.9733C47.9831 44.8543 44.8668 44.5841 41.8264 44.4658C38.5707 44.3391 35.2686 44.4658 32.1142 45.3104C25.9576 46.9572 20.8946 51.0912 16.7352 55.7826C12.4112 60.6852 7.25527 67.2219 8.94013 74.1935C9.07525 74.7636 10.739 74.3371 10.5954 73.7459H10.6123Z" fill="#980C0C"/><path d="M15.3206 74.0749C14.1678 69.1639 17.1575 64.7047 20.1134 61.0352C22.9763 57.4417 26.3672 54.0002 30.5814 52.0282C35.1546 49.8915 41.1086 49.7817 45.9816 50.9303C50.8545 52.0789 54.0427 55.8751 56.6312 59.8866C59.1395 63.7673 61.7533 68.6572 62.2009 73.3401C62.6232 77.9471 60.136 82.8116 57.8769 86.6796C55.6177 90.5476 52.5563 94.1664 48.2196 95.7035C45.8718 96.548 43.3213 96.8647 40.8594 97.2068C38.0809 97.591 35.1841 98.0049 32.376 97.874C26.7176 97.6037 22.2838 93.229 18.9732 89.0063C15.4093 84.4416 15.1517 78.686 15.2742 73.1248C15.2742 72.4449 13.6273 72.7827 13.6146 73.3317C13.5006 78.5551 13.6146 84.07 16.6381 88.5671C19.311 92.5576 23.6984 97.0505 28.4616 98.3553C31.0839 99.0732 33.854 98.8705 36.5227 98.6214C39.5231 98.3598 42.5072 97.937 45.4622 97.3546C49.8581 96.5289 53.8237 94.1836 56.665 90.7292C59.8971 86.7968 62.2266 82.2027 63.4888 77.2714C64.8232 71.7566 62.1502 66.1024 59.4604 61.3941C56.9648 57.0279 53.6922 52.3027 48.7432 50.5461C44.0982 48.895 37.9796 48.857 33.2206 50.1238C28.052 51.5046 23.7998 54.9461 20.3076 58.8859C16.617 63.0494 12.2845 68.5685 13.6653 74.5098C13.8004 75.0799 15.46 74.6534 15.3206 74.0622V74.0749Z" fill="#980C0C"/><path d="M36.1976 44.8963C36.0822 43.8181 35.9667 42.7413 35.8513 41.6659C35.8007 41.1719 35.1968 38.3722 36.3454 38.8029C37.0759 39.0732 37.0295 41.0072 37.0717 41.6026C37.1392 42.5738 37.2026 43.545 37.2702 44.512C37.3039 45.0483 38.9592 44.702 38.9254 44.0897C38.7861 42.0037 39.2337 36.9112 35.7627 37.6079C35.2786 37.6851 34.8365 37.9283 34.5121 38.2958C34.1877 38.6633 34.0013 39.1322 33.9849 39.6221C33.8498 41.4675 34.3438 43.5239 34.5381 45.3608C34.5972 45.9097 36.2651 45.5466 36.1976 44.9385V44.8963Z" fill="#980C0C"/><path d="M35.049 42.0878C31.3204 40.5677 32.5703 35.6356 35.7753 34.335C41.1212 32.1687 43.5662 42.3032 38.8283 42.6917C38.0133 42.7592 37.4475 43.7051 38.6003 43.6122C44.9005 43.0928 43.98 33.3595 38.0682 33.0555C36.8022 33.0435 35.5544 33.3576 34.445 33.9678C33.3356 34.578 32.402 35.4635 31.7342 36.5392C30.4083 38.8575 31.2148 41.864 33.7442 42.8986C34.2425 43.1013 35.75 42.375 35.0659 42.0963L35.049 42.0878Z" fill="#980C0C"/><path d="M3.25639 36.5902C10.4012 37.5445 17.5502 36.8562 24.6739 36.0285C32.2536 35.146 39.8249 34.483 47.4468 34.1621C51.357 33.9974 55.263 33.8919 59.1732 33.8201C62.5514 33.761 65.8197 34.1663 69.1895 34.3732C71.3008 34.5042 73.5937 33.951 74.4974 31.8396C75.5657 29.3483 74.6409 25.8814 74.3665 23.3225C73.9498 19.4742 73.4825 15.64 72.9645 11.8199C72.7112 9.96189 72.4451 8.11235 72.1665 6.25859C71.9553 4.86088 72.0187 2.71997 71.2881 1.48273C70.7898 0.638189 70.0213 0.524176 69.105 0.401718C67.1922 0.180738 65.2651 0.107328 63.341 0.182138C59.8949 0.269561 56.4577 0.575619 53.0503 1.09846C45.7071 2.1668 38.4525 3.65741 31.0375 4.18103C23.2574 4.72922 15.4421 4.50147 7.70711 3.50117C5.65066 3.23514 1.9558 2.01056 0.477862 4.25281C-0.256886 5.37605 0.0555925 7.05668 0.127378 8.30659L0.44408 14.6913C0.649584 18.9478 0.859313 23.2042 1.07326 27.4607C1.2295 30.6784 1.14505 34.1706 3.36196 36.7506C3.73778 37.1729 5.32551 36.5902 4.90324 36.1003C3.16349 34.0777 2.95658 31.4554 2.82146 28.8922C2.63988 25.514 2.48786 22.1359 2.32318 18.7577L1.84179 8.98645C1.79534 8.01945 1.15349 5.06357 2.02337 4.28659C2.69055 3.68697 4.40496 4.08813 5.24105 4.20636C6.20664 4.34149 7.17505 4.46676 8.14627 4.58218C20.6032 6.03479 32.9461 5.32115 45.3059 3.23937C51.7751 2.14991 58.2949 0.95489 64.8781 1.10268C66.6432 1.14069 69.1261 0.815542 69.9031 2.71997C70.4943 4.15991 70.4689 6.26281 70.6969 7.7872C71.1699 10.9964 71.6048 14.2113 72.0018 17.4318C72.3987 20.6523 72.7562 23.8771 73.0743 27.106C73.2094 28.5037 73.4501 30.0281 73.0743 31.4131C72.348 34.0903 69.409 33.3598 67.3779 33.1022C61.1832 32.359 54.7099 32.9291 48.4898 33.1867C41.4759 33.4738 34.4747 33.9848 27.5031 34.7871C19.7924 35.6781 12.0354 36.7042 4.27828 35.6696C3.75467 35.5978 2.33162 36.4424 3.26484 36.569L3.25639 36.5902Z" fill="#980C0C"/><path d="M0.688992 9.50184C6.2388 10.5788 11.88 11.1147 17.5333 11.1022C23.1495 11.0769 28.6601 10.3379 34.2087 9.54829C46.1119 7.8538 58.1205 7.00713 70.1438 7.01467C70.7645 7.01467 71.9004 6.07301 70.7856 6.07301C59.3712 6.0568 47.9685 6.80306 36.6536 8.30682C30.877 9.10068 25.1426 10.0466 19.2688 10.131C13.3756 10.2254 7.4886 9.70749 1.70244 8.58551C1.1746 8.47995 -0.248446 9.30337 0.684768 9.48495L0.688992 9.50184Z" fill="#980C0C"/><path d="M2.58498 32.0887C8.37851 32.2239 14.1931 32.511 19.9825 32.3294C25.7718 32.1479 31.2781 30.8768 36.9577 30.0323C48.9163 28.2461 61.0988 27.5873 73.1334 26.4768C73.9484 26.4008 74.5143 25.4549 73.3615 25.5605C61.5717 26.6457 49.6595 27.3382 37.9331 29.0062C32.1396 29.8507 26.5023 31.202 20.6201 31.3878C14.8308 31.5736 9.01191 31.2822 3.2226 31.1513C2.59342 31.1513 1.46174 32.0634 2.57653 32.0887H2.58498Z" fill="#980C0C"/><path d="M33.778 50.3771L30.8601 57.3065C30.3703 58.4635 29.8833 59.6191 29.3991 60.7733C28.9768 61.791 28.6094 63.3618 27.938 64.2401C27.2666 65.1185 25.5986 64.9791 24.5598 65.148C23.6773 65.2916 22.7948 65.4605 21.9164 65.6421C19.5146 66.1463 17.1433 66.7864 14.8139 67.5592C13.8511 67.8801 14.0454 68.7162 15.0377 68.4037C17.8555 67.4603 20.737 66.7195 23.6604 66.1868C25.1806 65.9165 27.8367 66.1108 29.0443 64.92C29.6482 64.333 29.8635 63.3787 30.1802 62.6313C30.763 61.2406 31.3471 59.8542 31.9327 58.4719L35.4375 50.149C35.6528 49.6339 34.006 49.8154 33.778 50.3602V50.3771Z" fill="#980C0C"/><path d="M13.5217 72.2339L24.6063 81.2705C24.9441 81.5492 25.5944 81.9081 25.814 82.2839C26.156 82.8582 25.8604 83.8083 25.7295 84.3953C25.4677 85.5818 25.0286 86.7642 24.6823 87.9297L22.5921 95.0069C22.4232 95.5896 24.0827 95.3616 24.2516 94.8C25.0173 92.2072 25.783 89.6159 26.5487 87.026C27.0132 85.4678 28.4996 82.8751 27.1737 81.4816C25.4846 79.6996 23.2213 78.2428 21.3126 76.6889L15.0461 71.5878C14.5943 71.2205 13.0573 71.8666 13.5091 72.2339H13.5217Z" fill="#980C0C"/><path d="M38.765 49.9635L42.1854 57.2265C42.7484 58.4399 43.3199 59.6518 43.8998 60.8623C44.2967 61.7068 44.6387 62.9314 45.2426 63.6577C46.4123 65.0596 49.4315 64.9456 51.1037 65.237L54.693 65.8619C55.2208 65.9548 58.9157 66.9092 59.1479 66.6474L60.4147 66.2251L60.533 66.3053C60.4907 65.7648 58.8439 66.1153 58.8777 66.7487V66.8754C58.8777 67.0021 59.1057 67.0907 59.1986 67.1034C59.4867 67.1663 59.7866 67.1491 60.0657 67.0539C60.3448 66.9586 60.5925 66.7888 60.7821 66.5629C60.8208 66.5143 60.8419 66.454 60.8419 66.3919C60.8419 66.3298 60.8208 66.2695 60.7821 66.2209C60.4189 65.7099 59.8615 65.7099 59.2746 65.6001C57.9613 65.3594 56.6439 65.1399 55.3264 64.9118L51.7371 64.2869C50.5167 64.0715 48.9332 64.0589 47.7889 63.5986C46.4165 63.0454 45.9562 61.3268 45.3777 60.098L43.8238 56.7958C42.6977 54.3776 41.5562 51.9552 40.3992 49.5286C40.1331 48.9585 38.5116 49.4821 38.7439 49.9762L38.765 49.9635Z" fill="#980C0C"/><path d="M60.4485 69.3839L54.6761 73.8304C53.5571 74.696 51.0488 75.9037 50.7279 77.4408C50.5589 78.222 51.1501 79.265 51.4119 79.9744C51.7863 81.0244 52.1523 82.0787 52.5098 83.1372C53.3544 85.6075 54.1271 88.0904 54.8745 90.586C55.0519 91.1814 56.5636 90.7254 56.5341 90.1637C56.5341 89.7415 56.5045 89.3192 56.4918 88.8969C56.4707 88.3775 54.8028 88.7027 54.8323 89.3445C54.8323 89.7668 54.8619 90.1891 54.8745 90.586L56.5341 90.1637C55.9288 88.1397 55.2982 86.1268 54.6423 84.1253C54.3298 83.1822 54.0117 82.242 53.688 81.3045C53.3501 80.3375 52.6872 79.1552 52.5647 78.1502C52.3325 76.2162 55.1743 74.772 56.5847 73.6826L61.7786 69.6752C62.5218 69.1052 60.875 69.0756 60.4485 69.405V69.3839Z" fill="#980C0C"/><path d="M34.7534 70.4858C36.3621 69.0069 37.6773 67.2376 38.6298 65.2708L37.0294 65.4777C37.2378 71.9216 37.5742 78.3584 38.0387 84.7881L38.9803 84.1082C37.3551 84.2338 35.7425 84.4894 34.158 84.8726C33.3895 85.0583 33.1699 85.8269 34.158 85.7467C36.3158 85.5693 38.482 85.6326 40.6398 85.4891C42.0502 85.3919 43.8998 85.375 45.1074 84.5601C45.2215 84.4841 45.5297 84.2814 45.4242 84.0914L45.3481 83.9393C45.2299 83.6902 44.8752 83.6606 44.6345 83.7029L44.4952 83.7282C43.7097 83.8591 43.1228 84.8388 44.2671 84.6445L44.4065 84.6192L43.6928 84.3827C43.6928 84.4334 43.7393 84.4841 43.7646 84.539L44.0813 84.0702C42.8145 84.9148 39.9684 84.6192 38.5581 84.6487C37.1477 84.6783 35.7753 84.7163 34.386 84.8261C34.386 85.1175 34.386 85.4088 34.386 85.7002C35.825 85.3534 37.2893 85.1219 38.765 85.0077C39.0943 84.9823 39.7362 84.7543 39.7066 84.3278C39.2337 77.9093 38.8959 71.4754 38.6932 65.0259C38.6721 64.4685 37.2448 64.9203 37.0928 65.2328C36.1918 67.1062 34.9487 68.7947 33.4275 70.2114C32.7307 70.8617 34.3565 70.8574 34.7576 70.4816L34.7534 70.4858Z" fill="#980C0C"/><path d="M31.8609 19.8679C36.2624 19.4946 40.6203 18.7171 44.8794 17.5455C45.2595 17.4399 46.7628 16.6165 45.7915 16.1858C41.7929 14.4271 37.4047 13.7416 33.0601 14.1969C30.8955 14.4239 28.7677 14.9204 26.7261 15.6748C24.9188 16.3378 22.5372 17.2288 21.2366 18.732C17.9767 22.5325 27.5706 21.5317 29.0528 21.3163C33.7103 20.6291 38.157 18.9156 42.0714 16.2998C42.6034 15.9451 42.8694 15.337 42.0714 15.1428C36.3239 13.744 30.3089 13.8897 24.6359 15.565C22.6765 16.152 19.6784 16.8318 18.5848 18.7996C17.4911 20.7674 19.3786 22.0975 21.0424 22.6C25.7802 23.9724 31.768 22.3002 35.8429 19.7877C37.1097 19.0107 39.5969 17.2541 37.532 15.8437C35.7373 14.6191 32.5619 15.1976 30.5772 15.3159C23.8487 15.8187 17.3216 17.8399 11.4864 21.2276C11.2246 21.3754 10.8952 21.6499 10.9628 22.0046C11.3851 24.116 13.9525 24.2638 15.6796 24.268C18.7265 24.2531 21.7621 23.8947 24.7288 23.1996C27.6953 22.523 30.5753 21.5115 33.3135 20.1846C34.9603 19.3866 38.4652 18.162 38.0514 15.7973C37.9711 15.3454 37.1646 15.375 36.8606 15.4046C28.3811 16.2721 20.0735 18.3718 12.2001 21.6372C11.668 21.8568 10.8108 22.8112 11.9002 22.9547C19.9913 24.0547 28.2163 22.3817 35.2348 18.2084C35.9738 17.7862 35.8429 16.9712 34.9139 17.0134C27.9275 17.3324 21.0956 19.1772 14.8984 22.4184C14.6323 22.5578 14.1298 23.0518 14.4761 23.3685C17.1237 25.8177 20.9917 25.6741 24.3656 25.425C28.652 25.0846 32.8548 24.0506 36.8099 22.3636C37.3335 22.144 38.2076 21.1854 37.1139 21.0461C29.7424 20.0979 22.2948 19.8871 14.8815 20.4169C13.4204 20.5225 9.42575 20.4591 9.68755 22.9209C9.96625 25.539 14.455 26.2738 16.4439 26.3962C16.8366 26.3962 19.0366 25.7417 18.2638 25.0703L10.625 18.4576C10.0718 17.9762 7.66911 18.3435 7.96047 19.3697C8.81006 22.4628 10.1502 25.3997 11.9298 28.0684C12.3859 28.7525 14.8857 28.0684 14.5943 27.1563C13.3688 23.1565 11.6466 19.3262 9.46797 15.755C9.0457 15.0456 6.93436 15.7255 6.80346 16.4687C6.18747 20.3078 6.72996 24.2435 8.36163 27.7728C8.7839 28.7271 11.1402 28.0304 11.1233 27.0338C11.0643 23.0169 9.8313 19.1051 7.57621 15.7804C7.1286 15.0963 4.9877 15.7044 4.91169 16.4645C4.56601 19.9882 4.60282 23.5391 5.02148 27.055C5.1355 28.0093 7.80423 27.321 7.78734 26.316C7.73031 23.0205 6.92304 19.7813 5.42686 16.8445C5.00459 16.0295 2.7539 16.4813 2.66522 17.3892C2.27011 21.2391 2.65939 25.1291 3.80957 28.8243C4.09249 29.7321 6.49098 29.1072 6.57121 28.2795C6.7314 26.896 6.60566 25.4944 6.20179 24.1615C5.79792 22.8286 5.12454 21.5928 4.22339 20.5309C3.72934 19.9271 1.62644 20.4169 1.55888 21.2445C1.4153 23.0096 1.39841 26.2104 3.32818 27.1183C4.671 27.7559 6.70633 26.9832 7.1286 25.5897C7.43686 24.6438 4.671 25.0027 4.36696 25.9359C4.94547 25.5643 5.07638 25.1505 4.75123 24.6691C4.63475 24.353 4.54298 24.0283 4.47676 23.6979C4.27429 22.7721 4.21872 21.8202 4.31207 20.8772L1.64755 21.595C2.4637 22.5575 3.07519 23.6762 3.44473 24.8828C3.81426 26.0894 3.93409 27.3587 3.7969 28.6131L6.55854 28.0684C5.4337 24.503 5.04439 20.7464 5.41419 17.0261L2.65255 17.5666C4.1499 20.5088 4.9558 23.7541 5.00882 27.055L7.77467 26.316C7.3694 22.9308 7.33118 19.5116 7.66066 16.1182L4.99614 16.8318C7.14785 20.0671 8.31271 23.858 8.34896 27.7433L11.1106 27.0043C9.52223 23.6077 8.98127 19.815 9.55665 16.1097L6.89213 16.8234C8.99168 20.2938 10.6486 24.0133 11.8242 27.8953L14.4888 26.9874C12.7911 24.4224 11.5178 21.6007 10.7179 18.6307L8.05337 19.5386L15.6796 26.1344L17.4995 24.8127C16.23 24.7547 14.9906 24.4066 13.8765 23.795C13.4496 23.5637 13.0689 23.256 12.7532 22.8872C11.9974 21.9877 12.4492 22.0933 13.3824 22.0173C15.8653 21.809 18.3553 21.6936 20.8523 21.671C25.7191 21.6229 30.5836 21.905 35.4122 22.5156C35.5135 22.0933 35.6106 21.6372 35.712 21.1981C32.6507 22.4987 29.4182 23.352 26.1138 23.7317C23.1579 24.0653 19.4082 24.4496 17.0308 22.2538C16.8915 22.5705 16.7479 22.8872 16.6085 23.2039C21.9478 20.43 27.8266 18.8508 33.8371 18.5758L33.5204 17.385C27.5266 20.9526 20.5016 22.3858 13.5893 21.4514C13.4922 21.8737 13.3909 22.3298 13.2895 22.7689C20.6942 19.7035 28.5071 17.736 36.4805 16.9289L35.2897 16.532C35.484 17.6384 33.2459 18.542 32.5281 18.9009C31.7258 19.3232 30.9066 19.6695 30.0789 20.0073C28.2264 20.771 26.3123 21.3756 24.3572 21.8146C22.4609 22.2418 20.5334 22.5158 18.5932 22.6338C17.1575 22.7225 14.1087 23.2081 13.7244 21.2614L13.2008 22.0426C17.5168 19.5395 22.2706 17.8827 27.2075 17.1612C29.3526 16.8529 32.4521 16.2195 34.5676 16.8783C36.6832 17.537 34.1454 18.9896 33.191 19.4752C32.0606 20.0731 30.8646 20.5379 29.6271 20.8603C27.5833 21.3923 24.6865 21.8357 22.6428 21.0418C21.4562 20.5816 20.4554 19.5343 21.5955 18.3816C22.3894 17.5792 23.9645 17.2583 25.0075 16.9458C30.0134 15.474 35.3221 15.369 40.3823 16.6418C40.3823 16.2575 40.3823 15.8691 40.3823 15.4806C37.7161 17.2876 34.7489 18.6046 31.6202 19.3697C29.9651 19.7654 28.2747 19.9959 26.5741 20.058C26.0251 20.058 24.2474 20.3282 23.8167 20.0031C22.6174 19.1079 25.0581 18.0437 25.5057 17.8199C31.1473 14.9401 37.8656 14.9865 43.6126 17.5243L44.529 16.1646C40.5157 17.2657 36.4093 17.9937 32.2621 18.3393C30.9066 18.4533 29.9649 20.0284 31.882 19.8679H31.8609Z" fill="#980C0C"/><path d="M10.4856 17.6008C18.4009 17.9381 26.3295 17.783 34.2256 17.1363C35.5853 17.0265 36.5227 15.4472 34.6056 15.6077C24.5176 16.41 14.5479 13.8384 4.46831 13.9735C3.4802 13.9735 1.48709 15.4219 3.39575 15.5401C11.9206 16.0711 20.4734 15.9567 28.981 15.1981C29.1077 14.6914 29.2302 14.1804 29.3568 13.6695C25.5536 14.2691 21.7532 14.8828 17.9556 15.5106C14.9997 16.0046 11.6807 16.296 9.00348 17.7908C3.51398 20.8565 14.6112 27.0807 17.1659 28.2378C17.7487 28.4996 20.2569 28.0097 19.5475 27.0259C16.4354 22.7018 11.8496 19.9655 7.32284 17.339C6.65988 16.9547 4.15583 17.9766 4.93702 18.5467C7.49889 20.4347 10.4139 21.7888 13.5091 22.5287C13.9947 22.6469 16.3932 22.1064 15.6204 21.2408C14.0678 19.5032 12.2404 18.0325 10.2112 16.8872L8.01114 18.2258C10.271 19.1342 12.6336 19.7625 15.0461 20.0964L16.4227 18.5763C15.056 18.6008 13.7278 18.123 12.6899 17.2334L10.5785 18.5256C12.2148 18.7214 13.8349 19.0347 15.4262 19.463C16.1272 19.653 17.6769 19.2477 17.6558 18.344C17.6251 17.07 17.2532 15.8276 16.579 14.7463C16.2032 14.096 14.5521 14.6618 14.1889 15.0588C10.9375 18.6354 20.4258 18.8592 22.022 18.7578C23.386 18.6818 24.3149 17.1194 22.3978 17.2292C21.9376 17.2545 15.2193 16.8069 16.4058 15.5106L14.0158 15.8273C14.5885 16.8167 14.89 17.9397 14.8899 19.083L17.1195 17.964C15.5272 17.5336 13.9056 17.2203 12.2676 17.0265C11.9087 16.9801 9.2315 17.5755 10.1563 18.2933C11.6181 19.516 13.4745 20.1658 15.3797 20.1218C16.0427 20.1218 18.3356 18.8085 16.7648 18.5889C14.5188 18.292 12.3178 17.7204 10.2112 16.8872C9.48908 16.6 6.83301 17.5375 8.01114 18.2258C9.90572 19.313 11.6078 20.7055 13.0488 22.3471L15.1602 21.055C12.3824 20.3915 9.76525 19.1798 7.46219 17.491L5.0806 18.7029C9.49753 21.2619 13.9102 23.9222 16.9421 28.1322L19.3237 26.9245C17.163 25.9627 15.1532 24.6925 13.3571 23.1536C12.498 22.4325 11.7 21.6416 10.9712 20.7889C10.2872 19.9697 10.0972 19.3321 11.0093 18.4918C11.3682 18.1582 12.6772 17.9386 13.1797 17.8204C18.3525 16.6169 23.7364 16.03 28.981 15.2023C30.2816 14.9996 31.3077 13.5132 29.3568 13.6737C21.0871 14.4004 12.7743 14.5006 4.48942 13.9735C4.12064 14.5084 3.75608 15.0306 3.39575 15.5401C13.7202 15.4008 23.8885 17.9597 34.2214 17.1363L34.6014 15.6077C26.9366 16.2276 19.2406 16.3686 11.5582 16.03C10.5068 15.9835 8.60232 17.5164 10.4814 17.5966L10.4856 17.6008Z" fill="#980C0C"/><path d="M3.73777 17.4189C3.17298 18.5178 2.92031 19.7504 3.00725 20.9829L5.75622 20.265C5.12416 17.9625 4.6362 15.6228 4.29517 13.2596C4.16849 12.3517 1.53775 12.9809 1.53353 13.8043L1.49553 20.2101L4.25716 19.6696C3.97565 17.4597 3.67865 15.2527 3.36617 13.0484L0.600315 13.7874C1.12577 15.567 1.47234 17.3947 1.63487 19.2431C1.7151 20.1721 4.4134 19.5218 4.39651 18.4999C4.34162 15.4511 4.21916 12.4488 3.17615 9.55204L1.97691 10.6119C1.48286 10.5866 1.58842 10.6415 2.29361 10.7724L3.23527 11.0764C3.82645 11.2833 4.40496 11.5283 4.97924 11.7816C6.13626 12.2883 7.26372 12.8669 8.39962 13.42C10.5139 14.5304 12.7679 15.3513 15.101 15.8607L16.4861 14.3279C13.0798 14.0633 9.67628 13.7311 6.27561 13.3313C5.68021 13.2596 4.7301 13.3313 4.3205 13.855C4.00802 14.2519 3.89823 14.7375 4.58231 14.8346C8.18742 15.3392 11.7602 16.0526 15.2826 16.9713L15.9456 15.5314C13.2262 16.245 10.19 14.6108 7.44529 14.4799C6.99346 14.4799 4.5992 15.3962 5.80689 15.9325C7.59862 16.7343 9.62449 16.8412 11.4906 16.2323C11.8242 16.131 13.412 15.2611 12.4027 14.8726C10.0712 13.967 7.83378 12.8356 5.72244 11.4945L3.52241 12.8331L4.69632 13.2553C5.38884 13.5171 8.10403 12.6937 6.89634 11.921L5.89979 11.2791C5.28327 10.8864 2.74544 11.7774 3.51397 12.4868C5.40653 14.2181 6.74493 16.4703 7.36084 18.9602L10.0254 18.0481L5.71399 13.779C5.17349 13.2427 2.75811 13.7072 3.04947 14.6911C4.17693 18.6013 8.53897 19.1207 11.9889 19.2769C13.0404 19.3233 14.9237 17.7905 13.0657 17.7103C10.1774 17.5794 6.73166 17.1951 5.81533 13.9521L3.15082 14.86L7.44529 19.1291C7.99424 19.6696 10.3674 19.2093 10.1098 18.217C9.45161 15.6083 8.04207 13.2503 6.05603 11.4354L3.6871 12.6642L4.68365 13.3018L6.88367 11.9674L5.70977 11.5452C5.01725 11.2876 2.30206 12.1152 3.50975 12.8837C5.62109 14.2248 7.8585 15.3563 10.19 16.2619L11.1064 14.9022C10.5969 15.0692 10.0592 15.1328 9.52476 15.0893C8.99036 15.0458 8.47002 14.896 7.99424 14.6488L6.35584 16.0423C9.80155 16.207 12.825 17.8243 16.3129 16.8869C16.9506 16.7222 18.2089 15.7678 16.9759 15.4469C13.4535 14.5272 9.88073 13.8124 6.27561 13.306L4.58653 14.8093C8.18145 15.2625 11.7933 15.6172 15.422 15.8734C16.1483 15.9241 18.3525 14.6362 16.807 14.3406C13.7624 13.7578 11.1064 12.263 8.36162 10.9624C6.47407 10.0714 3.77578 8.52593 1.64332 9.22267C1.29706 9.33668 0.241386 9.72095 0.448298 10.2826C1.4913 13.1793 1.61376 16.1943 1.66865 19.2347L4.43029 18.4915C4.26712 16.6448 3.922 14.8188 3.39996 13.04C3.11704 12.0772 0.503194 12.7866 0.634097 13.779C0.935315 15.9888 1.23372 18.1959 1.5293 20.4001C1.65176 21.3038 4.28672 20.6788 4.29094 19.8554L4.32895 13.4496L1.53353 13.9774C1.87829 16.341 2.37049 18.6807 3.00725 20.9829C3.2775 21.9541 5.82378 21.2193 5.75622 20.265C5.67666 19.3103 5.86532 18.3524 6.30094 17.4991C6.87523 16.3168 4.12204 16.625 3.72511 17.44L3.73777 17.4189Z" fill="#980C0C"/><path d="M14.5056 14.7375L24.2854 13.4707C26.971 13.1244 31.1853 11.7478 33.5753 13.3989L35.2137 11.9505L19.5306 12.7528L19.1759 14.2308C28.4658 11.144 38.5454 13.1455 47.7635 9.66605C49.3428 9.07065 48.266 8.1501 47.033 8.39924C40.2767 9.8068 33.5809 11.4213 26.9457 13.2427C26.3418 13.4074 25.0201 14.3955 26.2827 14.6826C31.2401 15.8101 36.2187 14.9697 41.1001 13.8845C46.7163 12.6177 52.3283 11.3171 57.8938 9.84762L57.159 8.58082C48.2607 12.2955 38.8749 14.7131 29.2893 15.7594C29.1626 16.2661 29.0401 16.7771 28.9134 17.288L62.2727 12.7317L61.918 11.3973C54.4016 15.0035 45.5593 13.2511 37.9204 16.6377C37.325 16.8995 36.5861 17.706 37.6206 17.9552C46.2448 20.0123 55.2479 19.8671 63.8013 17.5329C65.4608 17.0853 65.1019 15.7721 63.4297 16.1521C54.4402 18.2091 45.3527 19.8115 36.2018 20.9533C35.3024 21.0673 33.702 22.503 35.4755 22.503C44.4107 22.503 53.1432 20.6493 61.8293 18.7406C63.5184 18.369 63.1257 17.0051 61.4577 17.3598C53.9665 18.9348 46.2489 19.1123 38.6932 17.8834L37.6586 19.3951C44.6627 18.3563 51.6878 17.478 58.7341 16.7602C58.7341 16.2746 58.7341 15.7889 58.7341 15.3033C54.6112 16.6142 50.2521 17.0105 45.9604 16.4646C45.8591 16.8868 45.7578 17.3429 45.6606 17.7821C49.5413 16.0127 53.5022 14.2181 57.8558 14.3363L58.5821 12.7866L46.3743 13.4538C45.3904 13.5087 43.9293 14.8219 45.648 15.0035L61.293 16.6377C61.1875 16.2408 61.0819 15.8438 60.9721 15.4469C50.2507 21.7809 37.2195 20.4212 25.2904 21.3164C25.1679 21.8274 25.0412 22.3341 24.9146 22.8451C34.2495 21.6627 43.5901 20.5141 52.9363 19.3993C52.9363 18.9137 52.9363 18.4281 52.9363 17.9425C42.7211 21.0693 32.0566 22.4735 21.3802 22.0976C21.1395 22.6128 20.8988 23.128 20.6539 23.6431C29.9117 22.422 39.0327 20.3251 47.8944 17.3809C48.663 17.1233 49.8369 15.8607 48.2449 15.9072C39.9537 16.1525 31.6862 16.9198 23.4915 18.2043C22.647 18.3437 20.9579 19.8089 22.7652 19.7541C31.2528 19.488 40.2345 19.0024 47.4384 13.9901C48.1225 13.5129 48.0929 12.7697 47.1217 12.7951C38.3028 13.0343 29.5781 14.6749 21.2746 17.6554C20.9452 17.7694 19.8853 18.597 20.7214 18.8884C32.545 23.0224 43.8238 15.979 55.5459 15.2104C56.0484 15.1767 57.5306 14.6362 57.0197 13.9056C55.6473 11.9336 53.4684 10.5866 51.1417 11.9885C48.7179 13.4538 49.9678 16.0465 51.5977 17.5329L52.3325 16.4223C40.4349 20.793 27.8919 23.1492 15.2193 23.394C14.5859 23.394 12.2212 24.5637 13.8342 24.9311C25.7253 27.6251 37.8655 25.5771 49.6131 23.1406C49.4906 22.6804 49.3639 22.2201 49.2415 21.7598C38.1807 24.4562 26.9178 26.2427 15.5655 27.1015C14.5943 27.1733 13.1121 28.4655 14.8392 28.647C25.1357 29.7199 35.5385 28.2706 45.1497 24.4243C46.3489 23.9472 46.0533 22.9295 44.7908 23.09C36.6747 24.1316 28.5855 25.3632 20.523 26.7848C19.6784 26.9368 17.9893 28.267 19.7967 28.3346C27.8578 28.6217 35.6402 26.5104 43.3213 24.323C44.5501 23.9725 45.0103 22.6846 43.3213 22.8662L38.6763 23.3644C37.3293 23.508 36.3792 25.1 38.3005 24.8931L42.9454 24.3948C42.9454 23.9092 42.9454 23.4236 42.9454 22.938C35.7289 24.9986 28.4363 27.0382 20.865 26.7679L20.1387 28.3134C28.1984 26.9059 36.2877 25.6743 44.4065 24.6186C44.2883 24.1963 44.1658 23.7318 44.0476 23.2884C35.1156 26.8226 25.457 28.127 15.9076 27.0889C15.6626 27.604 15.422 28.1234 15.1813 28.6386C26.7863 27.7514 38.2992 25.9154 49.6046 23.1491C51.2937 22.7268 50.901 21.422 49.233 21.7683C38.1611 24.0654 26.7261 25.991 15.5191 23.4362L14.134 24.9691C27.5451 24.7047 40.818 22.2028 53.405 17.5667C53.7091 17.4569 54.6001 16.8784 54.1398 16.4604C53.4135 15.7932 52.2734 14.7713 52.5436 13.6523C52.8308 12.453 54.1102 14.5306 54.4312 14.9951L55.9049 13.6903C45.0272 14.3955 33.8793 21.3713 22.9383 17.554L22.3809 18.7913C29.9903 16.0693 37.9832 14.5713 46.0618 14.3532C45.9562 13.9563 45.8507 13.5594 45.7409 13.1624C39.3435 17.6131 31.3837 17.9425 23.8547 18.179L23.1284 19.7287C31.0955 18.4658 39.1348 17.7098 47.1977 17.4654C47.3117 16.9755 47.4299 16.4815 47.5482 15.9916C38.9313 18.8611 30.0621 20.9084 21.0592 22.1061C20.164 22.2243 18.5467 23.5925 20.3329 23.6558C31.4941 24.0433 42.6421 22.572 53.3206 19.3022C54.5198 18.9391 55.0097 17.6469 53.3206 17.8496C43.9772 18.9757 34.6366 20.1242 25.2988 21.2953C23.9687 21.4642 22.989 22.9844 24.923 22.8239C37.7178 21.8612 51.2008 23.0351 62.695 16.245C63.5395 15.7509 63.2228 15.1387 62.3783 15.05L46.7163 13.4242C46.4756 13.9394 46.2349 14.4546 45.99 14.9697L58.1978 14.3026C59.1606 14.2519 60.6596 12.8035 58.9241 12.7571C53.8104 12.6177 49.1359 14.5517 44.567 16.6335C44.0645 16.8615 43.1608 17.8074 44.2671 17.951C49.2481 18.6083 54.3124 18.176 59.1099 16.6842C60.3091 16.3083 60.799 15.0542 59.1099 15.2273C52.0721 15.9396 45.0483 16.8179 38.0387 17.8623C37.4982 17.9425 35.5051 19.1291 36.9999 19.3782C45.2449 20.7011 53.6637 20.4835 61.8293 18.7364C61.7026 18.2761 61.5802 17.8158 61.4577 17.3556C53.253 19.1587 44.9892 20.928 36.5438 20.9322C36.3032 21.4473 36.0582 21.9625 35.8175 22.4819C45.228 21.3113 54.5735 19.6666 63.8182 17.554C63.6957 17.0938 63.5691 16.6335 63.4466 16.1732C55.5554 18.301 47.2549 18.4027 39.3139 16.4688C39.2168 16.8911 39.1155 17.3471 39.0141 17.7863C46.615 14.4081 55.4277 16.1859 63.0117 12.5459C64.1307 12.0096 63.9787 11.0342 62.657 11.2158L29.2977 15.7721C27.976 15.9494 26.9921 17.5118 28.9219 17.3007C39.0143 16.1931 48.8959 13.6448 58.2654 9.73361C59.7771 9.10443 58.8143 8.13743 57.5348 8.4668C52.6618 9.73361 47.7551 10.8949 42.8441 12.0223C37.9331 13.1498 32.9883 14.3195 27.9887 13.1835C27.7691 13.6649 27.5664 14.1421 27.3257 14.6235C33.9666 12.7908 40.6624 11.1764 47.413 9.78006L46.6825 8.51325C37.7726 11.8914 27.8535 9.82651 18.8128 12.8288C18.0569 13.0822 16.8661 14.387 18.4623 14.3026L34.1411 13.5087C34.6521 13.4791 36.8901 12.8246 35.7795 12.0561C33.2459 10.3079 29.7284 11.2749 26.9119 11.6338L14.8772 13.192C13.5429 13.3651 12.5801 14.9697 14.4972 14.7206L14.5056 14.7375Z" fill="#980C0C"/><path d="M5.66754 29.8084L10.625 30.463C11.3893 30.5643 13.9525 29.4748 12.314 28.9639C9.79001 28.1742 7.2208 27.5368 4.62031 27.0552L3.2226 28.5923L5.92512 28.5332C6.38962 28.5332 8.73321 27.7647 7.56353 27.0806C6.65142 26.5485 5.42262 26.747 4.54008 27.2917C3.25216 28.094 3.31972 29.3355 3.77577 30.6445L6.53741 29.9056C5.97439 28.4501 5.41981 26.9919 4.87367 25.5309C4.51897 24.5934 1.95157 25.2775 2.11204 26.2698L2.69477 29.8253C2.84678 30.7712 5.55353 30.0998 5.4564 29.0821C5.31997 27.6367 4.98902 26.2163 4.47252 24.8594C4.1347 23.9642 1.82489 24.5596 1.70666 25.4C1.49975 26.9032 1.07748 29.0188 1.49552 30.5136C1.80378 31.6284 2.91434 31.5693 3.9109 31.5651C8.04913 31.544 12.1578 30.6868 16.2876 31.3117C17.1321 31.4384 19.5813 30.1505 17.9767 29.8127C14.7453 29.1317 11.6205 28.0181 8.68676 26.5021L7.05258 27.9547C13.1304 27.9547 19.2055 27.8322 25.2777 27.5873C25.5184 27.0721 25.7591 26.557 26.004 26.0418C21.2385 26.9104 16.363 26.9931 11.5709 26.2867L10.1858 27.8196L28.1407 27.7858C28.2547 27.2917 28.3729 26.8019 28.4912 26.3121C23.1434 27.4219 17.6493 27.643 12.2296 26.9666L11.195 28.4825L25.6029 25.8602C26.4474 25.7082 28.1365 24.2472 26.3292 24.3147C21.1648 24.5047 16.0047 24.6736 10.8488 24.2683C10.6081 24.7877 10.3674 25.3028 10.1225 25.818L27.1484 24.3189C28.5038 24.1965 29.4455 22.6299 27.5242 22.7903L10.5025 24.2894C9.55241 24.3738 8.02802 25.6998 9.77621 25.8349C14.9321 26.2572 20.0922 26.0714 25.2524 25.8813L25.9787 24.3316L11.5962 26.9539C11.1021 27.0426 9.02035 28.2756 10.5616 28.4698C16.6714 29.2262 22.8643 28.9636 28.8881 27.6929C29.7918 27.5028 30.7419 26.2149 29.2386 26.2192L11.2837 26.2529C10.6208 26.2529 8.32783 27.5493 9.90289 27.7858C15.1284 28.5717 20.4472 28.4989 25.6493 27.5704C26.0716 27.4944 27.0723 27.2706 27.1737 26.7259C27.275 26.1811 26.8992 25.9911 26.3756 26.0122C20.3034 26.2656 14.2283 26.3881 8.15048 26.3796C7.72821 26.3796 5.31283 27.2242 6.5163 27.828C9.61044 29.4223 12.9058 30.5913 16.3129 31.3033L18.002 29.8042C14.9617 29.3439 11.9551 29.5297 8.90212 29.762C7.96046 29.838 4.8779 30.463 4.29517 29.9225C4.05869 29.6986 4.23605 27.8111 4.24027 27.7604C4.27613 26.8515 4.36071 25.9451 4.49363 25.0452L1.72777 25.59C2.24527 26.9468 2.57763 28.3671 2.71588 29.8127L5.47752 29.0695L4.89479 25.5182L2.13315 26.2572C2.69617 27.7182 3.25075 29.1764 3.79689 30.6319C4.15582 31.5862 6.87523 30.8092 6.55853 29.8929C6.50558 29.5657 6.36997 29.2574 6.16453 28.9973C5.9591 28.7372 5.69065 28.5338 5.38462 28.4065L7.02302 26.9666L4.3205 27.0257C3.6871 27.0257 1.32239 28.2587 2.93546 28.5585C5.53725 29.0387 8.10787 29.6746 10.6334 30.463L12.3225 28.9639L7.36084 28.2883C6.76966 28.2123 5.81533 28.2883 5.40573 28.8119C5.09747 29.2046 4.98346 29.6986 5.66754 29.7915V29.8084Z" fill="#980C0C"/><path d="M34.3227 27.6803C38.8833 26.102 43.5479 24.842 48.2829 23.9094C49.5497 23.6561 49.9213 22.1697 48.2829 22.4568L29.5891 25.7125C29.1373 25.7928 28.0647 26.0461 28.0182 26.65C27.9718 27.2538 28.7825 27.3172 29.209 27.2411C39.5377 25.4549 49.8833 23.6434 59.9291 20.6157C61.1326 20.2568 61.6182 18.9604 59.9291 19.1631C52.8219 20.0086 45.6579 20.2769 38.5074 19.9655C37.7684 19.9359 35.5937 21.3209 37.1224 21.4983C46.8937 22.6469 56.6903 22.081 66.4785 21.4603C66.4785 20.9747 66.4785 20.4933 66.4785 20.0077C56.4285 22.6173 45.9773 21.6503 35.7669 20.6875L34.6901 22.2541C42.1552 22.5174 49.629 22.1345 57.0281 21.1098C57.1506 20.5989 57.2772 20.0921 57.4039 19.5812C48.0825 21.1983 38.6847 22.3385 29.247 22.9973C28.2885 23.0607 26.781 24.4288 28.5207 24.5428C35.8725 25.0148 43.2485 24.1375 50.2845 21.9543C51.0995 21.701 52.2058 20.4806 50.6392 20.4806L26.4094 20.4468C25.8393 20.4468 24.0531 20.8987 24.5894 21.7728C25.7971 23.7405 29.3991 23.8841 31.4091 24.2093C34.2661 24.6769 37.1539 24.9324 40.0487 24.9736C46.1167 25.0479 52.1612 24.2065 57.9782 22.4779C58.7974 22.2373 59.8911 20.9873 58.3287 21.0042L43.866 21.1605C41.3577 21.1858 36.4256 20.3455 34.8886 23.0776C34.7408 23.3394 34.7492 23.6476 35.0743 23.7743C43.1558 26.9054 52.1117 26.9264 60.2078 23.8334C60.4443 23.7448 61.2466 23.2929 61.0523 22.896L55.8584 12.808C55.3939 11.9086 52.721 12.6686 53.0968 13.5512L57.4842 23.9263C57.9064 24.8722 60.3218 24.1881 60.25 23.1874C59.9347 18.9422 59.6208 14.6983 59.3084 10.456L57.0788 11.5792C58.0331 11.7608 58.5821 16.2917 58.7679 17.0687C59.2661 19.0871 59.7616 21.107 60.2542 23.1282C60.4823 24.0446 62.9652 23.3985 63.0201 22.5835C63.2617 18.8342 63.167 15.0709 62.7372 11.3385L59.9755 12.0775C61.0823 15.006 61.7372 18.0857 61.918 21.2111C61.9687 22.1148 64.7007 21.511 64.6796 20.4722L64.5276 12.7066L61.766 13.4456C63.1226 16.1633 63.8554 19.1496 63.9111 22.1866L66.6727 21.4476C66.4531 17.8189 66.2322 14.193 66.0098 10.57L63.2481 11.3132C64.2582 14.288 64.9282 17.3677 65.2455 20.4933C65.3384 21.4223 68.0493 20.7804 68.0071 19.7543L67.6144 10.4391L64.8739 11.178C66.7656 14.8687 67.1457 18.952 67.4455 23.0269L70.2113 22.2879C69.8099 18.8139 69.6532 15.3159 69.7426 11.8199L66.9852 12.3773C67.922 15.5875 68.5234 18.8861 68.7799 22.2204C68.8474 23.1029 71.5373 22.5117 71.5415 21.6756C71.5659 18.2379 71.3415 14.8029 70.8701 11.3976L68.1084 12.1366C68.6461 15.5767 69.1838 19.0196 69.7215 22.4653L72.4747 21.739C71.968 18.6874 71.4599 15.6358 70.9503 12.5842L68.1887 13.3232L70.3 23.9981C70.49 24.9651 73.1377 24.2557 73.0659 23.2591C72.8253 20.0294 72.1623 16.8451 71.0939 13.7877L68.3322 14.5266C69.0985 16.2705 69.5913 18.1221 69.7933 20.0161L72.5592 19.2729C72.1908 16.099 71.4902 12.9726 70.4689 9.94501C70.1438 8.98223 67.3948 9.76766 67.7031 10.6882C68.7344 13.7142 69.4421 16.841 69.8144 20.0161C69.9242 20.9324 72.6901 20.3159 72.5803 19.2729C72.3798 17.3781 71.8855 15.5261 71.115 13.7834C70.6927 12.8587 68.0324 13.6019 68.3534 14.5224C69.4224 17.5795 70.084 20.764 70.3211 23.9939L73.087 23.2549C72.3804 19.6938 71.6766 16.1355 70.9756 12.58C70.7898 11.6341 68.0451 12.3097 68.214 13.3189C68.7207 16.3733 69.2289 19.4264 69.7384 22.4779C69.8946 23.4112 72.6605 22.7566 72.5 21.7348C71.9539 18.2975 71.4106 14.8518 70.8701 11.3976C70.7265 10.4644 67.9649 11.1105 68.1084 12.1366C68.5649 15.406 68.7878 18.7039 68.7756 22.005L71.5373 21.4603C71.2826 18.1258 70.6811 14.827 69.7426 11.6172C69.4808 10.722 67.0021 11.33 66.981 12.1619C66.8682 15.7834 67.0093 19.4083 67.4033 23.01C67.5088 23.9348 70.2451 23.3056 70.1691 22.271C69.8651 18.1961 69.4893 14.1128 67.5933 10.4222C67.1246 9.50585 64.7894 10.1393 64.8316 11.1611L65.2243 20.4764L67.986 19.7374C67.6751 16.6113 67.0122 13.5304 66.0098 10.5531C65.6804 9.57763 63.189 10.3124 63.2481 11.2963C63.4677 14.9193 63.6887 18.5438 63.9111 22.1697C63.966 23.0733 66.6938 22.4695 66.6727 21.4307C66.6191 18.3935 65.8861 15.4068 64.5276 12.6898C64.0631 11.7523 61.7449 12.4153 61.766 13.4287L61.918 21.2111L64.6796 20.4722C64.4984 17.3496 63.8434 14.2726 62.7372 11.3469C62.3825 10.3968 59.8615 11.0894 59.9755 12.0859C60.3948 15.6876 60.4895 19.3196 60.2585 22.9382L63.0201 22.3766L61.0946 14.5351C60.7103 12.9727 60.6723 10.4222 58.7636 10.0506C58.088 9.92389 56.4665 10.2364 56.5341 11.1738C56.8522 15.4134 57.166 19.6558 57.4757 23.901L60.2289 23.1789C58.7622 19.7191 57.2984 16.2593 55.8373 12.7995L53.0757 13.5427L58.278 23.6434L59.1226 22.706C52.0592 25.3136 44.2816 25.2204 37.2828 22.4442C37.3462 22.6764 37.4053 22.9087 37.4686 23.1409C37.9204 22.3344 41.1128 22.7482 42.0418 22.7186L46.9866 22.6637L57.273 22.5624C57.3913 22.0683 57.5053 21.5785 57.6235 21.0887C52.5016 22.6196 47.1849 23.4004 41.8391 23.4069C39.1536 23.4055 36.4719 23.2051 33.816 22.8073C31.9453 22.5244 28.2674 22.4526 27.1821 20.696L25.3622 22.0177L49.5877 22.0515L49.9424 20.5777C43.3719 22.6149 36.4827 23.4265 29.6186 22.972C29.3779 23.4872 29.1372 24.0066 28.8923 24.5217C38.3228 23.8637 47.7136 22.7249 57.0281 21.1098C58.3203 20.886 59.3421 19.3109 57.4039 19.5812C50.2371 20.5741 42.9976 20.9443 35.7669 20.6875C34.7365 20.6537 32.811 22.0768 34.6901 22.2541C45.4199 23.2634 56.2976 24.1248 66.8543 21.3843C68.1211 21.0507 68.5012 19.8261 66.8543 19.9274C57.5222 20.5228 48.1351 21.0887 38.8156 19.995L37.4264 21.5321C44.8099 21.8486 52.2069 21.5662 59.5448 20.6875C59.5448 20.2019 59.5448 19.7163 59.5448 19.2307C49.7397 22.1866 39.656 23.9643 29.5637 25.7083L29.1837 27.2369L47.8818 23.9812C47.8818 23.4956 47.8818 23.01 47.8818 22.5244C42.8992 23.5215 37.9919 24.8633 33.1953 26.5402C32.773 26.6837 32.1227 27.1609 32.4605 27.6465C32.7983 28.1321 33.8793 27.8154 34.2889 27.6761L34.3227 27.6803Z" fill="#980C0C"/><path d="M51.7835 22.4229C53.4664 23.3271 55.3652 23.7522 57.273 23.6517C57.1674 23.2294 57.0577 22.8536 56.9521 22.4567C55.4868 23.3561 52.6154 23.0141 50.9432 23.1281L45.0695 23.5504C44.1109 23.6179 42.6076 25.117 44.3431 25.0959L59.2577 24.9185L59.984 23.3688C55.0834 23.8342 50.2267 24.6813 45.4579 25.9024C44.8541 26.0586 43.5366 27.0721 44.7992 27.3423C50.7701 28.6091 56.7916 27.5577 62.5345 25.7968C63.417 25.5308 64.4094 24.4456 62.8892 24.3231C60.039 24.0993 57.1757 24.0993 54.3256 24.3231C53.9033 24.3569 51.9482 25.307 53.0377 25.7546C55.2884 26.6878 58.0542 25.8053 60.3556 25.459C63.4522 24.9917 66.5489 24.4934 69.6455 23.9642C70.1522 23.8755 72.2171 22.6214 70.6801 22.4482C67.4511 22.0795 64.2334 21.622 61.027 21.0759L59.9882 22.5876C63.1935 22.0033 66.4907 22.1709 69.6202 23.0774C69.9664 22.5707 70.3127 22.0682 70.6547 21.5615C68.7666 21.8109 66.8473 21.6671 65.0174 21.1392L63.9829 22.6509C65.5814 22.3273 67.243 22.5832 68.6701 23.373C68.8516 22.9507 69.0374 22.5285 69.2232 22.1358C66.2251 23.1788 62.7498 23.259 59.6208 23.677L49.9424 24.9819C49.5202 25.041 47.5693 25.9024 48.6545 26.4133C50.7685 27.4047 53.0419 28.0123 55.3686 28.208C56.4285 28.3051 58.2991 26.8145 56.4411 26.6414C54.5014 26.4542 52.61 25.9252 50.8545 25.079L49.5666 26.5105L60.7314 25.0072C63.9406 24.5849 67.2386 24.34 70.3127 23.2717C70.735 23.1196 71.609 22.4271 70.8659 22.0344C68.861 20.9842 66.5552 20.6575 64.3376 21.1096C63.7591 21.2194 61.8251 22.2118 63.303 22.6256C65.5655 23.2524 67.9324 23.4091 70.2578 23.0859C70.8827 23.0056 72.7365 21.9795 71.2923 21.5741C67.7315 20.5672 63.9873 20.3895 60.3471 21.0548C59.832 21.1477 57.7797 22.3216 59.3126 22.5707C62.5162 23.1337 65.7353 23.5912 68.9699 23.9431L70.0044 22.4313C67.6566 22.8339 65.306 23.2182 62.9525 23.5841L59.6039 24.0951C58.3625 24.2767 56.4158 24.9058 55.225 24.416L53.9371 25.8475C56.5539 25.6406 59.1829 25.6406 61.7997 25.8475L62.1544 24.3738C57.0365 25.9362 51.7751 26.9454 46.4629 25.8011C46.2434 26.2824 46.0196 26.7596 45.8 27.241C50.3233 26.1046 54.929 25.3252 59.5744 24.9101C60.5076 24.8214 62.0489 23.3392 60.3007 23.3603L45.3862 23.5377C45.1455 24.0571 44.9005 24.5723 44.6598 25.0874L52.7378 24.4878C54.7943 24.3442 56.8339 24.3653 58.6496 23.259C59.3801 22.8114 59.2703 22.026 58.3287 22.0682C56.812 22.1535 55.3023 21.8064 53.9751 21.0674C53.1812 20.6452 50.6392 21.7979 51.7751 22.406L51.7835 22.4229Z" fill="#980C0C"/><path d="M59.0508 24.3825C62.7263 25.6044 66.519 26.4408 70.3676 26.8781C70.963 26.9457 71.9131 26.8781 72.3227 26.3545C72.6563 25.9322 72.7154 25.51 72.0609 25.3791C68.8666 24.7301 65.6053 24.472 62.3487 24.6105C61.8335 24.6105 60.7441 24.7795 60.5245 25.3622C60.3049 25.9449 60.7018 26.1772 61.2761 26.1772L69.6708 26.1392L70.3971 24.5894C67.2681 24.7795 64.1433 25.0328 61.0312 25.3749C58.9199 25.6029 56.4116 25.51 54.9632 27.2751C54.6507 27.6593 55.0603 27.9718 55.4066 28.0563C58.1556 28.7192 60.9341 28.4236 63.6999 28.0098C66.7445 27.5538 69.447 25.8562 72.5676 26.1518C73.1714 26.2067 74.8858 25.6789 74.3876 24.8259C73.4789 23.2878 72.2202 21.9858 70.7138 21.0255C70.224 20.7046 67.7917 21.2451 68.2309 22.0643C68.7629 23.0608 69.2992 24.0532 69.8313 25.0455L71.7484 23.8927C69.7637 23.8547 67.7875 23.7449 65.8071 23.5549C65.4144 23.5169 63.2017 24.2558 63.9871 24.8808C65.2707 25.9292 66.832 26.5807 68.48 26.7557L69.8651 25.2228C66.9092 25.1511 64.1264 25.2524 61.3268 26.2489C60.4443 26.5657 60.1529 27.5833 61.3268 27.6002L72.8885 27.7733C73.3488 27.7733 74.7718 27.5073 74.8056 26.8148C74.8994 26.3476 74.8325 25.8625 74.6156 25.4382C74.2482 24.4754 71.5119 25.2904 71.854 26.1772L72.044 27.1611L73.9611 26.2067L62.4036 26.0336C62.4036 26.4854 62.4036 26.933 62.4036 27.3849C64.4474 26.6543 66.6263 26.7388 68.7714 26.7895C69.4893 26.7895 71.6977 25.4255 70.1564 25.2566C68.8403 25.1304 67.5904 24.6193 66.5629 23.7871L64.7429 25.113C66.7192 25.3031 68.6954 25.4129 70.6843 25.4509C71.0432 25.4509 72.9983 25.0286 72.6014 24.2981C72.0693 23.3057 71.5373 22.3092 71.001 21.3168L68.5265 22.3767C69.8932 23.2833 71.0261 24.5001 71.8328 25.928L73.657 24.6063C71.1234 24.3656 68.991 24.9906 66.6432 25.8731C63.8224 26.9288 60.0347 27.2835 57.1083 26.5741L57.5306 27.3553C57.9022 26.895 59.6884 27.0301 60.2838 26.9626C61.3648 26.8443 62.4416 26.7346 63.5226 26.6332C65.6818 26.4305 67.8438 26.2672 70.0086 26.1434C70.9714 26.0843 72.4662 24.5852 70.7349 24.5937L62.3402 24.6317C61.9813 25.1511 61.6266 25.6747 61.2677 26.1983C64.3112 26.0636 67.3597 26.299 70.3465 26.8992L72.0355 25.4002C68.3608 24.9994 64.7379 24.2168 61.2254 23.065C60.9008 22.9604 60.557 22.9293 60.2189 22.9738C59.8808 23.0184 59.5568 23.1375 59.2703 23.3226C58.9874 23.5253 58.3582 24.1672 59.0254 24.4036L59.0508 24.3825Z" fill="#980C0C"/><path d="M19.9191 27.8193C24.4283 28.0925 28.9512 28.0403 33.4528 27.6631C33.7653 27.6335 35.6444 26.9495 34.9223 26.3583C32.1396 24.0654 27.9676 24.7495 24.657 25.1633C20.3273 25.7233 16.0809 26.8036 12.01 28.381C11.4737 28.5879 10.6292 29.5718 11.7102 29.6984C16.5168 30.2812 21.3871 30.0528 26.118 29.0228C26.705 28.8961 28.0605 27.756 26.7768 27.5829C22.0304 26.8988 17.2028 27.0172 12.4956 27.9334C11.9002 28.0516 9.9958 29.0059 11.4611 29.4493C15.8549 30.7637 20.4901 31.0612 25.0159 30.3192C25.8604 30.1798 27.5495 28.7357 25.7422 28.7695C20.2341 28.8722 14.7422 29.4016 9.31595 30.353C8.74588 30.4501 6.78234 31.4846 8.28139 31.8647C10.9495 32.5374 13.7078 32.7797 16.4523 32.5825C17.4151 32.5192 18.9057 31.0033 17.1786 31.0328L9.9029 31.1722L9.1766 32.7177C20.2528 31.9032 31.0879 29.0771 41.1508 24.3779C41.9447 24.0105 42.3923 23.035 41.1508 23.0266C34.4558 23.0004 27.8538 24.594 21.908 27.6716C21.3379 27.9629 21.131 28.6934 21.908 28.8328C26.0381 29.5698 30.2774 29.4259 34.348 28.4105C35.2728 28.1825 36.1849 27.0466 34.6985 26.9368C29.834 26.5652 24.9863 27.452 20.1683 28.098L4.96658 30.1418C4.38385 30.2221 2.43296 31.3242 3.93202 31.6578C9.12199 32.8316 14.4498 33.2793 19.7629 32.9879C25.3157 32.6712 30.8601 31.6958 36.3707 30.9652L53.6457 28.6723L61.918 27.5491C63.8393 27.2915 65.7395 27.1691 67.0781 25.6235C67.1281 25.5712 67.1639 25.5069 67.1819 25.4367C67.1998 25.3666 67.1995 25.293 67.1808 25.223C67.1622 25.153 67.1258 25.089 67.0753 25.0372C67.0248 24.9853 66.9618 24.9473 66.8923 24.9268C62.3097 23.3659 57.4364 22.848 52.6281 23.4109C51.2853 23.5629 50.3309 25.1591 52.248 24.9395L60.837 23.9598C60.7187 23.5375 60.6005 23.073 60.478 22.6254C54.4143 25.2266 47.4806 23.5206 41.1212 24.6988C40.2387 24.8635 38.5876 26.0669 40.3949 26.2485L49.2204 27.1353C49.461 26.6159 49.706 26.1007 49.9467 25.5855C45.3862 25.8305 40.8214 25.8685 36.2567 25.7291C36.016 26.2443 35.7753 26.7637 35.5304 27.2788C39.4721 26.9015 43.3795 26.2253 47.2188 25.2562L46.8514 23.8754L33.1741 27.5829C32.3296 27.8151 31.2782 29.0735 32.8194 29.0566C36.1812 29.0414 39.5217 28.5233 42.7301 27.5195C43.8998 27.1522 44.4192 25.7376 42.7301 26.0627C38.4893 26.8727 34.3941 28.3146 30.5814 30.3403C29.7664 30.7626 30.0282 31.5269 30.9023 31.5311C35.0968 31.5807 39.2117 30.3844 42.7259 28.0938C43.7351 27.4393 42.9834 26.827 42.0587 26.9199C36.0904 27.487 30.2266 28.8606 24.6274 31.0033C24.0742 31.2144 23.255 32.1729 24.3276 32.3207C27.7541 32.8263 31.2488 32.0975 34.1876 30.2643C35.1715 29.652 34.4621 28.9215 33.5162 29.0862L19.6489 31.5564C18.3821 31.7844 17.3137 33.2751 19.273 33.085C22.2823 32.7907 25.2677 32.2898 28.2083 31.586C28.7741 31.4509 30.1634 30.3192 28.8712 30.1418L24.3614 29.5549L22.9763 31.0919C25.3687 31.0105 27.7474 30.6965 30.0789 30.1545C30.4421 30.07 31.9833 29.1706 30.9952 28.7948C29.1219 28.0728 27.144 27.6593 25.1384 27.5702C24.8934 28.0854 24.6528 28.6005 24.4121 29.1157C31.788 28.2082 39.0884 26.7673 46.256 24.8043C46.843 24.6439 48.1942 23.6178 46.919 23.3644C44.4382 22.8621 41.8592 23.2937 39.6771 24.5763C38.8325 25.0535 39.1661 25.6869 39.998 25.7671C42.7315 26.0486 45.4692 26.2119 48.2111 26.257C48.6545 26.257 51.053 25.4124 49.8495 24.8043C47.4679 23.6389 43.0299 23.0013 41.1212 25.4335C38.8874 28.2754 45.9098 28.3894 47.1639 28.3303C47.8226 28.3303 50.1198 27.3 48.5489 26.7975C46.8991 26.2918 45.1664 26.1125 43.4479 26.2696C42.8399 26.3161 40.9439 27.5618 42.4134 27.7856C44.512 28.1066 46.653 28.0177 48.7179 27.5238C49.3344 27.3802 50.635 26.3414 49.3808 26.0838L46.294 25.442C46.0702 25.9234 45.8506 26.4005 45.6311 26.8819C52.6529 25.4642 59.5892 23.6511 66.4067 21.4515C68.0155 20.9321 67.6735 19.5387 66.0351 20.0707C59.2176 22.2703 52.2813 24.0833 45.2595 25.5011C44.6303 25.6278 43.355 26.6834 44.6007 26.941L47.7002 27.5829L48.3589 26.1429C46.9732 26.4592 45.5397 26.5065 44.1362 26.2823L43.1017 27.7982C44.3888 27.7154 45.6798 27.8847 46.9021 28.2965L48.2871 26.7637C47.3708 26.789 45.0441 27.0381 44.3432 26.4047C43.8575 26.4047 43.8829 26.2063 44.4149 25.8516C44.6627 25.2885 45.0849 25.1478 45.6817 25.4293C46.3802 25.5572 47.0551 25.7907 47.6833 26.1218L49.3217 24.6692C46.5727 24.6185 43.8322 24.4539 41.1086 24.1794L41.4253 25.3744C42.589 24.7155 43.9603 24.5252 45.2595 24.8423L45.8718 23.4235C38.9437 25.3194 31.8874 26.7109 24.7583 27.5871C23.8504 27.7011 22.2585 29.0524 24.032 29.1368C25.6531 29.2101 27.2516 29.5452 28.7657 30.1292L29.682 28.7695C27.8238 29.2067 25.9271 29.4598 24.0194 29.5253C23.4915 29.5253 22.6005 29.6731 22.288 30.1798C22.0474 30.5683 22.0431 30.9779 22.6385 31.0581L27.1948 31.6662L27.8536 30.2221C25.1591 30.8638 22.4232 31.3167 19.6658 31.5775C19.5433 32.0885 19.4166 32.5994 19.2899 33.1062L33.1572 30.6401L32.4901 29.4662C30.5687 30.682 28.273 31.1634 26.0251 30.8217L25.7211 32.1392C30.8502 30.1926 36.2198 28.951 41.6829 28.4485C41.4591 28.06 41.2395 27.6673 41.0157 27.2746C38.3441 29.061 35.197 30.0026 31.9833 29.9771C32.0931 30.3741 32.1987 30.771 32.3043 31.1722C35.4609 29.489 38.8511 28.2864 42.3627 27.604C42.3627 27.1184 42.3627 26.6328 42.3627 26.1514C39.6304 27.0192 36.784 27.4746 33.9173 27.5026L33.5626 28.9806L47.2399 25.2688C48.8952 24.8212 48.5405 23.4658 46.8725 23.888C43.2728 24.7886 39.6095 25.4125 35.9147 25.7545C34.9814 25.8389 33.4275 27.2451 35.1884 27.3C39.9853 27.4478 44.7781 27.376 49.5751 27.1184C50.5547 27.0677 52.02 25.746 50.3014 25.5729L41.4717 24.6861L40.7454 26.2358C47.6917 24.9437 54.8999 26.6243 61.5759 23.7656C62.7583 23.2588 62.4923 22.2876 61.217 22.4354L52.6281 23.4109L52.248 24.9395C56.4414 24.452 60.6907 24.9034 64.6881 26.2612C64.6247 26.0289 64.5656 25.7967 64.5023 25.5644C63.966 26.1809 61.521 26.1218 60.7905 26.2189L57.0323 26.7172L49.5202 27.7138L34.8928 29.6562C30.2478 30.2727 25.5775 31.0793 20.8946 31.3875C15.7788 31.6958 10.6453 31.2692 5.65065 30.1207L4.6161 31.6324L19.0661 29.69C23.88 29.0397 28.7783 28.0938 33.6429 28.4654C33.7569 27.9714 33.8751 27.4815 33.9933 26.9917C30.5958 27.8265 27.0603 27.9345 23.6182 27.3084V28.4654C28.7159 25.8668 34.365 24.5356 40.0867 24.5848C40.0867 24.1372 40.0867 23.6853 40.0867 23.2377C30.4791 27.7252 20.1326 30.4198 9.55664 31.1891C8.60231 31.2608 7.09903 32.7683 8.83034 32.7388L16.106 32.5994C16.3509 32.0843 16.5916 31.5691 16.8323 31.0539C14.5258 31.189 12.2125 30.9567 9.97891 30.3656L8.94435 31.8816C14.1399 30.9618 19.3987 30.4451 24.6739 30.3361C24.9146 29.8209 25.1553 29.3057 25.4002 28.7906C21.3073 29.4487 17.1181 29.1598 13.1544 27.946C12.8081 28.4528 12.4661 28.9595 12.1198 29.462C16.3906 28.6099 20.7743 28.4814 25.0877 29.0819L25.7464 27.642C21.6917 28.5127 17.5202 28.7011 13.4035 28.1994C13.3022 28.6217 13.2008 29.0777 13.1037 29.5169C16.2626 28.2957 19.5423 27.4138 22.8877 26.8861C25.6958 26.4639 29.9564 25.4589 32.3592 27.4393L33.8287 26.1345C29.5596 26.4842 25.2707 26.5237 20.9959 26.2527C19.936 26.1852 18.04 27.7011 19.9191 27.8193Z" fill="#980C0C"/><path d="M18.2174 16.0426C20.6134 16.2504 23.0272 16.0288 25.3453 15.3881C25.9111 15.236 27.3004 14.1635 26.0082 13.9481L12.3056 11.6721C11.8411 12.1844 11.3794 12.6968 10.9206 13.2092L21.6251 14.1846L22.7019 12.618C18.1182 12.8068 13.5267 12.636 8.96969 12.107C8.37429 12.031 7.4453 12.107 7.02303 12.6222C6.69366 13.0445 6.62188 13.4667 7.28484 13.6019L14.6788 14.894L16.0638 13.3612C12.821 13.1253 9.6213 12.4783 6.54165 11.4356L5.27484 12.8671C22.7286 11.7946 40.1824 11.0767 57.6362 10.7135C57.6362 10.2617 57.6362 9.81411 57.6362 9.36228C50.4281 12.7404 42.0122 11.2245 34.6014 14.1593C33.7569 14.4928 33.3979 15.5105 34.6014 15.5105C39.2925 15.5128 43.9466 14.6806 48.3463 13.0529C49.5708 12.6011 49.233 11.5539 47.9873 11.7185L34.1116 13.5554C34.2298 13.9777 34.3481 14.4422 34.4705 14.8856C38.7813 13.2948 43.2507 12.1722 47.8015 11.537C48.6841 11.4145 50.3352 10.0421 48.5236 9.99146C43.1181 9.83916 37.7086 10.0805 32.3381 10.7135C30.9995 10.8698 30.0282 12.4026 31.958 12.2422C32.773 12.1788 41.2226 11.3554 41.1466 12.069L42.3458 11.2245C38.1236 12.3365 33.7977 13.0087 29.4371 13.2303C29.3188 13.7243 29.2006 14.2141 29.0866 14.7082C33.6218 13.3485 38.2006 12.1436 42.823 11.0936C44.5121 10.7135 44.1236 9.33272 42.4514 9.71277C37.8318 10.76 33.253 11.9635 28.715 13.3232C27.9169 13.5639 26.7937 14.8771 28.3603 14.7969C33.2089 14.5651 38.0204 13.8307 42.7174 12.6053C43.0721 12.5124 43.866 12.2084 43.9167 11.7608C44.0729 10.2026 42.1938 10.0168 41.0072 10.0717C38.1189 10.1899 35.2222 10.5277 32.3423 10.7558L31.9369 12.2422C37.0776 11.6365 42.2558 11.4079 47.4299 11.5581C47.6706 11.0429 47.9156 10.5277 48.1562 10.0084C43.1024 10.721 38.1402 11.9768 33.3557 13.7539C32.1354 14.2057 32.469 15.2487 33.7147 15.084L47.5904 13.2472C47.4722 12.8249 47.3539 12.3604 47.2315 11.917C43.5245 13.2686 39.6069 13.9506 35.6613 13.9312C35.6613 14.3831 35.6613 14.8349 35.6613 15.2825C43.0552 12.3519 51.3993 13.9101 58.7003 10.4855C59.4731 10.1224 59.9671 9.10892 58.7003 9.13426C40.9932 9.51711 23.3015 10.2519 5.62532 11.3385C5.20305 11.3638 3.23528 12.3942 4.35852 12.77C7.80051 13.94 11.378 14.6652 15.0039 14.9278C15.7429 14.9785 17.9302 13.661 16.389 13.395L8.96969 12.0986L7.28062 13.6019C12.044 14.1674 16.8444 14.3594 21.6378 14.1761C22.6005 14.1381 24.6443 12.7869 22.7145 12.6095L12.0058 11.6341C11.2499 11.5623 9.1006 12.9009 10.625 13.1669L24.3361 15.4387C24.5556 14.9573 24.7583 14.4802 24.999 13.9988C23.1481 14.4956 21.2226 14.6544 19.3153 14.4675C18.2512 14.3704 16.3847 15.8652 18.2385 16.0341L18.2174 16.0426Z" fill="#980C0C"/><path d="M40.7454 11.5752C44.3544 11.4119 47.955 11.1304 51.5471 10.7306C51.6695 10.2197 51.7962 9.71296 51.9229 9.20202C46.3517 10.0679 40.7341 10.6037 35.0997 10.8066C34.4874 10.8066 32.0931 12.0734 33.7189 12.3395C36.4298 12.8166 39.2379 12.6646 41.9784 12.6942L50.8461 12.7871C51.8849 12.7871 53.7809 11.2416 51.9187 11.2205L43.8069 11.136C41.0495 11.1064 38.1442 11.3176 35.4206 10.8404L34.0482 12.3564C39.9154 12.1534 45.7655 11.6049 51.5682 10.7137C52.873 10.511 53.8822 8.96132 51.944 9.18512C48.5855 9.57361 45.2187 9.84809 41.8433 10.0085C41.3239 10.0339 40.2387 10.1775 40.0191 10.7644C39.7995 11.3514 40.188 11.6089 40.7665 11.5752H40.7454Z" fill="#980C0C"/><path d="M45.3862 8.33636L50.2845 7.81697C50.4112 7.30603 50.5336 6.79931 50.6603 6.28836L34.1918 8.34059C33.2797 8.45038 31.6877 9.78897 33.4655 9.88609C37.021 10.0831 40.5793 10.138 44.1405 10.0508C45.1412 10.0254 47.0963 8.49683 45.213 8.48416C40.3316 8.44615 35.5684 9.3667 30.801 10.3379C29.5004 10.6039 29.1668 11.9383 30.801 11.7947C39.696 11.015 48.6414 10.9994 57.5391 11.7483L58.6158 10.1817C54.3159 9.94854 50.0337 9.46067 45.7915 8.72063L44.4107 10.2535L60.1909 11.5203C60.4316 11.0009 60.6723 10.4857 60.9172 9.97055C56.3609 10.3928 51.8089 10.7264 47.4046 9.31603L46.7459 10.756C50.9191 9.35417 55.3995 9.13782 59.6884 10.131C60.0347 9.62428 60.3809 9.12178 60.723 8.61506C58.5229 8.75019 56.3145 8.80086 54.1102 8.76286C52.6196 8.73752 49.385 9.18513 48.6207 7.54672L47.0499 8.68263C51.8609 8.33918 56.6762 8.14071 61.4957 8.08723L62.5725 6.52061L47.1259 7.01044L46.3996 8.56017C52.8292 8.07409 59.2854 8.0501 65.7184 8.48838C66.1829 8.52216 68.5645 7.5045 67.3568 7.04L64.9583 6.11101C64.3883 5.89143 62.5092 6.06034 62.4754 6.95555C62.3577 9.46743 62.7218 11.9786 63.5479 14.3537L66.3138 13.6105L64.4854 8.56861C64.1602 7.6734 61.8166 8.2688 61.7237 9.10912C61.5613 10.5698 61.5021 12.0401 61.5464 13.5092L64.0293 12.4577C63.4297 12.0903 60.6512 10.0677 61.766 9.01199C61.8546 8.92754 63.3326 12.8884 63.5522 13.5134C63.8858 14.4593 66.4616 13.7667 66.3138 12.7702C66.0984 11.3091 65.8915 9.84386 65.672 8.37859L63.0074 9.28647C63.4902 9.98182 63.8952 10.7281 64.2151 11.5118C64.5867 12.4155 66.8079 11.799 66.9768 10.9671C67.146 10.1336 67.1859 9.27909 67.095 8.43349L64.4516 9.36248L65.5453 10.9755C66.0013 11.6427 68.1211 11.0389 68.2098 10.2619C68.3055 9.40048 68.4054 8.53905 68.5096 7.67762L65.7437 8.22235C65.7421 9.54723 65.8937 10.8679 66.1956 12.1579C66.4194 13.1207 68.8136 12.3817 68.9572 11.6132C69.1571 10.5716 69.3527 9.52857 69.5442 8.48416L66.7825 9.02889L67.2766 11.022C67.5046 11.9383 69.9875 11.2965 70.0382 10.4773L70.2029 7.84231L67.4413 8.38704C67.7767 9.67224 67.9679 10.9908 68.0113 12.3184C68.0409 13.1629 70.7687 12.6308 70.773 11.7736L70.7856 7.30181L68.0198 7.84653C68.4983 10.8475 69.1149 13.8216 69.8693 16.7691C70.1227 17.7572 72.6732 17.0013 72.6309 16.0259C72.5358 13.6285 72.2105 11.2458 71.6597 8.91065C71.4401 7.95632 68.6658 8.66573 68.8981 9.64962C69.4492 11.9862 69.7744 14.3703 69.8693 16.7691L72.6436 16.0428C71.8892 13.0841 71.2698 10.1043 70.7856 7.10334C70.6421 6.19546 68.024 6.82886 68.0198 7.64807C68.0198 9.1429 68.0198 10.642 68.0198 12.1368L70.7856 11.5921C70.7457 10.2642 70.5545 8.94523 70.2156 7.66074C69.9791 6.74863 67.5046 7.38626 67.4539 8.20546L67.2892 10.8404L70.0509 10.2999L69.5568 8.30258C69.3204 7.34403 66.943 8.07456 66.7952 8.84731C66.6009 9.89031 66.4025 10.9333 66.2082 11.9763L68.9699 11.4316C68.6692 10.1429 68.519 8.82361 68.5223 7.50027C68.5223 6.63462 65.8535 7.20891 65.7564 8.04078C65.6593 8.87265 65.5579 9.76363 65.4608 10.6251L68.1253 9.91143L66.9852 8.28147C66.4827 7.5425 64.232 8.28147 64.3207 9.18935C64.3944 9.89492 64.3545 10.6078 64.2025 11.3007L66.9852 10.7729C66.6121 9.87021 66.142 9.01078 65.5833 8.20968C65.0892 7.49605 62.7836 8.20968 62.9188 9.11756C63.1299 10.5814 63.3438 12.0467 63.5606 13.5134L66.3222 12.7702C65.786 11.2458 65.4059 8.50105 63.9871 7.50449C63.0201 6.83309 61.6393 7.08223 60.6638 7.59739C57.3786 9.37515 59.5617 12.3944 61.8377 13.7963C62.5218 14.2186 64.3418 13.6865 64.3165 12.7575C64.2826 11.4192 64.3419 10.0802 64.4938 8.75019L61.7237 9.28647L63.5479 14.3537C63.8984 15.3122 66.6347 14.5226 66.3138 13.6105C65.5094 11.3701 65.1411 8.99653 65.2286 6.61773L62.7499 7.46227L65.1483 8.38704L66.7867 6.93443C60.1199 6.48391 53.4293 6.51496 46.767 7.02733C45.8084 7.09912 44.3136 8.62773 46.0407 8.57284L61.4957 8.07033C62.0109 8.07033 63.1046 7.89721 63.3199 7.3187C63.5353 6.74019 63.1468 6.49949 62.5725 6.50372C57.5053 6.56284 52.4578 6.77397 47.4299 7.13712C47.1132 7.15823 45.5551 7.63117 45.8591 8.27302C46.7585 10.169 49.0092 10.169 50.8461 10.2492C54.013 10.3741 57.1843 10.3346 60.3471 10.131C60.989 10.093 62.8259 8.94443 61.3817 8.61928C56.4012 7.49333 51.2072 7.75625 46.3658 9.37937C45.7197 9.59473 44.4825 10.4308 45.7071 10.8235C50.5336 12.3564 55.5839 11.9637 60.5498 11.5034C61.4999 11.4147 63.0243 10.0972 61.2761 9.95788L45.4959 8.69107C44.7528 8.63195 42.5781 9.95788 44.1151 10.2239C48.5598 10.9992 53.0465 11.5096 57.5517 11.7525C58.5947 11.8074 60.5076 10.3421 58.6285 10.1859C49.4937 9.43007 40.311 9.45832 31.181 10.2704C31.181 10.7517 31.181 11.2374 31.181 11.723C35.4628 10.8489 39.7573 10.0339 44.1489 10.0339L45.2215 8.46727C41.6632 8.55735 38.1048 8.50246 34.5465 8.30258L33.8202 9.85231L50.2887 7.80008C51.6188 7.6354 52.5901 6.06456 50.6645 6.27147L45.7662 6.79086C44.4234 6.93443 43.4733 8.52639 45.3904 8.31947L45.3862 8.33636Z" fill="#980C0C"/></svg>