<svg width="105" height="76" viewBox="0 0 105 76" fill="none" xmlns="http://www.w3.org/2000/svg"><path d="M33.3038 50.4255C32.9205 49.9931 32.4456 49.6515 31.9138 49.4255C30.9317 49.0508 29.8842 48.8773 28.8338 48.9155H28.2438C27.5138 46.5655 26.8038 44.2655 26.2438 42.4855C26.5 42.4302 26.7616 42.4034 27.0238 42.4055C27.6566 42.4283 28.2758 42.5959 28.8338 42.8955C29.3038 43.1155 29.5438 43.3055 29.7338 43.3755C29.7888 43.4113 29.8531 43.4303 29.9188 43.4303C29.9844 43.4303 30.0487 43.4113 30.1038 43.3755C30.1738 43.3155 30.2338 43.2455 30.1738 43.0455C30.0178 42.6456 29.7506 42.2986 29.4038 42.0455C28.7341 41.5185 27.9233 41.2019 27.0738 41.1355C26.6521 41.1044 26.2281 41.1313 25.8138 41.2155C25.6263 40.6061 25.4026 40.0083 25.1438 39.4255C24.7938 38.7455 24.5938 38.6955 24.3738 38.7555C24.1538 38.8155 24.0638 38.9155 24.1438 39.7555C24.1438 40.0855 24.3238 40.7555 24.5438 41.7555C23.8713 42.1539 23.3089 42.7137 22.9073 43.3842C22.5057 44.0546 22.2776 44.8147 22.2438 45.5955C22.245 46.6496 22.5968 47.6734 23.2438 48.5055C23.5676 48.9423 23.9633 49.321 24.4138 49.6255C24.8765 49.9287 25.387 50.1518 25.9238 50.2855C26.3217 50.3775 26.7263 50.4377 27.1338 50.4655C27.8238 52.6555 28.5438 54.7955 29.1338 56.5155C28.7071 56.6465 28.2681 56.7336 27.8238 56.7755C27.1843 56.8168 26.5434 56.7214 25.9438 56.4955C25.4638 56.3255 25.1938 56.1655 24.9938 56.0955C24.7938 56.0255 24.6938 56.0255 24.6038 56.0955C24.5138 56.1655 24.4938 56.2455 24.6038 56.4655C24.7989 56.8801 25.112 57.2279 25.5038 57.4655C26.2306 57.9021 27.0661 58.124 27.9138 58.1055C28.502 58.0956 29.0866 58.0117 29.6538 57.8555C29.9339 58.641 30.268 59.4062 30.6538 60.1455C31.0538 60.8055 31.2638 60.8855 31.4838 60.8055C31.7038 60.7255 31.7638 60.5755 31.6338 59.8055C31.5738 59.4355 31.3338 58.5855 30.9938 57.4555C31.3357 57.3216 31.6696 57.168 31.9938 56.9955C32.8294 56.5541 33.5229 55.885 33.9938 55.0655C34.2428 54.587 34.3924 54.063 34.4336 53.5251C34.4749 52.9872 34.4069 52.4465 34.2338 51.9355C34.0379 51.3702 33.7205 50.8548 33.3038 50.4255ZM24.4138 47.5255C23.9871 46.9687 23.7552 46.2871 23.7538 45.5855C23.7665 45.1175 23.8792 44.6575 24.0845 44.2366C24.2897 43.8158 24.5827 43.4437 24.9438 43.1455C25.3538 44.7455 25.9438 46.7255 26.5338 48.7655L26.2438 48.7055C25.5129 48.5423 24.8641 48.1239 24.4138 47.5255ZM32.5038 54.3155C32.1782 54.8911 31.6963 55.3626 31.1138 55.6755C30.9138 55.7955 30.6938 55.8955 30.4838 55.9955L28.7838 50.5455H28.8338C29.6666 50.5109 30.4983 50.6365 31.2838 50.9155C31.6009 51.0532 31.8848 51.2576 32.116 51.5147C32.3472 51.7718 32.5204 52.0756 32.6238 52.4055C32.7302 52.7162 32.7743 53.0448 32.7538 53.3725C32.7332 53.7002 32.6482 54.0206 32.5038 54.3155Z" fill="#980C0C"/><path d="M69.1638 30.9757C70.2538 30.4857 70.4138 30.2557 70.3538 30.0357C70.2938 29.8157 70.0738 29.7657 68.8438 29.9757C67.2438 30.2557 59.9638 32.2257 52.6538 34.0957C45.3438 35.9657 38.0338 37.7357 36.4938 38.2957C35.3738 38.7057 35.2738 38.9157 35.3238 39.1357C35.3738 39.3557 35.5038 39.4457 36.7538 39.3057C38.3738 39.1357 45.7538 37.5457 53.0938 35.6657C60.4338 33.7857 67.6638 31.6257 69.1638 30.9757Z" fill="#980C0C"/><path d="M56.8438 39.5957C57.4338 39.1957 57.4938 38.9857 57.4138 38.7757C57.3338 38.5657 57.1838 38.4957 56.4138 38.6157C55.4638 38.7957 51.3338 40.1957 47.1238 41.3357C42.9138 42.4757 38.6538 43.4057 37.7738 43.7657C37.1238 44.0457 37.0738 44.2357 37.1138 44.4557C37.1538 44.6757 37.2338 44.7857 37.9738 44.7957C41.2269 44.447 44.4427 43.8112 47.5838 42.8957C50.7695 42.0964 53.8706 40.9913 56.8438 39.5957Z" fill="#980C0C"/><path d="M62.1438 38.3755C63.8476 38.1937 65.5252 37.818 67.1438 37.2555C68.8087 36.8155 70.4114 36.1671 71.9138 35.3255C72.1938 35.0555 72.1938 34.8655 72.1138 34.6555C72.0338 34.4455 71.9338 34.3555 71.5338 34.3555C69.8775 34.7044 68.2444 35.1553 66.6438 35.7055C65.0078 36.1381 63.4066 36.693 61.8538 37.3655C61.5438 37.6155 61.5438 37.7955 61.6038 38.0155C61.6638 38.2355 61.7438 38.3355 62.1438 38.3755Z" fill="#980C0C"/><path d="M58.9838 45.4956C59.5738 45.1056 59.6238 44.8856 59.5438 44.6756C59.4638 44.4656 59.3138 44.3956 58.5438 44.5256C57.6038 44.6956 53.4738 46.1156 49.2938 47.3256C45.1138 48.5356 40.9238 49.5856 40.0538 49.9756C39.4138 50.2756 39.3638 50.4756 39.4138 50.6956C39.4638 50.9156 39.5438 51.0156 40.2838 50.9956C43.5175 50.5574 46.7088 49.8482 49.8238 48.8756C52.9731 48.0284 56.039 46.8971 58.9838 45.4956Z" fill="#980C0C"/><path d="M60.2438 51.4055C59.3538 51.5355 55.4838 52.7455 51.5638 53.7955C47.6438 54.8455 43.7038 55.7955 42.8938 56.1455C42.2938 56.4255 42.2538 56.6155 42.2938 56.8355C42.3338 57.0555 42.4238 57.1555 43.1138 57.1655C46.1255 56.81 49.1024 56.2046 52.0138 55.3555C54.9589 54.6181 57.8308 53.614 60.5938 52.3555C61.1538 51.9855 61.2038 51.7755 61.1238 51.5655C61.0438 51.3555 60.8938 51.3155 60.2438 51.4055Z" fill="#980C0C"/><path d="M67.9437 55.7557C67.2437 55.5657 62.3337 56.7557 61.8337 57.3557C61.7616 57.4377 61.7133 57.5379 61.6939 57.6454C61.6745 57.7529 61.6848 57.8636 61.7238 57.9657C61.7342 58.0617 61.7745 58.152 61.8392 58.2238C61.9038 58.2956 61.9893 58.3452 62.0837 58.3657C62.7637 58.5657 67.7837 57.3057 68.2637 56.7457C68.3327 56.6637 68.3776 56.5643 68.3935 56.4584C68.4093 56.3525 68.3956 56.2442 68.3538 56.1457C68.3292 56.0486 68.2777 55.9604 68.2052 55.8914C68.1326 55.8223 68.042 55.7753 67.9437 55.7557Z" fill="#980C0C"/><path d="M102.534 7.81545C103.191 6.65158 103.714 5.41705 104.094 4.13545C104.22 3.70701 104.244 3.25485 104.164 2.81545C104.061 2.35259 103.833 1.92702 103.504 1.58545C102.911 0.973454 102.105 0.614991 101.254 0.585449C100.507 0.589234 99.7751 0.792961 99.1338 1.17545C98.6095 1.48805 98.1258 1.86423 97.6938 2.29545C96.6201 3.33012 95.7842 4.58576 95.2438 5.97545C95.2438 6.06545 95.2438 6.14545 95.1738 6.22545C94.9971 6.18237 94.8156 6.16221 94.6338 6.16545C94.3774 6.16924 94.1224 6.2028 93.8738 6.26545C93.4082 6.38808 92.9704 6.59852 92.5838 6.88545C92.0207 7.30669 91.5163 7.80103 91.0838 8.35545C89.8728 9.82961 88.7477 11.3722 87.7138 12.9754C86.3809 15.031 85.1978 17.1799 84.1738 19.4054C83.8938 20.0054 83.6338 20.5754 83.3638 21.2454C83.202 21.6303 83.104 22.039 83.0738 22.4554C83.0517 22.9431 83.1734 23.4264 83.4238 23.8454C83.2838 23.8454 83.0738 24.0254 82.6738 24.4854C81.0938 26.6795 79.6478 28.967 78.3438 31.3354C78.3438 30.9654 78.2138 30.5154 78.1038 29.9655C77.7244 28.3725 77.1954 26.8189 76.5238 25.3254C76.0137 24.0344 75.2367 22.8655 74.2438 21.8954C73.6097 21.3476 72.8616 20.9479 72.0538 20.7254C71.2052 20.5091 70.3255 20.4414 69.4538 20.5254C67.6831 20.75 65.9384 21.1452 64.2438 21.7054L58.8438 23.2554C55.1138 24.2554 51.1938 25.3954 47.2638 26.4254C39.9355 28.3797 32.5083 29.9419 25.0138 31.1054C21.7938 31.6054 18.9538 31.8755 16.7038 32.1054C15.6947 32.1646 14.6917 32.3017 13.7038 32.5154C13.0303 32.6693 12.3878 32.9364 11.8038 33.3055C11.0263 33.7463 10.4388 34.4584 10.1538 35.3055C10.1538 35.3055 10.1538 35.3754 10.1538 35.4154C10.0738 35.4154 10.0138 35.6154 9.99376 36.1554C9.99376 36.4754 9.99376 36.9254 9.99376 37.5654C9.99376 37.8354 9.99376 38.1454 10.0638 38.4754C9.86083 38.4252 9.65281 38.3984 9.44376 38.3954C8.19046 38.3992 6.94075 38.5299 5.71376 38.7854C4.76949 38.9685 3.83499 39.1988 2.91376 39.4754C2.17711 39.677 1.49414 40.039 0.913764 40.5354C0.556366 40.8632 0.293839 41.2812 0.153764 41.7454C0.0116026 42.2182 -0.032632 42.715 0.0237645 43.2055C0.155357 44.1458 0.369518 45.0727 0.663764 45.9754C0.933764 46.9754 1.24376 47.9754 1.59376 48.9754C2.28376 50.9754 3.14376 53.1555 4.16376 55.4155C6.16376 59.9255 8.86376 64.7854 11.7438 69.8254C12.4368 71.2167 13.337 72.4946 14.4138 73.6154C15.0509 74.2187 15.8272 74.655 16.6738 74.8855C17.4854 75.0782 18.3217 75.1456 19.1538 75.0854C22.2238 74.8554 25.2438 74.5554 28.2938 74.1754C39.6776 72.7736 50.926 70.4323 61.9238 67.1754C66.6538 65.7754 70.7438 64.3654 73.9238 63.1754C75.3446 62.7011 76.7312 62.1298 78.0738 61.4654C78.9885 61.0014 79.7959 60.3507 80.4438 59.5555C80.9749 58.8719 81.3195 58.0621 81.4438 57.2055C81.5165 56.8121 81.5165 56.4088 81.4438 56.0154C81.7681 55.7916 82.0756 55.5443 82.3638 55.2755C82.9136 54.7445 83.3344 54.0945 83.5938 53.3755C83.8071 52.6835 83.8719 51.9542 83.7838 51.2355C83.5978 50.0435 83.3237 48.8669 82.9638 47.7154C82.8238 47.1854 82.6838 46.7154 82.5438 46.1754C83.3638 44.8754 84.0638 43.5354 84.8438 42.1754C88.2338 36.1754 91.5338 30.0654 92.0738 28.6654C92.1338 28.4954 92.1938 28.3454 92.2338 28.2054C92.5807 28.1368 92.9169 28.0225 93.2338 27.8654C93.9284 27.4884 94.5193 26.9457 94.9538 26.2854C95.3738 25.6954 95.6638 25.1354 95.9538 24.5854L96.8738 22.9854C97.4438 21.9854 97.9938 21.0554 98.5038 20.1554C98.6765 20.2683 98.8609 20.3622 99.0538 20.4354C98.4838 21.6054 97.5338 23.5154 96.2338 25.8154C95.3838 27.3554 94.3938 29.0654 93.4238 30.9354L93.0538 31.6454C92.9438 31.8754 92.8138 32.1254 92.6938 32.4354C92.5417 32.8125 92.4867 33.2216 92.5338 33.6255C92.5707 33.8671 92.6573 34.0985 92.7881 34.305C92.9189 34.5116 93.0911 34.6888 93.2938 34.8254C93.6471 35.0536 94.055 35.1831 94.4752 35.2007C94.8954 35.2183 95.3126 35.1232 95.6838 34.9254C96.2676 34.5798 96.7638 34.1042 97.1338 33.5354C99.4674 30.0844 101.432 26.3975 102.994 22.5354C103.686 20.9819 103.789 19.2294 103.284 17.6054C102.934 16.6463 102.249 15.8467 101.354 15.3554H101.244L101.384 15.1154C101.731 14.5003 102.003 13.8456 102.194 13.1654C102.317 12.6961 102.355 12.2081 102.304 11.7254C102.252 11.0684 101.956 10.4545 101.474 10.0054C101.387 9.94007 101.289 9.89249 101.184 9.86545C101.316 9.71908 101.439 9.56551 101.554 9.40545C101.907 8.8925 102.234 8.36181 102.534 7.81545ZM80.6738 57.0454C80.4861 57.7668 80.1218 58.4301 79.6138 58.9754C79.0068 59.6103 78.2838 60.1229 77.4838 60.4855C76.1814 61.0701 74.8457 61.5777 73.4838 62.0054C70.2738 63.1254 66.1938 64.4555 61.4838 65.8055C50.5348 68.915 39.3613 71.1717 28.0638 72.5555C26.5538 72.7554 25.0638 72.8855 23.5238 73.0555C21.9838 73.2254 20.5238 73.3555 19.0438 73.4454C18.3728 73.5048 17.6967 73.4507 17.0438 73.2854C16.4492 73.1087 15.9069 72.7894 15.4638 72.3554C14.5152 71.3465 13.7139 70.2086 13.0838 68.9754C10.1938 63.9754 7.51376 59.1554 5.48376 54.7254C4.48376 52.5254 3.59376 50.4054 2.88376 48.4454C2.52376 47.4454 2.21376 46.5054 1.88376 45.6054C1.60529 44.7902 1.3913 43.9543 1.24376 43.1054C1.19061 42.8158 1.20931 42.5176 1.29822 42.2369C1.38714 41.9562 1.54356 41.7016 1.75376 41.4954C2.20224 41.1202 2.723 40.8411 3.28376 40.6754C4.40376 40.2954 5.28376 40.0554 5.93376 39.8954C7.76376 39.4154 8.81376 39.2254 9.40376 39.0654C9.61845 39.018 9.82432 38.937 10.0138 38.8254C10.0138 39.2254 10.0838 39.6854 10.1638 40.1854C10.5474 42.7273 11.1428 45.2327 11.9438 47.6754C12.5038 49.4154 13.1938 51.3454 14.0438 53.4354C14.8938 55.5254 15.9138 57.7555 17.0438 60.0955C18.1738 62.4355 19.4138 64.8755 20.7738 67.4555C21.1509 68.1592 21.6219 68.8084 22.1738 69.3855C22.7822 69.989 23.5263 70.4382 24.3438 70.6954C25.9274 71.118 27.5871 71.1693 29.1938 70.8455C35.2738 69.7654 41.6038 68.5854 47.9338 67.2154C54.1725 65.8966 60.3377 64.251 66.4038 62.2854C69.3338 61.2854 72.1638 60.2854 74.8238 59.1754C76.1638 58.6454 77.4538 58.0555 78.7138 57.4855C79.4192 57.1922 80.107 56.8583 80.7738 56.4855C80.7602 56.6751 80.7267 56.8628 80.6738 57.0454ZM81.2438 54.2755C80.2657 55.0689 79.1645 55.6972 77.9838 56.1355C76.7438 56.6955 75.4638 57.2554 74.1338 57.7854C71.4938 58.8554 68.7038 59.8654 65.8038 60.7854C60.0038 62.6754 53.8038 64.2555 47.4738 65.6255C41.1438 66.9955 34.8438 68.1954 28.8638 69.2854C27.5071 69.5681 26.1033 69.5304 24.7638 69.1754C24.1706 68.9488 23.6283 68.6067 23.1682 68.169C22.7082 67.7313 22.3396 67.2066 22.0838 66.6255C20.7538 64.1354 19.4838 61.6254 18.3438 59.3554C17.2038 57.0854 16.1738 54.8554 15.3438 52.8154C14.5138 50.7754 13.7838 48.8854 13.1938 47.1954C12.3911 44.8123 11.7398 42.3807 11.2438 39.9154C11.0338 38.9154 10.9238 38.1655 10.7938 37.5555C10.6638 36.9454 10.6238 36.5554 10.5438 36.2054L10.4638 35.8755C10.536 35.8002 10.6028 35.72 10.6638 35.6354C11.1022 35.0205 11.691 34.5282 12.3738 34.2054C12.8952 33.9499 13.451 33.7713 14.0238 33.6754C14.9641 33.5299 15.9126 33.4431 16.8638 33.4154C19.1438 33.2454 22.0338 33.0354 25.2938 32.5754C32.8603 31.4997 40.3542 29.9635 47.7338 27.9754C51.6838 26.9754 55.6138 25.8354 59.3338 24.7554L64.7438 23.1754C66.325 22.6207 67.9558 22.2188 69.6138 21.9754C70.274 21.8756 70.9477 21.9128 71.5929 22.0849C72.2381 22.2569 72.8409 22.5601 73.3638 22.9754C74.2177 23.7909 74.898 24.7705 75.3638 25.8554C76.0415 27.2747 76.6228 28.738 77.1038 30.2354C77.2638 30.7054 77.3938 31.1054 77.5038 31.4454C77.6138 31.7854 77.6138 32.0354 77.6938 32.4454C77.2138 33.3255 76.6938 34.2254 76.2438 35.1454C74.9238 37.6354 73.7038 40.1455 72.7838 42.2454C72.3362 43.1654 72.0005 44.1356 71.7838 45.1355C71.6566 45.7523 71.6566 46.3886 71.7838 47.0054C71.86 47.302 71.9999 47.5784 72.1938 47.8154C72.0838 47.8154 71.9638 47.9554 71.8038 48.1954C71.4074 48.9573 71.073 49.7499 70.8038 50.5654C70.5738 51.1654 70.3238 51.8454 70.0638 52.5654C69.9938 52.7454 69.9238 52.9254 69.8638 53.1054C69.7826 53.3362 69.7224 53.5739 69.6838 53.8154C69.632 54.1876 69.6911 54.5667 69.8538 54.9054C70.0329 55.2446 70.3382 55.4996 70.7038 55.6154C71.0666 55.7404 71.4609 55.7404 71.8238 55.6154C72.0791 55.5334 72.3215 55.4155 72.5438 55.2654C72.8946 55.0215 73.2287 54.7542 73.5438 54.4654C74.0892 53.9658 74.5911 53.4205 75.0438 52.8354C75.5985 52.1548 76.0686 51.4094 76.4438 50.6154C77.2082 50.5622 77.9519 50.3439 78.6238 49.9754C79.7463 49.4289 80.7282 48.6317 81.4938 47.6454C81.4938 47.8054 81.5738 47.9655 81.6238 48.1355C81.9461 49.2153 82.1835 50.3186 82.3338 51.4354C82.4086 51.9625 82.3477 52.4998 82.157 52.9968C81.9663 53.4937 81.6519 53.9338 81.2438 54.2755ZM75.0338 49.0354C74.4848 48.8742 73.9814 48.5865 73.5638 48.1954C73.2238 47.9054 73.0638 47.6754 72.9238 47.5654C72.892 47.5352 72.8546 47.5115 72.8138 47.4954C72.8138 47.3354 72.8138 47.1354 72.8138 46.8554C72.831 46.3613 72.9082 45.871 73.0438 45.3954C73.1988 44.8371 73.4064 44.2947 73.6638 43.7755C73.7912 44.0038 73.942 44.2183 74.1138 44.4155C74.779 45.1768 75.6152 45.7696 76.5538 46.1454C77.4441 46.5067 78.3793 46.7455 79.3338 46.8554C79.5734 46.8751 79.8142 46.8751 80.0538 46.8554C79.473 47.5987 78.7399 48.209 77.9038 48.6454C77.4778 48.8948 77.0067 49.0577 76.5176 49.1246C76.0286 49.1915 75.5311 49.1612 75.0538 49.0354H75.0338ZM75.1038 50.4354C74.7838 50.7854 74.3638 51.2854 73.8638 51.8455C73.4178 52.3359 72.9436 52.8 72.4438 53.2355C72.1892 53.4646 71.9185 53.6751 71.6338 53.8654C71.5289 53.9352 71.4144 53.9891 71.2938 54.0255C71.3104 53.8796 71.3405 53.7357 71.3838 53.5955L71.5638 53.0654C71.7938 52.3554 72.0038 51.6754 72.1938 51.0654C72.4738 50.1254 72.6838 49.3554 72.7738 48.8954C73.2284 49.5445 73.8756 50.0342 74.6238 50.2954C74.7861 50.3565 74.9534 50.4033 75.1238 50.4354H75.1038ZM79.5938 45.4354C78.79 45.2288 78.0042 44.9579 77.2438 44.6255C76.5099 44.3319 75.8331 43.9122 75.2438 43.3855C74.8038 42.9855 74.5438 42.6154 74.3638 42.4554L75.1838 40.8154C75.3571 41.0524 75.5476 41.2764 75.7538 41.4854C76.4181 42.1621 77.1882 42.7262 78.0338 43.1554C78.8314 43.5515 79.6844 43.8246 80.5638 43.9654H80.7438C81.1462 44.0028 81.5513 44.0028 81.9538 43.9654C81.6438 44.5154 81.3338 45.0454 81.0238 45.5454H80.9338C80.49 45.538 80.0479 45.4877 79.6138 45.3954L79.5938 45.4354ZM83.3838 41.4354C83.0838 41.9454 82.7938 42.4355 82.5038 42.9855C82.4523 42.9364 82.3909 42.8989 82.3238 42.8755C82.1938 42.8755 81.9138 42.7654 81.5338 42.6754L80.9338 42.5254C80.6416 42.454 80.3543 42.3638 80.0738 42.2554C79.5993 42.1025 79.1379 41.9119 78.6938 41.6854C77.9853 41.32 77.3153 40.8845 76.6938 40.3854C76.2838 40.0554 75.9638 39.7754 75.7538 39.6054C76.3638 38.3955 77.0138 37.1354 77.6738 35.8654L78.2038 34.8654C78.4438 34.4354 78.6738 33.9954 78.9038 33.5754C81.1138 29.4954 83.2438 25.9754 83.5738 24.9754C83.6681 24.7578 83.7353 24.5295 83.7738 24.2954C83.9038 24.4554 84.0238 24.5954 84.1538 24.7354C84.3952 25.0069 84.6523 25.264 84.9238 25.5054C85.4612 26.0019 86.0437 26.4471 86.6638 26.8354C87.9226 27.6406 89.349 28.1468 90.8338 28.3154H91.0438C90.0338 29.8054 86.6738 35.5954 83.4038 41.4354H83.3838ZM94.0038 24.7954C93.8738 25.0154 93.7338 25.2254 93.5938 25.4254C93.2954 25.8455 92.9012 26.1883 92.4438 26.4254C91.9566 26.6381 91.4217 26.7175 90.8938 26.6554C89.6722 26.497 88.5027 26.0627 87.4738 25.3854C86.9386 25.0541 86.4363 24.6724 85.9738 24.2454C85.7381 24.0348 85.5144 23.8111 85.3038 23.5754C85.1144 23.3747 84.9437 23.1571 84.7938 22.9254C84.6969 22.774 84.6546 22.5941 84.6738 22.4154C84.6983 22.1668 84.7624 21.9238 84.8638 21.6954C85.0038 21.3155 85.1838 20.9154 85.3538 20.5154C85.6537 20.939 85.9882 21.337 86.3538 21.7054C87.2268 22.5713 88.2414 23.2815 89.3538 23.8055C90.47 24.3209 91.6683 24.6357 92.8938 24.7354C93.2834 24.7606 93.6742 24.7606 94.0638 24.7354L94.0038 24.7954ZM96.8138 17.7954C96.9032 18.2711 97.1018 18.7195 97.3938 19.1054L97.3138 19.2454C96.7438 20.1754 96.1438 21.1754 95.5238 22.2454C95.2738 22.6554 95.0138 23.0854 94.7638 23.5154C94.4538 23.5154 93.8238 23.4154 93.0038 23.2754C91.9673 23.0935 90.9588 22.7775 90.0038 22.3354C89.0501 21.8771 88.1566 21.3028 87.3438 20.6255C86.6538 20.0354 86.1638 19.5354 85.9538 19.3854C86.8691 17.4292 87.894 15.5262 89.0238 13.6854C90.0238 11.9954 91.0738 10.5454 91.9338 9.38545C92.7336 10.9228 94.0617 12.1195 95.6738 12.7554C97.3035 13.4723 99.1033 13.7116 100.864 13.4454C100.693 13.7891 100.502 14.123 100.294 14.4454L99.8638 15.1454H99.7538C99.7183 15.0949 99.6743 15.0509 99.6238 15.0154C99.3574 14.8862 99.0614 14.8302 98.7662 14.853C98.471 14.8759 98.1871 14.9768 97.9438 15.1454C97.5193 15.393 97.1914 15.7773 97.0138 16.2354C96.7929 16.7417 96.7301 17.3029 96.8338 17.8454L96.8138 17.7954ZM102.074 18.0454C102.38 19.3943 102.21 20.8073 101.594 22.0454C99.9837 25.7502 98.0355 29.2985 95.7738 32.6454C95.5563 32.9999 95.2582 33.298 94.9038 33.5154C94.797 33.5759 94.6764 33.6077 94.5538 33.6077C94.4311 33.6077 94.3105 33.5759 94.2038 33.5154C94.1438 33.4655 94.1438 33.5154 94.1238 33.4054C94.1279 33.2544 94.1691 33.1068 94.2438 32.9754C94.3138 32.7954 94.4338 32.5554 94.5438 32.3254L94.8938 31.6255C95.8238 29.7854 96.7738 28.0654 97.5938 26.4954C98.7755 24.395 99.7501 22.1846 100.504 19.8954C100.854 18.5354 100.744 18.2254 100.504 18.1554C100.264 18.0854 100.154 18.2454 99.6238 19.2654L99.2338 18.8854C98.8208 18.516 98.534 18.0264 98.4138 17.4854C98.3628 17.2082 98.4163 16.9219 98.5641 16.6818C98.7118 16.4417 98.9433 16.2649 99.2138 16.1854L99.3238 16.1255C99.488 16.0117 99.6191 15.8564 99.7038 15.6754L99.8238 15.7354C100.154 15.865 100.467 16.0364 100.754 16.2454L100.844 16.2954C101.43 16.7576 101.866 17.3844 102.094 18.0954L102.074 18.0454ZM101.244 11.7754C101.235 12.0262 101.195 12.2748 101.124 12.5154C101.041 12.4528 100.95 12.4023 100.854 12.3654C99.2804 12.169 97.7341 11.7967 96.2438 11.2554C95.3558 10.8682 94.5355 10.3416 93.8138 9.69545C93.4527 9.3586 93.1183 8.99417 92.8138 8.60545C92.76 8.54705 92.6955 8.49952 92.6238 8.46545C93.0551 7.92672 93.6111 7.50112 94.2438 7.22545C94.5597 7.08368 94.8983 6.99903 95.2438 6.97545C95.2752 7.02193 95.3208 7.05701 95.3738 7.07545H95.4538C95.4538 7.21545 95.4538 7.48545 95.6838 7.99545C95.9741 8.48554 96.3581 8.91368 96.8138 9.25545C97.6125 9.88686 98.5793 10.2694 99.5938 10.3554C99.9869 10.4147 100.389 10.3627 100.754 10.2054C100.851 10.1524 100.945 10.0922 101.034 10.0254C101.039 10.1192 101.063 10.211 101.104 10.2954C101.258 10.7725 101.306 11.2778 101.244 11.7754ZM101.104 7.07545C100.824 7.59545 100.524 8.07545 100.234 8.53545C100.163 8.65966 100.071 8.77119 99.9638 8.86545C99.8361 8.90032 99.7014 8.90032 99.5738 8.86545C98.8204 8.82472 98.0903 8.59052 97.4538 8.18545C97.095 7.93722 96.7602 7.656 96.4538 7.34545C96.1038 7.02545 95.9138 6.89545 95.7538 6.87545C95.7872 6.86705 95.8182 6.85091 95.8443 6.82833C95.8703 6.80575 95.8907 6.77736 95.9038 6.74545C95.9038 6.74545 95.9038 6.69545 95.9038 6.67545L96.1138 6.39545C96.8516 5.29947 97.714 4.29275 98.6838 3.39545C99.3528 2.6836 100.269 2.25432 101.244 2.19545C101.67 2.21831 102.071 2.40454 102.364 2.71545C102.489 2.84604 102.572 3.01051 102.604 3.18834C102.636 3.36618 102.615 3.54951 102.544 3.71545C102.191 4.88097 101.718 6.00694 101.134 7.07545H101.104Z" fill="#980C0C"/><path d="M80.7738 56.4557C80.7624 56.6555 80.7289 56.8533 80.6738 57.0457C80.4861 57.767 80.1218 58.4303 79.6138 58.9757C79.0068 59.6105 78.2838 60.1231 77.4838 60.4857C76.1814 61.0704 74.8457 61.5779 73.4838 62.0057C70.2738 63.1257 66.1938 64.4557 61.4838 65.8057C50.5348 68.9152 39.3613 71.172 28.0638 72.5557C26.5538 72.7557 25.0638 72.8857 23.5238 73.0557C21.9838 73.2257 20.5238 73.3557 19.0438 73.4457C18.3728 73.505 17.6967 73.4509 17.0438 73.2857C16.4492 73.1089 15.9069 72.7897 15.4638 72.3557C14.5152 71.3467 13.7139 70.2088 13.0838 68.9757C10.1938 63.9757 7.51376 59.1557 5.48376 54.7257C4.48376 52.5257 3.59376 50.4057 2.88376 48.4457C2.52376 47.4457 2.21376 46.5057 1.88376 45.6057C1.60529 44.7904 1.3913 43.9545 1.24376 43.1057C1.19061 42.8161 1.20931 42.5179 1.29822 42.2372C1.38714 41.9565 1.54356 41.7019 1.75376 41.4957C2.20224 41.1205 2.723 40.8414 3.28376 40.6757C4.40376 40.2957 5.28376 40.0557 5.93376 39.8957C7.76376 39.4157 8.81376 39.2257 9.40376 39.0657C9.61845 39.0183 9.82432 38.9373 10.0138 38.8257C10.0138 39.2257 10.0838 39.6857 10.1638 40.1857C10.5474 42.7276 11.1428 45.233 11.9438 47.6757C12.5038 49.4157 13.1938 51.3457 14.0438 53.4357C14.8938 55.5257 15.9138 57.7557 17.0438 60.0957C18.1738 62.4357 19.4138 64.8757 20.7738 67.4557C21.1509 68.1594 21.6219 68.8087 22.1738 69.3857C22.7822 69.9893 23.5263 70.4384 24.3438 70.6957C25.9274 71.1182 27.5871 71.1696 29.1938 70.8457C35.2738 69.7657 41.6038 68.5857 47.9338 67.2157C54.1725 65.8969 60.3377 64.2513 66.4038 62.2857C69.3338 61.2857 72.1638 60.2857 74.8238 59.1757C76.1638 58.6457 77.4538 58.0557 78.7138 57.4857C79.4199 57.1827 80.1077 56.8387 80.7738 56.4557Z" fill="#980C0C"/><path d="M102.514 3.74531C102.168 4.89938 101.706 6.01517 101.134 7.07531C100.854 7.59531 100.554 8.07531 100.264 8.53531C100.193 8.65953 100.101 8.77105 99.9938 8.86531C99.8661 8.90019 99.7314 8.90019 99.6038 8.86531C98.8504 8.82458 98.1202 8.59038 97.4837 8.18531C97.125 7.93709 96.7902 7.65587 96.4837 7.34531C96.1337 7.02531 95.9438 6.89531 95.7838 6.87531C95.8172 6.86691 95.8482 6.85077 95.8742 6.82819C95.9003 6.80561 95.9207 6.77722 95.9338 6.74531C95.9338 6.74531 95.9338 6.69531 95.9338 6.67531L96.1438 6.39531C96.8816 5.29933 97.744 4.29261 98.7138 3.39531C99.3754 2.69032 100.279 2.26164 101.244 2.19531C101.67 2.21817 102.071 2.40441 102.364 2.71531C102.49 2.85177 102.572 3.02321 102.598 3.20706C102.625 3.39091 102.596 3.57856 102.514 3.74531Z" fill="#980C0C"/><path d="M75.1238 50.4355C74.8038 50.7855 74.3838 51.2855 73.8838 51.8455C73.4378 52.336 72.9637 52.8001 72.4638 53.2355C72.2092 53.4646 71.9385 53.6752 71.6538 53.8655C71.5489 53.9353 71.4344 53.9892 71.3138 54.0255C71.3304 53.8797 71.3605 53.7358 71.4038 53.5955L71.5838 53.0655C71.8138 52.3555 72.0238 51.6755 72.2138 51.0655C72.4938 50.1255 72.7038 49.3555 72.7938 48.8955C73.2485 49.5446 73.8956 50.0343 74.6438 50.2955C74.7996 50.3555 74.9602 50.4023 75.1238 50.4355Z" fill="#980C0C"/><path d="M8.90376 30.9756C9.18376 30.9756 9.90376 30.6556 10.8038 30.3856C11.7038 30.1156 12.9538 29.8456 14.1938 29.6056C16.064 29.3271 17.905 28.8786 19.6938 28.2656C20.0538 28.0356 20.0938 27.8456 20.0538 27.6256C20.0138 27.4056 19.9238 27.3056 19.4838 27.2456C17.5929 27.3525 15.7137 27.61 13.8638 28.0156C12.6489 28.2391 11.4572 28.5738 10.3038 29.0156C9.60612 29.2551 8.95862 29.6213 8.39376 30.0956C8.10376 30.4456 8.15376 30.6256 8.27376 30.8156C8.39376 31.0056 8.49376 31.0556 8.90376 30.9756Z" fill="#980C0C"/><path d="M23.8238 27.3856C24.4265 27.4781 25.0416 27.4509 25.6338 27.3056C26.2371 27.2714 26.8235 27.0931 27.3438 26.7856C27.4409 26.6088 27.4727 26.4035 27.4338 26.2056C27.4331 26.1184 27.414 26.0324 27.3778 25.9532C27.3416 25.8739 27.2891 25.8032 27.2238 25.7456C26.5988 25.5731 25.9388 25.5731 25.3138 25.7456C24.6688 25.7809 24.0505 26.0149 23.5438 26.4156C23.4692 26.6017 23.4692 26.8094 23.5438 26.9956C23.583 27.157 23.6834 27.2968 23.8238 27.3856Z" fill="#980C0C"/><path d="M84.2438 59.9756C84.0638 59.9756 83.9138 59.9756 83.6538 60.2256C82.5992 61.6564 81.3734 62.9528 80.0038 64.0856C79.1069 64.7971 78.1499 65.4295 77.1438 65.9756C76.2838 66.4356 75.6038 66.7356 75.3838 66.9056C75.1638 67.0756 75.0438 67.3756 75.1138 67.5856C75.1838 67.7956 75.2638 67.8956 75.7238 67.9056C76.4431 67.8104 77.1442 67.6081 77.8038 67.3056C78.9489 66.8024 80.0244 66.1537 81.0038 65.3756C81.9862 64.5903 82.8575 63.6753 83.5938 62.6556C83.8649 62.2786 84.1056 61.8807 84.3138 61.4656C84.4543 61.2098 84.5522 60.9328 84.6038 60.6456C84.6238 60.1056 84.4238 59.9756 84.2438 59.9756Z" fill="#980C0C"/></svg>