<svg width="100" height="90" viewBox="0 0 100 90" fill="none" xmlns="http://www.w3.org/2000/svg"><path d="M99.8347 58.8819C99.9262 58.5165 99.9406 58.1361 99.8771 57.7648C99.7897 57.311 99.6457 56.8699 99.4483 56.4519C99.3145 56.1588 99.1661 55.8725 99.0036 55.5943C98.8289 55.319 98.6542 55.0173 98.4742 54.6943C97.6907 53.4026 96.7219 51.7615 95.6578 49.8768C93.5402 46.0863 91.0891 41.2794 88.8762 36.3507C86.6633 31.422 84.5775 26.435 82.9258 22.3904C81.274 18.3458 80.0564 15.3071 79.5429 14.2642C79.3222 13.7764 79.0507 13.3133 78.7329 12.8824C78.4845 12.1377 78.1856 11.4107 77.8382 10.7066C77.4903 10.0101 77.0307 9.37529 76.4777 8.82725C75.8534 8.22875 75.086 7.8004 74.2489 7.58316C74.1483 7.20199 74.0371 6.82082 73.8995 6.43436C73.3532 4.80078 72.4217 3.32271 71.1837 2.12506C70.5407 1.50848 69.8069 0.994265 69.0079 0.600392C68.1768 0.159946 67.2419 -0.0468036 66.3026 0.00217114C65.3689 0.0871497 64.4916 0.486579 63.8145 1.13508C63.2248 1.68305 62.7622 2.35342 62.4592 3.09915C62.0109 4.26149 61.8776 5.5216 62.0727 6.752C62.1516 7.41359 62.3006 8.06489 62.5174 8.6949C62.7715 9.35135 62.9515 9.58958 63.1209 9.6584L62.1839 9.9231C61.8206 8.48124 61.1706 7.1273 60.2728 5.94202C59.698 5.20998 59.0057 4.57847 58.224 4.07325C57.417 3.51607 56.4671 3.20191 55.487 3.16797C54.5222 3.18164 53.59 3.5191 52.84 4.12619C52.1755 4.64403 51.6332 5.30197 51.2518 6.0532C50.7087 7.22734 50.4824 8.5232 50.5954 9.81193C50.6337 10.4995 50.7456 11.181 50.9289 11.8448C51.1724 12.6283 51.363 12.8666 51.5377 12.9036L49.1925 13.5759C48.5633 11.5305 47.4771 9.65501 46.0161 8.09138C45.3307 7.3364 44.4492 6.78657 43.4697 6.50319C42.4936 6.26064 41.4684 6.30289 40.5156 6.62495C39.6395 6.92172 38.8415 7.41209 38.181 8.05962C37.5903 8.6478 37.1113 9.33841 36.7675 10.0978C36.2355 11.2815 35.9595 12.5641 35.9575 13.8618C35.9322 14.5829 36.0142 15.3037 36.201 16.0006C36.5822 17.1335 36.8998 17.1653 37.0957 17.0912C37.2916 17.017 37.3339 16.8582 37.2863 15.8153C37.2647 15.1708 37.2806 14.5256 37.3339 13.883C37.4187 12.79 37.7097 11.723 38.1916 10.7384C38.4714 10.1436 38.8712 9.61317 39.3659 9.18041C39.8606 8.74765 40.4395 8.42193 41.0662 8.22373C41.7169 8.0188 42.412 8.00046 43.0726 8.17079C43.7479 8.39382 44.3487 8.79862 44.8091 9.34076C45.8846 10.5161 46.74 11.8754 47.3343 13.3536C47.4402 13.5971 47.5249 13.8406 47.6149 14.0895C47.7951 14.6269 47.9419 15.175 48.0543 15.7306C48.18 16.3205 48.265 16.9184 48.3084 17.52C48.441 18.5863 48.3472 19.6687 48.0331 20.6964C47.8425 21.2033 47.5188 21.6496 47.0961 21.9881L46.8366 22.1946C46.6741 22.1085 46.4907 22.07 46.3073 22.0834C46.0862 22.1026 45.8637 22.0919 45.6455 22.0516C45.4073 21.9881 45.2485 21.8716 45.0685 21.464C44.8755 20.9176 44.7562 20.3479 44.7138 19.7699C44.6343 19.1029 44.5867 18.367 44.5285 17.6153C44.5285 17.3294 44.4808 17.0435 44.4438 16.7523C44.3831 16.1935 44.2823 15.6397 44.142 15.0953C43.9961 14.4468 43.7534 13.824 43.422 13.2477C42.9955 12.3875 42.2795 11.7052 41.3997 11.3207C41.3373 11.3033 41.2736 11.2909 41.2091 11.2837C41.1092 11.255 41.006 11.239 40.9021 11.236C40.7433 11.2405 40.592 11.3047 40.4786 11.416C40.4417 11.4615 40.4146 11.5142 40.3992 11.5707C40.3837 11.6272 40.3801 11.6863 40.3886 11.7442C40.3886 11.903 40.5527 12.0195 40.648 12.0036C40.7433 11.9878 40.7433 11.9242 40.7592 11.8713V11.7654H40.7909V11.7972V11.8554C40.7909 11.8872 40.6744 12.1572 40.7115 12.1148L40.8015 12.2419C41.0663 12.5108 41.3105 12.7993 41.5321 13.1048C41.1463 13.3807 40.8204 13.7319 40.5739 14.1371C40.0445 14.9047 39.8751 15.8577 40.0445 16.0853C40.0872 16.1349 40.1372 16.1777 40.1927 16.2124L35.3328 17.6206C35.174 17.2394 35.0046 16.8635 34.8034 16.4823C33.9746 14.6695 32.6258 13.1438 30.9282 12.0989C30.0252 11.5637 29.0143 11.2364 27.9689 11.1407C26.9438 11.0639 25.9145 11.2176 24.9566 11.5907C23.2378 12.252 21.7999 13.4862 20.8855 15.0847C20.1957 16.2907 19.7884 17.6374 19.6944 19.0235C19.6271 19.7965 19.668 20.5752 19.8161 21.3369C19.8798 21.7104 20.0108 22.0691 20.2026 22.3957C20.0951 22.4605 19.9925 22.533 19.8956 22.6128C19.419 22.9681 19.0759 23.4734 18.9215 24.0475C18.856 24.3206 18.856 24.6054 18.9215 24.8786C17.9731 25.354 17.1961 26.1125 16.698 27.0491C16.3026 27.7203 15.9763 28.4298 15.7239 29.1667C15.3851 30.1197 15.0939 31.2843 14.7339 32.5919C14.0404 35.2389 13.1457 38.553 12.1505 42.3382C10.197 49.9297 7.75645 59.3795 5.31592 68.8081L4.41065 72.3498C4.11948 73.5462 3.80184 74.658 3.53185 75.9232C3.38777 76.587 3.33787 77.2678 3.38362 77.9455C3.42195 78.6943 3.64963 79.421 4.04536 80.0578C4.47162 80.7321 5.12512 81.2317 5.88767 81.466C6.57769 81.6527 7.29949 81.6906 8.00526 81.5772C10.4776 81.196 12.5528 80.3119 14.5645 80.0949C15.5029 79.9689 16.4573 80.0429 17.365 80.3119C18.2548 80.6313 19.1055 81.0504 19.9008 81.5613C22.8228 83.2811 25.8499 84.8159 28.9642 86.1565C31.4682 87.2576 33.3317 88.0094 34.3058 88.3852C35.2837 88.7803 36.2864 89.111 37.3075 89.3752C37.4272 89.5343 37.5809 89.6645 37.7575 89.7564C38.0636 89.9101 38.3997 89.995 38.7421 90.0052C39.3447 89.9857 39.9448 89.9184 40.5368 89.804C41.2674 89.677 42.1568 89.5076 43.1838 89.2746C45.2167 88.8458 47.7578 88.2158 50.6271 87.427C56.3446 85.8388 63.4439 83.8218 70.4902 81.5401C77.1022 79.4527 83.5756 76.9489 89.8715 74.0438C91.2161 73.3927 92.4761 72.7945 93.6196 72.1804C94.1966 71.8733 94.7102 71.651 95.2978 71.2698C95.6103 71.0716 95.8861 70.8209 96.1131 70.5286C96.3626 70.1908 96.5013 69.7839 96.5101 69.364C96.48 68.8072 96.362 68.2587 96.1607 67.7387C96.0284 67.294 95.8854 66.9076 95.7584 66.5582C95.4937 65.8593 95.2819 65.3299 95.1231 64.97C94.7419 64.0806 94.4825 63.5194 94.2813 63.1488L95.9013 62.4977L97.8971 61.6665C98.3832 61.4904 98.84 61.2423 99.2524 60.9306C99.4576 60.7733 99.6293 60.5766 99.7574 60.3521C99.8856 60.1276 99.9677 59.8797 99.9989 59.623C100.009 59.366 99.9524 59.1107 99.8347 58.8819ZM63.9098 3.70267C64.3597 2.71269 65.3391 1.72801 66.4562 1.68037C67.0944 1.6776 67.7222 1.84186 68.2773 2.15682C68.9167 2.48229 69.5038 2.90163 70.019 3.40091C71.1512 4.51156 71.9882 5.88721 72.4542 7.40316C72.6295 7.92373 72.7744 8.45402 72.8884 8.99136C73.0241 9.64329 73.1213 10.3027 73.1795 10.966C73.3225 11.9213 73.1998 12.8975 72.8248 13.7877C72.5961 14.2425 72.2644 14.6377 71.856 14.9418L71.586 15.1324C71.4642 15.0804 71.3385 15.0379 71.2102 15.0053C71.1045 14.966 71.0075 14.9067 70.9243 14.8306C70.7243 14.5798 70.5897 14.2833 70.5325 13.9677C70.2386 12.7836 70.0385 11.5781 69.9343 10.3625C69.9025 10.0766 69.8549 9.79075 69.8073 9.49958C69.7199 8.96284 69.5979 8.43233 69.442 7.91139C69.3017 7.41293 69.1101 6.93036 68.8702 6.47142C68.5307 5.69797 67.9638 5.04617 67.245 4.60265C66.7685 4.40147 66.5885 4.53912 66.4562 4.71911C66.3238 4.89911 66.3132 5.06322 66.5091 5.4338C66.5515 5.50262 66.6203 5.6085 66.7262 5.75144C66.2914 6.07969 65.9426 6.50837 65.7097 7.00082C65.2968 7.83198 65.2809 8.79548 65.5032 8.98606L63.7933 9.46252L63.5074 9.54193C63.6194 9.18773 63.643 8.81151 63.5762 8.44608C63.5762 8.10726 63.4651 7.4561 63.428 6.60906C63.3552 5.61574 63.5203 4.61938 63.9098 3.70267ZM67.8326 8.32961L66.8797 8.5996C66.9961 8.3349 67.1338 8.00138 67.2979 7.68374C67.3614 7.5461 67.4408 7.40846 67.515 7.27611C67.6449 7.61957 67.751 7.97157 67.8326 8.32961ZM51.993 9.76957C51.9808 8.73025 52.2167 7.70301 52.6812 6.77318C53.2106 5.7832 54.3223 4.8197 55.4976 4.87264C56.1571 4.93032 56.7885 5.16639 57.324 5.55556C57.9325 5.96381 58.4692 6.47007 58.9122 7.05376C59.6531 8.05232 60.2023 9.17958 60.5322 10.3784C60.69 10.9272 60.8103 11.4861 60.8922 12.0513C61.0664 13.1255 61.1126 14.2167 61.0298 15.3018C60.9728 16.2946 60.6021 17.2437 59.971 18.0123C59.5129 18.5174 58.9489 18.9151 58.3193 19.177C58.2745 19.1428 58.2321 19.1056 58.1922 19.0658C58.0493 18.9282 57.7317 18.7958 57.6628 17.7423C57.594 16.6888 57.5993 15.323 57.5252 13.8989C57.5252 13.613 57.4934 13.3377 57.4617 13.0518C57.4099 12.4789 57.3233 11.9096 57.2023 11.3472C57.0972 10.8376 56.943 10.3394 56.7417 9.85957C56.4648 9.06345 55.987 8.35229 55.3547 7.79492C54.9206 7.53022 54.7247 7.61492 54.55 7.79492C54.3753 7.97491 54.3488 8.09667 54.4917 8.50961C54.5712 8.73195 54.8412 9.19782 55.0953 9.89663C54.8006 10.0746 54.5434 10.3084 54.3382 10.5848C53.9094 11.146 53.7506 11.8607 53.9253 12.0619C53.9816 12.1244 54.05 12.1749 54.1265 12.2101L52.8347 12.5754C52.5171 12.6601 52.21 12.7554 51.8924 12.8454C52.0445 12.4772 52.0957 12.0752 52.0406 11.6807C52.0406 11.3207 51.9877 10.6484 51.993 9.76957ZM42.0191 15.0477C42.1144 14.91 42.2097 14.7777 42.3103 14.6506C42.4055 14.9378 42.4798 15.2315 42.5326 15.5294L41.5268 15.8259C41.6644 15.593 41.8285 15.3177 42.0191 15.0477ZM20.9279 21.2205C20.9349 20.5277 20.988 19.8362 21.0867 19.1505C21.2445 17.9887 21.643 16.8726 22.2567 15.8735C23.0333 14.624 24.2054 13.6699 25.5866 13.163C26.3212 12.8872 27.1092 12.7834 27.8902 12.8595C28.6712 12.9357 29.4243 13.1898 30.0918 13.6024C31.4937 14.4943 32.615 15.7642 33.3264 17.2659C33.4587 17.5411 33.5964 17.7953 33.7129 18.097C33.9352 18.5946 34.1364 19.0976 34.3005 19.5846C34.5443 20.2479 34.7355 20.9294 34.8722 21.6228C35.1274 22.6797 34.9783 23.7938 34.454 24.7463C34.1352 25.2482 33.6896 25.6572 33.1623 25.9321C32.9928 26.0263 32.8157 26.106 32.6329 26.1703L32.437 26.0115C32.2651 25.8856 32.1194 25.7274 32.0082 25.5456C31.8199 25.148 31.7361 24.7089 31.7647 24.2698C31.8175 22.9626 31.6965 21.6541 31.4047 20.3787C31.3213 20.0402 31.2152 19.7077 31.087 19.3835C31.034 19.2266 30.9721 19.0728 30.9018 18.9229C30.5577 18.1561 30.0462 17.4761 29.405 16.9328C28.7637 16.3896 28.0089 15.9969 27.196 15.7835C26.4935 15.6112 25.7552 15.6555 25.0784 15.9106C24.6562 16.054 24.2871 16.3215 24.0196 16.6782C23.6649 17.3294 23.8925 17.5359 24.0831 17.6153C24.2737 17.6947 24.4325 17.6153 24.8084 17.4617C25.2843 17.2113 25.828 17.1204 26.3595 17.2023C26.0845 17.5503 25.8779 17.9473 25.7507 18.3723C25.4936 19.0513 25.4713 19.7967 25.6872 20.4899L24.3584 20.8869C23.2996 21.2099 22.4314 21.4905 21.7114 21.7287C21.4255 21.824 21.182 21.914 20.9173 22.0251C20.912 21.824 20.9173 21.5752 20.9279 21.2205ZM29.2394 19.4311C28.4877 19.6482 27.7624 19.8652 27.0848 20.0717C27.1455 19.6765 27.2448 19.2881 27.3813 18.9123C27.5276 18.5451 27.7047 18.1909 27.9107 17.8535C28.4674 18.2719 28.9218 18.8113 29.2394 19.4311ZM20.5679 23.4757C21.0477 23.2177 21.5607 23.0271 22.0926 22.9092C22.8337 22.7081 23.739 22.4698 24.7872 22.1999L29.7688 20.8393C30.0334 22.0025 30.1841 23.1886 30.2188 24.381C30.2449 25.1174 30.5023 25.8269 30.9547 26.4086C31.2627 26.7792 31.6996 27.0195 32.1776 27.0809C32.3253 27.0938 32.4739 27.072 32.6117 27.0174C32.9291 27.07 33.2541 27.0537 33.5646 26.9697C34.3871 26.7336 35.1054 26.2261 35.6028 25.5298C35.9987 24.9815 36.2681 24.3523 36.3916 23.6875C36.5279 22.9248 36.5369 22.1449 36.4181 21.3793C36.3068 20.6293 36.1297 19.8906 35.8887 19.1717L42.7709 17.2288C42.7709 17.4088 42.8026 17.5941 42.8185 17.7582C42.8715 18.4941 42.9244 19.2564 43.0462 20.0081C43.1366 20.7601 43.3513 21.4918 43.6814 22.1734C43.8747 22.539 44.1546 22.8516 44.4967 23.0839C44.8126 23.2882 45.1794 23.4001 45.5555 23.4069C45.9485 23.4226 46.3372 23.3213 46.6725 23.1157C47.0171 23.1344 47.361 23.0671 47.6731 22.9198C48.4057 22.5601 48.9872 21.9524 49.3142 21.2046C49.7983 19.9994 49.994 18.6978 49.886 17.4035C49.8657 16.6922 49.786 15.9839 49.6478 15.2859L53.3535 14.2271L55.7941 13.523C55.7941 13.6818 55.7941 13.8459 55.7941 14.0048C55.8284 15.3221 55.9309 16.6368 56.1011 17.9435C56.1641 18.5752 56.4232 19.1713 56.8423 19.6481C56.9878 19.8139 57.1669 19.9468 57.3677 20.038C57.5685 20.1293 57.7864 20.1769 58.007 20.1775C58.1114 20.1724 58.2138 20.1473 58.3087 20.1034C58.5437 20.128 58.781 20.1173 59.0128 20.0717C59.7627 19.9048 60.4473 19.522 60.9822 18.9705C61.8828 18.0195 62.4415 16.7959 62.5704 15.4924C62.7253 14.2015 62.6985 12.8953 62.491 11.6119L64.2697 11.0825L68.0867 9.97075C68.1185 10.1878 68.1502 10.3996 68.1714 10.6166C68.2892 11.9396 68.5702 13.243 69.0079 14.4971C69.2079 15.1239 69.627 15.6576 70.1884 16.0006C70.385 16.1211 70.6085 16.1906 70.8388 16.2026C71.069 16.2146 71.2986 16.1688 71.5066 16.0694C71.8087 16.0864 72.1107 16.0358 72.3907 15.9212C73.0846 15.6222 73.6625 15.1056 74.0372 14.4495C74.6291 13.3459 74.8745 12.0895 74.7412 10.8443C74.7412 10.3731 74.6724 9.88604 74.5983 9.37782C75.4567 9.84196 76.1475 10.5642 76.573 11.4425C77.095 12.4971 77.5477 13.5847 77.9282 14.6983C78.6906 16.7206 79.2676 18.2029 79.6011 18.9335C80.3158 20.5905 80.6864 21.2152 80.9246 21.4058L81.5175 22.9939C81.5811 23.1739 81.6605 23.3645 81.7346 23.5498C81.4011 23.6292 80.9829 23.7404 80.4111 23.8992C79.1194 24.2698 75.4983 25.3392 70.5855 26.4668C68.1291 27.0438 65.3656 27.6685 62.4539 28.4626C59.5422 29.2567 56.5776 30.2891 53.5653 31.242C41.6485 35.2283 29.7688 39.3259 27.286 40.3847C26.6517 40.6183 26.0531 40.939 25.5072 41.3376C24.8772 39.5377 24.2896 37.8012 23.776 36.1919C22.119 31.1096 21.0814 27.1921 20.5997 25.8474C20.4158 25.2329 20.1821 24.6345 19.9008 24.058C20.0821 23.8214 20.3089 23.6234 20.5679 23.4757ZM5.63356 79.359C5.56291 79.278 5.49916 79.1912 5.44298 79.0996C4.9947 78.2087 4.90563 77.1796 5.19416 76.225C5.72356 73.9644 6.3853 71.5504 6.97294 69.2051C9.35523 59.7448 11.7375 50.2844 13.6592 42.6823C14.591 38.8812 15.4063 35.5354 16.0574 32.8884C16.3751 31.5596 16.6292 30.4161 16.9045 29.532C17.1055 28.8477 17.3604 28.1803 17.6668 27.5362C17.9983 26.8238 18.4475 26.1723 18.9956 25.6092C18.9909 26.0116 19.021 26.4137 19.0856 26.8109C19.1968 27.6156 19.615 29.0185 20.1444 30.9032C20.6738 32.7878 21.3726 35.186 22.1508 37.9071C23.739 43.344 25.7401 50.0833 27.7254 56.849C28.2018 58.5378 28.6518 60.2107 29.0118 61.9047C29.3718 63.5988 29.6683 65.1288 29.9859 66.6693C29.7225 66.7005 29.4622 66.7536 29.2077 66.8281C27.9901 67.1722 22.6378 69.4751 17.4286 72.1221C14.8186 73.4244 12.2457 74.7691 10.2023 75.9285C8.76076 76.6451 7.41152 77.5339 6.18413 78.5755C5.94664 78.7942 5.75888 79.0614 5.63356 79.359ZM34.6764 87.3582C33.7446 86.8818 31.9129 86.0506 29.4671 84.8912C26.4386 83.4914 23.4906 81.9237 20.6367 80.1954C19.7413 79.6052 18.7779 79.1252 17.7674 78.7661C16.6409 78.4278 15.4558 78.3304 14.2892 78.4802C11.9863 78.7343 9.83169 79.6396 7.7088 79.9255C7.25042 79.9899 6.78369 79.9593 6.33766 79.8355L6.20002 79.7825C6.41732 79.7001 6.62946 79.6046 6.83529 79.4967C7.36469 79.1949 8.84171 78.3373 10.9381 77.3155C13.0346 76.2938 15.6127 74.9703 18.2068 73.6627C23.3949 71.0633 28.6253 68.5593 29.663 67.8393C29.8282 67.7328 29.9841 67.6124 30.1288 67.4793C30.7588 70.5551 31.5264 73.488 32.2994 76.045C33.9511 81.4978 35.4758 85.5 36.074 86.8923C36.3916 87.6123 36.6034 88.1153 36.8204 88.4805C36.3387 88.1947 35.6716 87.84 34.6869 87.3582H34.6764ZM94.5725 67.0346L94.906 68.1834C95.0333 68.5705 95.1081 68.9729 95.1284 69.3798C95.1284 69.6181 94.9219 69.8616 94.4772 70.121C94.0325 70.3804 93.4555 70.6504 92.889 70.9151C91.7508 71.4868 90.4909 72.0533 89.1515 72.6727C82.8701 75.4448 76.4425 77.8731 69.8972 79.9466C62.8933 82.2072 55.7994 84.2559 50.1242 85.9606C47.2919 86.7918 44.7932 87.4747 42.8132 87.9723L40.2456 88.5864C39.7385 88.7272 39.2219 88.8316 38.6998 88.8988C38.523 88.924 38.3429 88.9132 38.1704 88.867C38.0651 88.8391 37.9697 88.7823 37.8951 88.7029C37.778 88.586 37.6987 88.4366 37.6675 88.2741C37.6357 88.02 37.6675 87.9088 37.5722 87.8294C37.5439 87.8102 37.511 87.7992 37.4769 87.7976C37.3975 87.4588 37.2916 87.0406 37.1434 86.5059C36.7569 85.0447 35.3593 80.9948 33.8293 75.5738C33.0617 72.8474 32.31 69.8139 31.7117 66.5158C31.3835 64.8694 31.05 63.1806 30.7112 61.4759C30.3724 59.7713 29.8853 58.0295 29.4141 56.3302L29.033 55.0543C31.5741 60.9995 34.3958 66.8228 37.3975 71.1533C38.704 73.0985 40.1683 74.9329 41.7756 76.6379C42.6947 77.7086 43.8342 78.5682 45.1161 79.1578C45.8174 79.4712 46.6017 79.5474 47.3502 79.3749C47.5045 79.3422 47.645 79.2627 47.7525 79.1472C48.0754 79.0996 48.5148 79.0149 49.1448 78.8561C51.6489 78.242 63.0839 74.6209 74.376 70.608C80.0247 68.6069 85.6416 66.5317 90.1362 64.7847L93.6302 63.4188C93.7407 64.0828 93.8946 64.7389 94.0908 65.3829C94.1808 65.7641 94.3449 66.3252 94.5725 67.0346ZM98.9454 59.7924C98.8397 59.9061 98.7141 59.9994 98.5748 60.0677C98.1777 60.3218 96.923 60.6712 95.3719 61.2483C93.8208 61.8253 91.8144 62.5241 89.5485 63.3394C85.0222 64.9541 79.3894 66.9764 73.7566 68.9987C62.4804 73.0009 51.146 76.8073 48.769 77.8079C48.1559 78.0262 47.578 78.3329 47.0537 78.7184C46.5246 78.6089 46.018 78.4102 45.5555 78.1308C44.4902 77.482 43.5475 76.6505 42.7709 75.6744C41.2782 73.9644 39.9106 72.1491 38.6786 70.2428C35.7722 65.8117 32.9293 59.7818 30.2876 53.6726C28.5618 49.665 27.0001 45.594 25.6607 41.8194C26.3419 41.7765 27.0155 41.6521 27.6671 41.4488C30.3141 40.7659 42.2362 36.8589 54.1371 32.8831C57.1176 31.9461 60.0875 30.9561 62.9357 30.0932C65.7838 29.2303 68.5367 28.6268 70.9825 27.9756C74.3294 27.2131 77.614 26.1991 80.8082 24.9421C81.2212 24.7612 81.6242 24.558 82.0152 24.3333C83.4869 28.1609 85.308 32.6661 87.3092 37.113C89.3951 41.7659 91.7314 46.3024 94.3078 50.7027C95.4301 52.5873 96.4625 54.2126 97.3254 55.4673C97.7542 56.1184 98.1248 56.616 98.3471 57.0554C98.5342 57.3744 98.6885 57.7113 98.8077 58.0613C98.967 58.4671 99.0038 58.9107 98.9136 59.3372C98.8448 59.5701 98.8448 59.6971 98.9242 59.7924H98.9454Z" fill="#980C0C"/><path d="M36.831 88.4754C36.3546 88.1948 35.6717 87.8402 34.687 87.3584C33.7023 86.8766 31.9235 86.0508 29.4777 84.8914C26.4492 83.4916 23.5012 81.9239 20.6473 80.1956C19.7519 79.6054 18.7885 79.1254 17.778 78.7663C16.6515 78.4279 15.4664 78.3306 14.2998 78.4804C11.997 78.7345 9.84231 79.6398 7.71942 79.9256C7.26104 79.9901 6.7943 79.9594 6.34828 79.8357L6.21063 79.7827C6.42794 79.7002 6.64008 79.6048 6.84591 79.4968C7.37531 79.1951 8.85233 78.3375 10.9487 77.3157C13.0452 76.294 15.6233 74.9705 18.2174 73.6629C23.4055 71.0635 28.636 68.5595 29.6736 67.8395C29.8389 67.733 29.9947 67.6126 30.1394 67.4795C30.7694 70.5553 31.5371 73.4882 32.31 76.0452C33.9617 81.498 35.4864 85.5002 36.0846 86.8925C36.4022 87.6231 36.6405 88.126 36.831 88.4754Z" fill="#980C0C"/><path d="M89.2202 54.0698C89.0138 53.5404 88.225 52.058 87.2191 50.1469C86.7215 49.1887 86.0968 48.1352 85.5462 46.9705C84.9956 45.8058 84.4186 44.6147 83.8733 43.3865C81.7028 38.4419 79.4846 33.4762 78.8176 32.5074C78.3199 31.7927 78.1029 31.7715 77.8858 31.8668C77.6688 31.9621 77.5841 32.0891 77.8064 32.9679C77.9441 33.4973 78.447 34.8473 79.1617 36.6367C78.7005 36.6619 78.243 36.7328 77.7958 36.8484C77.0494 37.0178 75.2759 37.5472 72.8936 38.3096C72.3441 36.8898 71.7221 35.4992 71.0301 34.1432C70.9088 33.9357 70.765 33.7422 70.6013 33.5662C73.4653 32.6185 75.6623 32.0468 76.4247 31.8191C76.7477 31.7169 77.0891 31.6862 77.4252 31.7291C77.5486 31.782 77.6836 31.8021 77.817 31.7874C77.8911 31.7874 78.0182 31.6762 77.8752 31.3427C77.7323 31.0092 77.1129 30.6651 76.25 30.7233C73.7514 31.0916 71.2906 31.6816 68.8966 32.4862C65.355 33.6032 61.0245 35.0644 56.6675 36.5467L53.417 37.7061L50.2777 38.8813L44.5708 41.0519C41.1244 42.3806 38.5356 43.4236 37.6515 43.8735C36.3598 44.53 36.2592 44.7735 36.3439 44.9906C36.3594 45.0315 36.3871 45.0666 36.4233 45.0912C36.2127 45.3392 36.0833 45.646 36.0527 45.97C36.0226 46.6459 36.1049 47.3221 36.2963 47.9711C36.5027 48.8446 36.8257 49.9352 37.2174 51.1475C38.2163 53.9424 39.3921 56.6708 40.7379 59.3161C41.9923 62.0148 43.4524 64.613 45.1055 67.0877C46.0715 68.5564 47.2489 69.8747 48.5995 70.9999C49.4465 71.5876 49.7165 71.5558 49.87 71.3811C49.9141 71.3297 49.9369 71.2634 49.9336 71.1958C50.3136 71.178 50.692 71.1356 51.0665 71.0687C53.4613 70.5515 55.8245 69.8975 58.1446 69.11C61.6015 67.9929 65.8261 66.3942 69.9872 64.6895C74.1483 62.9848 78.2829 61.2166 81.5969 59.7873C83.2539 59.0673 84.7045 58.4267 85.8321 57.9079C86.6633 57.5575 87.4729 57.158 88.2567 56.7115C88.6936 56.4538 89.0579 56.0895 89.3155 55.6527C89.4426 55.3985 89.4002 55.2715 89.3155 55.1921C89.4691 55.065 89.5061 54.8215 89.2202 54.0698ZM84.0533 47.7646C84.3286 48.294 84.6145 48.8234 84.8951 49.2946C84.6992 49.3316 84.4821 49.3846 84.2068 49.4534C83.4392 49.644 81.5598 50.2687 79.1087 51.1792C78.2511 49.4587 77.2611 47.5158 76.25 45.5782C78.5476 44.7312 80.2469 44.1224 80.9405 43.8312C81.291 43.6884 81.6307 43.5203 81.9569 43.3283L82.3063 44.1224C82.8622 45.3823 83.4551 46.6211 84.0533 47.7646ZM57.9804 66.3465C57.8163 66.0818 57.4828 65.5895 57.0646 64.8854C56.6463 64.1813 56.2228 63.366 55.6987 62.3813C57.9487 61.5343 60.4633 60.539 63.0415 59.4855C63.9068 60.9449 64.8801 62.3376 65.9532 63.6519C66.1314 63.8489 66.3302 64.0264 66.5461 64.1813C63.6768 65.3301 60.8868 66.41 58.4463 67.2941C58.3483 66.9581 58.1905 66.6424 57.9804 66.3624V66.3465ZM54.9417 60.9519C54.0205 59.2102 52.9776 57.2461 51.9453 55.208C54.137 54.3662 56.5511 53.4027 59.0392 52.3916C60.0345 54.3768 61.1198 56.3091 62.1309 58.0032C59.5898 59.0726 57.1281 60.0837 54.9417 60.9678V60.9519ZM71.9566 40.2472L72.8301 42.4971C73.1742 43.2436 73.55 44.0112 73.9259 44.7788L73.4442 44.9429C71.8295 45.4723 70.0401 46.1605 68.1502 46.8752C67.3878 45.3135 66.6626 43.7783 66.0326 42.3806L71.9566 40.2472ZM66.562 47.4999C64.8838 48.1511 63.1632 48.8446 61.4427 49.5487L59.8545 50.1946C59.0392 48.5428 58.2663 46.9123 57.6152 45.43L59.4892 44.7471L64.4867 42.9312C65.1061 44.3712 65.8049 45.9276 66.562 47.5158V47.4999ZM58.2716 50.851L51.1988 53.7521C50.3147 52.0157 49.4571 50.2899 48.6895 48.7387L56.1011 45.9964C56.7258 47.5211 57.4616 49.1834 58.2716 50.8669V50.851ZM60.6433 51.7404L62.1309 51.1316C63.8779 50.4169 65.6249 49.7075 67.3137 49.014C67.3455 49.0722 67.372 49.1305 67.3984 49.1887C68.3461 51.0892 69.3519 52.9527 70.2995 54.615C68.7113 55.2609 67.0808 55.9332 65.4503 56.6109L63.6609 57.352C62.6974 55.7056 61.6439 53.7415 60.6433 51.7563V51.7404ZM68.9337 48.4052C70.7442 47.6852 72.4648 47.0129 74.0212 46.4252L74.6353 46.1976L74.6935 46.3194C75.6782 48.2146 76.6735 50.0993 77.5735 51.7722L77.2453 51.8939C75.5988 52.5186 73.7671 53.2439 71.8454 54.0115C70.9136 52.3069 69.9025 50.3746 68.9337 48.4211V48.4052ZM78.1611 37.9125C78.5923 37.7323 78.9995 37.4994 79.3734 37.219C80.0193 38.8072 80.8028 40.6919 81.6393 42.6295C81.2837 42.6657 80.9303 42.7205 80.5805 42.7936C79.8181 42.9365 77.997 43.4553 75.5671 44.2441L74.3494 41.7983L73.4653 39.7125C75.7894 38.8707 77.4888 38.2354 78.1611 37.9125ZM69.4049 34.0003C69.5743 33.9367 69.7331 33.8838 69.9025 33.8309C69.9054 34.0863 69.9392 34.3405 70.0031 34.5879C70.1301 35.1755 70.6595 36.7478 71.4007 38.8231C69.5849 39.416 67.5202 40.1095 65.3285 40.8666C64.365 38.7648 63.645 37.1767 63.3379 36.6473C63.2422 36.4904 63.1361 36.34 63.0203 36.1973L69.4049 34.0003ZM57.2287 38.1931L62.1627 36.4884C62.1876 36.6899 62.2247 36.8897 62.2739 37.0867C62.7021 38.5501 63.2202 39.9857 63.825 41.3854C62.1944 41.9518 60.5215 42.55 58.8539 43.1641L56.9005 43.8788C55.9793 41.8089 55.3123 40.2366 54.9946 39.6966C54.877 39.4828 54.7368 39.2823 54.5764 39.0984L57.2287 38.1931ZM50.8759 40.443L53.8882 39.3419C53.8955 39.597 53.9293 39.8507 53.9888 40.0989C54.3859 41.5708 54.8775 43.0155 55.4605 44.4241C52.787 45.43 50.2247 46.42 47.9801 47.3199C46.8631 45.0594 46.0054 43.3441 45.6402 42.7777C45.5566 42.653 45.4665 42.5328 45.3702 42.4177L50.8759 40.443ZM37.6409 47.5687C37.4488 47.0513 37.2949 46.5205 37.1804 45.9805C37.1356 45.7556 37.1125 45.5269 37.1115 45.2976C37.1079 45.2379 37.0954 45.179 37.0745 45.1229C37.3233 45.0859 37.6409 45.017 38.0962 44.9006C38.9962 44.6623 41.3785 43.8418 44.5284 42.7459C44.556 42.9251 44.5967 43.1021 44.6502 43.2753C45.1947 44.86 45.822 46.4151 46.5295 47.934C43.4749 49.1728 41.1985 50.1575 40.3938 50.581C39.335 51.1634 39.1021 51.4228 39.118 51.6398C38.9697 51.2869 38.8321 50.934 38.705 50.581C38.2392 49.4111 37.8898 48.3787 37.6251 47.5634L37.6409 47.5687ZM39.1868 51.8039C39.3033 51.9257 39.6262 51.9522 40.8332 51.6028C41.712 51.3486 44.0573 50.491 47.186 49.3422C47.9113 50.9304 48.7424 52.6827 49.6318 54.4509C46.2331 55.8168 43.6549 56.8226 42.7496 57.2356C42.4544 57.3763 42.1664 57.5318 41.8867 57.7014C40.865 55.6262 39.9226 53.588 39.1709 51.7828L39.1868 51.8039ZM42.2891 58.5273L42.2573 58.4585C42.4849 58.4214 42.7867 58.3632 43.1414 58.2785C44.1049 58.0561 46.7572 57.1879 50.2142 55.9015L50.3359 55.8591C51.3947 57.8814 52.4535 59.8614 53.4382 61.5978C50.23 62.879 47.8001 63.8213 46.9478 64.2183C46.479 64.3963 46.0506 64.6663 45.6878 65.0124C44.5549 63.1172 43.4061 60.8249 42.2732 58.5061L42.2891 58.5273ZM50.7594 70.0047C50.3656 70.14 49.9875 70.3175 49.6318 70.534C49.5577 70.4282 49.4783 70.3117 49.3724 70.1794C48.3048 68.9041 47.3148 67.5658 46.4078 66.1718C46.2595 65.9442 46.1113 65.7006 45.9631 65.4571C46.4254 65.4393 46.8839 65.3664 47.3289 65.2401C48.2766 65.023 50.8547 64.1813 54.2111 62.9478V62.9795C54.8252 64.0383 55.3864 64.9595 55.9052 65.6742C56.2572 66.1924 56.6675 66.6684 57.1281 67.093C57.3253 67.2684 57.5441 67.4179 57.7793 67.5377L57.5834 67.6118C54.227 68.8241 51.6382 69.6182 50.7489 69.9994L50.7594 70.0047ZM69.3149 63.1225L67.1973 63.9854C67.141 63.6692 67.0356 63.3638 66.8849 63.0801C66.6096 62.5084 65.6991 60.9625 64.5344 58.9402L66.1649 58.2679L71.1783 56.1503C72.0455 57.6932 73.0165 59.1754 74.0847 60.5867C74.2108 60.7302 74.3452 60.8663 74.4871 60.9943L69.3149 63.1225ZM87.7485 55.7056C86.9015 56.0074 84.2968 56.9762 80.9616 58.3208L75.2441 60.6502C75.1851 60.4142 75.1054 60.1839 75.0059 59.962C74.7412 59.3584 73.82 57.6961 72.6395 55.5097L77.8488 53.3392L78.3146 53.1486C79.4581 55.2291 80.3687 56.7962 80.7552 57.2991C81.3163 58.0085 81.5651 58.072 81.7769 57.9608C81.9887 57.8497 82.031 57.6644 81.7293 56.7697C81.5334 56.1821 80.7975 54.6044 79.7811 52.5345C82.1581 51.5551 83.9157 50.8245 84.6145 50.4857C84.9215 50.3269 85.1439 50.1946 85.3609 50.0781C85.5303 50.364 85.6997 50.6446 85.8586 50.9198C86.5834 52.2042 87.3879 53.4418 88.2673 54.6256C88.4483 54.8498 88.6647 55.0429 88.9079 55.1974C88.6856 55.3033 88.3573 55.4833 87.7485 55.7056Z" fill="#980C0C"/><path d="M78.8705 7.36114C79.7069 8.74287 80.1622 10.2887 80.4322 10.5958C80.511 10.6853 80.6132 10.7511 80.7273 10.7857C80.8414 10.8203 80.9629 10.8223 81.0781 10.7916C81.1887 10.7796 81.2921 10.7308 81.3718 10.6531C81.4514 10.5753 81.5027 10.4732 81.5175 10.3628C81.6498 9.9499 81.3216 8.07054 80.3369 6.45587C79.3522 4.84121 77.8911 3.6183 77.4517 3.56536C77.3339 3.53251 77.2084 3.54145 77.0964 3.59067C76.9845 3.63989 76.893 3.72634 76.8376 3.83535C76.765 3.9151 76.7185 4.01513 76.7043 4.12204C76.6901 4.22895 76.7089 4.33764 76.7582 4.43357C76.9276 4.79356 78.0711 5.94236 78.8705 7.36114Z" fill="#980C0C"/><path d="M82.5286 6.32845C82.7616 6.93726 83.058 7.53548 83.2222 7.94841C83.3186 8.23555 83.454 8.50808 83.6245 8.75839C83.7922 8.90082 84.0084 8.97291 84.228 8.95956C84.3309 8.97319 84.4354 8.95325 84.526 8.90269C84.6166 8.85214 84.6885 8.77367 84.7309 8.67898C84.8456 8.2758 84.8456 7.84866 84.7309 7.44548C84.5741 6.838 84.376 6.24193 84.138 5.66141C83.9203 5.07676 83.6639 4.50727 83.3704 3.95675C83.1811 3.54715 82.8555 3.21596 82.4492 3.01971C82.3354 2.99516 82.2167 3.00883 82.1114 3.0586C82.0061 3.10836 81.9202 3.19145 81.8669 3.295C81.7457 3.44408 81.6836 3.63248 81.6922 3.8244C81.7666 4.10455 81.8567 4.38027 81.9622 4.65026C82.0734 5.07907 82.2904 5.73552 82.5286 6.32845Z" fill="#980C0C"/><path d="M3.29892 61.9793C3.12422 61.9105 2.94423 61.8893 2.64247 62.2704C2.24542 62.7681 1.18133 65.4151 0.604286 68.2103C0.0272417 71.0055 -0.105108 73.859 0.0748875 74.4678C0.223119 74.9178 0.408409 74.9972 0.646638 74.9972C0.884867 74.9972 1.01192 74.939 1.17604 74.4943C1.3878 73.9119 1.70544 71.1855 2.27189 68.5226C2.83835 65.8598 3.65362 63.2287 3.66421 62.6251C3.68009 62.1805 3.51598 62.0587 3.29892 61.9793Z" fill="#980C0C"/><path d="M3.26714 59.1409C3.35753 59.1618 3.4513 59.1637 3.54245 59.1464C3.63361 59.1291 3.72015 59.0929 3.79654 59.0403C4.0136 58.8762 4.2783 58.0185 4.51123 57.1662C4.74417 56.3139 4.94534 55.4563 4.8024 55.2021C4.67688 55.0235 4.48722 54.9002 4.273 54.858C4.18986 54.8203 4.09961 54.8008 4.0083 54.8008C3.917 54.8008 3.82675 54.8203 3.7436 54.858C3.49479 54.9851 3.06597 55.8533 2.82245 56.7797C2.57893 57.7062 2.49952 58.6644 2.6901 58.8973C2.7653 58.9742 2.85506 59.0353 2.95413 59.0771C3.05321 59.1189 3.15961 59.1406 3.26714 59.1409Z" fill="#980C0C"/></svg>