<svg width="57" height="57" viewBox="0 0 57 57" fill="none" xmlns="http://www.w3.org/2000/svg"><path d="M27.4822 56.4569C42.5941 56.4569 55.2093 43.8522 55.659 28.3036C56.1088 12.755 44.2229 0.150391 29.111 0.150391C13.9992 0.150391 1.38404 12.755 0.934255 28.3036C0.484472 43.8522 12.3704 56.4569 27.4822 56.4569Z" fill="url(#paint0_linear_17_20918)"/><path d="M13.5951 44.3285L15.8643 35.5315C14.0371 32.0965 13.4605 28.0902 14.2405 24.248C15.0205 20.4058 17.1046 16.9857 20.1103 14.6154C23.116 12.2451 26.8416 11.0838 30.603 11.3446C34.3645 11.6055 37.9094 13.271 40.587 16.0354C43.2646 18.7998 44.8952 22.4776 45.1794 26.3936C45.4636 30.3095 44.3824 34.2009 42.1343 37.3533C39.8861 40.5057 36.6219 42.7075 32.9408 43.5546C29.2598 44.4016 25.4089 43.8371 22.0953 41.9645L13.5951 44.3285ZM22.5231 38.6512L23.0625 38.9999C25.7344 40.6616 28.8977 41.2472 31.9555 40.6462C35.0134 40.0452 37.7544 38.2992 39.6614 35.7376C41.5685 33.176 42.5097 29.9759 42.3075 26.7411C42.1053 23.5062 40.7738 20.4603 38.564 18.1779C36.3542 15.8955 33.4189 14.5345 30.3121 14.3517C27.2052 14.1688 24.1416 15.1768 21.6991 17.1853C19.2566 19.1939 17.6041 22.0642 17.0535 25.2548C16.5029 28.4453 17.0921 31.7355 18.7101 34.5046L19.0449 35.0665L17.7801 39.93L22.5231 38.6512Z" fill="white"/><path fill-rule="evenodd" clip-rule="evenodd" d="M35.3385 29.9317C35.0299 29.6719 34.6681 29.4896 34.2811 29.3989C33.894 29.3082 33.4921 29.3115 33.1065 29.4085C32.5113 29.641 32.1393 30.5905 31.7673 31.0749C31.6857 31.1886 31.568 31.2684 31.4352 31.3004C31.3025 31.3323 31.1631 31.3142 31.0419 31.2493C28.92 30.3813 27.1432 28.7898 26.0013 26.7345C25.8941 26.613 25.8346 26.4539 25.8346 26.2889C25.8346 26.1238 25.8941 25.9648 26.0013 25.8432C26.4279 25.4167 26.7418 24.8828 26.9127 24.2931C26.9444 23.6517 26.8027 23.0139 26.5035 22.4523C26.2059 21.7742 25.8525 20.786 25.2015 20.4178C24.8976 20.2742 24.5603 20.2252 24.2303 20.2768C23.9002 20.3283 23.5916 20.4783 23.3415 20.7085C22.8946 21.1107 22.5393 21.6115 22.3012 22.1745C22.0632 22.7376 21.9483 23.3487 21.9651 23.9637C21.9798 24.3093 22.0233 24.6529 22.0953 24.9907C22.2987 25.7984 22.6185 26.5693 23.0439 27.2771C23.3415 27.8002 23.6763 28.3428 24.0297 28.8466C25.1828 30.499 26.6286 31.9064 28.2891 32.9931C29.137 33.543 30.0417 33.9915 30.9861 34.3301C31.9592 34.7859 33.0323 34.96 34.0923 34.8339C34.7039 34.7437 35.2842 34.4964 35.7811 34.1141C36.2779 33.7319 36.6755 33.2267 36.9381 32.6444C37.0879 32.2916 37.1333 31.9003 37.0683 31.5205C36.9381 30.7648 35.9337 30.2417 35.3385 29.9317Z" fill="white"/><defs><linearGradient id="paint0_linear_17_20918" x1="53.8926" y1="17.5355" x2="1.90515" y2="36.9607" gradientUnits="userSpaceOnUse"><stop stop-color="#60FC7C"/><stop offset="1" stop-color="#4AB161"/></linearGradient></defs></svg>