<svg width="45" height="35" viewBox="0 0 45 35" fill="none" xmlns="http://www.w3.org/2000/svg">
<path d="M2.67316 13.6963H7.99909V27.3915H4.19486C3.99307 27.3915 3.79954 27.4717 3.65686 27.6144C3.51417 27.7571 3.43401 27.9506 3.43401 28.1524C3.43401 28.3542 3.51417 28.5477 3.65686 28.6904C3.79954 28.8331 3.99307 28.9132 4.19486 28.9132H40.7155C40.9173 28.9132 41.1108 28.8331 41.2535 28.6904C41.3962 28.5477 41.4763 28.3542 41.4763 28.1524C41.4763 27.9506 41.3962 27.7571 41.2535 27.6144C41.1108 27.4717 40.9173 27.3915 40.7155 27.3915H36.9113V13.6963H42.2372C42.4031 13.6967 42.5646 13.6428 42.697 13.5429C42.8295 13.443 42.9257 13.3025 42.9709 13.1429C43.0162 12.9833 43.008 12.8132 42.9476 12.6587C42.8873 12.5041 42.7781 12.3736 42.6366 12.2868L22.8546 0.113288C22.7345 0.0392233 22.5962 0 22.4552 0C22.3141 0 22.1758 0.0392233 22.0557 0.113288L2.27372 12.2868C2.13228 12.3736 2.02306 12.5041 1.96271 12.6587C1.90236 12.8132 1.89418 12.9833 1.93941 13.1429C1.98465 13.3025 2.08083 13.443 2.2133 13.5429C2.34576 13.6428 2.50725 13.6967 2.67316 13.6963ZM9.52078 13.6963H17.1292V27.3915H9.52078V13.6963ZM26.2594 13.6963V27.3915H18.6509V13.6963H26.2594ZM35.3896 27.3915H27.7811V13.6963H35.3896V27.3915ZM22.4552 1.6559L39.5495 12.1746H5.36085L22.4552 1.6559ZM44.5197 34.2392C44.5197 34.4409 44.4396 34.6345 44.2969 34.7772C44.1542 34.9198 43.9607 35 43.7589 35H1.15147C0.949682 35 0.756158 34.9198 0.613472 34.7772C0.470785 34.6345 0.390625 34.4409 0.390625 34.2392C0.390625 34.0374 0.470785 33.8438 0.613472 33.7012C0.756158 33.5585 0.949682 33.4783 1.15147 33.4783H43.7589C43.9607 33.4783 44.1542 33.5585 44.2969 33.7012C44.4396 33.8438 44.5197 34.0374 44.5197 34.2392Z" fill="#980C0C"/>
</svg>
