<svg id="Layer_1" data-name="Layer 1" xmlns="http://www.w3.org/2000/svg" viewBox="0 0 384 384"><defs><style>.cls-1{fill:#6b7280;}</style></defs><path class="cls-1" d="M99.28,116.86V74.57c0-14.26,9.24-23.57,23.43-23.58H258.8c14.25,0,23.49,9.27,23.52,23.48V128.8h45.33c5,0,6.23,1.22,6.23,6.27V304.75c0,16-9.57,27.87-24.73,30.36-3.72.62-7.6.4-11.41.41H123.54c-5.62,0-10.83-1-15.35-4.45a21.91,21.91,0,0,1-8.93-18.33v-36.4q0-43-.06-86a12.57,12.57,0,0,0-1.58-5.9Q74.91,144.81,52,105.3c-4.22-7.3-3.43-12,3-17.6a28.38,28.38,0,0,1,12.5-6.57c6.21-1.43,10.83.56,14,6.09,5.25,9.09,10.44,18.21,15.66,27.32L98.6,117Zm8.81,86V311.61c0,9.67,5.4,15.11,15.06,15.11H278.69c.81,0,1.61-.09,3-.16-7-7.51-8.64-16.18-8.17-25.56.19-3.71-.09-7.44-.09-11.16q.06-107.46.13-214.91c0-9.68-5.42-15.14-15.05-15.14H123c-9.47,0-14.91,5.49-14.91,15q0,27.94.06,55.88a11.45,11.45,0,0,0,1.4,5.36q19.24,33.84,38.66,67.58a19.08,19.08,0,0,1,1.18,2c.71,1.61,1.76,3.21,1.94,4.9.95,9.11,1.66,18.25,2.49,27.38.2,2.22,0,4.27-2.16,5.48s-4,.41-5.83-.88c-7.74-5.41-15.53-10.76-23.26-16.19a8.34,8.34,0,0,1-2.28-2.49c-3.46-5.93-6.84-11.91-10.26-17.87C109.59,205.09,109.06,204.35,108.09,202.86Zm174.57-65.07c-.07.87-.18,1.62-.18,2.36q-.08,82.67-.12,165.32c0,13.52,10.77,22.75,24.26,21.08,11.27-1.39,18.48-9.81,18.48-21.71V140.66c0-.92-.08-1.85-.13-2.87ZM66.82,113.16,126.19,216l14.13-8.37-59.07-103Zm10-16.27c-1.18-2-2.18-3.68-3-5.37a3.15,3.15,0,0,0-4-1.79A19.57,19.57,0,0,0,59.33,95.9a3.43,3.43,0,0,0-.6,3,67.21,67.21,0,0,0,3.65,6.59ZM143,216.48l-10.1,6,11.38,7.93c-.47-4.95-.86-9.2-1.3-13.93Z"/><path class="cls-1" d="M171.66,163.45a33.65,33.65,0,0,0-9.37-21.26,45.39,45.39,0,0,1-12-22.7C145.15,93,166.63,67.88,193.56,69.27c17.79.92,30.69,9.78,37.43,26.15s3.93,31.91-8.15,45.19c-4.71,5.18-8.9,10.47-10.15,17.55-.28,1.58-.38,3.2-.61,5.29h5.25c3,.08,4.95,1.78,5,4.36s-1.78,4.5-4.83,4.51q-25.78.08-51.57,0c-3,0-4.88-1.89-4.84-4.5s2-4.29,5-4.37C167.87,163.41,169.66,163.45,171.66,163.45Zm15.55-.88c0-4.46-.23-8.87.07-13.23.25-3.59-.5-5.6-4.25-7.22-8-3.47-11.72-12.83-9.2-21.17s10.6-13.87,18.68-13c8.82.94,15.41,7,16.79,15.49,1.32,8.08-3.23,15.93-11.26,19.59-.73.34-1.74,1.16-1.75,1.77-.13,6-.08,12-.08,18h6.69c.61-3.25,1-6.37,1.8-9.39,2-7.86,7-13.78,12.33-19.63,12.06-13.2,11.14-33.67-1.78-46.31a33.29,33.29,0,0,0-46.09-.35c-14,13.2-14.42,33.77-.83,48.43A45.17,45.17,0,0,1,180,158.13c1,5.2,1,5.2,6.38,4.78a4,4,0,0,0,.83-.34Zm4-27.18A9.28,9.28,0,1,0,182,126a9.28,9.28,0,0,0,9.21,9.39Z"/><path class="cls-1" d="M208.93,197.74H167.15a12.94,12.94,0,0,1-2.85-.13,4.41,4.41,0,0,1-.07-8.67,12.37,12.37,0,0,1,2.85-.15h83.56a12.29,12.29,0,0,1,2.84.17,4.39,4.39,0,0,1,.07,8.59,11.78,11.78,0,0,1-2.84.19Z"/><path class="cls-1" d="M211.22,232.83q20,0,40.06.06a7.39,7.39,0,0,1,4.42,1.39c2.56,2.17,1.35,6.35-1.94,7.19a13.85,13.85,0,0,1-3.4.25H170.24c-3.27-.12-5.18-1.79-5.16-4.48s2-4.4,5.23-4.41h40.91Z"/><path class="cls-1" d="M211.84,211h38.67a12.94,12.94,0,0,1,2.85.11,4.2,4.2,0,0,1,3.63,4.47,4.08,4.08,0,0,1-3.6,4.17,17.35,17.35,0,0,1-3.14.16H173.2c-4.75,0-6.85-1.43-6.77-4.59s2.1-4.33,6.74-4.33Z"/><path class="cls-1" d="M211.32,308H172.37a15.74,15.74,0,0,1-2.57-.06,4.12,4.12,0,0,1-3.82-4.27,4.06,4.06,0,0,1,3.69-4.37,17,17,0,0,1,2.85-.13h77.33c4.69,0,6.64,1.28,6.68,4.36s-2,4.47-6.55,4.47Z"/><path class="cls-1" d="M163.63,285.69H129.25c-4.09,0-6.54-3.64-4.35-6.6a5.76,5.76,0,0,1,4-2.08c23-.12,46-.1,69-.07,3,0,4.83,1.82,4.77,4.5s-1.77,4.23-4.73,4.24C186.54,285.72,175.09,285.69,163.63,285.69Z"/><path class="cls-1" d="M218.36,255.1h32.92c3.34,0,5.25,1.61,5.24,4.33a4.1,4.1,0,0,1-3.67,4.38,8.18,8.18,0,0,1-1.71.09h-67a4.43,4.43,0,0,1-4.44-4.3c0-2.48,1.82-4.32,4.58-4.47,1.24-.06,2.48,0,3.72,0Z"/><path class="cls-1" d="M146.18,263.91H129.33c-3.22,0-5.22-1.79-5.2-4.42s2-4.36,5.26-4.37h33.42c3.28,0,5.26,1.65,5.34,4.29s-2,4.48-5.4,4.5C157.23,263.93,151.71,263.91,146.18,263.91Z"/><path class="cls-1" d="M235.54,285.69h-16c-3.28,0-5.13-1.71-5.08-4.47s1.89-4.28,5-4.29h32c3.28,0,5.13,1.7,5.08,4.48s-1.82,4.25-5,4.28C246.21,285.73,240.88,285.69,235.54,285.69Z"/><path class="cls-1" d="M139,299.14c3.24,0,6.48-.08,9.72,0,3.06.09,4.79,1.87,4.69,4.57s-1.85,4.18-4.77,4.2q-9.87.07-19.73,0c-2.81,0-4.69-1.81-4.75-4.28a4.39,4.39,0,0,1,4.3-4.48h.25c3.42-.11,6.86,0,10.29,0Z"/></svg>