<svg width="81" height="82" viewBox="0 0 81 82" fill="none" xmlns="http://www.w3.org/2000/svg">
<rect x="0.5" y="1" width="80" height="80" rx="40" stroke="#565656"/>
<path d="M24.7658 27.5699V27.0883C24.7658 24.7717 24.7658 22.4534 24.7658 20.1368C24.7658 17.6304 26.3899 15.9941 28.884 15.9923C36.8519 15.9923 44.8252 15.9923 52.8037 15.9923C55.3083 15.9923 56.9324 17.6216 56.9376 20.1192C56.9376 23.0756 56.9376 26.0314 56.9376 28.9865V29.6685H57.5528C60.0029 29.6685 62.4537 29.6685 64.905 29.6685C65.7838 29.6685 66 29.8829 66 30.7705C66 40.7117 66 50.6529 66 60.5941C66 63.4063 64.3179 65.4927 61.6534 65.9303C60.9995 66.0393 60.3176 66.0006 59.6479 66.0024C49.4419 66.0024 39.2359 66.0024 29.0298 66.0024C28.0421 66.0024 27.1263 65.8266 26.3319 65.2202C25.8289 64.8505 25.4233 64.3641 25.1499 63.8029C24.8765 63.2417 24.7435 62.6225 24.7623 61.9985C24.7623 59.8665 24.7623 57.7327 24.7623 55.6007C24.7623 50.5633 24.7623 45.5241 24.7518 40.485C24.7461 40.1217 24.6507 39.7655 24.4741 39.448C21.813 34.8043 19.142 30.1677 16.461 25.538C15.7193 24.255 15.8581 23.4324 16.983 22.4446C17.6067 21.8811 18.3623 21.484 19.18 21.2898C20.2715 21.0385 21.0836 21.3883 21.6407 22.3602C22.5635 23.9579 23.4757 25.5609 24.3932 27.1621L24.6463 27.5945L24.7658 27.5699ZM26.3143 42.6856V43.3148C26.3143 49.4771 26.3143 55.6388 26.3143 61.7999C26.3143 63.4995 27.2634 64.4557 28.9613 64.4557H56.2996C56.442 64.4557 56.5826 64.4398 56.8269 64.4275C55.5965 63.1076 55.3083 61.5837 55.3909 59.935C55.4243 59.2829 55.3751 58.6273 55.3751 57.9735C55.3821 45.3818 55.3897 32.7906 55.3979 20.2001C55.3979 18.4987 54.4453 17.539 52.7527 17.539H28.9349C27.2705 17.539 26.3143 18.504 26.3143 20.1755C26.3143 23.45 26.3143 26.7244 26.3248 29.9972C26.3289 30.3265 26.4134 30.6499 26.5709 30.9393C28.8265 34.9045 31.0916 38.8639 33.3659 42.8174C33.442 42.9303 33.5112 43.0477 33.5733 43.1689C33.6981 43.4519 33.8827 43.7331 33.9143 44.0301C34.0813 45.6314 34.2061 47.2378 34.352 48.8426C34.3871 49.2328 34.352 49.5931 33.9723 49.8057C33.5927 50.0184 33.2693 49.8778 32.9476 49.6511C31.5872 48.7002 30.218 47.7599 28.8594 46.8055C28.6973 46.6884 28.561 46.5395 28.4586 46.3678C27.8505 45.3255 27.2564 44.2745 26.6553 43.2269C26.5779 43.0775 26.4848 42.9474 26.3143 42.6856ZM56.9974 31.2486C56.9851 31.4015 56.9657 31.5333 56.9657 31.6634C56.9564 41.3503 56.9493 51.0361 56.9447 60.7207C56.9447 63.097 58.8376 64.7193 61.2087 64.4258C63.1895 64.1815 64.4568 62.7015 64.4568 60.6099C64.4568 50.991 64.4568 41.372 64.4568 31.753C64.4568 31.5913 64.4427 31.4279 64.4339 31.2486H56.9974ZM19.0605 26.9195L29.4956 44.9951L31.9792 43.5239L21.5968 25.4203L19.0605 26.9195ZM20.8182 24.0599C20.6108 23.7083 20.435 23.4131 20.2909 23.116C20.2375 22.9826 20.1342 22.8751 20.003 22.8164C19.8718 22.7577 19.7229 22.7523 19.5878 22.8014C18.8735 22.9575 18.2276 23.3374 17.7441 23.8859C17.6867 23.9595 17.6474 24.0455 17.6291 24.1371C17.6108 24.2286 17.614 24.3231 17.6386 24.4132C17.8308 24.8108 18.045 25.1975 18.2801 25.5714L20.8182 24.0599ZM32.4432 45.0795L30.668 46.134L32.6682 47.5278C32.5856 46.6578 32.517 45.9108 32.4397 45.0795H32.4432Z" fill="#565656"/>
<path d="M37.4871 35.7587C37.3989 34.3571 36.8152 33.0327 35.8402 32.0219C34.7675 30.923 34.0351 29.5375 33.7311 28.0321C32.8276 23.3761 36.603 18.9609 41.3364 19.2052C44.4632 19.3669 46.7306 20.9242 47.9152 23.8015C49.0999 26.6787 48.606 29.4101 46.4827 31.7442C45.6549 32.6547 44.9184 33.5845 44.6987 34.8289C44.6495 35.1066 44.6319 35.3913 44.5915 35.7587C44.929 35.7587 45.2207 35.7587 45.5143 35.7587C46.0416 35.7727 46.3843 36.0715 46.3931 36.525C46.4019 36.9785 46.0802 37.3159 45.5442 37.3177C42.5234 37.3259 39.502 37.3259 36.48 37.3177C35.9527 37.3177 35.6223 36.9855 35.6293 36.5268C35.6363 36.068 35.9808 35.7727 36.5081 35.7587C36.821 35.7516 37.1356 35.7587 37.4871 35.7587ZM40.2203 35.604C40.2203 34.8201 40.1798 34.045 40.2326 33.2787C40.2765 32.6477 40.1447 32.2944 39.4856 32.0096C38.0795 31.3997 37.4256 29.7546 37.8685 28.2887C38.3115 26.8228 39.7316 25.8509 41.1518 26.0038C42.7021 26.169 43.8603 27.2341 44.1029 28.7264C44.3349 30.1465 43.5352 31.5263 42.1238 32.1696C41.9955 32.2293 41.818 32.3735 41.8162 32.4807C41.7934 33.5353 41.8021 34.5898 41.8021 35.6444H42.978C43.0852 35.0732 43.1538 34.5248 43.2944 33.994C43.6459 32.6125 44.5247 31.572 45.4615 30.5438C47.5813 28.2237 47.4196 24.6258 45.1487 22.4041C44.0671 21.3507 42.6203 20.7562 41.1106 20.7447C39.6009 20.7332 38.1451 21.3058 37.0477 22.3426C34.587 24.6627 34.5132 28.2782 36.9018 30.8549C37.9517 31.9539 38.6636 33.3315 38.953 34.8236C39.1288 35.7376 39.1288 35.7376 40.0744 35.6638C40.1251 35.6494 40.174 35.6293 40.2203 35.604ZM40.9233 30.8267C41.2456 30.8292 41.5614 30.736 41.8308 30.5591C42.1002 30.3822 42.3111 30.1295 42.437 29.8328C42.5629 29.5361 42.5981 29.2088 42.5381 28.8921C42.4781 28.5754 42.3257 28.2837 42.1 28.0536C41.8743 27.8235 41.5855 27.6654 41.2701 27.5993C40.9546 27.5332 40.6267 27.562 40.3276 27.6821C40.0285 27.8023 39.7717 28.0083 39.5897 28.2742C39.4076 28.5401 39.3084 28.8541 39.3045 29.1763C39.3003 29.609 39.4678 30.0256 39.7702 30.335C40.0727 30.6443 40.4854 30.8212 40.918 30.8267H40.9233Z" fill="#565656"/>
<path d="M44.0381 41.7856H36.6947C36.5274 41.7967 36.3594 41.789 36.1938 41.7628C36.0157 41.731 35.8543 41.638 35.7376 41.4998C35.6209 41.3616 35.5562 41.1869 35.5547 41.006C35.5533 40.8251 35.6151 40.6494 35.7296 40.5093C35.844 40.3692 36.0039 40.2736 36.1814 40.2389C36.3469 40.2116 36.5149 40.2027 36.6824 40.2126H51.3692C51.5362 40.203 51.7037 40.213 51.8684 40.2424C52.0418 40.2776 52.1978 40.3713 52.3104 40.5078C52.4229 40.6444 52.4851 40.8154 52.4866 40.9924C52.488 41.1693 52.4286 41.3413 52.3183 41.4797C52.208 41.618 52.0535 41.7143 51.8807 41.7523C51.7163 41.7837 51.5486 41.7949 51.3815 41.7856H44.0381Z" fill="#565656"/>
<path d="M44.4408 47.9532C46.7873 47.9532 49.1337 47.9532 51.4819 47.9637C51.7604 47.9594 52.0329 48.0451 52.2588 48.208C52.7087 48.5895 52.4961 49.3241 51.9178 49.4718C51.7212 49.5111 51.5205 49.5259 51.3202 49.5157C46.7093 49.5157 42.0991 49.5157 37.4894 49.5157C37.4068 49.5157 37.3224 49.5157 37.238 49.5157C36.6633 49.4946 36.3276 49.2011 36.3311 48.7283C36.3346 48.2555 36.6826 47.9549 37.2503 47.9532C39.3114 47.9532 41.3732 47.9532 43.4355 47.9532H44.4408Z" fill="#565656"/>
<path d="M44.5502 44.1163H51.347C51.5141 44.1042 51.6821 44.1106 51.8479 44.1356C52.0343 44.1606 52.2042 44.2559 52.3227 44.4019C52.4413 44.5479 52.4997 44.7337 52.4859 44.9213C52.4911 45.1004 52.429 45.275 52.3119 45.4107C52.1948 45.5463 52.0311 45.6332 51.8532 45.6542C51.6704 45.6804 51.4857 45.6898 51.3013 45.6823H37.7587C36.9238 45.6823 36.5547 45.431 36.5687 44.8756C36.5828 44.3202 36.9379 44.1145 37.7534 44.1145L44.5502 44.1163Z" fill="#565656"/>
<path d="M44.4587 61.1654H37.6127C37.4621 61.1742 37.3111 61.1707 37.161 61.1548C36.9736 61.1413 36.7988 61.0554 36.6735 60.9154C36.5482 60.7753 36.4823 60.5921 36.4896 60.4043C36.4745 60.2166 36.5342 60.0306 36.6557 59.8867C36.7772 59.7428 36.9506 59.6528 37.1382 59.6362C37.3042 59.6145 37.4718 59.6069 37.6391 59.6134H51.2309C52.0553 59.6134 52.398 59.8384 52.405 60.3797C52.412 60.9211 52.0535 61.1654 51.2538 61.1654H44.4587Z" fill="#565656"/>
<path d="M36.0765 57.244C34.0622 57.244 32.048 57.244 30.0337 57.244C29.3148 57.244 28.8842 56.6043 29.2691 56.084C29.3559 55.9791 29.4628 55.8928 29.5836 55.83C29.7044 55.7672 29.8365 55.7292 29.9722 55.7184C34.0147 55.6973 38.0573 55.7008 42.0999 55.7061C42.6272 55.7061 42.9488 56.026 42.9383 56.497C42.9277 56.9681 42.6272 57.2405 42.1069 57.2423C40.1032 57.2493 38.0907 57.244 36.0765 57.244Z" fill="#565656"/>
<path d="M45.6956 51.8674C47.629 51.8674 49.5519 51.8674 51.4818 51.8674C52.0688 51.8674 52.4045 52.1504 52.4028 52.6285C52.4165 52.8155 52.3569 53.0006 52.2364 53.1443C52.116 53.288 51.9443 53.3792 51.7577 53.3983C51.6583 53.4133 51.5576 53.4186 51.4571 53.4142H39.8849C39.8181 53.4142 39.7495 53.4142 39.6827 53.4142C39.4797 53.4151 39.2843 53.3366 39.1385 53.1953C38.9926 53.0541 38.9079 52.8613 38.9023 52.6584C38.9023 52.2225 39.2222 51.8991 39.7073 51.8727C39.9253 51.8622 40.1432 51.8727 40.3612 51.8727L45.6956 51.8674Z" fill="#565656"/>
<path d="M33.0094 53.4159C32.0216 53.4159 31.0338 53.4159 30.0478 53.4159C29.4818 53.4159 29.1303 53.1013 29.1338 52.6391C29.1373 52.1768 29.4853 51.8727 30.0583 51.871C32.0163 51.871 33.9743 51.871 35.9324 51.871C36.5089 51.871 36.8569 52.161 36.8709 52.625C36.885 53.089 36.5194 53.4124 35.9218 53.4159C34.9516 53.4195 33.9814 53.4159 33.0094 53.4159Z" fill="#565656"/>
<path d="M48.715 57.2441C47.7765 57.2441 46.8396 57.2441 45.9028 57.2441C45.3263 57.2441 45.0012 56.9435 45.0099 56.4584C45.0187 55.9733 45.3421 55.7062 45.8888 55.7044C47.7636 55.7044 49.6384 55.7044 51.5132 55.7044C52.0897 55.7044 52.4149 56.0032 52.4061 56.4918C52.3973 56.9805 52.0862 57.2388 51.5273 57.2441C50.5904 57.2511 49.6536 57.2441 48.715 57.2441Z" fill="#565656"/>
<path d="M31.7472 59.6081C32.3167 59.6081 32.8861 59.594 33.4556 59.6081C33.9934 59.6239 34.2975 59.9368 34.2799 60.4113C34.2624 60.8595 33.9548 61.146 33.4415 61.1495C32.285 61.1577 31.1291 61.1577 29.9737 61.1495C29.4798 61.1495 29.1494 60.8314 29.1388 60.3973C29.1366 60.2922 29.1559 60.1878 29.1954 60.0904C29.235 59.9931 29.294 59.9048 29.3689 59.8311C29.4438 59.7574 29.5329 59.6997 29.6309 59.6617C29.7289 59.6236 29.8336 59.606 29.9386 59.6099C30.5397 59.5905 31.1443 59.6099 31.7472 59.6099V59.6081Z" fill="#565656"/>
</svg>
