<svg width="128" height="140" viewBox="0 0 128 140" fill="none" xmlns="http://www.w3.org/2000/svg">
<path d="M100.109 136.303C99.8623 137.761 100.518 140.015 98.0364 140C95.5552 139.985 96.1764 137.776 96.0287 136.503C93.1989 135.685 90.5548 134.897 87.8955 134.178C87.2505 134.044 86.5908 133.995 85.9332 134.034C60.0902 134.034 34.2447 134.034 8.39669 134.034C7.40845 134.065 6.41983 133.985 5.44948 133.795C2.85837 133.189 0.960489 130.791 0.778657 128.063C0.755927 127.685 0.778657 127.306 0.778657 126.927C0.778657 91.8029 0.778657 56.6814 0.778657 21.5625C0.778657 18.5963 1.83935 16.2931 4.61609 15.0922C5.66961 14.6952 6.79011 14.5061 7.91559 14.5354C13.0486 14.4786 18.1778 14.5089 23.3108 14.5089H25.0268C25.0268 13.4406 25.0268 12.5163 25.0268 11.5882C25.0609 9.94789 25.7087 9.28496 27.3527 9.2736C30.406 9.2736 33.4593 9.2736 36.4709 9.2736C38.5392 3.13295 42.3009 0.0190684 47.5816 0.00012752C52.9305 -0.0226016 56.6127 2.99279 58.8212 9.2736C61.7456 9.2736 64.708 9.2736 67.6666 9.2736C69.6516 9.2736 70.2615 9.89865 70.2766 11.8874C70.2766 12.6792 70.2766 13.4747 70.2766 14.4293C70.9055 14.4596 71.4472 14.5089 71.9851 14.5089C77.0726 14.5089 82.1564 14.5089 87.2401 14.5089C92.0473 14.5089 94.5096 17.0091 94.5096 21.8541V84.5107L95.9643 84.397C96.309 81.249 96.7446 80.4725 98.1122 80.5028C99.4797 80.5331 99.8661 81.3021 100.15 84.2606C113.822 86.4389 121.788 94.3637 124.099 108.191C125.482 108.524 127.94 107.774 127.789 110.463C127.664 112.68 125.626 112.21 124.107 112.327C121.879 126.075 113.928 134.083 100.109 136.303ZM74.2769 121.309L71.9055 112.308C70.5645 112.111 68.4091 112.721 68.3371 110.365C68.2537 107.785 70.5797 108.471 72.1594 108.172C72.1972 107.888 72.2275 107.66 72.2541 107.437C73.0761 100.872 75.8869 95.3146 80.8343 90.9203C81.1701 90.6479 81.4368 90.3001 81.6125 89.9051C81.7883 89.5101 81.8682 89.0791 81.8457 88.6474C81.8154 68.6963 81.8078 48.7452 81.823 28.7941V27.2106H13.5032V121.309H74.2769ZM24.9435 18.494H23.4282C18.2939 18.494 13.1635 18.494 8.03681 18.494C5.4116 18.494 4.73731 19.1986 4.73731 21.8807C4.73731 56.8052 4.73731 91.7284 4.73731 126.65C4.73731 129.37 5.40781 130.033 8.17697 130.033C31.8986 130.033 55.6214 130.033 79.3455 130.033C79.8342 130.033 80.3229 129.992 80.9858 129.961C79.8266 128.688 78.7318 127.658 77.853 126.469C77.2166 125.605 76.5347 125.332 75.5005 125.351C54.4155 125.376 33.328 125.383 12.2379 125.37C10.0824 125.37 9.46874 124.76 9.46874 122.612C9.46874 90.3697 9.46874 58.1285 9.46874 25.8886C9.46874 23.7634 10.09 23.1649 12.272 23.1611C15.9882 23.1611 19.7082 23.1611 23.4244 23.1611C23.9207 23.1611 24.4169 23.1232 24.9397 23.0967L24.9435 18.494ZM100.154 132.037C110.162 131.499 119.22 122.567 119.822 112.392C118.405 112.096 116.254 112.687 116.261 110.274C116.269 107.861 118.436 108.49 119.834 108.153C119.076 97.2882 109.439 88.9201 100.135 88.5375C99.8585 89.9315 100.472 92.0075 98.1501 92.0832C95.6423 92.1628 96.256 89.924 95.9226 88.4845C84.6149 89.3709 76.5536 99.4172 76.3529 108.183C77.728 108.414 79.6978 107.888 79.8494 110.077C80.0274 112.695 77.7053 112.073 76.2317 112.377C77.3454 124.559 88.0924 131.935 95.9302 131.946C96.309 129.109 96.6878 128.385 98.0175 128.442C100.476 128.563 99.8472 130.613 100.154 132.037ZM29.0233 23.055H66.2915V13.2285C63.4011 13.2285 60.7228 13.1641 58.0446 13.2285C55.7717 13.3004 54.9875 12.5504 54.7754 10.3873C54.6142 8.61014 53.7879 6.95937 52.4618 5.76531C51.1357 4.57125 49.4076 3.92198 47.6233 3.94741C43.9033 3.94741 40.8841 6.68627 40.3765 10.5313C40.0697 12.8724 39.6795 13.2247 37.346 13.2285H29.012L29.0233 23.055ZM70.3145 23.1573H82.6716C85.2892 23.1573 85.793 23.6649 85.793 26.2863V87.3139C87.1227 86.7684 88.2137 86.204 89.3728 85.8782C90.354 85.6017 90.5396 85.0865 90.5396 84.1584C90.5169 63.3107 90.5093 42.4644 90.5169 21.6193C90.5169 19.2668 89.7592 18.5016 87.3727 18.4978C82.1021 18.4978 76.8314 18.4978 71.5608 18.4978C71.1593 18.4978 70.7577 18.5698 70.3145 18.6115V23.1573Z" fill="#8D7662"/>
<path d="M47.9152 49.7124H23.633C23.2087 49.7124 22.7844 49.7314 22.3639 49.6897C21.8845 49.674 21.4299 49.473 21.0957 49.1289C20.7615 48.7848 20.5738 48.3245 20.5721 47.8449C20.5255 47.3914 20.6494 46.9369 20.9198 46.5699C21.1901 46.2029 21.5875 45.9498 22.0344 45.8598C22.5398 45.7545 23.0571 45.7175 23.5724 45.75C39.8489 45.75 56.1267 45.75 72.4058 45.75C72.8742 45.7184 73.3447 45.7426 73.8074 45.822C74.8378 46.0833 75.4401 46.7576 75.3757 47.8638C75.3113 48.9699 74.6787 49.5761 73.5953 49.6935C73.1731 49.7257 72.7493 49.7333 72.3263 49.7162L47.9152 49.7124Z" fill="#8D7662"/>
<path d="M58.798 67.9563C54.3734 67.9563 49.9538 67.9563 45.5393 67.9563C45.0225 67.9751 44.5051 67.9344 43.9975 67.8351C43.5622 67.7308 43.1765 67.4785 42.9065 67.1214C42.6365 66.7643 42.4989 66.3244 42.5172 65.8771C42.5356 65.4298 42.7087 65.0027 43.0071 64.6689C43.3054 64.335 43.7104 64.1152 44.1529 64.0469C44.6667 63.983 45.1847 63.9589 45.7022 63.9749C54.5413 63.9749 63.3905 63.9749 72.2498 63.9749C72.7675 63.9583 73.2856 63.9836 73.7992 64.0507C74.2523 64.0931 74.6716 64.3084 74.9701 64.652C75.2685 64.9956 75.423 65.4409 75.4016 65.8955C75.4472 66.3485 75.3187 66.8018 75.0422 67.1635C74.7657 67.5251 74.3619 67.7679 73.9128 67.8427C73.4511 67.9307 72.981 67.9676 72.5112 67.9525C67.9376 67.9601 63.3665 67.9613 58.798 67.9563Z" fill="#8D7662"/>
<path d="M58.9612 89.0754H45.5472C45.0765 89.0919 44.6053 89.0704 44.138 89.011C43.6849 88.9742 43.2635 88.7637 42.9621 88.4234C42.6606 88.0831 42.5024 87.6394 42.5205 87.1851C42.4684 86.7089 42.6075 86.2315 42.9073 85.8579C43.2071 85.4842 43.6429 85.2449 44.1191 85.1925C44.5376 85.128 44.9614 85.1051 45.3843 85.1243H72.5001C72.8282 85.1054 73.157 85.1054 73.4851 85.1243C74.6821 85.2607 75.4133 85.882 75.3792 87.1472C75.3526 88.3178 74.648 88.9466 73.4851 89.0413C72.7274 89.0943 71.9698 89.0678 71.2122 89.0678L58.9612 89.0754Z" fill="#8D7662"/>
<path d="M47.975 35.2113C52.0625 35.2113 56.1499 35.2113 60.2411 35.2113C60.8283 35.2113 61.6314 35.2113 61.9534 35.5901C62.4269 36.1053 62.9421 37.1054 62.7375 37.5941C62.5528 37.9705 62.2872 38.3014 61.9598 38.5634C61.6324 38.8253 61.2512 39.0117 60.8435 39.1093C59.3774 39.3442 57.847 39.1889 56.3431 39.1889H36.3263C35.9475 39.1889 35.5687 39.1889 35.1899 39.1889C33.8905 39.079 33.1064 38.2949 33.1253 37.1509C33.1443 36.0068 33.936 35.2568 35.277 35.2568C38.2848 35.2265 41.2927 35.2568 44.3005 35.2568L47.975 35.2113Z" fill="#8D7662"/>
<path d="M53.5776 110.21C50.6645 110.21 47.7514 110.21 44.8383 110.21C43.323 110.21 42.5654 109.554 42.5085 108.346C42.4517 107.137 43.3003 106.278 44.808 106.274C50.6342 106.251 56.4617 106.251 62.2904 106.274C63.8057 106.274 64.6883 107.031 64.7035 108.251C64.7186 109.471 63.8587 110.206 62.3207 110.217C59.4076 110.221 56.4945 110.21 53.5776 110.21Z" fill="#8D7662"/>
<path d="M27.1551 66.7972L32.2919 61.8346C32.6441 61.4606 33.024 61.1136 33.4284 60.7967C34.3072 60.1716 35.2164 60.1944 35.9854 60.9672C36.7544 61.7399 36.9021 62.7968 36.0839 63.6189C33.5584 66.1443 30.9863 68.6205 28.3674 71.0475C27.6097 71.7635 26.6021 71.6991 25.8028 70.9755C24.2382 69.555 22.6889 68.1117 21.185 66.6267C20.3288 65.7744 20.2644 64.7629 21.1206 63.8689C21.9767 62.9749 22.973 62.99 23.8859 63.7818C24.9921 64.7364 26.0263 65.7516 27.1551 66.7972Z" fill="#8D7662"/>
<path d="M27.1362 87.9731C29.0984 86.079 30.9546 84.291 32.8184 82.5143C33.9852 81.4006 35.1671 81.2832 36.0232 82.162C36.8794 83.0409 36.7809 84.1887 35.5952 85.3441C33.3677 87.4983 31.1302 89.6449 28.8825 91.784C27.6021 93 26.7346 93.0189 25.4731 91.856C24.1245 90.6185 22.7898 89.3621 21.469 88.0867C20.3591 87.0109 20.2606 85.9199 21.1395 85.0145C22.0183 84.1091 23.1169 84.2228 24.242 85.2532C25.1739 86.079 26.0868 86.9692 27.1362 87.9731Z" fill="#8D7662"/>
<path d="M27.1358 109.1C29.117 107.206 31.0339 105.338 32.9734 103.505C34.0758 102.459 35.4092 102.448 36.1668 103.455C36.3295 103.642 36.4531 103.86 36.5304 104.096C36.6077 104.331 36.6371 104.58 36.617 104.827C36.5969 105.074 36.5276 105.314 36.4132 105.534C36.2988 105.754 36.1417 105.949 35.9509 106.107C33.4962 108.504 31.02 110.879 28.5223 113.233C27.6434 114.062 26.6282 114.036 25.738 113.214C24.2227 111.816 22.7074 110.41 21.2225 108.96C20.3701 108.119 20.283 107.137 21.0899 106.19C21.821 105.338 23.0219 105.304 23.9765 106.141C25.0334 107.084 26.0335 108.069 27.1358 109.1Z" fill="#8D7662"/>
<path d="M97.9797 93.0834C101.381 93.0714 104.71 94.0679 107.545 95.9469C110.38 97.8259 112.595 100.503 113.909 103.64C115.224 106.777 115.579 110.234 114.93 113.573C114.281 116.911 112.657 119.983 110.263 122.399C107.869 124.815 104.812 126.468 101.479 127.148C98.1466 127.828 94.6871 127.505 91.538 126.219C88.3888 124.934 85.6913 122.744 83.7862 119.926C81.8811 117.108 80.8539 113.789 80.8344 110.388C80.8184 108.124 81.2498 105.88 82.1039 103.784C82.9579 101.687 84.2177 99.7804 85.8108 98.1724C87.404 96.5644 89.2992 95.2871 91.3875 94.4138C93.4758 93.5404 95.7161 93.0883 97.9797 93.0834ZM84.8309 110.13C84.8013 112.741 85.5459 115.303 86.9707 117.491C88.3955 119.68 90.4367 121.397 92.8365 122.427C95.2364 123.456 97.8875 123.752 100.455 123.276C103.023 122.8 105.392 121.574 107.264 119.753C109.135 117.932 110.426 115.598 110.972 113.044C111.518 110.49 111.295 107.832 110.332 105.405C109.369 102.978 107.708 100.89 105.56 99.4058C103.411 97.9214 100.871 97.1068 98.26 97.0647C96.5171 97.0296 94.7845 97.341 93.1629 97.9808C91.5412 98.6207 90.0628 99.5763 88.8135 100.792C87.5642 102.008 86.5688 103.46 85.8851 105.064C85.2015 106.667 84.8431 108.391 84.8309 110.134V110.13Z" fill="#8D7662"/>
<path d="M96.5973 111.134C98.571 109.24 100.427 107.448 102.28 105.668C103.454 104.55 104.621 104.436 105.481 105.327C106.341 106.217 106.238 107.338 105.053 108.501C102.825 110.66 100.588 112.807 98.3399 114.941C97.0671 116.153 96.1882 116.172 94.9305 115.013C93.5819 113.776 92.2485 112.519 90.9302 111.244C89.8279 110.172 89.7294 109.066 90.6006 108.172C91.4719 107.278 92.5667 107.376 93.7032 108.414C94.6426 109.266 95.5518 110.145 96.5973 111.134Z" fill="#8D7662"/>
</svg>
