<svg width="51" height="37" viewBox="0 0 51 37" fill="none" xmlns="http://www.w3.org/2000/svg">
<path d="M1.39258 9.75H49.5176M1.39258 16.3125H49.5176M42.9551 22.875H36.3926M6.64258 1H44.2676C45.66 1 46.9953 1.55312 47.9799 2.53769C48.9645 3.52226 49.5176 4.85761 49.5176 6.25V30.75C49.5176 32.1424 48.9645 33.4777 47.9799 34.4623C46.9953 35.4469 45.66 36 44.2676 36H6.64258C5.25019 36 3.91483 35.4469 2.93027 34.4623C1.9457 33.4777 1.39258 32.1424 1.39258 30.75V6.25C1.39258 4.85761 1.9457 3.52226 2.93027 2.53769C3.91483 1.55312 5.25019 1 6.64258 1Z" stroke="#980C0C" stroke-width="1.5" stroke-miterlimit="10" stroke-linecap="round" stroke-linejoin="round"/>
</svg>
