<svg width="37" height="37" viewBox="0 0 37 37" fill="none" xmlns="http://www.w3.org/2000/svg">
<path d="M24.5817 20.2505C30.8638 20.2505 35.9564 18.6835 35.9564 16.7505C35.9564 14.8175 30.8638 13.2505 24.5817 13.2505C18.2997 13.2505 13.207 14.8175 13.207 16.7505C13.207 18.6835 18.2997 20.2505 24.5817 20.2505Z" stroke="#980C0C" stroke-width="1.5" stroke-linecap="round" stroke-linejoin="round"/>
<path d="M35.9564 24.625C35.9564 26.5587 30.8641 28.125 24.5817 28.125C18.2994 28.125 13.207 26.5587 13.207 24.625" stroke="#980C0C" stroke-width="1.5" stroke-linecap="round" stroke-linejoin="round"/>
<path d="M35.9564 16.75V32.15C35.9564 34.2762 30.8641 35.9999 24.5817 35.9999C18.2994 35.9999 13.207 34.2762 13.207 32.15V16.75" stroke="#980C0C" stroke-width="1.5" stroke-linecap="round" stroke-linejoin="round"/>
<path d="M12.3298 7.99998C18.6118 7.99998 23.7045 6.43298 23.7045 4.49999C23.7045 2.567 18.6118 1 12.3298 1C6.0477 1 0.955078 2.567 0.955078 4.49999C0.955078 6.43298 6.0477 7.99998 12.3298 7.99998Z" stroke="#980C0C" stroke-width="1.5" stroke-linecap="round" stroke-linejoin="round"/>
<path d="M7.95489 16.7505C4.64398 16.348 1.60256 15.3067 0.955078 13.2505M7.95489 25.5005C4.64398 25.098 1.60256 24.0567 0.955078 22.0005" stroke="#980C0C" stroke-width="1.5" stroke-linecap="round" stroke-linejoin="round"/>
<path d="M7.95489 34.2497C4.64398 33.8472 1.60256 32.8042 0.955078 30.7497V4.49976M23.7045 7.99975V4.49976" stroke="#980C0C" stroke-width="1.5" stroke-linecap="round" stroke-linejoin="round"/>
</svg>
