<svg width="141" height="120" viewBox="0 0 141 120" fill="none" xmlns="http://www.w3.org/2000/svg">
<path d="M48.554 0.235229C56.185 0.450987 63.3996 2.03321 69.9329 6.09474C70.7202 6.58303 71.1782 6.2575 71.8255 5.91305C85.9103 -1.60438 100.052 -1.68009 114.084 5.94333C116.447 7.30301 118.554 9.06574 120.31 11.1518C126.136 17.844 125.988 26.2169 120.14 32.8941C119.402 33.7382 119.319 34.3665 119.705 35.3696C121.026 38.7763 122.233 42.2435 123.49 45.6805C123.868 46.7631 124.307 47.8721 123.236 48.7995C122.165 49.7269 121.151 49.1515 120.144 48.5573C116.298 46.2861 112.426 44.068 108.603 41.7704C108.239 41.5337 107.826 41.3837 107.396 41.3318C106.965 41.28 106.529 41.3277 106.12 41.4713C94.109 44.8402 82.5263 44.0945 71.534 37.7656C71.2817 37.6521 71.0076 37.5954 70.7309 37.5993C70.4543 37.6032 70.1819 37.6678 69.9329 37.7883C58.9558 44.1096 47.3541 44.8364 35.3436 41.46C34.9572 41.321 34.5442 41.2723 34.1361 41.3176C33.728 41.3629 33.3357 41.5009 32.9892 41.7212C29.0412 44.0831 25.0403 46.3808 21.0847 48.72C20.1233 49.2878 19.1921 49.6133 18.2382 48.773C17.3601 47.9895 17.5304 47.0394 17.8938 46.0477C19.2564 42.3457 20.5699 38.6287 21.9477 34.9343C22.087 34.6469 22.1298 34.3222 22.0698 34.0085C22.0098 33.6948 21.8502 33.4088 21.6146 33.1931C14.8012 25.3501 15.4826 15.7811 23.3369 8.8693C28.3599 4.44439 34.3519 2.12027 40.8587 1.0377C43.3948 0.613752 45.9838 0.496409 48.554 0.235229ZM118.202 42.8037C117.259 40.2109 116.567 37.9284 115.609 35.7632C114.723 33.7647 115.06 32.402 116.642 30.8046C121.942 25.4675 122.002 18.4762 116.726 13.1087C114.712 11.0731 112.377 9.38252 109.814 8.10469C101.445 3.94095 92.5874 3.41859 83.5597 5.45504C77.8516 6.73444 72.6885 9.11913 68.7481 13.6197C64.2475 18.7563 64.1642 25.1987 68.8087 30.1876C70.7062 32.2681 72.9452 34.009 75.429 35.3355C85.1608 40.3282 95.3392 40.6689 105.68 37.4401C107.195 36.9632 108.406 36.9972 109.772 37.864C112.426 39.5257 115.159 41.036 118.198 42.8075L118.202 42.8037ZM67.34 9.11534C67.234 9.05856 67.1167 8.98664 66.9956 8.91851C66.5035 8.64598 66.019 8.35073 65.5118 8.10847C58.07 4.53145 50.2384 3.65328 42.1419 4.83426C36.2293 5.69729 30.7635 7.69967 26.1645 11.6476C19.4306 17.4466 19.1202 25.2139 25.4074 31.3913C26.5203 32.4815 26.7209 33.511 26.1645 34.9154C25.1917 37.3909 24.3324 39.9081 23.318 42.7091C23.988 42.3533 24.3892 42.1527 24.7753 41.9294C27.2092 40.5099 29.662 39.1207 32.0656 37.6483C32.5478 37.3231 33.1013 37.1188 33.6791 37.053C34.257 36.9871 34.8422 37.0614 35.3852 37.2698C44.6401 40.3206 53.8647 40.1919 62.9984 36.7588C64.5125 36.191 65.9206 35.3961 67.4384 34.6731C59.3456 25.3728 59.3456 19.7253 67.3362 9.12291L67.34 9.11534Z" fill="#8D7662"/>
<path d="M117.877 119.765C112.755 119.594 107.74 119.03 102.899 117.312C102.501 117.172 102.104 117.02 101.718 116.854C96.0397 114.439 94.2985 111.206 95.3773 105.15C96.293 99.8599 99.0418 95.061 103.142 91.5948C107.242 88.1286 112.431 86.2163 117.8 86.1933C123.168 86.1702 128.374 88.0379 132.503 91.4688C136.633 94.8998 139.422 99.6749 140.384 104.957C140.535 105.786 140.603 106.634 140.701 107.474C141.099 110.858 139.729 113.406 136.973 115.287C133.79 117.46 130.16 118.387 126.42 118.936C123.592 119.352 120.727 119.5 117.877 119.765ZM117.918 115.658C122.926 115.571 127.93 115.192 132.643 113.148C136.5 111.475 137.106 110.362 136.542 106.176C135.239 96.4705 126.465 89.5701 116.238 90.206C106.994 90.7813 99.0603 99.1731 99.083 108.511C99.083 109.503 99.7568 110.601 100.393 111.449C100.862 112.077 101.733 112.455 102.486 112.819C107.358 115.143 112.589 115.563 117.918 115.658Z" fill="#8D7662"/>
<path d="M23.5864 119.765C18.4196 119.598 13.3663 119.008 8.47205 117.282C8.25251 117.206 8.03296 117.119 7.81342 117.032C1.75708 114.613 -0.135527 111.127 1.15145 104.76C3.3658 93.783 12.6055 86.1748 23.6848 86.2126C34.6619 86.2353 43.8411 93.8663 46.0176 104.813C46.1803 105.638 46.2523 106.486 46.3658 107.323C46.8049 110.627 45.5823 113.197 42.9024 115.116C39.6773 117.425 35.9451 118.368 32.1221 118.943C29.3059 119.356 26.4367 119.496 23.5864 119.765ZM22.2805 115.635C29.6768 115.635 34.8398 114.749 38.6099 113.046C42.0734 111.483 42.7244 110.336 42.2816 106.581C41.146 96.8339 32.6369 89.801 22.4736 90.1833C13.09 90.5391 5.12592 98.6016 4.70955 108.102C4.63763 109.787 5.23948 111.025 6.60215 111.922C7.22448 112.345 7.88022 112.717 8.56289 113.035C13.3512 115.135 18.4347 115.59 22.2805 115.635Z" fill="#8D7662"/>
<path d="M23.5713 61.3702C25.863 61.3643 28.1052 62.0374 30.0146 63.3047C31.9241 64.572 33.4153 66.3766 34.3001 68.4906C35.1848 70.6047 35.4234 72.9335 34.9857 75.183C34.5481 77.4326 33.4537 79.5021 31.8409 81.1302C30.2281 82.7583 28.169 83.8722 25.9237 84.3311C23.6784 84.79 21.3474 84.5734 19.2251 83.7087C17.1028 82.8439 15.2842 81.3698 13.999 79.4724C12.7137 77.5749 12.0194 75.3393 12.0037 73.0476C11.9861 71.5185 12.2726 70.0011 12.8463 68.5836C13.42 67.1661 14.2697 65.8767 15.3459 64.7903C16.4221 63.7038 17.7034 62.8421 19.1155 62.255C20.5275 61.6678 22.0421 61.3671 23.5713 61.3702ZM15.9668 72.8583C15.9436 74.3707 16.3701 75.8559 17.1923 77.1255C18.0145 78.3951 19.1952 79.3918 20.5848 79.9893C21.9743 80.5868 23.51 80.7581 24.997 80.4815C26.4841 80.2048 27.8554 79.4927 28.9371 78.4355C30.0188 77.3783 30.7621 76.0236 31.0728 74.5433C31.3834 73.063 31.2473 71.5238 30.6817 70.1209C30.1162 68.7181 29.1467 67.5148 27.8963 66.6638C26.6459 65.8128 25.1709 65.3523 23.6584 65.3409C21.6418 65.3187 19.6989 66.098 18.2566 67.5076C16.8144 68.9172 15.9908 70.8418 15.9668 72.8583Z" fill="#8D7662"/>
<path d="M117.951 61.3702C120.249 61.3809 122.491 62.0735 124.394 63.3602C126.297 64.6469 127.775 66.4697 128.641 68.5976C129.506 70.7254 129.721 73.0624 129.256 75.3122C128.792 77.562 127.67 79.6232 126.033 81.2345C124.395 82.8457 122.316 83.9345 120.059 84.3626C117.802 84.7908 115.469 84.5391 113.355 83.6394C111.242 82.7397 109.443 81.2326 108.187 79.3092C106.931 77.3858 106.274 75.1327 106.301 72.8356C106.307 71.3163 106.615 69.8133 107.205 68.4132C107.795 67.0132 108.657 65.7437 109.74 64.678C110.823 63.6123 112.106 62.7714 113.515 62.2037C114.924 61.636 116.432 61.3527 117.951 61.3702ZM125.522 73.0325C125.551 71.0076 124.775 69.0541 123.363 67.6017C121.952 66.1493 120.022 65.317 117.997 65.2879C115.972 65.2588 114.018 66.0352 112.566 67.4465C111.114 68.8577 110.281 70.788 110.252 72.8129C110.238 73.8155 110.421 74.8112 110.791 75.743C111.162 76.6748 111.712 77.5245 112.411 78.2437C113.11 78.9628 113.943 79.5373 114.864 79.9343C115.785 80.3313 116.775 80.543 117.777 80.5575C118.78 80.5719 119.776 80.3887 120.707 80.0183C121.639 79.6479 122.489 79.0977 123.208 78.3989C123.927 77.7001 124.502 76.8666 124.899 75.9458C125.296 75.025 125.507 74.0351 125.522 73.0325Z" fill="#8D7662"/>
<path d="M80.8827 97.2919C80.084 96.7279 79.2588 96.1904 78.4866 95.5886C77.4457 94.7785 77.2299 93.6581 77.9567 92.7648C78.6835 91.8715 79.6941 91.6557 80.7048 92.3484C83.3847 94.1729 86.0684 95.9936 88.6953 97.8862C90.0429 98.859 90.0202 100.294 88.6461 101.293C86.0533 103.159 83.4225 104.968 80.7767 106.759C79.7017 107.486 78.5585 107.262 77.9113 106.331C77.264 105.4 77.476 104.306 78.532 103.507C79.3832 102.939 80.169 102.279 80.8751 101.539H54.8896C54.4668 101.555 54.0434 101.546 53.6215 101.512C53.1663 101.494 52.734 101.308 52.4087 100.989C52.0834 100.67 51.8883 100.241 51.8614 99.7864C51.7403 98.7 52.327 97.977 53.3452 97.6818C53.8505 97.5783 54.3677 97.5452 54.882 97.5834C63.0177 97.5834 71.1509 97.5834 79.2815 97.5834H80.7956L80.8827 97.2919Z" fill="#8D7662"/>
<path d="M60.5938 79.1532C61.3811 79.7096 62.1912 80.2471 62.9596 80.8338C64.0232 81.6514 64.2352 82.7264 63.5803 83.6576C62.9255 84.5887 61.8164 84.7931 60.7301 84.0739C58.0804 82.2873 55.4308 80.4818 52.8455 78.6194C51.4336 77.605 51.4639 76.1742 52.9098 75.137C55.4686 73.305 58.0615 71.5222 60.6657 69.7545C61.7596 68.9974 62.8649 69.1829 63.5425 70.0951C64.22 71.0074 64.0346 72.1619 62.899 73.0173C62.0726 73.5716 61.3108 74.2166 60.6279 74.9402H86.5528C86.9767 74.9402 87.4045 74.9175 87.8246 74.9591C88.3036 74.9641 88.7615 75.1568 89.0999 75.4959C89.4382 75.835 89.63 76.2933 89.634 76.7723C89.7135 77.9268 89.0397 78.6194 87.9382 78.8503C87.4712 78.9086 86.9996 78.9213 86.5301 78.8882H60.7225L60.5938 79.1532Z" fill="#8D7662"/>
<path d="M96.0018 22.2576C95.9761 23.0612 95.6354 23.8224 95.0532 24.3769C94.4711 24.9314 93.6943 25.2348 92.8904 25.2214C92.0873 25.2039 91.324 24.868 90.7685 24.2877C90.2131 23.7074 89.9109 22.9301 89.9285 22.127C89.946 21.3239 90.2819 20.5607 90.8622 20.0052C91.4425 19.4497 92.2197 19.1475 93.0229 19.1651C93.4218 19.1715 93.8156 19.2567 94.1816 19.4158C94.5475 19.5748 94.8784 19.8047 95.1553 20.0921C95.4321 20.3794 95.6494 20.7187 95.7947 21.0903C95.94 21.462 96.0104 21.8587 96.0018 22.2576Z" fill="#8D7662"/>
<path d="M107.084 25.2176C106.281 25.2096 105.514 24.8829 104.952 24.3093C104.389 23.7357 104.078 22.9623 104.086 22.1592C104.094 21.3561 104.421 20.589 104.994 20.0268C105.568 19.4646 106.341 19.1533 107.145 19.1613C107.948 19.1693 108.715 19.4961 109.277 20.0696C109.839 20.6432 110.15 21.4166 110.142 22.2197C110.134 23.0229 109.808 23.7899 109.234 24.3521C108.661 24.9143 107.887 25.2257 107.084 25.2176Z" fill="#8D7662"/>
<path d="M78.8656 25.2177C78.4679 25.2127 78.0751 25.1294 77.7096 24.9727C77.3441 24.8159 77.0131 24.5887 76.7354 24.304C76.1746 23.729 75.8652 22.9547 75.8752 22.1516C75.8853 21.3485 76.2139 20.5823 76.7889 20.0215C77.3639 19.4607 78.1381 19.1513 78.9413 19.1613C79.7444 19.1713 80.5106 19.5 81.0714 20.075C81.6322 20.65 81.9416 21.4242 81.9316 22.2273C81.9215 23.0305 81.5929 23.7967 81.0179 24.3575C80.4429 24.9183 79.6687 25.2277 78.8656 25.2177Z" fill="#8D7662"/>
<path d="M50.4579 19.1613C51.0553 19.1614 51.6394 19.3381 52.1366 19.6694C52.6338 20.0006 53.022 20.4716 53.2521 21.0229C53.4823 21.5743 53.5442 22.1814 53.4301 22.7678C53.316 23.3543 53.031 23.8939 52.6109 24.3187C52.1908 24.7435 51.6544 25.0346 51.0692 25.1553C50.4841 25.2759 49.8763 25.2208 49.3224 24.9968C48.7686 24.7728 48.2933 24.39 47.9565 23.8965C47.6197 23.4031 47.4364 22.821 47.4297 22.2236C47.4383 21.4199 47.7591 20.6512 48.3242 20.0797C48.8893 19.5083 49.6544 19.179 50.4579 19.1613Z" fill="#8D7662"/>
<path d="M39.2189 22.1365C39.2259 22.536 39.1538 22.933 39.0066 23.3046C38.8595 23.6761 38.6402 24.0149 38.3616 24.3013C38.0829 24.5877 37.7503 24.8162 37.3829 24.9734C37.0155 25.1307 36.6206 25.2137 36.221 25.2176C35.4179 25.2141 34.6491 24.8917 34.0836 24.3213C33.5182 23.751 33.2026 22.9793 33.2061 22.1762C33.2096 21.3731 33.532 20.6043 34.1024 20.0388C34.6728 19.4734 35.4444 19.1578 36.2475 19.1613C37.0317 19.1759 37.7796 19.4941 38.3338 20.0491C38.888 20.604 39.2053 21.3523 39.2189 22.1365Z" fill="#8D7662"/>
</svg>
