<svg width="81" height="82" viewBox="0 0 81 82" fill="none" xmlns="http://www.w3.org/2000/svg">
<circle cx="40.5" cy="41" r="40" stroke="#980C0C"/>
<path d="M40.6232 46.3352V51.3782C40.8149 51.3876 40.9909 51.4033 41.1685 51.4033C42.9144 51.4033 44.6588 51.4033 46.4047 51.4033C47.28 51.4033 47.5048 51.628 47.5048 52.5144C47.5048 55.4688 47.5048 58.4227 47.5048 61.376C47.5048 62.2246 47.2769 62.4462 46.4299 62.4462H40.6468V64.0759C41.2958 64.0759 41.959 64.0759 42.6221 64.0759C42.8201 64.0759 43.0826 64.046 43.202 64.156C43.4157 64.3493 43.6467 64.6275 43.6735 64.8931C43.7127 65.2435 43.4487 65.5106 43.0621 65.5704C42.9125 65.5877 42.7617 65.594 42.6111 65.5892H37.0779C36.9773 65.5892 36.8752 65.5892 36.7762 65.5892C36.3047 65.5562 35.9904 65.2482 35.9904 64.8349C35.9954 64.6312 36.0808 64.4378 36.2281 64.297C36.3754 64.1562 36.5724 64.0795 36.7762 64.0837C37.3466 64.0633 37.9171 64.0837 38.4875 64.0837H39.0548V62.4478H38.4938C36.6976 62.4478 34.9029 62.4478 33.1067 62.4478C32.4781 62.4478 32.2015 62.1869 32.2 61.5709C32.1916 58.4824 32.1916 55.3949 32.2 52.3085C32.2 51.65 32.475 51.4112 33.1947 51.408C34.9564 51.408 36.7196 51.408 38.4812 51.408H39.0517V46.3352H37.499C36.5766 46.3352 35.651 46.3792 34.7316 46.3227C33.8807 46.272 33.0359 46.495 32.321 46.9591C30.4446 48.0984 28.5321 49.1812 26.6196 50.2593C26.2471 50.4698 26.0664 50.7056 26.1371 51.1283C26.1552 51.2618 26.1552 51.3971 26.1371 51.5306C26.0994 51.8685 26.211 52.0555 26.5488 52.2126C27.5939 52.7014 28.1203 53.7244 28.0088 54.8983C27.9546 55.3419 27.7892 55.7647 27.5278 56.1272C27.2663 56.4897 26.9175 56.7802 26.5136 56.9716C26.1098 57.163 25.6641 57.2492 25.218 57.2221C24.7719 57.195 24.3399 57.0555 23.9622 56.8165C23.5845 56.5776 23.2734 56.247 23.0578 55.8555C22.8422 55.464 22.7292 55.0244 22.7292 54.5775C22.7292 54.1305 22.8422 53.6909 23.0578 53.2994C23.2734 52.9079 23.5845 52.5773 23.9622 52.3384C24.6803 51.8873 24.7212 51.7852 24.5562 50.8329H18.9224C18.9018 51.1786 18.9081 51.5253 18.9412 51.87C18.9601 51.9942 19.1707 52.1152 19.3184 52.1843C19.705 52.3723 20.0401 52.6516 20.2947 52.998C20.5493 53.3444 20.7158 53.7475 20.7798 54.1726C20.8439 54.5978 20.8035 55.0321 20.6621 55.4381C20.5208 55.8441 20.2828 56.2096 19.9687 56.5032C19.6546 56.7967 19.2738 57.0093 18.8591 57.1228C18.4444 57.2362 18.0084 57.2471 17.5886 57.1544C17.1688 57.0617 16.7778 56.8683 16.4495 56.5907C16.1212 56.3132 15.8653 55.96 15.7039 55.5615C15.4463 54.9515 15.4323 54.2661 15.6647 53.6461C15.897 53.0261 16.3582 52.5187 16.9533 52.2283C17.3257 52.0492 17.4357 51.8496 17.409 51.4709C17.3807 51.0529 17.3964 50.6317 17.409 50.2137C17.4232 49.5348 17.6777 49.2849 18.3692 49.2708C19.0607 49.2566 19.7835 49.2708 20.4844 49.2708C20.6416 49.2708 20.8097 49.2566 21.0266 49.2472C21.0131 49.0206 21.0131 48.7934 21.0266 48.5668C21.069 48.2305 20.9292 48.0733 20.6227 47.9287C19.5588 47.4274 19.0182 46.3934 19.1502 45.2037C19.2093 44.7629 19.3784 44.3441 19.6419 43.9858C19.9054 43.6275 20.2549 43.3413 20.6581 43.1536C21.0614 42.9659 21.5054 42.8827 21.9492 42.9117C22.393 42.9407 22.8224 43.081 23.1977 43.3196C23.5731 43.5582 23.8823 43.8875 24.0969 44.277C24.3116 44.6666 24.4247 45.1039 24.4258 45.5487C24.427 45.9935 24.3162 46.4314 24.1036 46.822C23.891 47.2127 23.5835 47.5436 23.2094 47.7841C22.4598 48.2556 22.4598 48.2556 22.5965 49.2661C23.4687 49.2661 24.3519 49.2661 25.2351 49.2661C25.3485 49.2473 25.456 49.2026 25.5494 49.1356C27.1617 48.2053 28.7725 47.2739 30.3817 46.3415C30.4367 46.3085 30.4839 46.2629 30.5609 46.2048C28.5478 45.419 27.366 44.0236 27.5279 41.8455C27.6976 39.5636 29.1292 38.3033 31.3985 37.8051C31.2162 37.6763 31.1062 37.5883 30.9868 37.5191C29.2455 36.5134 27.5059 35.5013 25.7552 34.5128C25.5086 34.3785 25.233 34.3062 24.9522 34.3023C22.8055 34.285 20.6573 34.3023 18.5091 34.2913C17.1136 34.2913 16.4473 33.6187 16.4457 32.2169C16.4457 30.4552 16.4598 28.6936 16.4457 26.9319C16.4347 25.989 16.7018 25.2567 17.6322 24.8607C17.7422 24.8136 17.8129 24.5731 17.8239 24.4175C17.8726 23.7497 17.8113 23.0645 17.9386 22.4155C18.3331 20.4086 20.1591 19.1357 22.2555 19.3369C24.1413 19.5192 25.6499 21.1724 25.7128 23.1163C25.7128 23.2845 25.7238 23.4526 25.7128 23.6208C25.6908 24.262 25.6028 24.8686 26.4278 25.2033C26.937 25.4092 27.0942 26.0189 27.0942 26.5862C27.0942 28.549 27.1036 30.515 27.0942 32.4762C27.067 32.7942 27.0145 33.1095 26.937 33.4191L29.024 34.626C29.9527 35.1634 30.8783 35.7072 31.8165 36.2274C31.9422 36.2981 32.2 36.3248 32.288 36.2478C32.6973 35.8629 33.1879 35.5751 33.7235 35.4056C34.2592 35.2362 34.8261 35.1894 35.3822 35.2687C35.9181 34.5018 36.3251 33.7114 36.9302 33.1189C37.5352 32.5265 38.3131 32.1556 39.0863 31.6401V24.9739H36.7762C36.3566 24.9739 35.9354 24.9833 35.519 24.9739C34.3199 24.9361 33.4949 24.119 33.4839 22.9309C33.4702 21.3364 33.4702 19.7418 33.4839 18.1473C33.4933 16.9435 34.3026 16.1185 35.508 16.1043C38.345 16.0886 41.1811 16.0886 44.016 16.1043C45.2544 16.1043 46.0496 16.9341 46.059 18.174C46.0663 19.734 46.0663 21.295 46.059 22.857C46.059 24.1347 45.2355 24.9566 43.9438 24.9691C42.8563 24.9817 41.7688 24.9691 40.653 24.9691V31.5789C42.1821 31.6449 43.4817 32.22 44.4969 33.3751C45.5121 34.5301 45.8987 35.8659 45.7903 37.461L51.1334 34.3746C49.2633 33.966 49.0716 33.7208 49.0716 31.8193C49.0716 29.2001 49.0716 26.581 49.0716 23.9618C49.0716 22.7502 49.7222 22.0949 50.9369 22.0933C55.1653 22.0933 59.3947 22.0933 63.6252 22.0933C64.8525 22.0933 65.4984 22.7345 65.5 23.9477C65.5 26.7826 65.5 29.6187 65.5 32.4558C65.5 33.6407 64.8557 34.2834 63.6582 34.285C60.7541 34.2913 57.8505 34.2913 54.9474 34.285C54.5322 34.2763 54.123 34.3852 53.7672 34.5993C51.817 35.7449 49.851 36.8654 47.8898 37.9969C47.7326 38.088 47.5755 38.1854 47.3665 38.3112C48.7101 39.0969 49.5556 40.197 49.6892 41.7417C49.8227 43.2865 49.2004 44.5453 47.9526 45.5542L53.4529 48.7255C53.4953 48.4772 53.5142 48.2965 53.5566 48.122C53.6831 47.5621 53.9934 47.0607 54.438 46.6976C54.8825 46.3344 55.4358 46.1306 56.0097 46.1184C57.6535 46.0838 59.2983 46.0812 60.9442 46.1105C62.5157 46.1356 63.5875 47.2294 63.5922 48.8041C63.6048 53.6034 63.6048 58.4028 63.5922 63.2021C63.5922 64.7736 62.4922 65.8658 60.9364 65.8894C59.3429 65.9135 57.7488 65.9135 56.1543 65.8894C54.5655 65.8674 53.4828 64.7642 53.4828 63.1644C53.4733 59.1036 53.4733 55.0424 53.4828 50.9806C53.4977 50.8272 53.4638 50.6731 53.3859 50.5401C53.308 50.4072 53.1901 50.3023 53.049 50.2404C50.9181 49.0366 48.806 47.7967 46.675 46.5977C46.357 46.4323 46.0042 46.345 45.6457 46.3431C44.1685 46.3164 42.6913 46.3337 41.2156 46.3352H40.6232ZM38.5661 44.8219C40.8463 44.8219 43.1234 44.8219 45.4084 44.8219C46.9422 44.8124 48.1145 43.7218 48.1727 42.2635C48.1976 41.8648 48.1325 41.4655 47.9821 41.0954C47.8317 40.7253 47.5999 40.3938 47.3038 40.1256C47.0078 39.8573 46.6552 39.6592 46.2721 39.5458C45.889 39.4325 45.4853 39.4069 45.091 39.4709C43.9359 39.6281 43.6766 39.2556 44.0035 38.1524C44.2078 37.4837 44.2615 36.7779 44.1606 36.0859C44.0044 35.236 43.5488 34.4703 42.8765 33.9274C42.2042 33.3846 41.3596 33.1005 40.4959 33.1268C39.6246 33.133 38.7837 33.4474 38.1221 34.0144C37.4605 34.5813 37.021 35.3642 36.8814 36.2242C36.7447 36.966 36.3707 37.2143 35.7343 36.9801C34.1989 36.4175 32.9653 37.0995 32.6855 38.7087C32.5975 39.2101 32.3335 39.3656 31.8699 39.4065C31.4394 39.4226 31.0145 39.5102 30.6127 39.6658C30.0502 39.9212 29.5917 40.3612 29.3134 40.9128C29.035 41.4643 28.9534 42.0945 29.0821 42.6988C29.2115 43.3121 29.5516 43.8607 30.0434 44.2494C30.5351 44.6381 31.1475 44.8423 31.7741 44.8266C34.0386 44.8297 36.3031 44.8203 38.5661 44.8219ZM45.9521 52.9591H33.7526V60.9062H45.9521V52.9591ZM62.0726 55.9874C62.0726 53.6375 62.0726 51.2886 62.0726 48.9408C62.0726 48.0199 61.6765 47.627 60.7494 47.6223C59.2722 47.6139 57.7955 47.6139 56.3193 47.6223C55.3921 47.6223 54.9945 48.0214 54.9945 48.9392C54.9945 53.6369 54.9945 58.3347 54.9945 63.0324C54.9945 63.9753 55.3906 64.3745 56.3445 64.3776C57.7871 64.3839 59.2297 64.3839 60.6724 64.3776C61.6954 64.3776 62.0741 64.0004 62.0741 62.9821C62.0752 60.6552 62.0747 58.3237 62.0726 55.9874ZM55.1203 32.7292H63.9536V23.6617H55.1203V32.7292ZM21.7793 26.2861C20.706 26.2861 19.6327 26.3033 18.5609 26.2861C18.1366 26.2751 17.959 26.3835 17.9637 26.8424C17.9842 28.6354 17.981 30.4285 17.9637 32.2216C17.9637 32.6223 18.0753 32.7873 18.5043 32.7842C20.6824 32.7685 22.8611 32.7685 25.0402 32.7842C25.4614 32.7842 25.5902 32.6349 25.5855 32.2247C25.5698 30.4317 25.5667 28.6386 25.5855 26.8455C25.5855 26.3913 25.4284 26.2751 24.9931 26.2861C23.9244 26.3081 22.8511 26.2908 21.7793 26.2908V26.2861ZM34.9799 18.3233C34.9799 19.8256 34.9799 21.2463 34.9799 22.6653C34.9799 23.3332 35.0962 23.4511 35.7798 23.4511C38.2455 23.4511 40.7128 23.4511 43.1784 23.4511C44.6101 23.4511 44.5331 23.4794 44.5268 22.1106C44.5189 20.877 44.5268 19.6418 44.5268 18.339C44.3193 18.4694 44.1779 18.5511 44.0459 18.6423C42.8327 19.4815 41.6101 20.3096 40.4126 21.1708C39.9412 21.5056 39.5561 21.4993 39.0925 21.1708C37.9092 20.3175 36.7023 19.4972 35.5032 18.6659C35.3571 18.5559 35.2031 18.4757 34.9815 18.328L34.9799 18.3233ZM50.5755 23.6617V24.2384C50.5755 26.1179 50.5755 27.9969 50.5755 29.8754C50.5755 30.6972 50.5582 31.5207 50.5833 32.341C50.5833 32.4888 50.7405 32.7543 50.8426 32.7575C51.7415 32.7889 52.6404 32.7763 53.5535 32.7763V23.6617H50.5755ZM19.3608 24.7381H24.1932C24.1932 24.1692 24.2105 23.6381 24.1932 23.1022C24.1566 22.4957 23.8932 21.9251 23.4552 21.5038C23.0173 21.0826 22.437 20.8415 21.8295 20.8284C21.222 20.8153 20.6318 21.0313 20.1762 21.4333C19.7206 21.8354 19.4329 22.3941 19.3702 22.9985C19.3247 23.5626 19.3608 24.1331 19.3608 24.7381ZM42.8091 17.6507H36.7149L39.7589 19.7628L42.5703 17.8125L42.8091 17.6507ZM22.8998 45.6139C22.9045 45.3913 22.8429 45.1723 22.7228 44.9847C22.6028 44.7971 22.4297 44.6495 22.2256 44.5605C22.0215 44.4715 21.7955 44.4451 21.5764 44.4847C21.3573 44.5244 21.1549 44.6283 20.9949 44.7832C20.8349 44.9381 20.7245 45.137 20.6778 45.3547C20.6311 45.5725 20.6502 45.7992 20.7325 46.006C20.8149 46.2129 20.9569 46.3907 21.1405 46.5167C21.3241 46.6428 21.541 46.7114 21.7636 46.714C22.0592 46.7153 22.3435 46.601 22.5558 46.3954C22.7682 46.1898 22.8916 45.9093 22.8998 45.6139ZM18.1083 55.6998C18.4033 55.7139 18.6918 55.6111 18.9114 55.4137C19.1309 55.2162 19.2636 54.9401 19.2807 54.6453C19.2947 54.495 19.2777 54.3434 19.2306 54.1999C19.1835 54.0564 19.1074 53.9242 19.007 53.8114C18.9067 53.6987 18.7841 53.6078 18.6471 53.5444C18.51 53.481 18.3614 53.4466 18.2105 53.4431C17.9162 53.4378 17.6314 53.5475 17.4168 53.749C17.2021 53.9504 17.0746 54.2277 17.0613 54.5217C17.048 54.8158 17.1499 55.1034 17.3455 55.3235C17.541 55.5435 17.8147 55.6785 18.1083 55.6998ZM26.5174 54.562C26.5146 54.3408 26.4467 54.1254 26.3221 53.9426C26.1975 53.7598 26.0218 53.6178 25.817 53.5343C25.6122 53.4508 25.3873 53.4296 25.1704 53.4732C24.9536 53.5168 24.7544 53.6234 24.5978 53.7796C24.4412 53.9358 24.334 54.1347 24.2898 54.3514C24.2456 54.5681 24.2663 54.7931 24.3492 54.9981C24.4321 55.2032 24.5736 55.3793 24.7561 55.5043C24.9385 55.6294 25.1538 55.6979 25.3749 55.7014C25.5257 55.705 25.6756 55.678 25.8157 55.6221C25.9557 55.5662 26.083 55.4825 26.1898 55.376C26.2966 55.2695 26.3807 55.1424 26.437 55.0026C26.4933 54.8627 26.5206 54.7128 26.5174 54.562Z" fill="#980C0C"/>
</svg>
