<svg id="Layer_1" data-name="Layer 1" xmlns="http://www.w3.org/2000/svg" viewBox="0 0 384 384"><path d="M193.09,226.28v32.09c1.22.06,2.34.16,3.47.16h33.32c5.57,0,7,1.43,7,7.07V322c0,5.4-1.45,6.81-6.84,6.81h-36.8v10.37h12.57c1.26,0,2.93-.19,3.69.51,1.36,1.23,2.83,3,3,4.69.25,2.23-1.43,3.93-3.89,4.31a19.63,19.63,0,0,1-2.87.12H168.61c-3-.21-5-2.17-5-4.8a4.9,4.9,0,0,1,5-4.78c3.63-.13,7.26,0,10.89,0h3.61V328.81H145.26c-4,0-5.76-1.66-5.77-5.58q-.08-29.48,0-58.94c0-4.19,1.75-5.71,6.33-5.73h37.27V226.28h-9.88c-5.87,0-11.76.28-17.61-.08a25.45,25.45,0,0,0-15.34,4.05c-11.94,7.25-24.11,14.14-36.28,21-2.37,1.34-3.52,2.84-3.07,5.53a9.15,9.15,0,0,1,0,2.56c-.24,2.15.47,3.34,2.62,4.34,6.65,3.11,10,9.62,9.29,17.09a16.86,16.86,0,1,1-25.75-16.29c4.57-2.87,4.83-3.52,3.78-9.58H55a42.77,42.77,0,0,0,.12,6.6c.12.79,1.46,1.56,2.4,2a16.86,16.86,0,1,1-23,21.49,16.48,16.48,0,0,1,7.95-21.21c2.37-1.14,3.07-2.41,2.9-4.82-.18-2.66-.08-5.34,0-8,.09-4.32,1.71-5.91,6.11-6s9,0,13.46,0c1,0,2.07-.09,3.45-.15a34.75,34.75,0,0,1,0-4.33c.27-2.14-.62-3.14-2.57-4.06-6.77-3.19-10.21-9.77-9.37-17.34A16.86,16.86,0,1,1,82.28,235.5c-4.77,3-4.77,3-3.9,9.43H95.17a4.71,4.71,0,0,0,2-.83q15.39-8.88,30.75-17.78c.35-.21.65-.5,1.14-.87-12.81-5-20.33-13.88-19.3-27.74,1.08-14.52,10.19-22.54,24.63-25.71-1.16-.82-1.86-1.38-2.62-1.82-11.08-6.4-22.15-12.84-33.29-19.13a10.88,10.88,0,0,0-5.11-1.34c-13.66-.11-27.33,0-41-.07-8.88,0-13.12-4.28-13.13-13.2,0-11.21.09-22.42,0-33.63-.07-6,1.63-10.66,7.55-13.18.7-.3,1.15-1.83,1.22-2.82.31-4.25-.08-8.61.73-12.74C51.25,61.3,62.87,53.2,76.21,54.48c12,1.16,21.6,11.68,22,24.05,0,1.07.07,2.14,0,3.21-.14,4.08-.7,7.94,4.55,10.07C106,93.12,107,97,107,100.61c0,12.49.06,25,0,37.48a38.14,38.14,0,0,1-1,6l13.28,7.68c5.91,3.42,11.8,6.88,17.77,10.19.8.45,2.44.62,3,.13a23.84,23.84,0,0,1,19.69-6.23c3.41-4.88,6-9.91,9.85-13.68s8.8-6.13,13.72-9.41V90.35h-14.7c-2.67,0-5.35.06-8,0-7.63-.24-12.88-5.44-13-13q-.14-15.22,0-30.44c.06-7.66,5.21-12.91,12.88-13q27.08-.15,54.14,0c7.88,0,12.94,5.28,13,13.17q.07,14.89,0,29.8c0,8.13-5.24,13.36-13.46,13.44-6.92.08-13.84,0-20.94,0v42.06c9.73.42,18,4.08,24.46,11.43s8.92,15.85,8.23,26l34-19.64c-11.9-2.6-13.12-4.16-13.12-16.26v-50C246.85,76.2,251,72,258.72,72h80.74c7.81,0,11.92,4.08,11.93,11.8V138c0,7.54-4.1,11.63-11.72,11.64q-27.72.06-55.43,0a14,14,0,0,0-7.51,2c-12.41,7.29-24.92,14.42-37.4,21.62-1,.58-2,1.2-3.33,2,8.55,5,13.93,12,14.78,21.83s-3.11,17.84-11.05,24.26l35,20.18c.27-1.58.39-2.73.66-3.84A16.37,16.37,0,0,1,291,224.9q15.69-.33,31.4-.05c10,.16,16.82,7.12,16.85,17.14q.12,45.81,0,91.62c0,10-7,16.95-16.9,17.1q-15.21.23-30.43,0c-10.11-.14-17-7.16-17-17.34q-.09-38.76,0-77.53a4.65,4.65,0,0,0-2.76-4.71c-13.56-7.66-27-15.55-40.56-23.18a14.36,14.36,0,0,0-6.55-1.62c-9.4-.17-18.8-.06-28.19-.05ZM180,216.65h43.54c9.76-.06,17.22-7,17.59-16.28a16.94,16.94,0,0,0-15.84-18,17.63,17.63,0,0,0-3.77.19c-7.35,1-9-1.37-6.92-8.39a30.17,30.17,0,0,0,1-13.15,23,23,0,0,0-23.32-18.83,23.46,23.46,0,0,0-23,19.71c-.87,4.72-3.25,6.3-7.3,4.81-9.77-3.58-17.62.76-19.4,11-.56,3.19-2.24,4.18-5.19,4.44a24.66,24.66,0,0,0-8,1.65,17.24,17.24,0,0,0-9.74,19.3,17.07,17.07,0,0,0,17.13,13.54C151.19,216.7,165.6,216.64,180,216.65Zm47,51.78H149.37V319H227ZM329.58,287.7V242.86c0-5.86-2.52-8.36-8.42-8.39q-14.1-.08-28.19,0c-5.9,0-8.43,2.54-8.43,8.38v89.68c0,6,2.52,8.54,8.59,8.56q13.77.06,27.54,0c6.51,0,8.92-2.4,8.92-8.88Q329.61,310,329.58,287.7Zm-44.24-148h56.21V82H285.34ZM73.18,98.7c-6.83,0-13.66.11-20.48,0-2.7-.07-3.83.62-3.8,3.54.13,11.41.11,22.82,0,34.23,0,2.55.71,3.6,3.44,3.58q20.79-.15,41.59,0c2.68,0,3.5-1,3.47-3.56-.1-11.41-.12-22.82,0-34.23,0-2.89-1-3.63-3.77-3.56-6.8.14-13.63,0-20.45,0Zm84-50.67V75.66c0,4.25.74,5,5.09,5h47.08c9.11,0,8.62.18,8.58-8.53-.05-7.85,0-15.71,0-24-1.32.83-2.22,1.35-3.06,1.93-7.72,5.34-15.5,10.61-23.12,16.09-3,2.13-5.45,2.09-8.4,0-7.53-5.43-15.21-10.65-22.84-15.94-.93-.7-1.91-1.21-3.32-2.15Zm99.24,34v39.54c0,5.23-.11,10.47.05,15.69,0,.94,1,2.63,1.65,2.65,5.72.2,11.44.12,17.25.12V82ZM57.79,88.85H88.54c0-3.62.11-7,0-10.41a15.4,15.4,0,0,0-30.69-.66C57.56,81.37,57.79,85,57.79,88.85ZM207,43.75H168.22l19.37,13.44,17.89-12.41ZM80.31,221.69a7.15,7.15,0,1,0-7.3,7h.07A7.2,7.2,0,0,0,80.31,221.69ZM49.82,285.87a7.13,7.13,0,0,0,7.46-6.71A7,7,0,0,0,51,271.54a4,4,0,0,0-.49,0,7.19,7.19,0,0,0-.65,14.36Zm53.51-7.24a7.09,7.09,0,1,0,0,.32Z"/><path d="M307.19,301.86A15.06,15.06,0,1,1,292,316.79v0A15.06,15.06,0,0,1,307.19,301.86ZM312.38,317a5.32,5.32,0,1,0-5.46,5.17A5.32,5.32,0,0,0,312.38,317Z"/><path d="M308.66,243.38c3.73,0,7.46-.07,11.19,0,3.19.07,5,1.76,5.16,4.49s-1.74,5-5,5.08c-7.67.14-15.34.12-23,0a4.9,4.9,0,0,1-5.24-4.89c0-2.69,2.14-4.63,5.36-4.69C301,243.32,304.82,243.38,308.66,243.38Z"/><path d="M308.26,273.48c-3.63,0-7.25.06-10.87,0-3.41-.07-5.61-2.05-5.6-4.86s2.18-4.74,5.64-4.77q11-.11,22.06,0c3.6,0,5.54,1.85,5.52,4.81s-2,4.73-5.56,4.81C315.72,273.55,312,273.49,308.26,273.48Z"/><path d="M270.89,111a5.2,5.2,0,1,1,0-.12Z"/></svg>