<svg id="Layer_1" data-name="Layer 1" xmlns="http://www.w3.org/2000/svg" viewBox="0 0 384 384"><path d="M365.86,321.8c-.6,1.8-1.08,3.66-1.81,5.4-4.15,9.8-11.45,15.8-22.13,16.34-10.13.55-20.32.27-30.48.2-4.36,0-6.31-2.28-6.34-7-.05-10.51,0-21,0-31.51v-4H184.85a21.83,21.83,0,0,1-4.71-.31,5.65,5.65,0,0,1,0-11,19.85,19.85,0,0,1,4-.29h124c6.85,0,8.39,1.5,8.42,8.35.05,10,0,20.1,0,30.16v3.77c9.12,0,17.93.52,26.63-.18,6.15-.5,10.9-6.85,10.95-13.31.13-17.05.17-34.11,0-51.16-.09-7.66-6.28-13.47-14-13.77-2.93-.12-5.88-.08-8.81,0-8.21.16-14.06,5.7-14.64,13.87-.15,2,0,4.07-.19,6.09a5.49,5.49,0,0,1-5.55,5.27,5.37,5.37,0,0,1-5.7-4.74c-2.15-17,7.18-28.27,20-31.28,2.38-.57,3.08-1.37,3.06-3.75-.12-11.07,0-22.14-.07-33.2-.08-13-8-20.85-21-20.87H236.37v64.83c-.19,3.57-2.41,5.84-5.69,5.87a5.56,5.56,0,0,1-5.79-5.32,3.23,3.23,0,0,1,0-.44c-.13-3.72,0-7.46,0-11.18V184.8h-72.1c-13.33,0-21.16,7.9-21.21,21.34,0,4,.08,7.91-.07,11.86-.13,3.47-2.32,5.59-5.49,5.68s-5.84-2-5.86-5.29c0-7-.47-14.14.83-20.92,2.82-14.78,15.45-24.2,31.2-24.22q55.56-.06,111.14,0H307c19.83,0,32.79,13,32.85,32.95v35.33c2.39.44,4.63.66,6.75,1.27a25.47,25.47,0,0,1,18,17.29c.39,1.15.82,2.29,1.23,3.43Z"/><path d="M199.79,343.79H122.87c-13.1,0-23-7.06-26.3-18.71a30.07,30.07,0,0,1-1.08-8q-.15-24.22,0-48.45c.06-15.51,11.24-26.65,26.75-26.74a80.1,80.1,0,0,1,11.17.25c13.44,1.8,22.58,12.21,22.83,26,.19,10.39.08,20.78,0,31.17,0,4.26-2.36,6.89-5.84,6.87s-5.68-2.55-5.7-6.92V269.78c0-10.62-5.76-16.37-16.3-16.38-2.37,0-4.75-.07-7.12,0-7.9.29-14.09,6.13-14.18,14q-.27,25.41,0,50.83c.08,7.76,6.06,13.51,13.83,13.91,1.35.08,2.71.05,4.06.05H278.15a22.14,22.14,0,0,1,4.38.28c3,.59,4.39,2.67,4.53,5.55a5.53,5.53,0,0,1-4.9,5.58,28.82,28.82,0,0,1-4.05.16Z"/><path d="M60.83,199.51V89.71c0-24.53,16-44.14,40.12-48.1,18.65-3.06,34.91,2.14,47.34,17a8.86,8.86,0,0,1,2.19,5.7,6.19,6.19,0,0,1-3.41,4.41c-1.68.59-4-.24-5.89-.94-1-.39-1.66-1.79-2.48-2.72-10.44-11.83-23.79-14.86-38.49-11.48C86,56.86,77.07,66.26,73.47,80.38a43.49,43.49,0,0,0-1,10.73q0,110.13.23,220.26a34.42,34.42,0,0,1-.12,4.06,5.45,5.45,0,0,1-5.32,5.13,5.52,5.52,0,0,1-5.94-4.84,23.85,23.85,0,0,1-.2-4.05V199.51Z"/><path d="M153.25,139.24H120.76c-6.1,0-7.81-1.8-7.91-7.85-.13-8.83,0-17.54,4-25.77,8.23-16.58,26.91-25.92,44.51-22,19,4.27,32.07,20,32.33,39,0,3.27.05,6.55,0,9.82-.07,4.62-2.15,6.7-7,6.72C175.59,139.28,164.42,139.24,153.25,139.24Zm28.82-11.79c.87-12.19-3.07-22.07-13.42-28.53s-21.11-6.32-31.28.37c-9.94,6.54-13.8,16.21-12.77,28.16Z"/><path d="M51.53,343.77c-8.8,0-17.6.1-26.4,0-5.15-.08-8.14-5-5.25-8.76a7.51,7.51,0,0,1,5.1-2.64c17.82-.19,35.65-.17,53.48-.08,3.79,0,6.15,2.54,6.1,5.86s-2.41,5.59-6.29,5.63C69.36,343.84,60.45,343.77,51.53,343.77Z"/></svg>