<svg width="81" height="82" viewBox="0 0 81 82" fill="none" xmlns="http://www.w3.org/2000/svg">
<rect x="0.5" y="1" width="80" height="80" rx="40" stroke="#565656"/>
<path d="M65.9981 59.9807C65.9116 60.24 65.8425 60.5079 65.7374 60.7585C65.1396 62.1701 64.0881 63.0344 62.5497 63.1122C61.0905 63.1914 59.6227 63.1511 58.1592 63.141C57.5312 63.141 57.2503 62.8126 57.246 62.1327C57.2388 60.6188 57.246 59.1078 57.246 57.5939V57.0177H56.569C51.0224 57.0177 45.4743 57.0177 39.9248 57.0177C39.6977 57.0275 39.4702 57.0125 39.2464 56.9731C39.0678 56.9311 38.9086 56.83 38.7947 56.6862C38.6808 56.5424 38.6188 56.3643 38.6188 56.1808C38.6188 55.9974 38.6808 55.8193 38.7947 55.6755C38.9086 55.5317 39.0678 55.4306 39.2464 55.3886C39.4365 55.3548 39.6296 55.3408 39.8225 55.3468H57.6839C58.6706 55.3468 58.8924 55.5629 58.8967 56.5496C58.9039 57.9972 58.8967 59.4448 58.8967 60.8939C58.8967 61.0697 58.8967 61.2454 58.8967 61.437C60.2104 61.437 61.4794 61.5119 62.7326 61.411C63.6185 61.339 64.3027 60.4243 64.3099 59.4938C64.3286 57.0379 64.3344 54.5805 64.3099 52.1246C64.2969 51.0212 63.4053 50.1843 62.2933 50.1411C61.8712 50.1238 61.4463 50.1296 61.0243 50.1411C59.8417 50.1641 58.999 50.9621 58.9155 52.139C58.8939 52.4271 58.9155 52.7252 58.8881 53.0162C58.8799 53.2219 58.7917 53.4163 58.6425 53.558C58.4932 53.6998 58.2945 53.7777 58.0887 53.7753C57.8904 53.7885 57.6946 53.725 57.5418 53.5979C57.389 53.4708 57.2908 53.2899 57.2676 53.0925C56.9579 50.6438 58.3018 49.0204 60.1485 48.5869C60.4913 48.5048 60.5921 48.3895 60.5893 48.0467C60.572 46.4521 60.5892 44.8576 60.5792 43.2645C60.5676 41.3919 59.4268 40.2612 57.5543 40.2583C54.3335 40.2583 51.1122 40.2583 47.8904 40.2583H47.3459V49.2062C47.3459 49.3373 47.3459 49.467 47.3459 49.5966C47.3185 50.1108 46.9988 50.4378 46.5263 50.4421C46.4159 50.4468 46.3057 50.4285 46.2027 50.3885C46.0997 50.3485 46.0061 50.2877 45.9278 50.2097C45.8495 50.1318 45.7881 50.0385 45.7476 49.9357C45.707 49.8329 45.6882 49.7229 45.6923 49.6125C45.6736 49.0766 45.6923 48.5379 45.6923 48.002V40.2468H45.1665C41.8795 40.2468 38.5929 40.2468 35.3068 40.2468C33.3867 40.2468 32.2588 41.3847 32.2516 43.3206C32.2516 43.8968 32.2631 44.46 32.2415 45.029C32.2228 45.5288 31.9074 45.8342 31.4507 45.8472C30.9941 45.8601 30.6095 45.5591 30.6066 45.0852C30.6066 44.0769 30.5389 43.0484 30.7262 42.0718C31.1324 39.9428 32.9517 38.5859 35.2204 38.5831C40.5557 38.5773 45.892 38.5773 51.2293 38.5831C53.3275 38.5831 55.4263 38.5831 57.5255 38.5831C60.3818 38.5831 62.2486 40.4556 62.2573 43.3293C62.2573 44.8417 62.2573 46.3542 62.2573 47.8681V48.4183C62.6015 48.4817 62.9242 48.5134 63.2296 48.6013C63.8392 48.7589 64.398 49.0708 64.8521 49.507C65.3062 49.9432 65.6403 50.489 65.8223 51.0918C65.8785 51.2574 65.9405 51.4216 65.9995 51.5858L65.9981 59.9807Z" fill="#565656"/>
<path d="M42.0775 63.1482C38.3842 63.1482 34.6909 63.1482 30.9977 63.1482C29.1107 63.1482 27.6847 62.1312 27.2093 60.4531C27.1058 60.0778 27.0535 59.6902 27.0538 59.3008C27.0394 56.974 27.0394 54.6477 27.0538 52.3219C27.0624 50.0878 28.6728 48.4831 30.9069 48.4702C31.4434 48.4446 31.9811 48.4567 32.5159 48.5062C34.4518 48.7655 35.7684 50.265 35.8044 52.2513C35.8318 53.7479 35.8159 55.2445 35.8044 56.7411C35.8044 57.3548 35.4645 57.7336 34.9632 57.7307C34.4619 57.7278 34.145 57.3634 34.1421 56.7339C34.1421 55.318 34.1421 53.9035 34.1421 52.4875C34.1421 50.9578 33.3125 50.1296 31.7942 50.1281C31.4529 50.1281 31.11 50.118 30.7686 50.1281C29.6307 50.1699 28.7391 51.0111 28.7261 52.1447C28.7002 54.5848 28.7002 57.0254 28.7261 59.4664C28.7376 60.5842 29.599 61.4125 30.7182 61.4701C30.9127 61.4816 31.1086 61.4773 31.303 61.4773C38.6579 61.4773 46.0118 61.4773 53.3647 61.4773C53.5758 61.4697 53.7872 61.4832 53.9956 61.5176C54.4278 61.6026 54.628 61.9022 54.6481 62.3171C54.6512 62.5147 54.5807 62.7065 54.4502 62.855C54.3198 63.0036 54.1387 63.0983 53.9423 63.1208C53.7487 63.1422 53.5537 63.1499 53.3589 63.1439L42.0775 63.1482Z" fill="#565656"/>
<path d="M22.0615 42.3656C22.0615 37.0937 22.0615 31.8217 22.0615 26.5497C22.0615 23.0163 24.3662 20.1916 27.8405 19.6212C30.5269 19.1804 32.8691 19.9295 34.6595 22.0699C34.8583 22.2978 34.9701 22.5887 34.975 22.891C34.9484 23.0279 34.8901 23.1566 34.8048 23.2669C34.7195 23.3772 34.6096 23.466 34.4838 23.5262C34.2418 23.6112 33.9076 23.4917 33.6354 23.3908C33.4914 23.3346 33.3963 23.133 33.2782 22.999C31.7744 21.295 29.8514 20.8585 27.7339 21.3454C25.6871 21.8179 24.4008 23.1719 23.8822 25.2058C23.77 25.713 23.7216 26.2322 23.7382 26.7514C23.7382 37.327 23.7492 47.9027 23.7713 58.4783C23.7771 58.6734 23.7713 58.8687 23.754 59.0631C23.7425 59.2601 23.6573 59.4454 23.5153 59.5823C23.3733 59.7193 23.1849 59.7977 22.9877 59.8021C22.7826 59.8192 22.5788 59.7561 22.4193 59.6261C22.2597 59.4961 22.1567 59.3093 22.1321 59.1049C22.1059 58.9116 22.0963 58.7165 22.1033 58.5215C22.1033 53.1353 22.1033 47.75 22.1033 42.3656H22.0615Z" fill="#565656"/>
<path d="M35.3734 33.6841C33.8134 33.6841 32.2534 33.6841 30.6934 33.6841C29.8148 33.6841 29.5685 33.4249 29.5541 32.5534C29.5353 31.2815 29.5541 30.0269 30.1302 28.8414C31.3157 26.4532 34.0064 25.1078 36.5416 25.6725C39.2784 26.2875 41.1611 28.5533 41.1985 31.2901C41.1985 31.7612 41.2057 32.2336 41.1985 32.7046C41.1884 33.3701 40.8888 33.6697 40.1902 33.6726C38.5913 33.6899 36.9824 33.6841 35.3734 33.6841ZM39.5247 31.9859C39.6501 30.23 39.0825 28.8068 37.5917 27.8763C36.1008 26.9458 34.5509 26.966 33.086 27.9296C31.6542 28.8717 31.0982 30.2646 31.2466 31.9859H39.5247Z" fill="#565656"/>
<path d="M20.7215 63.1453C19.4539 63.1453 18.1863 63.1597 16.9187 63.1453C16.1769 63.1338 15.7462 62.4251 16.1625 61.8835C16.254 61.775 16.3659 61.6855 16.492 61.6203C16.618 61.555 16.7557 61.5153 16.8971 61.5032C19.464 61.4759 22.0323 61.4788 24.6006 61.4917C25.1465 61.4917 25.4864 61.8576 25.4792 62.3358C25.472 62.814 25.1321 63.141 24.5732 63.1468C23.2898 63.1554 22.0063 63.1453 20.7215 63.1453Z" fill="#565656"/>
</svg>
