<svg width="141" height="134" viewBox="0 0 141 134" fill="none" xmlns="http://www.w3.org/2000/svg">
<path d="M87.4986 86.5539C87.779 86.1171 88.0902 85.7009 88.4299 85.3084C99.9661 73.752 111.51 62.2045 123.061 50.6657C127.737 46.0056 134.956 46.422 138.749 51.5137C140.139 53.3787 140.849 55.6632 140.761 57.9875C140.673 60.3119 139.792 62.536 138.265 64.2904C137.886 64.7182 137.507 65.1194 137.099 65.5169C122.435 80.1978 107.76 94.8711 93.0711 109.537C92.297 110.273 91.3883 110.852 90.3946 111.244C89.5353 111.6 89.1151 111.948 89.1757 112.944C89.2533 114.354 89.2533 115.767 89.1757 117.176C89.1042 118.911 88.3763 120.554 87.1392 121.772C85.9021 122.99 84.2484 123.692 82.5129 123.737C81.487 123.775 80.4572 123.737 79.2345 123.737C79.2345 124.755 79.2345 125.679 79.2345 126.599C79.1625 130.445 76.3612 133.303 72.5376 133.337C68.0655 133.38 63.5946 133.38 59.125 133.337C55.3052 133.299 52.4963 130.434 52.4319 126.599C52.4319 125.713 52.4319 124.823 52.4319 123.741C51.3265 123.741 50.3081 123.767 49.2936 123.741C45.5079 123.638 42.5816 120.822 42.4794 117.04C42.3923 113.368 42.4112 109.696 42.4794 106.027C42.5248 103.234 43.899 101.182 46.4013 99.9893C47.2266 99.6107 47.4689 99.1867 47.3705 98.2971C46.5755 91.233 44.5577 84.6043 40.6055 78.6116C38.2243 75 35.9036 71.362 34.8399 67.0691C30.4863 49.4846 42.362 31.2906 60.2039 28.2621C77.9057 25.2563 94.275 36.7761 97.2051 54.4476C98.4392 61.8789 97.2997 68.9278 93.1317 75.4089C91.0306 78.6797 89.2779 82.1777 87.3737 85.5734C87.2794 85.7797 87.2034 85.9937 87.1465 86.2132L87.4986 86.5539ZM63.823 99.2359V97.3431C63.823 87.5534 63.7965 77.7674 63.8571 67.9814C63.8571 66.6754 63.4482 65.975 62.3125 65.3541C58.9319 63.5067 55.5892 61.5874 52.3145 59.5545C51.9768 59.3088 51.6991 58.9896 51.5024 58.6211C51.3057 58.2526 51.195 57.8444 51.1788 57.427C51.2318 56.8326 52.1366 56.1095 52.8218 55.8408C53.2837 55.659 54.0711 56.0717 54.62 56.3821C57.7318 58.1349 60.874 59.846 63.8836 61.7653C65.3146 62.6777 66.3594 62.6512 67.7752 61.7653C70.9552 59.7627 74.2525 57.9418 77.5234 56.0868C78.625 55.466 79.7948 55.7915 80.3247 56.7796C80.9002 57.8926 80.533 58.7784 79.5676 59.4636C79.2988 59.6529 79.0073 59.8044 78.7196 59.9671C75.4639 61.86 72.2234 63.7528 68.9412 65.5889C68.5667 65.7615 68.2558 66.0472 68.052 66.4057C67.8483 66.7642 67.7621 67.1776 67.8055 67.5877C67.8396 77.6576 67.8245 87.7275 67.832 97.7936C67.832 98.2441 67.8888 98.6946 67.9229 99.2397C70.5918 99.2397 73.1244 99.2738 75.657 99.1981C76.0091 99.1981 76.4369 98.6832 76.664 98.3047C77.1448 97.5097 77.3076 96.3929 77.9701 95.8629C80.4913 93.8376 81.8315 91.2444 82.2895 88.1136C82.3518 87.8384 82.4327 87.5677 82.5318 87.3035C84.0234 82.2269 86.7907 77.8015 89.6678 73.4441C93.4535 67.7164 94.521 61.4019 93.2301 54.8073C90.9966 43.3897 84.1861 35.7085 72.954 32.7292C61.7219 29.7499 52.0193 33.0434 44.3949 41.8451C37.1188 50.2417 35.4872 64.1162 42.1765 73.7546C43.6572 75.9299 45.0244 78.1803 46.2726 80.4969C49.2406 85.899 50.5958 91.7819 51.3076 97.8504C51.3757 98.4523 51.1751 99.2473 52.235 99.2435C56.0283 99.2284 59.8291 99.2359 63.823 99.2359ZM120.286 59.6681L82.6378 97.3166L90.8451 105.539C103.338 93.0464 115.959 80.4249 128.501 67.8906L120.286 59.6681ZM74.7333 103.203H72.0341C64.7 103.203 57.3672 103.203 50.0356 103.203C47.4689 103.203 46.4316 104.252 46.4202 106.792C46.4202 110.036 46.3975 113.281 46.4202 116.525C46.4202 118.626 47.556 119.72 49.6646 119.758C51.1788 119.785 52.6742 119.739 54.1771 119.758C55.6194 119.788 56.3311 120.515 56.3652 121.939C56.3993 123.453 56.3652 124.948 56.3841 126.455C56.4296 128.28 57.4744 129.328 59.3143 129.34C63.6375 129.367 67.962 129.367 72.2878 129.34C74.1806 129.34 75.2141 128.272 75.2557 126.341C75.2822 125.073 75.2557 123.805 75.2557 122.533C75.2557 120.349 75.8425 119.758 77.9776 119.751C79.3897 119.751 80.8018 119.777 82.21 119.751C83.8151 119.698 85.0266 118.713 85.1477 117.26C85.2537 115.961 85.1704 114.644 85.1704 113.152C84.0347 113.531 83.0202 113.86 82.0169 114.216C79.0515 115.263 76.0911 116.319 73.1358 117.384C72.1893 117.725 71.1256 117.899 70.5804 117.006C70.2019 116.355 70.2019 115.352 70.323 114.545C70.4441 113.739 70.9136 112.974 71.224 112.187L74.7333 103.203ZM131.719 64.915C132.938 63.7793 134.369 62.708 135.505 61.3489C137.538 58.8996 137.148 55.2199 134.827 53.0507C133.702 52.0028 132.229 51.408 130.691 51.3808C129.154 51.3535 127.66 51.8957 126.499 52.9031C125.272 53.9896 124.152 55.1972 123.061 56.2761L131.719 64.915ZM86.9497 108.284C84.5395 105.871 82.1646 103.492 79.825 101.148L75.4299 112.365L86.9497 108.284Z" fill="#8D7662"/>
<path d="M63.8426 7.40685C63.8426 5.89258 63.8123 4.40103 63.8426 2.9019C63.8728 1.40277 64.5997 0.630493 65.7998 0.630493C66.9998 0.630493 67.7721 1.43306 67.791 2.86783C67.8339 5.87113 67.8339 8.87569 67.791 11.8815C67.7721 13.3087 66.9885 14.1529 65.83 14.1529C64.6716 14.1529 63.8804 13.3163 63.8388 11.9042C63.8236 10.4127 63.8463 8.90976 63.8426 7.40685Z" fill="#8D7662"/>
<path d="M92.8819 21.3003C91.1216 21.2549 90.1259 19.8542 90.7922 18.6163C92.3633 15.6824 94.0403 12.8015 95.7628 9.95465C96.342 8.99309 97.3452 8.77731 98.3484 9.37166C99.3516 9.96601 99.6393 10.9389 99.1056 11.9194C97.5231 14.7965 95.8827 17.6371 94.1842 20.441C93.8738 20.918 93.1469 21.1338 92.8819 21.3003Z" fill="#8D7662"/>
<path d="M34.7603 9.09529C35.0367 9.33 35.7294 9.69343 36.0777 10.2689C37.6677 12.8696 39.1782 15.5196 40.6735 18.1733C41.3398 19.3545 41.0218 20.5394 39.9997 21.0807C38.9775 21.6221 37.9138 21.2625 37.2551 20.1457C35.7067 17.5222 34.1697 14.8874 32.6858 12.2223C31.8264 10.6815 32.7009 9.06879 34.7603 9.09529Z" fill="#8D7662"/>
<path d="M122.437 34.5199C122.206 34.8076 121.873 35.5382 121.302 35.8865C118.652 37.503 115.975 39.0362 113.276 40.5504C112.14 41.1864 111.023 40.8912 110.463 39.9296C109.903 38.968 110.198 37.7983 111.281 37.1585C113.931 35.5799 116.615 34.0202 119.322 32.521C120.798 31.7033 122.38 32.5475 122.437 34.5199Z" fill="#8D7662"/>
<path d="M7.50763 67.6634C6.05015 67.6634 4.59266 67.6899 3.13897 67.6634C1.6247 67.6294 0.742636 66.8609 0.769135 65.657C0.795635 64.4532 1.6777 63.715 3.20711 63.6998C6.07413 63.6746 8.93862 63.6746 11.8006 63.6998C13.4246 63.6998 14.3256 64.457 14.3029 65.7252C14.2802 66.9934 13.4474 67.6369 11.8725 67.6672C10.415 67.6862 8.96133 67.6634 7.50763 67.6634Z" fill="#8D7662"/>
<path d="M21.4241 38.5214C21.4582 40.5164 19.8833 41.3834 18.3199 40.5278C16.2642 39.3921 14.2503 38.1958 12.2211 37.026C11.5321 36.6248 10.8129 36.2689 10.1617 35.8108C9.2456 35.1711 8.89732 34.2966 9.4576 33.2442C10.0444 32.1425 11.0589 31.8548 12.0886 32.4189C14.9279 33.9672 17.7255 35.5988 20.4891 37.2797C20.9925 37.5787 21.25 38.2602 21.4241 38.5214Z" fill="#8D7662"/>
</svg>
