<svg width="81" height="82" viewBox="0 0 81 82" fill="none" xmlns="http://www.w3.org/2000/svg">
<rect x="0.5" y="1" width="80" height="80" rx="40" stroke="#565656"/>
<path d="M59.9987 31.0693C60.7802 31.1493 61.4751 31.151 62.1349 31.3009C63.2328 31.5457 64.214 32.1583 64.916 33.0372C65.6179 33.9161 65.9983 35.0085 65.9942 36.1333C66.0019 44.1495 66.0019 52.1662 65.9942 60.1835C65.9942 63.0029 63.5747 65.2758 60.7585 65.1692C60.3836 65.1558 60.0087 65.1508 59.6338 65.1508C47.0807 65.1508 34.5244 65.1481 21.9646 65.1425C21.1951 65.1651 20.4258 65.094 19.6734 64.9309C18.6257 64.6608 17.6973 64.0505 17.0339 63.1958C16.3704 62.3412 16.0094 61.2904 16.0075 60.2085C15.9975 49.4418 15.9975 38.6761 16.0075 27.9116C16.0075 25.6554 17.9854 23.4608 20.2333 23.2059C20.7674 23.1593 21.3037 23.1426 21.8397 23.1559C26.5054 23.1559 31.1711 23.1559 35.8369 23.1426C36.2282 23.1402 36.614 23.049 36.965 22.876C40.2065 21.2241 43.4409 19.555 46.668 17.8686C47.0305 17.673 47.4286 17.5523 47.8387 17.5136C48.2487 17.4749 48.6624 17.519 49.055 17.6434C49.4477 17.7678 49.8113 17.9698 50.1244 18.2375C50.4374 18.5052 50.6934 18.8331 50.8772 19.2017C51.4454 20.3131 52.0436 21.4096 52.5685 22.5344C52.7985 23.0243 53.0918 23.1709 53.6216 23.1642C54.4881 23.1542 55.3813 23.1376 56.2195 23.3309C58.4273 23.8224 59.972 25.822 59.9987 28.0916C60.007 29.088 59.9987 30.0828 59.9987 31.0693ZM63.9862 55.1495C62.6782 55.1495 61.4318 55.1578 60.187 55.1495C58.1691 55.1312 56.1411 55.2295 54.1365 55.0479C50.5223 54.7229 47.7295 51.2619 48.0244 47.6243C48.1756 45.8504 48.9876 44.1979 50.2996 42.9943C51.6115 41.7907 53.3276 41.1238 55.108 41.1256C57.8975 41.094 60.6886 41.1406 63.478 41.149C63.6446 41.149 63.7996 41.1206 63.9779 41.1023C63.9779 39.3177 64.0429 37.568 63.9596 35.825C63.8863 34.3153 62.5948 33.2139 61.0702 33.1806C60.5919 33.1706 60.112 33.1539 59.6338 33.1539C55.5329 33.1539 51.4321 33.1772 47.3312 33.1772C41.7768 33.1772 36.2179 33.1689 30.6546 33.1522C30.3013 33.1522 29.9464 33.1622 29.5931 33.1622C26.927 33.1622 24.2608 33.1595 21.5947 33.1539C21.2614 33.1539 20.9165 33.1972 20.5949 33.1156C19.7268 32.8873 18.8719 32.6023 17.9904 32.3341V45.4148C17.9904 50.2671 17.9904 55.1189 17.9904 59.9702C17.9904 61.8215 19.1435 63.0196 20.9898 63.1046C21.4681 63.1262 21.9463 63.1446 22.4245 63.1446H58.9839C59.7121 63.1446 60.4403 63.1296 61.1668 63.1046C62.6365 63.0529 63.9062 61.9065 63.9696 60.4268C64.0429 58.7055 63.9862 56.9825 63.9862 55.1495ZM63.9712 43.1802C60.8885 43.1802 57.8708 43.1702 54.8547 43.1802C52.2303 43.1952 50.0007 45.4848 50.0007 48.1392C50.0007 50.7654 52.2069 53.0782 54.7831 53.1066C57.6542 53.1399 60.5269 53.1382 63.398 53.1482C63.5797 53.1482 63.7629 53.1266 63.9696 53.1132L63.9712 43.1802ZM49.4741 20.9347C48.7076 19.2933 48.4743 19.21 46.9396 19.9982L26.1571 30.7127C25.9522 30.8177 25.7539 30.9343 25.5523 31.046C26.6886 31.1543 27.831 31.186 28.9716 31.141C29.4227 31.1287 29.8661 31.0213 30.273 30.826C35.3264 28.2443 40.3726 25.6487 45.4116 23.0393C46.763 22.3444 48.1061 21.6462 49.4791 20.9347H49.4741ZM32.2742 25.3105L32.2526 25.1872C32.1343 25.1755 32.016 25.1572 31.896 25.1572C28.255 25.1672 24.6158 25.1688 20.9748 25.1988C19.4135 25.2105 18.2687 26.2819 18.0304 27.865C17.8405 29.1297 18.7236 30.5494 20.055 30.9427C20.5246 31.0665 21.0218 31.0319 21.4697 30.8444C22.7362 30.2728 23.9542 29.5929 25.1923 28.9547C27.5541 27.7428 29.9147 26.528 32.2742 25.3105ZM34.2972 31.0193L34.3355 31.1543C35.4703 31.1543 36.6067 31.181 37.7398 31.141C38.1709 31.127 38.5943 31.0231 38.9829 30.836C42.9105 28.8364 46.8263 26.8102 50.7439 24.7906C50.9222 24.6989 51.0921 24.5889 51.3154 24.4573L50.4139 22.7093L34.2972 31.0193ZM52.2453 26.2653L43.0238 31.021C44.1971 31.143 45.3774 31.1836 46.5564 31.1426C46.9258 31.1291 47.2886 31.0407 47.6228 30.8827C48.5793 30.4278 49.5091 29.9212 50.4556 29.4413C50.8889 29.2197 51.3104 29.2513 51.657 29.6079C52.0036 29.9645 52.0353 30.3761 51.807 30.8127C51.762 30.8977 51.7154 30.9793 51.6404 31.1176H54.7497C53.8966 29.468 53.0851 27.8916 52.2453 26.2653ZM57.9991 31.076C57.9991 30.1262 57.9991 29.1764 57.9991 28.2249C58.0141 26.3919 56.4761 24.7256 53.9866 25.2655C54.8797 27.0068 55.7929 28.7231 56.6444 30.4711C56.931 31.0543 57.2742 31.3009 57.9991 31.076Z" fill="#565656"/>
<path d="M54.9727 51.0703C53.2497 51.062 52 49.8172 52 48.1309C52 46.4445 53.2631 45.2448 55.0227 45.2598C56.7824 45.2748 58.0138 46.4845 57.9988 48.1825C57.9838 49.8805 56.7107 51.0803 54.9727 51.0703ZM54.9727 47.2094C54.3745 47.2227 53.9729 47.6176 54.0013 48.1842C54.0296 48.7508 54.4412 49.094 55.0527 49.069C55.6276 49.0457 55.9992 48.6774 55.9959 48.1359C55.9925 47.5943 55.5693 47.1961 54.9744 47.2094H54.9727Z" fill="#565656"/>
</svg>
