<svg id="Layer_1" data-name="Layer 1" xmlns="http://www.w3.org/2000/svg" viewBox="0 0 384 384"><path d="M306,130.49c4.69.48,8.86.49,12.82,1.39a29.61,29.61,0,0,1,23.16,29q.07,72.17,0,144.33c0,16.92-14.52,30.56-31.42,29.92-2.25-.08-4.5-.11-6.75-.11q-113,0-226.06,0A56.69,56.69,0,0,1,64,333.7a29.32,29.32,0,0,1-22-28.34q-.09-96.92,0-193.82C42,98,53.87,84.83,67.36,83.3A86.16,86.16,0,0,1,77,83q42,0,84-.08a15.45,15.45,0,0,0,6.77-1.6q29.17-14.86,58.23-30a18.45,18.45,0,0,1,25,7.47l.27.53c3.41,6.67,7,13.25,10.15,20,1.38,2.94,3.14,3.82,6.32,3.78,5.2-.06,10.56-.16,15.59,1,13.25,3,22.52,15,22.68,28.57C306.05,118.6,306,124.57,306,130.49ZM329.93,275c-7.85,0-15.33.05-22.8,0-12.11-.11-24.28.48-36.31-.61-21.69-1.95-38.45-22.72-36.68-44.55a42.62,42.62,0,0,1,42.51-39c16.74-.19,33.49.09,50.23.14a29.38,29.38,0,0,0,3-.28c0-10.71.39-21.21-.11-31.67-.44-9.06-8.19-15.67-17.34-15.87-2.87-.06-5.75-.16-8.62-.16-24.61,0-49.22.14-73.83.14q-50,0-100.08-.15c-2.12,0-4.25.06-6.37.06q-24,0-48-.05c-2,0-4.07.26-6-.23-5.21-1.37-10.34-3.08-15.63-4.69V303.93c0,11.11,6.92,18.3,18,18.81,2.87.13,5.74.24,8.61.24h219.4c4.37,0,8.74-.09,13.1-.24,8.82-.31,16.44-7.19,16.82-16.07C330.27,296.34,329.93,286,329.93,275Zm-.09-71.83c-18.5,0-36.61-.06-54.71,0C259.38,203.26,246,217,246,232.93c0,15.76,13.24,29.64,28.7,29.81,17.23.2,34.47.19,51.7.25,1.09,0,2.19-.13,3.43-.21Zm-87-133.5c-4.6-9.85-6-10.35-15.21-5.62l-124.72,64.3c-1.23.63-2.42,1.33-3.63,2a152.77,152.77,0,0,0,20.52.57,19.21,19.21,0,0,0,7.81-1.89q45.49-23.23,90.85-46.73c8.11-4.17,16.17-8.36,24.41-12.63ZM139.62,95.93l-.13-.74c-.71-.07-1.42-.18-2.14-.18-21.85.06-43.69.07-65.54.25-9.37.07-16.24,6.5-17.67,16-1.14,7.59,4.16,16.11,12.15,18.47a13.23,13.23,0,0,0,8.49-.59c7.6-3.43,14.91-7.51,22.34-11.34Q118.38,106.9,139.62,95.93Zm12.14,34.26.23.81c6.81,0,13.63.16,20.43-.08a18.55,18.55,0,0,0,7.46-1.83c23.57-12,47.07-24.16,70.58-36.28,1.07-.55,2.09-1.21,3.43-2l-5.41-10.49Zm107.71-28.53L204.13,130.2a153.11,153.11,0,0,0,21.2.73,16.33,16.33,0,0,0,6.4-1.56c5.74-2.73,11.32-5.77,17-8.65,2.6-1.33,5.13-1.14,7.21,1s2.27,4.61.9,7.23c-.27.51-.55,1-1,1.83H274.5C269.38,120.88,264.51,111.42,259.47,101.66ZM294,130.53V113.42c.09-11-9.14-21-24.08-17.76,5.36,10.45,10.84,20.75,15.95,31.24C287.59,130.4,289.65,131.88,294,130.53Z"/><path d="M275.84,250.52C265.5,250.47,258,243,258,232.88s7.58-17.32,18.14-17.23S294.09,223,294,233.19,286.27,250.58,275.84,250.52Zm0-23.17c-3.59.08-6,2.45-5.83,5.85s2.64,5.46,6.31,5.31c3.45-.14,5.68-2.35,5.66-5.6s-2.56-5.64-6.13-5.56Z"/></svg>