<?xml version="1.0" encoding="utf-8"?>
<!-- Generator: Adobe Illustrator 26.0.1, SVG Export Plug-In . SVG Version: 6.00 Build 0)  -->
<svg version="1.1" id="Layer_1" xmlns="http://www.w3.org/2000/svg" xmlns:xlink="http://www.w3.org/1999/xlink" x="0px" y="0px"
	 viewBox="0 0 747.52 543.9" style="enable-background:new 0 0 747.52 543.9;" xml:space="preserve">
<g>
	<path d="M8.38,438.04c-0.15-0.72-0.45-1.61-0.49-2.52c-0.09-1.88-0.07-3.77-0.07-5.66c0-67.96,0-135.92,0-203.88
		c0-3.59,0.01-7.17,0.08-10.76c0.6-29.85,7.32-58.3,20.04-85.26c21.18-44.89,53.93-78.79,97.97-101.68
		c18.34-9.53,37.75-16.03,58.08-19.95c16.21-3.12,32.52-3.96,48.96-3.48c39.42,1.16,75.62,12.72,108.76,33.89
		c33.21,21.21,58.7,49.56,76.65,84.59c10.39,20.28,17.26,41.75,20.79,64.32c1.67,10.67,2.46,21.36,2.46,32.12
		c0.04,70.79,0.03,141.59,0.02,212.38c0,2.04,0.3,4.16-0.92,6.25c-0.8,0.23-1.67,0.64-2.57,0.72c-1.5,0.13-3.02,0.07-4.53,0.07
		c-39.46,0-78.91,0-118.37,0c-1.7,0-3.4,0.03-5.09-0.12c-1.79-0.15-2.64-1.08-2.8-2.96c-0.11-1.31-0.07-2.64-0.07-3.96
		c0-68.34,0-136.68,0-205.02c0-3.77,0.2-7.55-0.07-11.3c-1.75-24.78-12.77-44.67-32.24-59.86c-10.89-8.49-23.26-13.68-36.99-15.92
		c-42.79-6.98-81.87,19.95-92.97,59.03c-1.91,6.73-3.02,13.59-3.02,20.64c0.03,41.15,0,82.31-0.01,123.46
		c-0.01,29.45-0.01,58.9,0.01,88.35c0,7.49,0.41,7.68-7.89,7.67c-39.64-0.04-79.29-0.01-118.93-0.04
		C12.97,439.16,10.62,439.74,8.38,438.04z"/>
	<path d="M464.66,164.06c-1.84-6.27-3.3-11.69-5.04-17.03c-1.75-5.38-3.64-10.72-5.71-15.98c-2.08-5.26-4.31-10.47-6.76-15.57
		c-2.53-5.27-5.27-10.45-8.16-15.53c-2.8-4.92-5.77-9.75-8.9-14.46c-3.13-4.71-6.43-9.33-9.88-13.82
		c-3.45-4.49-7.2-8.74-10.78-13.13c-3.54-4.35-7.86-8.03-11.41-12.73c1.26-1.07,2.18-2,3.23-2.72
		c23.58-16.25,49.34-27.46,77.33-33.6c8.67-1.9,17.41-3.32,26.2-4.13c8.06-0.74,16.22-0.51,24.34-0.58
		c4.15-0.03,8.32,0.01,12.45,0.39c6.75,0.63,13.53,1.23,20.18,2.44c18.62,3.36,36.65,8.78,53.8,16.85
		c47.97,22.59,83.32,57.86,106.02,105.76c8.45,17.84,14.11,36.6,17.35,56.04c1.83,10.98,2.7,22.07,2.69,33.24
		c-0.05,71-0.02,141.99-0.03,212.99c0,1.86-0.16,3.71-0.25,5.63c-1.21,0.4-2.07,0.86-2.96,0.94c-1.69,0.15-3.39,0.1-5.09,0.1
		c-39.27,0-78.55,0-117.82,0c-1.51,0-3.03,0.05-4.53-0.05c-2.68-0.17-3.36-0.86-3.5-3.4c-0.06-1.13-0.03-2.27-0.03-3.4
		c0-70.05-0.32-140.11,0.16-210.16c0.22-31.93-19.96-66.37-55.79-78.75c-11.63-4.02-23.59-5.36-35.68-4.11
		c-16.72,1.72-31.68,8.11-44.63,18.96C469.48,159.94,467.49,161.65,464.66,164.06z"/>
	<path d="M577.52,221.61c0.82,26.03-19.9,52.93-52.43,53.2c-29.83,0.24-53.33-22.91-53.36-53.01
		c-0.04-29.82,22.77-52.49,53.16-53.44C558.7,169.6,578.32,196.69,577.52,221.61z"/>
	<path d="M171.94,221.18c-0.67-30.78,26.04-53.14,52.6-53.21c24.99-0.06,53.36,19.46,53.17,53.35
		c-0.2,34.39-28.83,52.87-53.03,52.89C197.51,274.24,171.3,251.32,171.94,221.18z"/>
	<path d="M180.3,496.09c1.33-1.17,2.46-2.14,3.55-3.13c3.75-3.39,8.23-3.65,12.74-2.49c4.39,1.13,6.95,4.39,7.78,8.82
		c0.38,2.02,0.51,4.12,0.53,6.19c0.06,8.86,0.04,17.72,0.03,26.58c0,1.13-0.07,2.26-0.23,3.38c-0.21,1.5-1.16,2.37-2.66,2.41
		c-2.8,0.09-5.62,0.44-8.22-0.33c-1.58-1.51-1.22-3.3-1.23-4.94c-0.05-7.54,0.01-15.08-0.06-22.62c-0.02-1.67-0.22-3.39-0.67-4.99
		c-0.21-0.73-1.15-1.51-1.92-1.77c-1.24-0.41-2.29,0.45-2.62,1.56c-0.48,1.59-0.8,3.29-0.82,4.95c-0.09,6.97-0.03,13.95-0.05,20.92
		c-0.01,2.05-0.12,4.11-0.19,6.17c-3.46,1.86-6.83,1.2-10.12,0.8c-0.66-0.08-1.53-1.17-1.71-1.93c-0.34-1.44-0.33-2.98-0.34-4.49
		c-0.03-6.03,0.04-12.06-0.05-18.09c-0.04-2.63-0.31-5.26-0.62-7.88c-0.14-1.21-0.99-2.07-2.29-2.07c-1.26,0-2.2,0.82-2.47,1.95
		c-0.35,1.44-0.48,2.96-0.49,4.45c-0.05,7.54,0,15.08-0.03,22.62c-0.02,5.67-0.12,5.76-5.61,5.79c-2.04,0.01-4.08-0.11-6.31-0.18
		c-0.33-1.4-0.79-2.45-0.8-3.5c-0.05-10.37-0.04-20.73-0.03-31.1c0-3.12,1.01-5.9,2.89-8.39c4.66-6.15,14.28-6.2,18.59-1.74
		C177.85,494.1,179.03,494.99,180.3,496.09z"/>
	<path d="M581.66,536.89c-0.48-3.56-0.61-7.08,0.04-10.33c1.4-1.54,2.99-1.22,4.46-1.4c7.55-0.9,11.64-6.88,9.62-14.14
		c-1.14-4.08-4.13-6.32-8.12-6.93c-3.12-0.48-6.35-0.63-9.38,0.21c-1.5,1.75-1.11,3.71-1.12,5.54c-0.05,7.16,0,14.33-0.04,21.49
		c-0.01,1.86,0.26,3.76-0.58,5.8c-3.35,1.45-6.9,0.87-10.39,0.48c-0.63-0.07-1.4-1.21-1.62-1.99c-0.3-1.05-0.16-2.24-0.16-3.37
		c-0.01-11.88,0-23.75,0-35.63c0-0.75-0.02-1.51,0.03-2.26c0.16-2.32,0.82-3.07,3.06-3.19c2.07-0.11,4.15-0.06,6.22-0.06
		c4.15,0.01,8.3-0.03,12.44,0.06c4.01,0.09,7.84,1.09,11.38,2.94c7.06,3.68,11.13,9.44,11.51,17.5c0.13,2.81,0.22,5.71-0.31,8.45
		c-2.29,11.89-14.16,20.17-26.11,17.54C582.44,537.58,582.31,537.39,581.66,536.89z"/>
	<path d="M97.88,539.08c-10.72,1.12-24.66-8.19-25.03-24.41c-0.31-13.48,11.08-24.61,24.86-24.67
		c14.01-0.06,24.21,10.57,24.47,24.76C122.46,529.83,108.53,540.17,97.88,539.08z M108.99,514.81c0.47-7.72-6.45-12.2-11.38-12.06
		c-6.19,0.18-11.27,5.19-11.44,11.58c-0.17,6.59,5.02,11.78,11.53,12.01C102.73,526.51,109.45,521.63,108.99,514.81z"/>
	<path d="M263.04,539.08c-13.73-0.01-24.94-11.16-24.82-24.67c0.13-13.59,11.28-24.41,25.16-24.41
		c13.68-0.01,23.82,10.54,24.21,24.46C288.02,529.72,274.05,540.25,263.04,539.08z M274.4,514.57c0.42-7.19-6.21-12.06-11.61-11.82
		c-6.16,0.28-11.17,5.42-11.21,11.8c-0.05,6.6,5.2,11.82,11.77,11.71C269.68,526.17,274.42,521.16,274.4,514.57z"/>
	<path d="M379.67,503.47c-1.27,1.66-0.86,3.61-0.88,5.45c-0.05,7.55-0.02,15.09-0.03,22.64c0,1.32,0.01,2.65-0.12,3.96
		c-0.12,1.23-0.83,2.2-2.11,2.28c-3.17,0.2-6.37,0.55-9.76-0.4c-0.24-0.86-0.7-1.73-0.7-2.6c-0.05-13.39-0.05-26.79-0.02-40.18
		c0-0.89,0.33-1.79,0.45-2.44c0.62-0.39,0.93-0.75,1.25-0.76c6.4-0.1,12.82-0.48,19.21-0.14c5.83,0.32,10.63,3.2,12.77,8.84
		c2.03,5.34,1.86,10.75-2.1,15.46c-0.84,1-1.67,2.02-2.57,3.11c1.46,6.47,5.18,12.09,6.89,18.8c-4.31,0.83-8.19,0.5-12.29,0.21
		c-4.61-7.69-8.59-15.48-6.44-25.24c0.86-0.59,1.93-1.31,2.99-2.07c1.55-1.11,2.09-2.62,1.61-4.45c-0.43-1.64-1.7-2.49-3.21-2.87
		C382.96,502.67,381.26,502.51,379.67,503.47z"/>
	<path d="M733.45,518.84c1.79,6.43,5.06,11.81,6.8,18.13c-1.05,0.37-1.87,0.88-2.7,0.91c-3,0.1-6.01,0.04-9.18,0.04
		c-0.78-1.17-1.61-2.18-2.17-3.32c-1.09-2.19-1.88-4.54-3.06-6.67c-2.71-4.9-2.71-10.04-1.94-15.44c1.31-0.82,2.68-1.48,3.81-2.42
		c2.22-1.86,1.7-5.28-0.91-6.56c-1.97-0.96-3.97-0.92-5.87-0.23c-1.64,2.12-1.29,4.45-1.31,6.67c-0.05,7.35,0.02,14.71-0.04,22.06
		c-0.05,5.73-0.33,5.98-6.17,5.95c-1.67-0.01-3.33-0.17-5.27-0.28c-0.32-1.47-0.82-2.71-0.82-3.94c-0.06-12.63-0.04-25.27-0.04-37.9
		c0-0.75,0.05-1.51,0.16-2.25c0.23-1.54,0.99-2.34,2.66-2.36c6.22-0.06,12.47-0.4,18.65,0.12c5.54,0.47,10.1,3.36,12.18,8.81
		c2.07,5.41,1.73,10.72-2.11,15.43C735.31,516.6,734.47,517.61,733.45,518.84z"/>
	<path d="M495.47,537.38c-0.16-1.97-0.37-3.45-0.38-4.93c-0.03-8.3-0.04-16.61,0.01-24.91c0.01-1.88,0.05-3.81,0.5-5.61
		c1.7-6.9,7.56-11.6,14.76-11.87c2.62-0.1,5.24-0.24,7.83,0.67c4.63,1.62,7.7,4.7,9.04,9.36c0.62,2.15,1.07,4.43,1.1,6.66
		c0.12,9.06,0.07,18.12,0.04,27.18c0,1.08-0.31,2.17-0.5,3.42c-3.52,1.04-6.89,0.69-10.22,0.39c-0.68-0.06-1.6-1.1-1.81-1.85
		c-0.33-1.24-0.21-2.62-0.22-3.93c-0.01-6.98,0-13.97-0.02-20.95c0-1.51,0.02-3.04-0.22-4.51c-0.34-2.11-2.06-3.56-3.82-3.51
		c-1.85,0.05-3.3,1.47-3.56,3.71c-0.17,1.49-0.15,3.01-0.15,4.52c-0.01,6.61,0,13.21-0.01,19.82c0,1.32,0.03,2.65-0.09,3.96
		c-0.18,1.99-0.93,2.82-2.77,2.92c-2.07,0.11-4.15,0.09-6.22,0.03C497.86,537.89,496.96,537.63,495.47,537.38z"/>
	<path d="M18.48,537.17c-3.82,1.24-7.02,0.76-10.19,0.65c-1.28-0.05-2.06-0.91-2.26-2.15c-0.15-0.92-0.14-1.88-0.14-2.82
		c-0.01-8.12-0.05-16.24,0.04-24.36c0.02-2.05,0.31-4.14,0.79-6.14c1.74-7.4,7.41-12.03,14.91-12.33c1.13-0.05,2.27-0.05,3.4,0
		c7.48,0.3,12.81,5.01,13.92,12.38c0.25,1.67,0.33,3.39,0.34,5.08c0.04,8.31,0.05,16.62,0.02,24.92c-0.01,1.48-0.25,2.97-0.39,4.51
		c-3.61,1.72-7.12,1.04-10.43,0.7c-1.74-1.42-1.48-3.21-1.49-4.87c-0.04-6.61-0.02-13.22-0.03-19.83c0-1.32,0.04-2.65-0.08-3.96
		c-0.1-1.12-0.33-2.24-0.65-3.31c-0.47-1.59-1.59-2.53-3.27-2.69c-1.61-0.15-3.29,0.97-3.74,2.84c-0.4,1.63-0.52,3.35-0.53,5.03
		c-0.06,6.8-0.01,13.59-0.04,20.39C18.65,533.08,18.55,534.95,18.48,537.17z"/>
	<path d="M458.91,510.68c0.15,1.92,0.33,3.22,0.33,4.51c0,0.91-0.25,1.82-0.44,3.07c-1.53,0.24-2.97,0.48-4.4,0.67
		c-1.86,0.25-3.75,0.35-5.57,0.75c-1.57,0.34-2.18,1.38-2.11,2.88c0.07,1.46,0.9,2.42,2.48,2.54c1.88,0.14,3.77,0.09,5.65,0.16
		c1.13,0.04,2.33-0.08,3.35,0.29c0.76,0.27,1.3,1.2,1.91,1.86c0.11,0.12,0.11,0.36,0.11,0.55c-0.01,2.98,1.13,6.38-0.68,8.82
		c-1.87,2.51-5.3,0.91-8.03,1.15c-1.87,0.16-3.78,0.09-5.65-0.1c-6.63-0.68-11.35-5.11-11.65-11.75c-0.36-7.72-0.36-15.48,0-23.2
		c0.31-6.66,5.09-11.2,11.68-11.65c3.76-0.26,7.54-0.13,11.32-0.05c2.19,0.05,2.97,0.9,3.08,3.18c0.1,2.07,0.1,4.15,0,6.22
		c-0.12,2.47-0.91,3.14-3.6,3.24c-2.07,0.08-4.15,0.01-6.22,0.15c-1.58,0.11-2.54,1.05-2.77,2.36c-0.26,1.47,0.63,2.81,2.42,3.28
		c1.26,0.34,2.59,0.43,3.89,0.58C455.45,510.37,456.92,510.49,458.91,510.68z"/>
	<path d="M667.85,503.23c-1.98,0.97-3.9,0.48-5.76,0.61c-1.31,0.09-2.66,0.01-3.94,0.28c-1.17,0.25-1.95,1.15-2.03,2.42
		c-0.08,1.23,0.39,2.32,1.59,2.7c1.41,0.46,2.9,0.72,4.38,0.94c1.63,0.24,3.28,0.32,4.94,0.48c1,2.74,0.99,5.06,0.02,7.72
		c-1.49,0.19-2.94,0.4-4.4,0.56c-1.5,0.16-3.02,0.16-4.49,0.44c-2.26,0.44-3.16,1.58-2.97,3.39c0.16,1.54,1.09,2.31,3.24,2.41
		c2.26,0.11,4.53,0,6.79,0.12c2.61,0.14,3.39,0.89,3.52,3.43c0.1,2.07,0.07,4.15-0.01,6.22c-0.03,0.72-0.36,1.42-0.63,2.4
		c-1.1,0.2-2.17,0.55-3.24,0.57c-3.21,0.06-6.42,0.12-9.62-0.06c-7.52-0.42-12.38-5.1-12.64-12.56c-0.25-7.16-0.24-14.34-0.01-21.51
		c0.24-7.54,5.08-12.29,12.53-12.62c3.58-0.16,7.17-0.09,10.75,0.01c1.91,0.05,2.85,0.91,2.82,2.81
		C668.65,497.12,669.56,500.38,667.85,503.23z"/>
</g>
</svg>
