<svg width="47" height="34" viewBox="0 0 47 34" fill="none" xmlns="http://www.w3.org/2000/svg">
<path d="M0.917455 27.0919C0.908077 27.0469 0.88932 26.9912 0.886819 26.9343C0.881192 26.8168 0.882443 26.6986 0.882443 26.5805C0.882443 22.3314 0.882443 18.0824 0.882443 13.8334C0.882443 13.609 0.883068 13.3851 0.887444 13.1607C0.924958 11.2944 1.34511 9.51562 2.14039 7.83002C3.46461 5.02339 5.51222 2.90389 8.2657 1.47275C9.41236 0.876916 10.6259 0.470521 11.897 0.225433C12.9105 0.0303637 13.9302 -0.0221551 14.9581 0.00785565C17.4227 0.0803815 19.686 0.803139 21.758 2.12674C23.8344 3.45283 25.4281 5.22534 26.5503 7.4155C27.1999 8.68345 27.6295 10.0258 27.8502 11.4369C27.9546 12.104 28.004 12.7724 28.004 13.4451C28.0065 17.8711 28.0059 22.2977 28.0052 26.7236C28.0052 26.8512 28.024 26.9837 27.9477 27.1144C27.8977 27.1288 27.8433 27.1544 27.787 27.1594C27.6933 27.1675 27.5982 27.1638 27.5038 27.1638C25.0367 27.1638 22.5702 27.1638 20.103 27.1638C19.9968 27.1638 19.8905 27.1657 19.7848 27.1563C19.6729 27.1469 19.6197 27.0888 19.6097 26.9712C19.6029 26.8893 19.6054 26.8062 19.6054 26.7236C19.6054 22.4509 19.6054 18.1781 19.6054 13.9053C19.6054 13.6696 19.6179 13.4333 19.601 13.1988C19.4916 11.6495 18.8026 10.4059 17.5853 9.45622C16.9044 8.92541 16.131 8.60092 15.2726 8.46087C12.5972 8.02446 10.1539 9.70819 9.45988 12.1516C9.34046 12.5723 9.27106 13.0012 9.27106 13.442C9.27293 16.0148 9.27106 18.5882 9.27043 21.161C9.26981 23.0023 9.26981 24.8436 9.27106 26.6849C9.27106 27.1532 9.29669 27.165 8.77776 27.1644C6.29937 27.1619 3.82036 27.1638 1.34198 27.1619C1.20443 27.1619 1.05751 27.1982 0.917455 27.0919Z" fill="white"/>
<path d="M29.4453 9.96203C29.3303 9.57001 29.239 9.23114 29.1302 8.89727C29.0208 8.56091 28.9026 8.22704 28.7732 7.89817C28.6431 7.5693 28.5037 7.24356 28.3505 6.9247C28.1923 6.5952 28.021 6.27134 27.8403 5.95373C27.6653 5.64612 27.4796 5.34413 27.2839 5.04965C27.0882 4.75517 26.8819 4.46632 26.6662 4.1856C26.4505 3.90487 26.216 3.63915 25.9922 3.36468C25.7709 3.09271 25.5008 2.86262 25.2788 2.56877C25.3576 2.50187 25.4151 2.44372 25.4808 2.39871C26.955 1.38272 28.5656 0.681845 30.3156 0.297958C30.8577 0.179166 31.4041 0.0903843 31.9537 0.0397413C32.4576 -0.00652523 32.9678 0.00785491 33.4755 0.00347835C33.7349 0.00160268 33.9957 0.00410356 34.2539 0.027862C34.6759 0.0672511 35.0998 0.104764 35.5156 0.180416C36.6797 0.390491 37.807 0.729362 38.8793 1.23392C41.8785 2.6463 44.0886 4.85146 45.5079 7.84628C46.0362 8.96167 46.3901 10.1346 46.5927 11.35C46.7071 12.0365 46.7615 12.7299 46.7608 13.4283C46.7577 17.8673 46.7596 22.3058 46.759 26.7449C46.759 26.8612 46.749 26.9768 46.7433 27.0969C46.6677 27.1219 46.6139 27.1507 46.5583 27.1557C46.4526 27.165 46.3463 27.1619 46.24 27.1619C43.7848 27.1619 41.3289 27.1619 38.8737 27.1619C38.7792 27.1619 38.6842 27.165 38.5904 27.1588C38.4229 27.1482 38.3804 27.105 38.3716 26.9462C38.3679 26.8756 38.3697 26.8043 38.3697 26.7336C38.3697 22.354 38.3497 17.9736 38.3797 13.594C38.3935 11.5976 37.1318 9.44435 34.8916 8.67032C34.1645 8.41898 33.4167 8.3352 32.6608 8.41335C31.6154 8.52089 30.6801 8.92041 29.8704 9.59878C29.7467 9.70444 29.6222 9.81135 29.4453 9.96203Z" fill="white"/>
<path d="M36.5014 13.5602C36.5527 15.1876 35.2573 16.8695 33.2234 16.8864C31.3584 16.9014 29.8891 15.454 29.8872 13.5721C29.8847 11.7077 31.3108 10.2903 33.2109 10.2309C35.3248 10.3084 36.5515 12.0021 36.5014 13.5602Z" fill="white"/>
<path d="M11.1438 13.5333C11.1019 11.6089 12.7719 10.2109 14.4325 10.2065C15.9949 10.2027 17.7687 11.4232 17.7568 13.5421C17.7443 15.6922 15.9543 16.8476 14.4413 16.8489C12.7425 16.8507 11.1038 15.4177 11.1438 13.5333Z" fill="white"/>
<path d="M11.6663 30.7213C11.7495 30.6482 11.8201 30.5875 11.8883 30.5256C12.1228 30.3137 12.4029 30.2974 12.6848 30.3699C12.9593 30.4406 13.1194 30.6444 13.1713 30.9214C13.195 31.0477 13.2031 31.179 13.2044 31.3084C13.2081 31.8623 13.2069 32.4163 13.2063 32.9702C13.2063 33.0409 13.2019 33.1115 13.1919 33.1816C13.1788 33.2753 13.1194 33.3297 13.0256 33.3322C12.8505 33.3379 12.6742 33.3598 12.5116 33.3116C12.4129 33.2172 12.4354 33.1053 12.4347 33.0027C12.4316 32.5313 12.4354 32.0599 12.431 31.5885C12.4297 31.4841 12.4172 31.3765 12.3891 31.2765C12.376 31.2309 12.3172 31.1821 12.2691 31.1658C12.1915 31.1402 12.1259 31.194 12.1052 31.2634C12.0752 31.3628 12.0552 31.4691 12.054 31.5729C12.0484 32.0086 12.0521 32.445 12.0509 32.8808C12.0502 33.009 12.0433 33.1378 12.039 33.2666C11.8226 33.3829 11.6119 33.3416 11.4062 33.3166C11.365 33.3116 11.3106 33.2435 11.2993 33.1959C11.2781 33.1059 11.2787 33.0096 11.2781 32.9152C11.2762 32.5382 11.2806 32.1612 11.2749 31.7842C11.2724 31.6198 11.2556 31.4553 11.2362 31.2915C11.2274 31.2159 11.1743 31.1621 11.093 31.1621C11.0142 31.1621 10.9555 31.2134 10.9386 31.284C10.9167 31.374 10.9086 31.4691 10.9079 31.5622C10.9048 32.0337 10.9079 32.5051 10.9061 32.9765C10.9048 33.331 10.8986 33.3366 10.5553 33.3385C10.4278 33.3391 10.3002 33.3316 10.1608 33.3272C10.1402 33.2397 10.1114 33.1741 10.1108 33.1084C10.1077 32.4601 10.1083 31.8123 10.1089 31.164C10.1089 30.9689 10.1721 30.7951 10.2896 30.6394C10.581 30.2549 11.1824 30.2518 11.4519 30.5306C11.5132 30.5969 11.5869 30.6525 11.6663 30.7213Z" fill="white"/>
<path d="M36.7603 33.2722C36.7303 33.0496 36.7222 32.8296 36.7628 32.6264C36.8503 32.5301 36.9497 32.5501 37.0416 32.5388C37.5137 32.4826 37.7694 32.1087 37.6431 31.6548C37.5718 31.3997 37.3849 31.2596 37.1354 31.2215C36.9404 31.1915 36.7384 31.1821 36.549 31.2346C36.4552 31.344 36.4796 31.4666 36.4789 31.581C36.4758 32.0287 36.4789 32.4769 36.4764 32.9246C36.4758 33.0409 36.4927 33.1597 36.4402 33.2872C36.2307 33.3779 36.0088 33.3416 35.7906 33.3172C35.7512 33.3129 35.703 33.2416 35.6893 33.1928C35.6705 33.1272 35.6793 33.0528 35.6793 32.9821C35.6787 32.2394 35.6793 31.4972 35.6793 30.7544C35.6793 30.7076 35.678 30.66 35.6812 30.6131C35.6912 30.4681 35.7324 30.4212 35.8725 30.4137C36.0019 30.4068 36.1319 30.4099 36.2614 30.4099C36.5208 30.4106 36.7803 30.4081 37.0391 30.4137C37.2899 30.4193 37.5293 30.4818 37.7506 30.5975C38.1921 30.8276 38.4465 31.1877 38.4703 31.6917C38.4784 31.8673 38.484 32.0487 38.4509 32.22C38.3077 32.9634 37.5656 33.481 36.8184 33.3166C36.8091 33.3154 36.8009 33.3035 36.7603 33.2722Z" fill="white"/>
<path d="M6.51307 33.4091C5.84283 33.4792 4.97127 32.8971 4.94814 31.883C4.92876 31.0402 5.64089 30.3443 6.50244 30.3405C7.37838 30.3368 8.01611 31.0014 8.03237 31.8886C8.04987 32.8308 7.17894 33.4773 6.51307 33.4091ZM7.2077 31.8917C7.23708 31.4091 6.80443 31.129 6.49619 31.1377C6.10918 31.149 5.79157 31.4622 5.78094 31.8617C5.77031 32.2737 6.0948 32.5982 6.50182 32.6126C6.81631 32.6232 7.23646 32.3181 7.2077 31.8917Z" fill="white"/>
<path d="M16.8395 33.4091C15.981 33.4085 15.2802 32.7114 15.2877 31.8667C15.2958 31.017 15.9929 30.3405 16.8607 30.3405C17.716 30.3399 18.35 30.9995 18.3744 31.8698C18.4013 32.8239 17.5278 33.4823 16.8395 33.4091ZM17.5497 31.8767C17.576 31.4272 17.1615 31.1227 16.8238 31.1377C16.4387 31.1552 16.1255 31.4766 16.123 31.8755C16.1198 32.2881 16.4481 32.6145 16.8588 32.6076C17.2546 32.602 17.551 32.2887 17.5497 31.8767Z" fill="white"/>
<path d="M24.1316 31.1827C24.0522 31.2865 24.0779 31.4084 24.0766 31.5235C24.0735 31.9955 24.0754 32.4669 24.0747 32.939C24.0747 33.0215 24.0754 33.1047 24.0672 33.1866C24.0597 33.2635 24.0154 33.3241 23.9353 33.3291C23.7371 33.3416 23.5371 33.3635 23.3251 33.3041C23.3101 33.2503 23.2813 33.1959 23.2813 33.1415C23.2782 32.3044 23.2782 31.4666 23.2801 30.6294C23.2801 30.5738 23.3007 30.5175 23.3082 30.4768C23.347 30.4525 23.3664 30.43 23.3864 30.4293C23.7865 30.4231 24.1879 30.3993 24.5874 30.4206C24.9519 30.4406 25.252 30.6206 25.3858 30.9733C25.5128 31.3071 25.5021 31.6454 25.2545 31.9399C25.202 32.0024 25.1501 32.0662 25.0939 32.1343C25.1851 32.5388 25.4177 32.8902 25.5246 33.3097C25.2552 33.3616 25.0126 33.341 24.7562 33.3229C24.468 32.8421 24.2192 32.355 24.3536 31.7448C24.4074 31.7079 24.4743 31.6629 24.5405 31.6154C24.6374 31.546 24.6712 31.4516 24.6412 31.3372C24.6143 31.2346 24.5349 31.1815 24.4405 31.1577C24.3373 31.1327 24.2311 31.1227 24.1316 31.1827Z" fill="white"/>
<path d="M46.2505 32.1437C46.3624 32.5457 46.5669 32.8821 46.6757 33.2772C46.61 33.3003 46.5588 33.3322 46.5069 33.3341C46.3193 33.3404 46.1311 33.3366 45.9329 33.3366C45.8841 33.2635 45.8323 33.2003 45.7972 33.129C45.7291 32.9921 45.6797 32.8452 45.6059 32.712C45.4365 32.4057 45.4365 32.0843 45.4846 31.7467C45.5665 31.6954 45.6522 31.6541 45.7228 31.5954C45.8616 31.4791 45.8291 31.2652 45.6659 31.1852C45.5428 31.1252 45.4177 31.1277 45.2989 31.1708C45.1964 31.3034 45.2183 31.4491 45.217 31.5879C45.2139 32.0474 45.2183 32.5076 45.2145 32.9671C45.2114 33.3254 45.1939 33.341 44.8288 33.3391C44.7244 33.3385 44.6206 33.3285 44.4993 33.3216C44.4793 33.2297 44.448 33.1522 44.448 33.0753C44.4443 32.2856 44.4455 31.4953 44.4455 30.7057C44.4455 30.6588 44.4486 30.6113 44.4555 30.565C44.4699 30.4687 44.5174 30.4187 44.6218 30.4174C45.0107 30.4137 45.4015 30.3924 45.7879 30.4249C46.1342 30.4543 46.4193 30.635 46.5494 30.9758C46.6788 31.314 46.6576 31.646 46.4175 31.9405C46.3668 32.0036 46.3143 32.0668 46.2505 32.1437Z" fill="white"/>
<path d="M31.3715 33.3029C31.3615 33.1797 31.3484 33.0871 31.3478 32.9946C31.3459 32.4757 31.3453 31.9561 31.3484 31.4372C31.349 31.3196 31.3515 31.199 31.3796 31.0864C31.4859 30.655 31.8523 30.3612 32.3025 30.3443C32.4663 30.338 32.6301 30.3293 32.792 30.3862C33.0815 30.4875 33.2734 30.68 33.3572 30.9714C33.396 31.1058 33.4241 31.2484 33.426 31.3878C33.4335 31.9542 33.4304 32.5207 33.4285 33.0871C33.4285 33.1547 33.4091 33.2228 33.3972 33.301C33.1772 33.366 32.9665 33.3441 32.7583 33.3254C32.7157 33.3216 32.6582 33.2566 32.6451 33.2097C32.6245 33.1322 32.632 33.0459 32.6313 32.964C32.6307 32.5276 32.6313 32.0905 32.6301 31.6541C32.6301 31.5597 32.6313 31.4641 32.6163 31.3722C32.5951 31.2402 32.4875 31.1496 32.3775 31.1527C32.2618 31.1558 32.1712 31.2446 32.1549 31.3847C32.1443 31.4778 32.1455 31.5729 32.1455 31.6673C32.1449 32.0805 32.1455 32.4932 32.1449 32.9065C32.1449 32.989 32.1468 33.0721 32.1393 33.154C32.128 33.2785 32.0811 33.3304 31.9661 33.3366C31.8367 33.3435 31.7066 33.3422 31.5772 33.3385C31.5209 33.3347 31.4647 33.3185 31.3715 33.3029Z" fill="white"/>
<path d="M1.54899 33.2897C1.31016 33.3673 1.11009 33.3372 0.91189 33.3304C0.831861 33.3272 0.783094 33.2735 0.770589 33.1959C0.761211 33.1384 0.761836 33.0784 0.761836 33.0196C0.761211 32.5119 0.75871 32.0043 0.764337 31.4966C0.765588 31.3684 0.783719 31.2377 0.81373 31.1127C0.922519 30.65 1.27702 30.3606 1.74594 30.3418C1.81659 30.3387 1.88786 30.3387 1.95851 30.3418C2.42618 30.3606 2.75942 30.655 2.82882 31.1158C2.84445 31.2202 2.84946 31.3278 2.85008 31.4334C2.85258 31.953 2.85321 32.4726 2.85133 32.9915C2.85071 33.084 2.8357 33.1772 2.82695 33.2735C2.60124 33.381 2.38179 33.3385 2.17484 33.3172C2.06605 33.2285 2.08231 33.1165 2.08168 33.0128C2.07918 32.5995 2.08043 32.1862 2.07981 31.7729C2.07981 31.6904 2.08231 31.6073 2.0748 31.5253C2.06855 31.4553 2.05417 31.3853 2.03417 31.3184C2.00478 31.219 1.93475 31.1602 1.82972 31.1502C1.72906 31.1408 1.62402 31.2109 1.59588 31.3278C1.57087 31.4297 1.56337 31.5372 1.56275 31.6423C1.559 32.0674 1.56212 32.4919 1.56025 32.9171C1.55962 33.034 1.55337 33.1509 1.54899 33.2897Z" fill="white"/>
<path d="M29.0856 31.6335C29.095 31.7535 29.1062 31.8348 29.1062 31.9155C29.1062 31.9724 29.0906 32.0293 29.0787 32.1074C28.9831 32.1224 28.893 32.1374 28.8036 32.1493C28.6873 32.1649 28.5692 32.1712 28.4554 32.1962C28.3572 32.2175 28.3191 32.2825 28.3234 32.3763C28.3278 32.4676 28.3797 32.5276 28.4785 32.5351C28.596 32.5438 28.7142 32.5407 28.8318 32.5451C28.9024 32.5476 28.9774 32.5401 29.0412 32.5632C29.0887 32.5801 29.1225 32.6382 29.1606 32.6795C29.1675 32.687 29.1675 32.702 29.1675 32.7139C29.1669 32.9002 29.2382 33.1128 29.125 33.2653C29.0081 33.4223 28.7936 33.3222 28.6229 33.3372C28.506 33.3472 28.3866 33.3429 28.2697 33.331C27.8552 33.2885 27.5601 33.0115 27.5413 32.5963C27.5188 32.1137 27.5188 31.6285 27.5413 31.1458C27.5607 30.7294 27.8595 30.4456 28.2716 30.4174C28.5066 30.4012 28.743 30.4093 28.9793 30.4143C29.1162 30.4174 29.165 30.4706 29.1719 30.6131C29.1781 30.7426 29.1781 30.8726 29.1719 31.002C29.1644 31.1565 29.115 31.1984 28.9468 31.2046C28.8174 31.2096 28.6873 31.2052 28.5579 31.214C28.4591 31.2209 28.3991 31.2796 28.3847 31.3615C28.3685 31.4534 28.4241 31.5372 28.536 31.5666C28.6148 31.5879 28.698 31.5935 28.7792 31.6029C28.8693 31.6141 28.9612 31.6216 29.0856 31.6335Z" fill="white"/>
<path d="M42.1488 31.1677C42.0251 31.2284 41.905 31.1977 41.7887 31.2059C41.7068 31.2115 41.6224 31.2065 41.5424 31.2234C41.4692 31.239 41.4205 31.2953 41.4155 31.3747C41.4105 31.4516 41.4398 31.5197 41.5149 31.5435C41.603 31.5722 41.6962 31.5885 41.7887 31.6022C41.8906 31.6173 41.9938 31.6223 42.0976 31.6323C42.1601 31.8036 42.1595 31.9486 42.0988 32.1149C42.0057 32.1268 41.915 32.1399 41.8237 32.1499C41.73 32.1599 41.6349 32.1599 41.543 32.1775C41.4017 32.205 41.3454 32.2762 41.3573 32.3894C41.3673 32.4857 41.4255 32.5338 41.5599 32.5401C41.7012 32.547 41.8431 32.5401 41.9844 32.5476C42.1476 32.5563 42.1964 32.6032 42.2045 32.762C42.2107 32.8915 42.2089 33.0215 42.2039 33.1509C42.202 33.1959 42.1814 33.2397 42.1645 33.301C42.0957 33.3135 42.0288 33.3354 41.9619 33.3366C41.7612 33.3404 41.5605 33.3441 41.3604 33.3329C40.8903 33.3066 40.5864 33.014 40.5702 32.5476C40.5545 32.0999 40.5552 31.651 40.5695 31.2027C40.5845 30.7313 40.8871 30.4343 41.3529 30.4137C41.5768 30.4037 41.8012 30.4081 42.0251 30.4143C42.1445 30.4174 42.2032 30.4712 42.2014 30.59C42.1989 30.7857 42.2558 30.9895 42.1488 31.1677Z" fill="white"/>
</svg>
