<svg width="228" height="165" viewBox="0 0 228 165" fill="none" xmlns="http://www.w3.org/2000/svg">
<path d="M1.5784 133.486C1.53225 133.265 1.43995 132.991 1.42764 132.711C1.39995 132.133 1.4061 131.551 1.4061 130.97C1.4061 110.059 1.4061 89.1492 1.4061 68.239C1.4061 67.1344 1.40918 66.0329 1.43071 64.9283C1.61533 55.744 3.68296 46.9903 7.5967 38.6952C14.1135 24.8832 24.1901 14.4528 37.7405 7.40987C43.3834 4.47764 49.3556 2.47769 55.6108 1.27157C60.5984 0.311596 65.6167 0.0531412 70.675 0.20083C82.8039 0.557743 93.9421 4.11457 104.139 10.6282C114.357 17.1542 122.2 25.8771 127.723 36.6552C130.92 42.8951 133.033 49.5011 134.119 56.4455C134.633 59.7285 134.876 63.0176 134.876 66.3283C134.889 88.1093 134.886 109.893 134.883 131.674C134.883 132.302 134.975 132.954 134.599 133.597C134.353 133.668 134.086 133.794 133.809 133.819C133.347 133.859 132.879 133.84 132.415 133.84C120.274 133.84 108.136 133.84 95.9943 133.84C95.4713 133.84 94.9482 133.85 94.4282 133.803C93.8775 133.757 93.6159 133.471 93.5667 132.893C93.5329 132.49 93.5452 132.08 93.5452 131.674C93.5452 110.647 93.5452 89.62 93.5452 68.5928C93.5452 67.4329 93.6067 66.2698 93.5236 65.116C92.9852 57.4916 89.5945 51.3718 83.6039 46.6981C80.2532 44.0858 76.4472 42.4889 72.2227 41.7997C59.0569 39.6521 47.0326 47.938 43.6173 59.9623C43.0296 62.033 42.6881 64.1437 42.6881 66.3129C42.6973 78.9741 42.6881 91.6384 42.685 104.3C42.6819 113.361 42.6819 122.422 42.6881 131.483C42.6881 133.788 42.8142 133.846 40.2604 133.843C28.0638 133.831 15.8642 133.84 3.66758 133.831C2.99067 133.831 2.26762 134.01 1.5784 133.486Z" fill="#8D7662"/>
<path d="M141.968 49.1872C141.402 47.2581 140.953 45.5904 140.418 43.9474C139.879 42.292 139.298 40.649 138.661 39.0306C138.021 37.4122 137.335 35.8091 136.581 34.2399C135.802 32.6185 134.959 31.0246 134.07 29.4616C133.209 27.9478 132.295 26.4617 131.332 25.0125C130.369 23.5633 129.353 22.1418 128.292 20.7603C127.23 19.3788 126.077 18.0711 124.975 16.7204C123.886 15.382 122.557 14.2497 121.464 12.8036C121.852 12.4744 122.135 12.1882 122.458 11.9667C129.713 6.96683 137.639 3.51769 146.251 1.62851C148.919 1.04391 151.608 0.606998 154.313 0.357774C156.793 0.130088 159.303 0.200855 161.802 0.179317C163.079 0.170087 164.362 0.182394 165.632 0.299314C167.709 0.493155 169.795 0.677765 171.842 1.05006C177.571 2.08388 183.118 3.75153 188.395 6.23454C203.155 13.1851 214.031 24.0371 221.016 38.7752C223.616 44.2643 225.357 50.0364 226.354 56.0178C226.917 59.3962 227.185 62.8084 227.182 66.2452C227.166 88.0908 227.175 109.933 227.172 131.779C227.172 132.351 227.123 132.92 227.095 133.511C226.723 133.634 226.459 133.776 226.185 133.8C225.665 133.847 225.142 133.831 224.619 133.831C212.536 133.831 200.45 133.831 188.367 133.831C187.903 133.831 187.435 133.847 186.973 133.816C186.149 133.763 185.94 133.551 185.897 132.77C185.878 132.422 185.887 132.071 185.887 131.723C185.887 110.17 185.789 88.6139 185.937 67.0606C186.004 57.2363 179.795 46.6396 168.771 42.8305C165.192 41.5936 161.513 41.1813 157.793 41.5659C152.648 42.0951 148.045 44.0612 144.061 47.3996C143.452 47.9196 142.839 48.4457 141.968 49.1872Z" fill="#8D7662"/>
<path d="M176.694 66.8944C176.946 74.9034 170.571 83.1801 160.562 83.2632C151.384 83.3371 144.153 76.2142 144.144 66.9529C144.132 57.7778 151.15 50.8026 160.5 50.5103C170.903 50.8918 176.94 59.2269 176.694 66.8944Z" fill="#8D7662"/>
<path d="M51.9032 66.7621C51.6971 57.2916 59.9153 50.4118 68.0874 50.3902C75.7764 50.3718 84.5054 56.3778 84.447 66.8052C84.3854 77.3864 75.5764 83.0724 68.1305 83.0786C59.7707 83.0878 51.7063 76.0357 51.9032 66.7621Z" fill="#8D7662"/>
<path d="M54.4755 151.348C54.8847 150.988 55.2324 150.689 55.5677 150.384C56.7216 149.341 58.1 149.261 59.4876 149.618C60.8384 149.966 61.626 150.969 61.8814 152.332C61.9983 152.954 62.0383 153.6 62.0445 154.237C62.0629 156.963 62.0568 159.689 62.0537 162.415C62.0537 162.763 62.0322 163.11 61.9829 163.455C61.9183 163.916 61.626 164.184 61.1645 164.196C60.303 164.224 59.4353 164.332 58.6353 164.095C58.1492 163.63 58.26 163.08 58.2569 162.575C58.2415 160.255 58.26 157.935 58.2384 155.615C58.2323 155.101 58.1707 154.572 58.0323 154.08C57.9677 153.855 57.6784 153.615 57.4415 153.535C57.06 153.409 56.7369 153.674 56.6354 154.015C56.4877 154.504 56.3893 155.027 56.3831 155.538C56.3554 157.683 56.3739 159.83 56.3677 161.975C56.3646 162.606 56.3308 163.24 56.3093 163.873C55.2447 164.446 54.2078 164.243 53.1955 164.12C52.9924 164.095 52.7247 163.76 52.6693 163.526C52.5647 163.083 52.5678 162.609 52.5647 162.144C52.5555 160.289 52.577 158.434 52.5494 156.578C52.537 155.769 52.454 154.96 52.3586 154.154C52.3155 153.781 52.054 153.517 51.654 153.517C51.2663 153.517 50.9771 153.769 50.894 154.117C50.7863 154.56 50.7463 155.027 50.7432 155.486C50.7279 157.806 50.7432 160.126 50.734 162.446C50.7279 164.19 50.6971 164.218 49.0079 164.227C48.3802 164.23 47.7526 164.193 47.0664 164.172C46.9649 163.741 46.8234 163.418 46.8203 163.095C46.8049 159.904 46.808 156.717 46.811 153.526C46.811 152.566 47.1218 151.711 47.7003 150.944C49.1341 149.052 52.094 149.037 53.4201 150.409C53.7216 150.735 54.0847 151.009 54.4755 151.348Z" fill="#8D7662"/>
<path d="M177.968 163.901C177.82 162.806 177.78 161.723 177.98 160.723C178.411 160.249 178.9 160.347 179.352 160.292C181.675 160.015 182.934 158.175 182.312 155.941C181.961 154.686 181.041 153.997 179.814 153.809C178.854 153.661 177.86 153.615 176.928 153.874C176.466 154.412 176.586 155.015 176.583 155.578C176.568 157.781 176.583 159.987 176.571 162.19C176.568 162.763 176.651 163.347 176.392 163.975C175.361 164.421 174.269 164.243 173.195 164.123C173.002 164.101 172.765 163.75 172.697 163.51C172.605 163.187 172.648 162.821 172.648 162.473C172.645 158.818 172.648 155.166 172.648 151.511C172.648 151.28 172.642 151.046 172.657 150.815C172.706 150.101 172.909 149.871 173.598 149.834C174.235 149.8 174.875 149.815 175.512 149.815C176.789 149.818 178.066 149.806 179.34 149.834C180.574 149.861 181.752 150.169 182.841 150.738C185.013 151.871 186.266 153.643 186.383 156.123C186.423 156.987 186.45 157.88 186.287 158.723C185.583 162.381 181.931 164.929 178.254 164.119C178.208 164.113 178.168 164.055 177.968 163.901Z" fill="#8D7662"/>
<path d="M29.1161 164.575C25.8178 164.919 21.5286 162.055 21.4148 157.064C21.3194 152.917 24.8239 149.492 29.0638 149.474C33.3745 149.455 36.5129 152.726 36.5929 157.092C36.679 161.729 32.393 164.91 29.1161 164.575ZM32.5345 157.107C32.6791 154.732 30.5499 153.354 29.0331 153.397C27.1285 153.452 25.5655 154.994 25.5132 156.96C25.4609 158.987 27.0577 160.584 29.0608 160.655C30.6084 160.707 32.676 159.206 32.5345 157.107Z" fill="#8D7662"/>
<path d="M79.9332 164.575C75.7087 164.572 72.2596 161.141 72.2965 156.984C72.3365 152.803 75.7672 149.474 80.0378 149.474C84.2469 149.471 87.3669 152.717 87.4869 157C87.6192 161.695 83.3208 164.935 79.9332 164.575ZM83.4285 157.034C83.5577 154.821 81.5178 153.323 79.8563 153.397C77.961 153.483 76.4195 155.064 76.4072 157.027C76.3918 159.058 78.0071 160.664 80.0286 160.63C81.9762 160.603 83.4347 159.061 83.4285 157.034Z" fill="#8D7662"/>
<path d="M115.818 153.618C115.428 154.129 115.554 154.729 115.548 155.295C115.532 157.618 115.542 159.938 115.538 162.261C115.538 162.667 115.542 163.076 115.502 163.48C115.465 163.858 115.246 164.156 114.852 164.181C113.877 164.243 112.892 164.35 111.849 164.058C111.775 163.793 111.634 163.526 111.634 163.258C111.619 159.138 111.619 155.015 111.628 150.895C111.628 150.621 111.729 150.345 111.766 150.145C111.957 150.025 112.052 149.914 112.151 149.911C114.12 149.88 116.095 149.763 118.061 149.868C119.855 149.966 121.332 150.852 121.991 152.588C122.615 154.231 122.563 155.895 121.344 157.344C121.086 157.652 120.831 157.966 120.554 158.301C121.003 160.292 122.147 162.021 122.674 164.086C121.348 164.341 120.154 164.24 118.892 164.15C117.474 161.784 116.249 159.387 116.911 156.384C117.175 156.203 117.505 155.981 117.831 155.747C118.308 155.406 118.474 154.941 118.326 154.378C118.194 153.874 117.803 153.612 117.338 153.495C116.831 153.372 116.308 153.323 115.818 153.618Z" fill="#8D7662"/>
<path d="M224.671 158.347C225.222 160.326 226.228 161.981 226.763 163.926C226.44 164.039 226.188 164.196 225.932 164.206C225.009 164.236 224.083 164.218 223.108 164.218C222.868 163.858 222.612 163.547 222.44 163.196C222.105 162.523 221.862 161.8 221.499 161.144C220.665 159.636 220.665 158.055 220.902 156.394C221.305 156.141 221.726 155.938 222.074 155.649C222.757 155.077 222.597 154.024 221.794 153.631C221.188 153.335 220.573 153.347 219.988 153.56C219.483 154.212 219.591 154.929 219.585 155.612C219.569 157.873 219.591 160.138 219.573 162.399C219.557 164.163 219.471 164.239 217.674 164.23C217.16 164.227 216.65 164.178 216.053 164.144C215.954 163.692 215.8 163.31 215.8 162.932C215.782 159.046 215.788 155.157 215.788 151.271C215.788 151.04 215.803 150.806 215.837 150.578C215.908 150.104 216.142 149.858 216.656 149.852C218.57 149.834 220.493 149.729 222.394 149.889C224.099 150.034 225.502 150.923 226.142 152.6C226.778 154.264 226.674 155.898 225.492 157.347C225.243 157.658 224.985 157.969 224.671 158.347Z" fill="#8D7662"/>
<path d="M151.448 164.052C151.399 163.446 151.334 162.99 151.331 162.535C151.322 159.981 151.319 157.424 151.334 154.871C151.337 154.292 151.35 153.698 151.488 153.144C152.011 151.021 153.814 149.575 156.03 149.492C156.836 149.461 157.642 149.418 158.439 149.698C159.863 150.197 160.808 151.144 161.22 152.578C161.411 153.24 161.549 153.941 161.559 154.627C161.596 157.415 161.58 160.203 161.571 162.99C161.571 163.323 161.476 163.658 161.417 164.043C160.334 164.363 159.297 164.255 158.273 164.163C158.063 164.144 157.78 163.824 157.716 163.593C157.614 163.212 157.651 162.787 157.648 162.384C157.645 160.237 157.648 158.086 157.642 155.938C157.642 155.474 157.648 155.003 157.574 154.551C157.47 153.901 156.94 153.455 156.399 153.471C155.83 153.486 155.383 153.923 155.304 154.612C155.251 155.071 155.257 155.538 155.257 156.003C155.254 158.037 155.257 160.067 155.254 162.101C155.254 162.507 155.264 162.916 155.227 163.32C155.171 163.932 154.94 164.187 154.374 164.218C153.737 164.252 153.097 164.246 152.461 164.227C152.184 164.209 151.907 164.129 151.448 164.052Z" fill="#8D7662"/>
<path d="M4.68601 163.987C3.51066 164.369 2.52607 164.221 1.55071 164.187C1.15688 164.172 0.916882 163.907 0.855345 163.526C0.809193 163.243 0.812269 162.947 0.812269 162.658C0.809192 160.16 0.796885 157.661 0.824577 155.163C0.83073 154.532 0.919959 153.889 1.06765 153.274C1.60302 150.997 3.34759 149.572 5.65522 149.48C6.0029 149.465 6.35366 149.465 6.70134 149.48C9.00282 149.572 10.6428 151.021 10.9843 153.289C11.0612 153.803 11.0858 154.332 11.0889 154.852C11.1012 157.409 11.1043 159.966 11.0951 162.52C11.092 162.975 11.0181 163.433 10.9751 163.907C9.86433 164.436 8.78436 164.227 7.76593 164.123C7.23056 163.686 7.31056 163.135 7.30748 162.624C7.29517 160.59 7.30133 158.557 7.29825 156.523C7.29825 156.117 7.31056 155.707 7.27364 155.304C7.24287 154.96 7.1721 154.615 7.07364 154.286C6.92903 153.797 6.58442 153.508 6.06751 153.458C5.57214 153.412 5.05523 153.757 4.91678 154.332C4.7937 154.834 4.75678 155.363 4.7537 155.88C4.73524 157.972 4.75063 160.061 4.7414 162.153C4.73832 162.729 4.70755 163.304 4.68601 163.987Z" fill="#8D7662"/>
<path d="M140.199 155.837C140.245 156.427 140.301 156.827 140.301 157.224C140.301 157.504 140.224 157.784 140.165 158.169C139.695 158.243 139.252 158.317 138.812 158.375C138.239 158.452 137.658 158.483 137.098 158.606C136.615 158.71 136.427 159.03 136.449 159.492C136.47 159.941 136.726 160.237 137.212 160.274C137.79 160.317 138.372 160.301 138.95 160.323C139.298 160.335 139.667 160.298 139.981 160.412C140.215 160.495 140.381 160.781 140.569 160.984C140.602 161.021 140.602 161.095 140.602 161.153C140.599 162.07 140.95 163.117 140.393 163.867C139.818 164.64 138.762 164.147 137.922 164.221C137.347 164.27 136.759 164.249 136.184 164.19C134.144 163.981 132.692 162.618 132.599 160.575C132.489 158.2 132.489 155.812 132.599 153.437C132.695 151.388 134.166 149.991 136.193 149.852C137.35 149.772 138.513 149.812 139.676 149.837C140.35 149.852 140.59 150.114 140.624 150.815C140.655 151.452 140.655 152.092 140.624 152.729C140.587 153.489 140.344 153.695 139.516 153.726C138.879 153.751 138.239 153.729 137.602 153.772C137.116 153.806 136.821 154.095 136.75 154.498C136.67 154.951 136.944 155.363 137.495 155.507C137.882 155.612 138.292 155.64 138.692 155.686C139.135 155.741 139.587 155.778 140.199 155.837Z" fill="#8D7662"/>
<path d="M204.487 153.544C203.878 153.843 203.287 153.692 202.715 153.732C202.312 153.76 201.896 153.735 201.502 153.818C201.142 153.895 200.902 154.172 200.878 154.563C200.853 154.941 200.998 155.277 201.367 155.394C201.801 155.535 202.259 155.615 202.715 155.683C203.216 155.757 203.724 155.781 204.235 155.83C204.542 156.674 204.539 157.387 204.241 158.206C203.782 158.264 203.336 158.329 202.887 158.378C202.425 158.427 201.958 158.427 201.505 158.513C200.81 158.649 200.533 159 200.592 159.557C200.641 160.03 200.927 160.267 201.588 160.298C202.284 160.332 202.982 160.298 203.678 160.335C204.481 160.378 204.721 160.609 204.761 161.39C204.791 162.027 204.782 162.667 204.758 163.304C204.748 163.526 204.647 163.741 204.564 164.043C204.225 164.104 203.896 164.212 203.567 164.218C202.579 164.236 201.592 164.255 200.607 164.199C198.293 164.07 196.798 162.63 196.718 160.335C196.641 158.132 196.644 155.923 196.715 153.717C196.789 151.397 198.278 149.935 200.57 149.834C201.672 149.784 202.776 149.806 203.878 149.837C204.465 149.852 204.755 150.117 204.745 150.701C204.733 151.664 205.013 152.667 204.487 153.544Z" fill="#8D7662"/>
</svg>
