<svg width="139" height="66" viewBox="0 0 139 66" fill="none" xmlns="http://www.w3.org/2000/svg">
<path d="M137.811 54.515C138.035 55.3983 136.796 56.0951 136.391 55.2072C134.375 50.7671 131.152 47.1192 126.199 46.9651C125.21 46.9291 124.22 47.0495 123.261 47.3223C124.526 51.1116 124.302 55.6706 121.868 60.7446C121.829 60.8353 121.77 60.9149 121.697 60.9769C121.623 61.0389 121.537 61.0815 121.445 61.1014C121.354 61.1212 121.259 61.1177 121.169 61.0911C121.079 61.0645 120.996 61.0155 120.928 60.9483C120.41 61.4022 119.807 61.7311 119.16 61.9125C118.513 62.0938 117.838 62.1231 117.18 61.9984C116.523 61.8737 115.899 61.5979 115.352 61.1902C114.806 60.7824 114.349 60.2525 114.014 59.6369C111.909 56.0478 114.522 51.2683 117.033 48.8001C118.26 47.5715 119.707 46.6204 121.286 46.0045C120.572 44.5463 119.611 43.2432 118.451 42.1611C115.585 39.4566 111.389 37.8598 107.669 37.1594C103.389 36.3085 98.9714 36.6468 94.8397 38.1417C94.0628 38.4364 93.2869 38.774 92.542 39.1428C98.203 44.5113 97.5083 57.7275 87.8455 55.9189C87.7515 55.9075 87.6643 55.862 87.5983 55.7899C87.5324 55.7179 87.4917 55.6237 87.4832 55.5233C83.9255 54.0874 82.3927 49.6523 83.8552 45.5237C84.9351 42.7299 86.8576 40.3977 89.3169 38.8979C88.2639 38.2784 87.1304 37.8285 85.953 37.5628C83.1151 36.8992 80.1519 37.1706 77.4543 38.341C74.7567 39.5114 72.4515 41.5258 70.8432 44.1184C70.7797 44.2192 70.6831 44.2909 70.5726 44.3194C70.4622 44.3479 70.3459 44.3311 70.2469 44.2723C70.1478 44.2135 70.0733 44.117 70.038 44.0019C70.0028 43.8869 70.0094 43.7618 70.0566 43.6513C73.7908 35.5705 84.0793 33.1715 91.0315 37.9059C93.7836 36.4455 96.7444 35.4888 99.7899 35.0757C109.135 33.9323 118.908 38.0451 122.542 45.5541C128.785 43.8504 135.973 47.2242 137.811 54.515ZM120.841 59.545C122.296 55.5025 122.995 51.4319 121.923 47.7004C120.955 48.12 120.036 48.6629 119.189 49.3174C117.888 50.3456 116.813 51.6645 116.04 53.1812C113.975 56.6003 115.576 58.7216 120.841 59.545ZM89.1307 54.6623C94.3648 54.0233 96.1089 47.5557 93.386 43C92.6981 41.8406 91.8393 40.8078 90.8426 39.9411C90.3677 40.247 89.8529 40.565 89.4396 40.9225C85.7728 43.827 82.3564 52.5304 89.1608 54.6613L89.1307 54.6623Z" fill="#222221"/>
<path d="M83.5483 22.1926C83.659 22.2528 83.7524 22.3437 83.8187 22.4559C83.885 22.5681 83.9218 22.6973 83.9252 22.8302C83.9286 22.963 83.8986 23.0946 83.8382 23.211C83.7777 23.3275 83.6892 23.4246 83.5818 23.4922C79.2266 26.2844 75.1517 29.4112 71.026 32.5181C71.0888 32.6291 71.1236 32.7557 71.127 32.8856C71.1303 33.0154 71.1021 33.1442 71.0451 33.2592C68.3343 39.1274 65.2781 44.8071 61.8949 50.2642C61.7717 50.4477 61.5862 50.5725 61.3783 50.6118C61.1704 50.651 60.9568 50.6015 60.7834 50.4739C57.5269 49.8319 54.2659 47.8464 51.2494 46.3685C49.1543 48.2884 46.8264 49.8971 44.3294 51.1505C44.3415 51.3044 44.3108 51.4589 44.2411 51.5946C44.1714 51.7303 44.0659 51.8411 43.9377 51.9132C43.8095 51.9853 43.6644 52.0154 43.5206 51.9998C43.3768 51.9842 43.2407 51.9236 43.1293 51.8255C28.5393 37.3891 13.8692 22.5792 0.875697 6.45473C0.521973 6.00449 1.00883 5.37523 1.43855 5.65089L1.50643 5.55184C1.51675 5.49942 1.53686 5.44972 1.56555 5.40573C1.59425 5.36173 1.63093 5.32434 1.67342 5.2958C1.7159 5.26725 1.7633 5.24814 1.81279 5.23961C1.86227 5.23108 1.91281 5.23331 1.96139 5.24616C2.12224 5.2407 2.28641 5.36412 2.44893 5.42311C2.46371 5.33764 2.50912 5.26158 2.57548 5.21114C2.64184 5.16069 2.72391 5.13985 2.80419 5.15306C16.2546 7.00782 29.6125 10.3492 42.9236 13.0472C56.2348 15.7451 69.637 18.4615 82.9696 21.2125C83.0703 21.2312 83.1662 21.2722 83.2511 21.3329C83.3359 21.3936 83.4079 21.4726 83.4624 21.5649C83.5169 21.6571 83.5527 21.7607 83.5675 21.8688C83.5823 21.9769 83.5757 22.0872 83.5483 22.1926ZM70.3721 31.7448C73.8192 28.2346 77.6745 25.2132 81.8422 22.7557C68.6919 20.0523 55.6701 17.2585 42.5894 14.5205C30.4491 11.9655 18.1191 9.85774 6.09487 6.7291C16.1707 10.3861 26.0458 14.8454 36.0471 18.7307C47.4913 23.169 58.8907 27.426 70.3314 31.7247L70.3721 31.7448ZM61.594 47.9632C64.4827 43.1113 67.1376 38.1057 69.5484 32.966C51.2048 26.3109 32.3107 19.7712 14.286 11.826C19.8079 14.8636 25.2652 18.1291 30.7575 21.1891C40.262 26.4887 49.7276 31.8434 58.7719 38.0294C58.9016 37.9883 59.0397 37.9893 59.1686 38.032C59.2975 38.0748 59.4116 38.1574 59.4963 38.2696C59.581 38.3817 59.6326 38.5183 59.6446 38.6621C59.6566 38.8059 59.6284 38.9504 59.5636 39.0775C60.3843 42.0273 61.0042 44.9947 61.594 47.9632ZM60.4072 49.1537C59.8038 46.046 59.2403 42.9261 58.7768 39.7814C56.6656 41.4118 54.7016 43.2844 52.6959 45.1047C52.6959 45.1047 52.6976 45.1691 52.6981 45.1906C55.3781 46.2578 57.9589 47.5881 60.4075 49.1644L60.4072 49.1537ZM51.064 44.6441C53.199 42.7657 55.1925 40.4728 57.5042 38.8141C39.8617 26.9646 20.474 18.4529 2.67985 6.96324C16.4162 21.4608 29.7207 36.3815 43.8691 50.4674C45.9714 48.4933 48.3557 46.9182 50.5328 45.1136C50.5727 45.0008 50.6388 44.9007 50.7248 44.8225C50.8108 44.7444 50.9139 44.6908 51.0244 44.6669L51.064 44.6441Z" fill="#222221"/>
<path d="M81.8074 22.6962C77.6414 25.1485 73.7877 28.1636 70.3421 31.6665C58.866 27.3782 47.4714 23.13 36.0318 18.701C26.0345 14.8131 16.1635 10.3632 6.09131 6.69238C18.1106 9.81447 30.4454 11.9175 42.5706 14.4674C55.6462 17.2105 68.7128 19.9967 81.8074 22.6962Z" fill="#D4E7E9"/>
<path d="M69.558 32.9728C67.1467 38.1154 64.4912 43.1237 61.602 47.9782C61.0119 44.9974 60.4421 42.0267 59.5715 39.0984C59.6363 38.9713 59.6645 38.8267 59.6525 38.6828C59.6405 38.5389 59.5889 38.4023 59.5041 38.2901C59.4194 38.1779 59.3054 38.0952 59.1764 38.0524C59.0475 38.0096 58.9094 38.0087 58.7796 38.0497C49.7447 31.903 40.266 26.5028 30.7597 21.2003C25.2669 18.16 19.8087 14.9035 14.2849 11.832C32.3129 19.7708 51.2107 26.3141 69.558 32.9728Z" fill="#D4E7E9"/>
<path d="M58.7975 39.875C59.2113 43.0275 59.8257 46.1516 60.4299 49.2653C57.9813 47.6901 55.4009 46.3608 52.7215 45.2943C52.7215 45.2943 52.7202 45.2405 52.7193 45.2082C54.7174 43.3847 56.6838 41.5085 58.7975 39.875Z" fill="#D4E7E9"/>
<path d="M57.5308 38.798C55.218 40.4584 53.2236 42.7537 51.0877 44.6342C50.9771 44.6581 50.8739 44.7117 50.7879 44.7899C50.7019 44.8682 50.6358 44.9684 50.5959 45.0813C48.4183 46.9093 46.034 48.5292 43.9296 50.4623C29.7345 36.3628 16.4238 21.4261 2.68115 6.91309C20.4836 18.415 39.8801 26.9358 57.5308 38.798Z" fill="#D4E7E9"/>
</svg>
