<svg width="96" height="96" viewBox="0 0 96 96" fill="none" xmlns="http://www.w3.org/2000/svg">
<path d="M57.5254 16.0199L37.8854 19.5199C35.7654 19.8999 33.8254 21.0099 32.4254 22.6499L1.54541 58.8999C-0.744594 61.5899 -0.424595 65.6499 2.26541 67.9399L24.9954 87.2999C27.6854 89.5899 31.7354 89.2699 34.0354 86.5799L40.6154 78.8499V39.9899C40.6154 37.6599 41.4254 35.3899 42.9154 33.5899L55.6054 18.1899C56.4054 17.2199 57.3654 16.4699 58.4054 15.9199C58.1054 15.9399 57.8154 15.9699 57.5254 16.0199Z" fill="#980C0C"/>
<path d="M62.7052 27.7398C60.4552 27.7398 58.6152 25.9098 58.6152 23.6498C58.6152 21.3998 60.4452 19.5598 62.7052 19.5598C64.9552 19.5598 66.7952 21.3898 66.7952 23.6498C66.7852 25.9098 64.9552 27.7398 62.7052 27.7398ZM62.7052 21.0698C61.2752 21.0698 60.1152 22.2298 60.1152 23.6598C60.1152 25.0898 61.2752 26.2498 62.7052 26.2498C64.1352 26.2498 65.2952 25.0898 65.2952 23.6598C65.2852 22.2298 64.1252 21.0698 62.7052 21.0698Z" fill="#980C0C"/>
<path d="M62.7055 21.0699C62.4155 21.0699 62.1455 20.8999 62.0255 20.6299L57.0955 9.55991C56.2455 7.64991 56.4155 5.45991 57.5555 3.70991C58.6955 1.94991 60.6255 0.909912 62.7155 0.909912C64.8055 0.909912 66.7355 1.95991 67.8755 3.70991C69.0155 5.46991 69.1855 7.64991 68.3355 9.56991L65.7155 15.4599C65.5455 15.8399 65.1055 16.0099 64.7255 15.8399C64.3455 15.6699 64.1755 15.2299 64.3455 14.8499L66.9655 8.95991C67.6055 7.50991 67.4755 5.85991 66.6155 4.52991C65.7555 3.19991 64.2955 2.40991 62.7155 2.40991C61.1355 2.40991 59.6755 3.19991 58.8155 4.52991C57.9555 5.85991 57.8255 7.50991 58.4655 8.95991L63.3955 20.0299C63.5655 20.4099 63.3955 20.8499 63.0155 21.0199C62.9055 21.0499 62.8055 21.0699 62.7055 21.0699Z" fill="#980C0C"/>
<path d="M84.0452 80.4598V87.6098C84.0452 91.1398 81.1652 94.0198 77.6352 94.0198H47.7752C44.2452 94.0198 41.3652 91.1398 41.3652 87.6098V39.9898C41.3652 37.8398 42.1152 35.7298 43.4852 34.0698L56.1752 18.6698C57.7852 16.7098 60.1652 15.5898 62.7052 15.5898C65.2452 15.5898 67.6252 16.7098 69.2352 18.6698L81.9252 34.0698C83.2952 35.7298 84.0452 37.8398 84.0452 39.9898V46.5798C84.5552 46.8398 85.0552 47.1298 85.5452 47.4398V39.9998C85.5452 37.4998 84.6652 35.0598 83.0752 33.1298L70.3852 17.7098C68.4852 15.4098 65.6852 14.0798 62.6952 14.0798C59.7052 14.0798 56.9052 15.3998 55.0152 17.7098L42.3352 33.1098C40.7452 35.0398 39.8652 37.4798 39.8652 39.9798V87.6098C39.8652 91.9698 43.4152 95.5198 47.7752 95.5198H77.6352C81.9952 95.5198 85.5452 91.9698 85.5452 87.6098V79.6098C85.0552 79.9098 84.5552 80.1998 84.0452 80.4598Z" fill="#980C0C"/>
<path d="M75.415 83.2898C64.515 83.2898 55.645 74.4198 55.645 63.5198C55.645 52.6198 64.515 43.7498 75.415 43.7498C86.315 43.7498 95.185 52.6198 95.185 63.5198C95.195 74.4198 86.325 83.2898 75.415 83.2898ZM75.415 45.2398C65.335 45.2398 57.145 53.4398 57.145 63.5098C57.145 73.5898 65.345 81.7798 75.415 81.7798C85.485 81.7798 93.685 73.5798 93.685 63.5098C93.695 53.4398 85.495 45.2398 75.415 45.2398Z" fill="#980C0C"/>
<path d="M68.5052 42.3098C68.1852 42.3098 67.8952 42.0998 67.7852 41.7898C67.6652 41.3898 67.8852 40.9698 68.2752 40.8498C70.5752 40.1298 72.9752 39.7598 75.4152 39.7598C75.8252 39.7598 76.1652 40.0998 76.1652 40.5098C76.1652 40.9198 75.8252 41.2598 75.4152 41.2598C73.1352 41.2598 70.8852 41.5998 68.7252 42.2798C68.6552 42.2998 68.5852 42.3098 68.5052 42.3098Z" fill="#980C0C"/>
<path d="M52.4053 64.2699C51.9953 64.2699 51.6553 63.9299 51.6553 63.5199C51.6553 54.9399 56.3053 46.9999 63.7853 42.7899C64.1453 42.5899 64.6053 42.7199 64.8053 43.0799C65.0053 43.4399 64.8853 43.8999 64.5153 44.0999C57.5053 48.0399 53.1453 55.4799 53.1453 63.5199C53.1553 63.9299 52.8253 64.2699 52.4053 64.2699Z" fill="#980C0C"/>
<path d="M75.4152 49.9697L78.6352 59.8697H89.0552L80.6252 65.9997L83.8452 75.9097L75.4152 69.7797L66.9952 75.9097L70.2152 65.9997L61.7852 59.8697H72.2052L75.4152 49.9697Z" fill="#FE8A13"/>
<path d="M16.4655 75.05C16.2955 75.05 16.1255 74.99 15.9755 74.87L5.76549 66.17C4.93549 65.46 4.42549 64.47 4.33549 63.38C4.24549 62.29 4.58549 61.23 5.29549 60.4L22.6155 40.07C22.8855 39.76 23.3555 39.72 23.6755 39.99C23.9955 40.26 24.0255 40.73 23.7555 41.05L6.44549 61.37C5.99549 61.9 5.77549 62.57 5.83549 63.26C5.89549 63.95 6.21549 64.58 6.73549 65.03L16.9455 73.73C17.2655 74 17.2955 74.47 17.0255 74.79C16.8855 74.96 16.6755 75.05 16.4655 75.05ZM26.7355 37.15C26.5655 37.15 26.3955 37.09 26.2455 36.97C25.9255 36.7 25.8955 36.23 26.1655 35.91L30.1155 31.28C30.3855 30.96 30.8555 30.93 31.1755 31.2C31.4955 31.47 31.5255 31.94 31.2555 32.26L27.3055 36.89C27.1555 37.06 26.9455 37.15 26.7355 37.15Z" fill="#F2F2F2"/>
</svg>
