<svg width="96" height="92" viewBox="0 0 96 92" fill="none" xmlns="http://www.w3.org/2000/svg">
<path d="M62.4741 89.8701C52.3841 79.7201 53.0341 68.9901 53.0441 68.8801C53.0541 68.7801 53.0141 68.6901 52.9841 68.5901C52.7541 68.6701 52.5341 68.7501 52.2941 68.8201H51.4541L51.5341 68.9801C51.4741 70.5801 51.4841 80.0801 60.1941 89.6401H36.7241C45.4241 80.0801 45.4441 70.5801 45.3841 68.9801L45.4641 68.8201H44.6241C44.3841 68.7501 44.1641 68.6701 43.9341 68.5901C43.9041 68.6801 43.8641 68.7801 43.8741 68.8801C43.8841 68.9901 44.5341 79.7101 34.4441 89.8701C34.2341 90.0801 34.1641 90.4101 34.2841 90.6901C34.4041 90.9701 34.6741 91.1501 34.9741 91.1501H61.9341C62.2341 91.1501 62.5141 90.9701 62.6241 90.6901C62.7541 90.4001 62.6841 90.0801 62.4741 89.8701Z" fill="#980C0C"/>
<path d="M52.2942 69.5701H44.6242C44.5542 69.5701 44.4742 69.5601 44.4042 69.5401C32.9042 66.0401 34.2742 54.3601 34.2942 54.2501C34.3242 54.0301 34.4442 53.8401 34.6242 53.7201L48.0442 44.9401C48.2942 44.7801 48.6142 44.7801 48.8642 44.9401L62.2842 53.7201C62.4642 53.8401 62.5942 54.0301 62.6142 54.2501C62.6342 54.3701 64.0042 66.0501 52.5042 69.5401C52.4442 69.5601 52.3642 69.5701 52.2942 69.5701ZM44.7342 68.0701H52.1742C61.4442 65.1801 61.3042 56.6101 61.1642 54.7701L48.4542 46.4601L35.7442 54.7701C35.6142 56.6101 35.4942 65.2001 44.7342 68.0701Z" fill="#980C0C"/>
<path d="M58.7938 65.5C58.4738 65.5 58.1738 65.29 58.0738 64.96C57.9538 64.56 58.1838 64.15 58.5838 64.03C87.6438 55.56 93.3038 28.05 94.2038 22.09L86.4838 24.62C86.0838 24.75 85.6638 24.53 85.5338 24.14C85.4038 23.75 85.6238 23.32 86.0138 23.19L94.8638 20.29C95.1038 20.21 95.3638 20.26 95.5638 20.41C95.7638 20.57 95.8638 20.81 95.8438 21.06C95.8138 21.41 92.5138 55.69 59.0038 65.46C58.9338 65.49 58.8638 65.5 58.7938 65.5Z" fill="#980C0C"/>
<path d="M79.9637 33.2C79.6437 33.2 79.3537 33 79.2537 32.68C79.1237 32.29 79.3437 31.86 79.7437 31.74L93.3337 27.38C93.7337 27.25 94.1537 27.47 94.2737 27.86C94.4037 28.25 94.1837 28.68 93.7837 28.8L80.1937 33.16C80.1137 33.19 80.0337 33.2 79.9637 33.2Z" fill="#980C0C"/>
<path d="M37.9939 65.5C37.9239 65.5 37.8539 65.49 37.7839 65.47C4.27392 55.7 0.973918 21.41 0.943918 21.07C0.923918 20.82 1.02392 20.57 1.22392 20.42C1.42392 20.26 1.68392 20.22 1.92392 20.3L10.6539 23.16C11.0439 23.29 11.2639 23.71 11.1339 24.11C11.0039 24.5 10.5839 24.72 10.1839 24.59L2.57392 22.1C3.46392 28.07 9.13392 55.57 38.1939 64.04C38.5939 64.16 38.8239 64.57 38.7039 64.97C38.6139 65.29 38.3139 65.5 37.9939 65.5Z" fill="#980C0C"/>
<path d="M16.8237 33.2C16.7437 33.2 16.6737 33.19 16.5937 33.16L3.01371 28.81C2.61371 28.68 2.39371 28.26 2.52371 27.86C2.65371 27.47 3.07371 27.25 3.46371 27.38L17.0537 31.74C17.4437 31.87 17.6637 32.29 17.5437 32.68C17.4437 33 17.1437 33.2 16.8237 33.2Z" fill="#980C0C"/>
<path d="M48.4637 36.2101C38.7137 36.2101 30.7837 28.2801 30.7837 18.5301C30.7837 8.7801 38.7137 0.850098 48.4637 0.850098C58.2137 0.850098 66.1437 8.7801 66.1437 18.5301C66.1337 28.2801 58.2037 36.2101 48.4637 36.2101ZM48.4637 2.3601C39.5437 2.3601 32.2837 9.6201 32.2837 18.5401C32.2837 27.4601 39.5437 34.7201 48.4637 34.7201C57.3837 34.7201 64.6437 27.4601 64.6437 18.5401C64.6337 9.6101 57.3837 2.3601 48.4637 2.3601Z" fill="#980C0C"/>
<path d="M35.3638 21.43C35.0038 21.43 34.6838 21.17 34.6238 20.8C34.5038 20.06 34.4438 19.3 34.4438 18.54C34.4438 14.79 35.9038 11.28 38.5538 8.63002C41.2038 5.98002 44.7238 4.52002 48.4638 4.52002C48.8738 4.52002 49.2138 4.86002 49.2138 5.27002C49.2138 5.68002 48.8738 6.02002 48.4638 6.02002C45.1238 6.02002 41.9738 7.32002 39.6138 9.69002C37.2538 12.05 35.9438 15.2 35.9438 18.54C35.9438 19.22 35.9938 19.9 36.1038 20.56C36.1738 20.97 35.8938 21.35 35.4838 21.42C35.4438 21.42 35.4038 21.43 35.3638 21.43Z" fill="#980C0C"/>
<path d="M39.0735 28.67C38.8835 28.67 38.6935 28.6 38.5435 28.45C37.6235 27.53 36.8435 26.5 36.2135 25.37C36.0135 25.01 36.1435 24.55 36.5035 24.35C36.8635 24.15 37.3235 24.28 37.5235 24.64C38.0835 25.65 38.7835 26.57 39.6035 27.39C39.8935 27.68 39.8935 28.16 39.6035 28.45C39.4635 28.59 39.2635 28.67 39.0735 28.67Z" fill="#980C0C"/>
<path d="M48.4638 9.13013L50.6038 15.7301H57.5538L51.9338 19.8201L54.0838 26.4301L48.4638 22.3401L42.8338 26.4301L44.9838 19.8201L39.3638 15.7301H46.3138L48.4638 9.13013Z" fill="#FE8A13"/>
<path d="M82.264 12.7702C82.184 12.4302 81.884 12.1802 81.534 12.1802H64.144C64.944 14.1402 65.384 16.2802 65.384 18.5302C65.384 27.8802 57.804 35.4602 48.454 35.4602C39.104 35.4602 31.524 27.8802 31.524 18.5302C31.524 16.2802 31.974 14.1402 32.764 12.1802H15.384C15.034 12.1802 14.724 12.4202 14.654 12.7702C14.594 13.0302 9.08397 39.2202 34.644 54.9802C34.764 55.0502 34.894 55.0902 35.034 55.0902H61.874C62.014 55.0902 62.154 55.0502 62.264 54.9802C87.834 39.2202 82.324 13.0302 82.264 12.7702ZM19.894 22.2102C19.734 20.4002 19.704 18.5902 19.794 16.8102C19.814 16.4002 20.164 16.0602 20.584 16.1002C20.994 16.1202 21.314 16.4802 21.294 16.8902C21.204 18.6002 21.234 20.3502 21.384 22.0802C21.424 22.4902 21.114 22.8602 20.704 22.8902C20.684 22.8902 20.664 22.8902 20.634 22.8902C20.254 22.8902 19.924 22.6002 19.894 22.2102ZM30.544 44.1002C30.404 44.2302 30.214 44.3002 30.034 44.3002C29.834 44.3002 29.634 44.2202 29.484 44.0602C24.644 38.8002 21.564 32.5602 20.324 25.5002C20.254 25.0902 20.524 24.7002 20.934 24.6302C21.344 24.5702 21.734 24.8302 21.804 25.2402C22.984 32.0102 25.944 38.0002 30.584 43.0402C30.864 43.3502 30.844 43.8202 30.544 44.1002Z" fill="#980C0C"/>
<path d="M30.034 44.3002C29.834 44.3002 29.634 44.2202 29.484 44.0602C24.644 38.8002 21.564 32.5602 20.324 25.5002C20.254 25.0902 20.524 24.7002 20.934 24.6302C21.344 24.5702 21.734 24.8302 21.804 25.2402C22.984 32.0102 25.944 38.0002 30.584 43.0402C30.864 43.3402 30.844 43.8202 30.544 44.1002C30.394 44.2302 30.214 44.3002 30.034 44.3002Z" fill="#F2F2F2"/>
<path d="M20.6438 22.89C20.2638 22.89 19.9338 22.6 19.8938 22.21C19.7338 20.4 19.7038 18.59 19.7938 16.81C19.8138 16.4 20.1638 16.07 20.5838 16.1C20.9938 16.12 21.3138 16.48 21.2938 16.89C21.2038 18.6 21.2338 20.35 21.3838 22.08C21.4238 22.49 21.1138 22.86 20.7038 22.89C20.6838 22.89 20.6638 22.89 20.6438 22.89Z" fill="#F2F2F2"/>
</svg>
