<svg width="94" height="93" viewBox="0 0 94 93" fill="none" xmlns="http://www.w3.org/2000/svg">
<path d="M67.6997 92.3101C53.6997 92.3101 42.1997 80.9101 42.1997 66.8101C42.1997 52.7101 53.5997 41.3101 67.6997 41.3101C81.7997 41.3101 93.1997 52.7101 93.1997 66.8101C93.0997 80.9101 81.6997 92.3101 67.6997 92.3101ZM67.6997 42.9101C54.4997 42.9101 43.6997 53.7101 43.6997 66.9101C43.6997 80.1101 54.4997 90.9101 67.6997 90.9101C80.8997 90.9101 91.6997 80.1101 91.6997 66.9101C91.6997 53.7101 80.8997 42.9101 67.6997 42.9101Z" fill="#980C0C"/>
<path d="M47.3999 70.91C46.9999 70.91 46.6999 70.61 46.6999 70.31C46.4999 69.21 46.3999 68.01 46.3999 66.91C46.3999 61.21 48.5999 55.91 52.5999 51.91C56.5999 47.91 61.8999 45.71 67.5999 45.71C67.9999 45.71 68.3999 46.01 68.3999 46.51C68.3999 47.01 68.0999 47.31 67.5999 47.31C62.2999 47.31 57.3999 49.41 53.5999 53.11C49.8999 56.81 47.7999 61.81 47.7999 67.11C47.7999 68.21 47.8999 69.21 48.0999 70.31C48.1999 70.71 47.8999 71.11 47.4999 71.21C47.4999 70.91 47.4999 70.91 47.3999 70.91Z" fill="#980C0C"/>
<path d="M53.1996 82.1101C52.9996 82.1101 52.7996 82.0101 52.6996 81.9101C51.2996 80.5101 50.0996 78.9101 49.1996 77.2101C48.9996 76.8101 49.0996 76.4101 49.4996 76.2101C49.8996 76.0101 50.2996 76.1101 50.4996 76.5101C51.3996 78.1101 52.4996 79.6101 53.7996 80.8101C54.0996 81.1101 54.0996 81.6101 53.7996 81.9101C53.4996 82.0101 53.2996 82.1101 53.1996 82.1101Z" fill="#980C0C"/>
<path d="M67.6996 52.3101L70.9996 62.5101H81.6996L72.9996 68.9101L76.2996 79.1101L67.6996 72.8101L58.9996 79.1101L62.2996 68.9101L53.5996 62.5101H64.2996L67.6996 52.3101Z" fill="#FE8A13"/>
<path d="M26.2998 51.0101C12.2998 51.0101 0.799805 39.6101 0.799805 25.5101C0.799805 11.4101 12.2998 0.110107 26.2998 0.110107C40.2998 0.110107 51.7998 11.5101 51.7998 25.6101C51.7998 39.6101 40.3998 51.0101 26.2998 51.0101ZM26.2998 1.61011C13.0998 1.61011 2.2998 12.3101 2.2998 25.6101C2.2998 38.9101 13.0998 49.6101 26.2998 49.6101C39.4998 49.6101 50.2998 38.8101 50.2998 25.6101C50.2998 12.4101 39.4998 1.61011 26.2998 1.61011Z" fill="#980C0C"/>
<path d="M26.2998 51.01C40.3831 51.01 51.7998 39.5933 51.7998 25.51C51.7998 11.4267 40.3831 0.0100098 26.2998 0.0100098C12.2165 0.0100098 0.799805 11.4267 0.799805 25.51C0.799805 39.5933 12.2165 51.01 26.2998 51.01Z" fill="#980C0C"/>
<path d="M6.09961 29.6099C5.69961 29.6099 5.39961 29.3099 5.39961 29.0099C5.19961 27.9099 5.09961 26.7099 5.09961 25.6099C5.09961 19.9099 7.29961 14.6099 11.2996 10.6099C15.2996 6.60991 20.6996 4.40991 26.2996 4.40991C26.6996 4.40991 27.0996 4.70991 27.0996 5.20991C27.0996 5.70991 26.7996 6.00991 26.2996 6.00991C20.9996 6.00991 16.0996 8.10991 12.2996 11.8099C8.49961 15.5099 6.49961 20.5099 6.49961 25.8099C6.49961 26.9099 6.59961 27.9099 6.79961 29.0099C6.89961 29.4099 6.59961 29.8099 6.19961 29.9099C6.19961 29.6099 6.09961 29.6099 6.09961 29.6099Z" fill="white"/>
<path d="M11.7997 40.8101C11.5997 40.8101 11.3997 40.7101 11.2997 40.6101C9.89971 39.2101 8.69971 37.6101 7.79971 35.9101C7.59971 35.5101 7.69971 35.1101 8.09971 34.9101C8.49971 34.7101 8.89971 34.8101 9.09971 35.2101C9.99971 36.8101 11.0997 38.2101 12.3997 39.5101C12.6997 39.8101 12.6997 40.3101 12.3997 40.6101C12.1997 40.7101 11.9997 40.8101 11.7997 40.8101Z" fill="white"/>
<path d="M26.2998 11.8101V29.6101" stroke="white" stroke-width="1.25" stroke-miterlimit="10" stroke-linecap="round"/>
<path d="M26.2998 29.6101L35.6998 20.3101" stroke="white" stroke-width="1.25" stroke-miterlimit="10" stroke-linecap="round"/>
<path d="M67.6998 39.3099C67.2998 39.3099 66.8998 39.0099 66.8998 38.5099V30.2099C66.8998 28.0099 65.0998 26.2099 62.8998 26.2099H54.5998C54.1998 26.2099 53.7998 25.9099 53.7998 25.4099C53.7998 24.9099 54.0998 24.6099 54.5998 24.6099H62.8998C65.8998 24.6099 68.3998 27.1099 68.3998 30.1099V38.4099C68.3998 39.0099 68.0998 39.3099 67.6998 39.3099Z" fill="#980C0C"/>
<path d="M59.7998 29.3099C59.6998 29.3099 59.5998 29.3099 59.3998 29.2099L54.1998 26.2099C53.9998 26.1099 53.7998 25.8099 53.7998 25.6099C53.7998 25.4099 53.8998 25.1099 54.1998 25.0099L59.3998 22.0099C59.7998 21.8099 60.1998 21.9099 60.3998 22.3099C60.5998 22.7099 60.4998 23.1099 60.0998 23.3099L55.9998 25.6099L60.0998 27.9099C60.4998 28.1099 60.5998 28.6099 60.3998 28.9099C60.3998 29.1099 60.0998 29.3099 59.7998 29.3099Z" fill="#980C0C"/>
<path d="M76.0995 31.61C75.6995 31.61 75.2995 31.31 75.2995 30.81V21.71C75.2995 19.61 73.4995 17.81 71.3995 17.81H62.2995C61.8995 17.81 61.4995 17.51 61.4995 17.01C61.4995 16.51 61.7995 16.21 62.2995 16.21H71.3995C74.3995 16.21 76.7995 18.61 76.7995 21.61V30.71C76.7995 31.21 76.4995 31.61 76.0995 31.61Z" fill="#980C0C"/>
<path d="M31.5996 76.01H22.4996C19.4996 76.01 17.0996 73.61 17.0996 70.61V61.51C17.0996 61.11 17.3996 60.71 17.8996 60.71C18.3996 60.71 18.6996 61.01 18.6996 61.51V70.61C18.6996 72.81 20.4996 74.51 22.5996 74.51H31.6996C32.0996 74.51 32.4996 74.81 32.4996 75.31C32.3996 75.71 31.9996 76.01 31.5996 76.01Z" fill="#980C0C"/>
<path d="M39.3996 67.61H31.0996C28.0996 67.61 25.5996 65.11 25.5996 62.11V53.81C25.5996 53.41 25.8996 53.01 26.3996 53.01C26.8996 53.01 27.1996 53.31 27.1996 53.81V62.11C27.1996 64.31 28.9996 66.11 31.1996 66.11H39.4996C39.8996 66.11 40.2996 66.41 40.2996 66.91C40.0996 67.31 39.7996 67.61 39.3996 67.61Z" fill="#980C0C"/>
<path d="M34.1994 70.61C33.8994 70.61 33.6994 70.51 33.4994 70.21C33.2994 69.81 33.3994 69.41 33.7994 69.21L37.8994 66.91L33.7994 64.61C33.3994 64.41 33.2994 63.91 33.4994 63.61C33.6994 63.21 34.1994 63.11 34.4994 63.31L39.6994 66.31C39.8994 66.41 40.0994 66.71 40.0994 67.01C40.0994 67.31 39.9994 67.51 39.6994 67.71L34.4994 70.71C34.3994 70.61 34.2994 70.61 34.1994 70.61Z" fill="#980C0C"/>
</svg>
