<svg width="60" height="61" viewBox="0 0 60 61" fill="none" xmlns="http://www.w3.org/2000/svg">
<path d="M8.65029 12.9834C6.92211 11.6091 5.15036 10.2921 3.48027 8.84622C2.56535 8.05887 1.78114 7.11405 1.04049 6.15491C0.633858 5.63955 0.343407 4.99536 0.154614 4.36547C-0.310107 2.91961 0.328885 1.67416 1.76662 1.13018C2.9139 0.686395 4.11926 0.657763 5.32463 0.786602C9.59426 1.21607 13.6025 2.59035 17.4655 4.2939C19.0775 5.00967 20.4281 5.08125 22.1272 4.49431C27.7184 2.57604 33.4548 2.03205 39.2638 3.44928C45.8425 5.05262 50.9544 8.80328 54.861 14.1859C57.1701 17.3639 58.8982 20.814 59.5953 24.6791C60.6264 30.3194 59.8132 35.6305 55.9792 40.1256C52.4938 44.2055 48.0499 45.7659 42.7056 44.3629C41.0065 43.9192 39.3654 44.1053 37.8406 44.9642C35.9817 46.0092 35.5605 47.8273 36.7514 49.5881C37.8406 51.2057 38.2617 52.9666 38.0439 54.8705C37.8551 56.5597 36.9837 57.8338 35.5605 58.75C33.7743 59.9096 31.7556 60.3963 29.6644 60.611C24.7267 61.1407 20.2683 59.6948 16.173 57.1467C8.99883 52.6946 4.17735 46.4387 2.21681 38.2645C0.386975 30.6917 1.91184 23.6055 5.93458 16.9917C6.76236 15.6174 7.74989 14.3004 8.65029 12.9834ZM10.6399 14.1286C10.5382 14.2432 10.422 14.3577 10.3349 14.4722C8.79552 16.3619 7.48849 18.3946 6.41382 20.5706C4.00308 25.4808 3.11721 30.6344 3.94499 36.06C4.71469 41.1706 7.03829 45.5368 10.393 49.4163C13.7622 53.3101 17.7559 56.3593 22.8098 57.8481C26.5275 58.9504 30.1872 58.7929 33.7743 57.2612C34.9215 56.7745 35.6622 55.9585 35.8365 54.713C36.0253 53.2958 35.7348 51.9645 34.9215 50.762C33.2079 48.2281 33.6 45.5511 35.9962 43.6185C38.1746 41.8577 40.6434 41.7432 43.272 42.2729C44.4628 42.5162 45.6973 42.7167 46.8881 42.6737C49.5457 42.5878 51.6951 41.3281 53.5104 39.4957C57.3734 35.5875 58.4626 30.8348 57.5476 25.6383C56.197 17.9938 51.8984 12.2533 45.218 8.25929C40.2077 5.26735 34.7182 4.33684 28.9237 5.00967C26.7744 5.26735 24.6541 5.75408 22.5338 6.5128C22.7226 6.62732 22.8243 6.6989 22.9405 6.75616C27.1084 8.83191 30.9714 11.3514 34.544 14.3004C34.7327 14.4579 35.1249 14.5295 35.3717 14.4722C36.7949 14.143 38.2036 14.1573 39.5978 14.6154C40.2368 14.8301 40.5418 15.3455 40.3965 15.9038C40.2368 16.505 39.714 16.7913 39.0169 16.6625C38.6393 16.5909 38.2617 16.4621 37.8841 16.4334C35.9962 16.2616 34.3987 16.8199 33.3531 18.409C32.3075 20.0123 32.5108 21.6586 33.5129 23.2047C34.544 24.7794 36.0543 25.5667 37.9713 25.2375C38.7991 25.0943 39.5833 24.6648 40.3965 24.4215C42.7637 23.7343 45.189 24.1781 46.4815 26.4686C46.496 26.4829 46.5541 26.4829 46.6557 26.4972C47.164 24.7078 46.9171 23.0329 45.7553 21.5727C44.9856 20.6279 44.0272 19.8262 43.1268 18.9673C42.604 18.4662 42.4733 17.9222 42.8508 17.4355C43.2139 16.9488 43.8529 16.8629 44.4193 17.2494C46.0458 18.366 47.4109 19.726 48.2387 21.5154C49.6038 24.4787 49.3134 27.2989 47.2512 29.8614C47.0188 30.1477 46.496 30.3624 46.1039 30.3624C45.5811 30.3624 45.3051 29.9329 45.2035 29.4176C45.1454 29.1169 45.0583 28.802 44.9711 28.5157C44.3612 26.5545 43.243 25.8673 40.9193 26.4972C40.7015 26.5545 40.4982 26.6547 40.2949 26.7549C36.6788 28.4728 32.3365 26.7692 30.9569 23.0472C30.7971 22.632 30.5793 22.4746 30.1582 22.3744C26.4694 21.5297 22.8969 20.2986 19.4551 18.7239C18.6854 18.366 18.4094 17.7934 18.7144 17.1778C19.0049 16.6052 19.6003 16.4621 20.3554 16.777C21.4737 17.2494 22.5919 17.7791 23.7392 18.1799C25.9466 18.953 28.1831 19.6544 30.4196 20.3845C31.2038 17.0633 31.5378 17.1635 32.8158 15.7033C30.2889 13.6133 27.5877 11.7666 24.6541 10.1776C24.5089 10.4496 24.3927 10.6643 24.2765 10.879C23.6666 12.0958 23.0566 13.327 22.4467 14.5438C22.2289 14.9876 21.8513 15.2882 21.3575 15.1737C21.0235 15.0878 20.6023 14.8444 20.4862 14.5724C20.3554 14.2575 20.4426 13.7707 20.5878 13.4415C21.2558 12.0099 21.982 10.607 22.7081 9.16116C22.5774 9.07527 22.4903 9.00369 22.3886 8.96075C18.7144 7.04247 14.9385 5.38187 10.9594 4.16506C8.66481 3.4636 6.34121 2.84803 3.90143 2.87666C3.32052 2.89098 2.52179 2.99119 2.23134 3.34907C1.81018 3.89306 2.36204 4.56589 2.78319 4.99536C4.0757 6.3267 5.3682 7.70098 6.80593 8.87485C9.46355 11.0508 12.4407 12.7687 15.4614 14.4006C15.7809 14.5724 16.173 14.8587 16.2456 15.145C16.3327 15.4886 16.202 15.9896 15.9696 16.276C15.6502 16.6911 15.1273 16.6482 14.6626 16.3905C13.3846 15.6747 12.034 14.9017 10.6399 14.1286Z" fill="#980C0C"/>
<path d="M25.1765 53.7961C22.4753 53.7818 20.2969 51.5629 20.326 48.8716C20.3405 46.2375 22.577 44.0473 25.2346 44.0616C27.9358 44.0759 30.1432 46.2805 30.1287 48.9575C30.1142 51.6345 27.8922 53.8104 25.1765 53.7961ZM25.2201 51.6488C26.7449 51.6488 27.9648 50.4177 27.9503 48.9145C27.9358 47.44 26.7304 46.2375 25.2491 46.2089C23.7388 46.1946 22.4898 47.4257 22.4898 48.9289C22.4898 50.432 23.6952 51.6488 25.2201 51.6488Z" fill="#980C0C"/>
<path d="M16.2309 29.5321C13.5297 29.5321 11.3223 27.3562 11.3223 24.6649C11.3223 21.9879 13.5442 19.769 16.2309 19.7833C18.8885 19.7976 21.1104 21.9879 21.125 24.6219C21.154 27.2989 18.9175 29.5321 16.2309 29.5321ZM18.9611 24.6935C18.9756 23.2047 17.7267 21.9449 16.2309 21.9306C14.7641 21.9163 13.5152 23.1331 13.4861 24.5933C13.4571 26.1107 14.6479 27.3562 16.1583 27.3848C17.6686 27.4134 18.9466 26.1966 18.9611 24.6935Z" fill="#980C0C"/>
<path d="M10.451 38.3362C10.5381 35.6449 12.7891 33.4976 15.4758 33.5548C18.1479 33.6264 20.3118 35.8596 20.2682 38.4937C20.2101 41.185 17.9446 43.3609 15.287 43.3037C12.5713 43.2464 10.3784 40.9846 10.451 38.3362ZM15.3886 35.7022C13.8928 35.6735 12.6148 36.919 12.6003 38.4078C12.5858 39.8823 13.8492 41.1564 15.3451 41.1564C16.8118 41.1564 18.0463 39.9395 18.0898 38.4794C18.1479 37.0192 16.8844 35.7308 15.3886 35.7022Z" fill="#980C0C"/>
<path d="M53.9461 26.7835C53.9316 30.4196 51.4482 33.4259 47.9773 34.1703C44.6662 34.8861 41.1227 33.1825 39.6704 30.2049C39.3219 29.5034 39.4816 28.8879 40.0916 28.6015C40.6725 28.3296 41.2243 28.5443 41.6019 29.2028C41.66 29.303 41.7036 29.4032 41.7617 29.5034C42.9961 31.6221 45.5085 32.6528 47.8902 31.9657C50.2864 31.2785 51.9129 29.1312 51.7532 26.6976C51.6951 25.9246 51.3901 25.1372 51.1142 24.4071C50.8237 23.6484 50.8818 23.0758 51.4192 22.7608C51.9855 22.4459 52.5955 22.6463 53.0312 23.3191C53.7282 24.4357 53.8589 25.7098 53.9461 26.7835Z" fill="#980C0C"/>
</svg>
