<svg width="57" height="44" viewBox="0 0 57 44" fill="none" xmlns="http://www.w3.org/2000/svg">
<path d="M56.7301 42.7501C56.3801 43.6701 55.7001 43.9701 54.7401 43.9601C51.7301 43.9301 48.7201 43.9501 45.7201 43.9501C31.2101 43.9501 16.6901 43.9501 2.18006 43.9501C0.810058 43.9501 0.380059 43.5101 0.380059 42.1301C0.380059 41.7101 0.380059 41.2901 0.380059 40.8601C0.390059 39.8501 0.890059 39.3501 1.90006 39.3301C2.03006 39.3301 2.15006 39.3101 2.31006 39.3001C2.31006 37.5101 2.31006 35.7401 2.31006 33.8901C2.13006 33.8801 1.93006 33.8601 1.74006 33.8501C0.900058 33.8201 0.400059 33.3101 0.380059 32.4501C0.370059 31.8801 0.370059 31.3101 0.380059 30.7401C0.390059 29.8201 0.870058 29.3201 1.79006 29.2601C1.95006 29.2501 2.11006 29.2401 2.31006 29.2201C2.31006 24.5001 2.31006 19.8201 2.31006 15.0801C2.08006 15.0601 1.85006 15.0501 1.62006 15.0301C0.920058 14.9601 0.430059 14.4801 0.400059 13.7701C0.370059 13.0901 0.370059 12.4101 0.400059 11.7301C0.430059 11.0001 0.920059 10.5201 1.65006 10.4401C1.86006 10.4201 2.08006 10.4001 2.32006 10.3801C2.32006 8.58015 2.32006 6.81015 2.32006 5.03015C2.26006 5.01015 2.21006 4.98015 2.16006 4.97015C0.740058 4.90015 0.380059 4.54015 0.380059 3.13015C0.380059 2.65015 0.370059 2.18015 0.380059 1.70015C0.410059 0.920147 0.930058 0.400148 1.70006 0.350148C1.85006 0.340148 1.99006 0.350148 2.14006 0.350148C11.3801 0.350148 20.6301 0.350148 29.8701 0.350148C31.2101 0.350148 31.6401 0.780147 31.6401 2.13015C31.6401 2.55015 31.6401 2.97015 31.6401 3.40015C31.6301 4.46015 31.1601 4.95015 30.1101 4.97015C30.0001 4.97015 29.8901 4.98015 29.7401 4.99015C29.7401 6.79015 29.7401 8.57015 29.7401 10.3601C29.8001 10.3801 29.8501 10.4201 29.9001 10.4201C31.3401 10.5301 31.6501 10.8501 31.6501 12.2901C31.6501 12.7101 31.6501 13.1301 31.6501 13.5601C31.6401 14.5201 31.1701 14.9901 30.2001 15.0501C30.0601 15.0601 29.9201 15.0701 29.7001 15.0901C29.7001 16.0601 29.7601 17.0101 29.6801 17.9501C29.5801 19.1101 29.7701 19.9701 30.9601 20.5501C31.6801 20.9001 32.2801 21.6001 32.8101 22.2401C33.2501 22.7701 33.7001 22.9301 34.3601 22.7801C34.3701 22.6601 34.4101 22.5201 34.4001 22.3801C34.2901 21.1701 34.5501 19.9801 34.4601 18.7401C34.2701 16.1501 34.4001 13.5401 34.4001 10.9301C34.4001 10.7801 34.4001 10.6301 34.4301 10.4901C34.5401 10.0601 34.8201 9.81015 35.2601 9.84015C35.7201 9.87015 36.0001 10.1401 36.0401 10.6101C36.0501 10.7701 36.0501 10.9401 36.0501 11.1001C36.0501 13.5901 36.0601 16.0901 36.0401 18.5801C36.0401 19.1001 36.2201 19.2401 36.7101 19.2401C41.6101 19.2301 46.5001 19.2301 51.4001 19.2401C51.9101 19.2401 52.0601 19.0701 52.0601 18.5701C52.0501 13.6701 52.0501 8.78015 52.0601 3.88015C52.0601 3.37015 51.9001 3.21015 51.3901 3.22015C50.1401 3.25015 48.9001 3.23015 47.6501 3.23015C47.4901 3.23015 47.3301 3.25015 47.1001 3.26015C47.1001 3.49015 47.1001 3.68015 47.1001 3.88015C47.1001 5.26015 47.1101 6.63015 47.1001 8.01015C47.0901 9.13015 46.6001 9.63015 45.4901 9.65015C44.5201 9.66015 43.5501 9.66015 42.5701 9.65015C41.5101 9.63015 41.0001 9.10015 41.0001 8.03015C40.9901 6.46015 41.0001 4.88015 41.0001 3.29015C40.8701 3.27015 40.7901 3.24015 40.7001 3.24015C39.3401 3.24015 37.9901 3.25015 36.6301 3.23015C36.2101 3.22015 36.0401 3.38015 36.0401 3.81015C36.0601 4.80015 36.0501 5.79015 36.0401 6.78015C36.0401 7.44015 35.7501 7.81015 35.2501 7.83015C34.7301 7.85015 34.4001 7.45015 34.3901 6.78015C34.3801 5.73015 34.3801 4.69015 34.3901 3.64015C34.4101 2.41015 35.1901 1.59015 36.4201 1.59015C41.5001 1.58015 46.5801 1.58015 51.6601 1.59015C52.8701 1.59015 53.6701 2.38015 53.6801 3.59015C53.7001 8.67015 53.7501 13.7501 53.6301 18.8301C53.6101 19.8101 53.6901 20.7801 53.6901 21.7601C53.6801 26.2001 53.6901 30.6401 53.6901 35.0801C53.6901 35.3001 53.6901 35.5101 53.6901 35.7901C54.8401 35.8201 56.1001 35.5401 56.7101 36.9001C56.7301 38.8601 56.7301 40.8001 56.7301 42.7501ZM17.1701 30.9201C16.5101 30.9201 15.8901 30.9201 15.2701 30.9201C14.2601 30.9201 13.2501 30.9301 12.2401 30.9101C11.6201 30.9001 11.2801 30.5901 11.2701 30.0901C11.2701 29.5801 11.6101 29.2901 12.2201 29.2601C12.3701 29.2501 12.5101 29.2601 12.6601 29.2601C14.2701 29.2601 15.8901 29.2501 17.5001 29.2701C17.8601 29.2701 18.0501 29.1601 18.2101 28.8301C18.7401 27.7901 19.3001 26.7601 19.8701 25.7301C20.1601 25.2101 20.6301 25.0501 21.0601 25.2801C21.5101 25.5201 21.6001 26.0001 21.2901 26.5601C20.8701 27.3301 20.4201 28.0901 20.0201 28.8701C19.5201 29.8601 19.0501 30.8601 18.5601 31.9001C20.7301 32.6201 22.1801 34.1501 23.5501 35.7901C23.7001 35.7301 23.8301 35.6801 23.9601 35.6301C24.1001 35.5801 24.2301 35.5101 24.3701 35.4701C26.3301 34.8201 28.0101 35.4701 29.5501 36.6501C31.3501 38.0401 32.6901 39.8201 33.8401 41.7601C34.0801 42.1601 34.3301 42.3001 34.7901 42.2901C36.4401 42.2601 38.0901 42.2801 39.7401 42.2801C40.5001 42.2801 40.6101 42.1401 40.3601 41.4401C39.5701 39.2301 38.8201 37.0101 37.9601 34.8401C36.6001 31.4101 35.0601 28.0701 32.9401 25.0301C31.9801 23.6601 30.9301 22.3601 29.4701 21.4701C28.1201 20.6501 26.7701 20.6601 25.5101 21.6001C24.7801 22.1401 24.1401 22.8101 23.4901 23.4501C23.0601 23.8601 22.6001 23.9501 22.2301 23.6401C21.8501 23.3101 21.8301 22.8301 22.2301 22.3801C23.7701 20.6401 25.4401 19.1401 28.0001 19.2301C28.0001 17.8301 28.0001 16.4701 28.0001 15.1001C19.9801 15.1001 12.0001 15.1001 4.02006 15.1001C4.02006 19.8401 4.02006 24.5201 4.02006 29.2601C4.25006 29.2601 4.45006 29.2601 4.65006 29.2601C5.75006 29.2601 6.85006 29.2601 7.95006 29.2601C8.08006 29.2601 8.21006 29.2601 8.34006 29.2601C8.90006 29.2901 9.26006 29.6101 9.26006 30.0801C9.26006 30.5401 8.90006 30.9001 8.35006 30.9001C6.79006 30.9201 5.23006 30.9101 3.67006 30.9101C3.14006 30.9101 2.62006 30.9101 2.06006 30.9101C2.06006 31.3601 2.06006 31.7502 2.06006 32.2101C2.30006 32.2101 2.51006 32.2101 2.73006 32.2101C5.99006 32.2101 9.26006 32.2201 12.5201 32.2101C13.7901 32.2101 15.0601 32.3001 16.3301 31.8801C16.8801 31.7101 17.0501 31.4501 17.1701 30.9201ZM4.02006 10.4201C12.0501 10.4201 20.0201 10.4201 28.0001 10.4201C28.0001 8.60015 28.0001 6.82015 28.0001 5.03015C19.9901 5.03015 12.0201 5.03015 4.02006 5.03015C4.02006 6.83015 4.02006 8.60015 4.02006 10.4201ZM44.0701 29.3301C45.1001 29.3301 46.0701 29.3201 47.0401 29.3301C48.0301 29.3401 48.6601 29.9601 48.6801 30.9501C48.7001 31.9001 48.6901 32.8601 48.6901 33.8101C48.6901 34.4601 48.6901 35.1201 48.6901 35.7801C49.8401 35.7801 50.9301 35.7801 52.0301 35.7801C52.0401 35.6701 52.0601 35.6001 52.0601 35.5301C52.0601 30.8401 52.0601 26.1401 52.0701 21.4501C52.0701 21.0501 51.9201 20.9001 51.5201 20.9101C50.2901 20.9301 49.0601 20.9201 47.8301 20.9201C47.6001 20.9201 47.3701 20.9201 47.1101 20.9201C47.1101 22.3201 47.1101 23.6201 47.1101 24.9201C47.1101 27.0801 46.8701 27.3301 44.7201 27.3301C44.5101 27.3301 44.3001 27.3301 44.0701 27.3301C44.0701 28.0201 44.0701 28.6401 44.0701 29.3301ZM22.1701 36.7401C21.9701 36.5101 21.8001 36.2701 21.6001 36.0601C21.1601 35.6201 20.7401 35.1501 20.2701 34.7501C18.1101 32.9401 16.3201 32.9501 14.2101 34.8301C12.0801 36.7201 10.6601 39.1401 9.38006 41.6401C9.17006 42.0501 9.34006 42.2801 9.85006 42.2901C12.3801 42.3001 14.9101 42.3001 17.4301 42.2801C17.6001 42.2801 17.8501 42.1401 17.9401 41.9901C19.0901 40.0501 20.4001 38.2301 22.1701 36.7401ZM45.0901 42.2601C48.4401 42.2601 51.7501 42.2601 55.0501 42.2601C55.0501 40.6501 55.0501 39.0801 55.0501 37.5101C51.7101 37.5101 48.4101 37.5101 45.0901 37.5101C45.0901 39.1001 45.0901 40.6501 45.0901 42.2601ZM19.7101 42.2601C23.9301 42.2601 28.0401 42.2601 32.3001 42.2601C31.6301 41.3701 31.0901 40.5001 30.4001 39.7901C29.5701 38.9301 28.6701 38.1001 27.6801 37.4201C26.5501 36.6401 25.2901 36.7001 24.1001 37.4201C22.1801 38.5801 20.9301 40.3501 19.7101 42.2601ZM38.1701 31.0001C38.7901 32.5001 39.4001 33.9401 39.9701 35.4001C40.1001 35.7401 40.2801 35.8201 40.6101 35.8201C42.5901 35.8101 44.5701 35.8101 46.5501 35.8101C46.7101 35.8101 46.8601 35.7901 47.0001 35.7801C47.0001 34.1601 47.0001 32.5901 47.0001 31.0001C44.0501 31.0001 41.1401 31.0001 38.1701 31.0001ZM2.06006 3.31015C11.3901 3.31015 20.6801 3.31015 29.9701 3.31015C29.9701 2.88015 29.9701 2.48015 29.9701 2.06015C20.6601 2.06015 11.3701 2.06015 2.06006 2.06015C2.06006 2.49015 2.06006 2.88015 2.06006 3.31015ZM4.03006 39.3301C5.46006 39.3301 6.86006 39.3101 8.27006 39.3401C8.64006 39.3501 8.80006 39.2001 8.99006 38.9101C9.82006 37.6601 10.6701 36.4301 11.5501 35.2101C11.8801 34.7601 12.3001 34.3701 12.7301 33.9001C9.79006 33.9001 6.93006 33.9001 4.04006 33.9001C4.03006 35.7101 4.03006 37.5001 4.03006 39.3301ZM29.9801 12.1401C20.6401 12.1401 11.3601 12.1401 2.07006 12.1401C2.07006 12.5801 2.07006 12.9701 2.07006 13.3601C11.3901 13.3601 20.6701 13.3601 29.9801 13.3601C29.9801 12.9401 29.9801 12.5701 29.9801 12.1401ZM34.6101 24.5101C34.9701 25.0901 35.2901 25.5801 35.5801 26.0901C35.8901 26.6101 36.1801 27.1401 36.4701 27.6701C36.7701 28.2101 36.9401 28.9601 37.4001 29.2401C37.8601 29.5201 38.6101 29.3301 39.2301 29.3301C40.2701 29.3401 41.3101 29.3301 42.3501 29.3301C42.3501 27.6901 42.3501 26.1101 42.3501 24.5201C39.7701 24.5101 37.2401 24.5101 34.6101 24.5101ZM42.7101 3.27015C42.7101 4.83015 42.7101 6.39015 42.7101 7.97015C43.6201 7.97015 44.5101 7.97015 45.4201 7.97015C45.4201 6.39015 45.4201 4.84015 45.4201 3.27015C44.5101 3.27015 43.6401 3.27015 42.7101 3.27015ZM42.6601 20.9401C42.6601 21.5301 42.6401 22.0601 42.6701 22.5801C42.6801 22.7001 42.8201 22.8701 42.9401 22.9101C43.7401 23.2001 44.0501 23.8001 44.0501 24.6101C44.0501 24.9501 44.0501 25.2901 44.0501 25.6401C44.5501 25.6401 44.9701 25.6401 45.4201 25.6401C45.4201 24.0701 45.4201 22.5301 45.4201 20.9401C44.5101 20.9401 43.6301 20.9401 42.6601 20.9401ZM36.0601 22.8001C37.7301 22.8001 39.3501 22.8001 40.9601 22.8001C40.9601 22.1501 40.9601 21.5401 40.9601 20.9101C39.4301 20.9101 37.9501 20.9001 36.4701 20.9301C36.3301 20.9301 36.0901 21.1701 36.0801 21.3101C36.0301 21.7901 36.0601 22.2801 36.0601 22.8001ZM40.8101 37.4801C41.3201 39.0901 41.8201 40.6701 42.3301 42.2601C42.6301 42.2601 43.0101 42.2601 43.3801 42.2601C43.3801 40.6401 43.3801 39.0701 43.3801 37.4801C42.5001 37.4801 41.6601 37.4801 40.8101 37.4801ZM2.05006 42.2601C3.94006 42.2601 5.78006 42.2601 7.60006 42.2601C7.66006 41.8301 7.71006 41.4301 7.76006 41.0301C5.87006 41.0301 3.96006 41.0301 2.05006 41.0301C2.05006 41.4501 2.05006 41.8301 2.05006 42.2601Z" fill="#980C0C"/>
</svg>
