<svg width="48" height="65" viewBox="0 0 48 65" fill="none" xmlns="http://www.w3.org/2000/svg">
<path d="M7.10419 46.3026C6.22387 42.6578 8.50219 39.3126 10.6728 36.5797C12.8066 33.9046 15.3345 31.3582 18.4774 29.8998C21.9093 28.3073 26.3609 28.2469 30.0161 29.1114C33.6136 29.9707 35.9997 32.8639 37.8996 35.8439C39.7391 38.7345 41.7625 42.4581 41.9675 45.9505C42.1724 49.4429 40.2568 53.106 38.4935 56.0045C36.7013 58.9503 34.2548 61.5229 30.857 62.5215C29.0544 63.0471 27.1466 63.2862 25.2887 63.5227C23.2942 63.7855 21.2235 64.0483 19.2158 63.8748C15.2163 63.5096 11.9105 60.1486 9.6085 57.0872C7.11207 53.7682 6.95966 49.5453 7.049 45.5563C7.049 45.1306 6.02415 45.3435 6.01627 45.6851C5.93218 49.4323 6.01627 53.403 8.08436 56.672C9.16702 58.3827 10.678 59.9068 12.1654 61.2654C13.4556 62.4453 14.9088 63.4938 16.5854 64.0351C18.4406 64.6343 20.4036 64.5607 22.3219 64.3951C24.5653 64.2086 26.7976 63.906 29.0097 63.4885C32.4653 62.8316 35.3165 61.3416 37.5974 58.635C39.9524 55.7887 41.6758 52.4746 42.6533 48.912C43.7386 44.81 41.844 40.6449 39.8547 37.1131C38.0547 33.9177 35.6922 30.4122 32.1394 29.0194C30.3604 28.3231 28.4211 28.1549 26.529 28.0813C24.503 28.0025 22.448 28.0813 20.485 28.6069C16.6537 29.6317 13.5029 32.2044 10.9145 35.1239C8.22364 38.1748 5.01507 42.2426 6.06357 46.5812C6.14766 46.9359 7.18302 46.6705 7.09367 46.3026H7.10419Z" fill="#980C0C"/>
<path d="M10.0342 46.5071C9.31681 43.451 11.1773 40.676 13.0168 38.3924C14.7984 36.1561 16.9086 34.0145 19.5311 32.7873C22.3771 31.4576 26.0823 31.3893 29.1148 32.104C32.1473 32.8188 34.1313 35.1812 35.7422 37.6776C37.3031 40.0926 38.9297 43.1356 39.2083 46.0499C39.471 48.9168 37.9233 51.9441 36.5174 54.3512C35.1115 56.7582 33.2063 59.0103 30.5076 59.9668C29.0465 60.4924 27.4593 60.6895 25.9273 60.9023C24.1982 61.1415 22.3955 61.399 20.648 61.3175C17.1267 61.1493 14.3675 58.4269 12.3073 55.7991C10.0894 52.9584 9.92909 49.3767 10.0053 45.9159C10.0053 45.4928 8.98045 45.703 8.97257 46.0446C8.90161 49.2952 8.97256 52.7272 10.8541 55.5258C12.5175 58.0091 15.2478 60.8051 18.212 61.6171C19.8439 62.0638 21.5677 61.9377 23.2285 61.7826C25.0957 61.6199 26.9527 61.3567 28.7916 60.9943C31.5272 60.4805 33.995 59.021 35.7632 56.8712C37.7746 54.4241 39.2243 51.5652 40.0097 48.4964C40.8401 45.0645 39.1767 41.5458 37.5028 38.6158C35.9498 35.8986 33.9132 32.9581 30.8334 31.8649C27.9428 30.8374 24.1351 30.8138 21.1735 31.6021C17.9571 32.4614 15.3109 34.6031 13.1377 37.0549C10.8409 39.6459 8.1448 43.0804 9.0041 46.7778C9.08819 47.1325 10.1209 46.8671 10.0342 46.4992V46.5071Z" fill="#980C0C"/>
<path d="M23.0261 28.349C22.9543 27.678 22.8825 27.0079 22.8107 26.3387C22.7791 26.0312 22.4033 24.289 23.1181 24.557C23.5727 24.7252 23.5438 25.9288 23.5701 26.2993C23.6121 26.9037 23.6516 27.5081 23.6936 28.1099C23.7146 28.4436 24.7447 28.2281 24.7237 27.8471C24.637 26.5489 24.9155 23.3798 22.7555 23.8134C22.4542 23.8614 22.1791 24.0127 21.9772 24.2414C21.7754 24.4702 21.6594 24.762 21.6492 25.0668C21.5651 26.2152 21.8725 27.4949 21.9934 28.638C22.0302 28.9797 23.0682 28.7537 23.0261 28.3753V28.349Z" fill="#980C0C"/>
<path d="M22.3114 26.6016C19.9911 25.6556 20.7689 22.5863 22.7634 21.7769C26.0902 20.4288 27.6117 26.7356 24.6633 26.9774C24.1562 27.0194 23.804 27.608 24.5214 27.5502C28.4421 27.227 27.8693 21.1699 24.1903 20.9807C23.4024 20.9732 22.6259 21.1687 21.9355 21.5484C21.2451 21.9281 20.6642 22.4792 20.2486 23.1486C19.4235 24.5913 19.9254 26.4623 21.4994 27.1061C21.8095 27.2323 22.7476 26.7803 22.3219 26.6068L22.3114 26.6016Z" fill="#980C0C"/>
<path d="M2.52648 23.1801C6.97276 23.774 11.4217 23.3456 15.8548 22.8306C20.5717 22.2814 25.2834 21.8688 30.0266 21.6691C32.46 21.5666 34.8907 21.5009 37.3241 21.4562C39.4263 21.4194 41.4603 21.6717 43.5573 21.8005C44.8712 21.8819 46.2981 21.5377 46.8604 20.2238C47.5253 18.6734 46.9498 16.5159 46.779 14.9235C46.5197 12.5286 46.2289 10.1426 45.9065 7.76527C45.7489 6.60903 45.5833 5.45805 45.4099 4.30443C45.2785 3.43463 45.3179 2.10232 44.8633 1.33237C44.5532 0.806806 44.0749 0.735854 43.5047 0.659648C42.3143 0.522129 41.1151 0.476445 39.9177 0.523001C37.7732 0.577405 35.6342 0.767868 33.5137 1.09324C28.944 1.75808 24.4294 2.6857 19.8149 3.01155C14.9733 3.35269 10.1097 3.21097 5.29621 2.58847C4.01646 2.42291 1.71712 1.66085 0.797378 3.05622C0.340138 3.75522 0.534596 4.80109 0.579269 5.57893L0.776355 9.55219C0.904242 12.201 1.03476 14.8499 1.1679 17.4987C1.26513 19.5011 1.21257 21.6743 2.59218 23.2799C2.82606 23.5427 3.81412 23.1801 3.55133 22.8752C2.46867 21.6165 2.33991 19.9846 2.25582 18.3895C2.14282 16.2873 2.04822 14.185 1.94574 12.0828L1.64617 6.00201C1.61726 5.40024 1.21783 3.56076 1.75916 3.07724C2.17436 2.70409 3.24125 2.95374 3.76156 3.02731C4.36245 3.1114 4.9651 3.18936 5.5695 3.26119C13.3216 4.16516 21.0027 3.72106 28.6943 2.42554C32.7201 1.74757 36.7775 1.00389 40.8743 1.09587C41.9727 1.11952 43.5178 0.917174 44.0014 2.10232C44.3693 2.99841 44.3535 4.30706 44.4954 5.25571C44.7897 7.25285 45.0604 9.2535 45.3074 11.2576C45.5544 13.2618 45.7769 15.2686 45.9749 17.278C46.059 18.1478 46.2087 19.0964 45.9749 19.9584C45.5229 21.6244 43.6939 21.1698 42.4299 21.0095C38.5749 20.547 34.5465 20.9017 30.6757 21.062C26.3109 21.2407 21.954 21.5587 17.6154 22.058C12.817 22.6125 7.98972 23.251 3.16242 22.6072C2.83657 22.5625 1.95099 23.0881 2.53174 23.1669L2.52648 23.1801Z" fill="#980C0C"/>
<path d="M0.92882 6.32292C4.38252 6.9931 7.89308 7.32664 11.4112 7.31886C14.9062 7.30309 18.3355 6.84323 21.7885 6.35182C29.196 5.29733 36.669 4.77043 44.1512 4.77513C44.5375 4.77513 45.2444 4.18913 44.5506 4.18913C37.4474 4.17903 30.3513 4.64344 23.31 5.57924C19.7151 6.07327 16.1465 6.6619 12.4912 6.71446C8.82385 6.77322 5.16028 6.45089 1.5595 5.75268C1.23102 5.68698 0.345443 6.19941 0.926191 6.3124L0.92882 6.32292Z" fill="#980C0C"/>
<path d="M2.10872 20.3788C5.71409 20.4628 9.3326 20.6415 12.9353 20.5285C16.5381 20.4155 19.9648 19.6246 23.4992 19.099C30.9412 17.9874 38.5224 17.5775 46.0117 16.8864C46.5189 16.8391 46.871 16.2504 46.1536 16.3161C38.8167 16.9915 31.4037 17.4225 24.1062 18.4604C20.5008 18.986 16.9927 19.8269 13.3321 19.9425C9.7294 20.0582 6.10827 19.8768 2.50553 19.7954C2.11398 19.7954 1.40972 20.363 2.10347 20.3788H2.10872Z" fill="#980C0C"/>
<path d="M21.5204 31.7596L19.7046 36.0719C19.3998 36.7919 19.0967 37.511 18.7954 38.2293C18.5326 38.8626 18.304 39.8402 17.8862 40.3867C17.4683 40.9333 16.4303 40.8466 15.7839 40.9517C15.2347 41.0411 14.6855 41.1462 14.1389 41.2592C12.6442 41.573 11.1685 41.9713 9.71889 42.4522C9.11974 42.6519 9.24062 43.1722 9.85816 42.9778C11.6117 42.3907 13.4049 41.9297 15.2242 41.5982C16.1702 41.43 17.8231 41.5509 18.5746 40.8098C18.9504 40.4446 19.0844 39.8507 19.2815 39.3855C19.6442 38.5201 20.0077 37.6573 20.3721 36.7971L22.5532 31.6177C22.6872 31.2971 21.6623 31.4101 21.5204 31.7491V31.7596Z" fill="#980C0C"/>
<path d="M8.91479 45.3617L15.8128 50.9852C16.023 51.1587 16.4277 51.382 16.5644 51.6159C16.7772 51.9733 16.5933 52.5646 16.5118 52.9298C16.3489 53.6682 16.0756 54.404 15.8601 55.1293L14.5593 59.5335C14.4542 59.8962 15.487 59.7543 15.5921 59.4048C16.0686 57.7913 16.5451 56.1787 17.0216 54.567C17.3107 53.5973 18.2357 51.9838 17.4105 51.1166C16.3594 50.0077 14.9509 49.1011 13.7631 48.134L9.86343 44.9596C9.58226 44.731 8.62573 45.1331 8.90691 45.3617H8.91479Z" fill="#980C0C"/>
<path d="M24.6239 31.5023L26.7524 36.0222C27.1028 36.7773 27.4584 37.5314 27.8193 38.2847C28.0663 38.8103 28.2792 39.5724 28.6549 40.0244C29.3829 40.8968 31.2617 40.8258 32.3024 41.0072L34.536 41.3961C34.8645 41.4539 37.1638 42.0478 37.3084 41.8849L38.0967 41.6221L38.1703 41.672C38.144 41.3356 37.1192 41.5538 37.1402 41.9479V42.0268C37.1402 42.1056 37.2821 42.1608 37.3399 42.1687C37.5192 42.2078 37.7058 42.1971 37.8795 42.1378C38.0532 42.0785 38.2074 41.9729 38.3253 41.8323C38.3494 41.8021 38.3625 41.7645 38.3625 41.7259C38.3625 41.6872 38.3494 41.6497 38.3253 41.6194C38.0993 41.3015 37.7525 41.3015 37.3872 41.2332C36.5699 41.0834 35.7501 40.9467 34.9302 40.8048L32.6965 40.4159C31.9371 40.2819 30.9517 40.274 30.2395 39.9876C29.3855 39.6433 29.0991 38.5738 28.739 37.8091L27.772 35.7542C27.0713 34.2493 26.3609 32.7418 25.6408 31.2317C25.4753 30.8769 24.4662 31.2028 24.6107 31.5102L24.6239 31.5023Z" fill="#980C0C"/>
<path d="M38.1178 43.5878L34.5255 46.3549C33.8291 46.8936 32.2682 47.6452 32.0685 48.6017C31.9634 49.0878 32.3313 49.7369 32.4942 50.1784C32.7272 50.8318 32.955 51.4879 33.1774 52.1466C33.703 53.6839 34.1839 55.229 34.649 56.7821C34.7594 57.1526 35.7002 56.8688 35.6818 56.5193C35.6818 56.2565 35.6634 55.9937 35.6555 55.731C35.6423 55.4077 34.6044 55.6101 34.6227 56.0095C34.6227 56.2723 34.6411 56.5351 34.649 56.7821L35.6818 56.5193C35.3051 55.2597 34.9127 54.0071 34.5045 52.7615C34.31 52.1746 34.1121 51.5895 33.9106 51.0061C33.7004 50.4044 33.2878 49.6686 33.2116 49.0432C33.0671 47.8396 34.8356 46.9409 35.7133 46.2629L38.9455 43.7691C39.408 43.4144 38.3832 43.396 38.1178 43.6009V43.5878Z" fill="#980C0C"/>
<path d="M22.1275 44.2738C23.1286 43.3534 23.947 42.2523 24.5398 41.0284L23.5439 41.1572C23.6735 45.1673 23.8829 49.1729 24.1719 53.1742L24.7579 52.7511C23.7465 52.8293 22.743 52.9884 21.757 53.2268C21.2787 53.3424 21.142 53.8207 21.757 53.7707C23.0998 53.6604 24.4478 53.6998 25.7907 53.6104C26.6684 53.55 27.8193 53.5395 28.5709 53.0323C28.6418 52.985 28.8337 52.8589 28.768 52.7406L28.7207 52.646C28.6471 52.491 28.4264 52.4726 28.2766 52.4989L28.1899 52.5146C27.7011 52.5961 27.3358 53.2058 28.048 53.0849L28.1347 53.0691L27.6906 52.9219C27.6906 52.9535 27.7195 52.985 27.7352 53.0192L27.9323 52.7275C27.144 53.2531 25.3728 53.0691 24.4951 53.0875C23.6174 53.1059 22.7634 53.1295 21.8989 53.1979C21.8989 53.3792 21.8989 53.5605 21.8989 53.7418C22.7943 53.526 23.7056 53.3819 24.6239 53.3109C24.8289 53.2951 25.2283 53.1532 25.2099 52.8878C24.9156 48.8935 24.7054 44.8896 24.5792 40.876C24.5661 40.5291 23.6779 40.8103 23.5833 41.0048C23.0226 42.1706 22.249 43.2214 21.3023 44.103C20.8688 44.5077 21.8805 44.505 22.1301 44.2712L22.1275 44.2738Z" fill="#980C0C"/>
<path d="M20.3274 12.774C23.0665 12.5416 25.7784 12.0578 28.4289 11.3287C28.6654 11.263 29.6009 10.7505 28.9965 10.4825C26.5081 9.38809 23.7773 8.96149 21.0737 9.24481C19.7266 9.38608 18.4024 9.69505 17.1319 10.1645C16.0072 10.5771 14.5251 11.1316 13.7158 12.0671C11.6871 14.4321 17.6575 13.8093 18.5799 13.6753C21.4783 13.2476 24.2455 12.1813 26.6814 10.5535C27.0125 10.3327 27.1781 9.95432 26.6814 9.83344C23.1048 8.96298 19.3615 9.05363 15.8312 10.0962C14.6119 10.4615 12.7461 10.8846 12.0655 12.1091C11.3849 13.3337 12.5595 14.1615 13.5949 14.4742C16.5433 15.3282 20.2696 14.2876 22.8054 12.724C23.5937 12.2405 25.1415 11.1473 23.8565 10.2697C22.7397 9.50759 20.7636 9.8676 19.5285 9.94118C15.3413 10.2541 11.2794 11.5119 7.64813 13.6201C7.4852 13.7121 7.28023 13.8829 7.32228 14.1036C7.58506 15.4176 9.18278 15.5095 10.2576 15.5122C12.1537 15.5029 14.0428 15.2799 15.889 14.8473C17.7351 14.4262 19.5273 13.7968 21.2313 12.9711C22.2562 12.4744 24.4373 11.7123 24.1797 10.2407C24.1298 9.95957 23.6279 9.97797 23.4387 9.99636C18.1618 10.5362 12.9919 11.8429 8.09223 13.875C7.76113 14.0117 7.22768 14.6056 7.90566 14.6949C12.9408 15.3794 18.0593 14.3383 22.427 11.7412C22.8869 11.4785 22.8054 10.9713 22.2273 10.9976C17.8796 11.196 13.628 12.3441 9.77141 14.3612C9.60585 14.4479 9.29314 14.7553 9.50863 14.9524C11.1563 16.4766 13.5634 16.3872 15.663 16.2322C18.3305 16.0203 20.9459 15.3769 23.4072 14.327C23.733 14.1904 24.277 13.5938 23.5964 13.5071C19.009 12.9171 14.3743 12.7859 9.7609 13.1156C8.85167 13.1813 6.36575 13.1419 6.52868 14.6739C6.70211 16.3031 9.49549 16.7604 10.7332 16.8366C10.9776 16.8366 12.3467 16.4293 11.8658 16.0114L7.11205 11.8963C6.76781 11.5967 5.27258 11.8253 5.4539 12.4639C5.98261 14.3888 6.81658 16.2164 7.92405 17.8772C8.20786 18.3029 9.76352 17.8772 9.5822 17.3096C8.81957 14.8205 7.74782 12.4369 6.39203 10.2145C6.12925 9.773 4.81534 10.1961 4.73388 10.6586C4.35054 13.0477 4.68814 15.4969 5.70354 17.6932C5.96632 18.2871 7.43265 17.8535 7.42214 17.2334C7.38545 14.7336 6.61813 12.2992 5.21477 10.2302C4.93622 9.80453 3.60391 10.1829 3.55661 10.6559C3.34149 12.8488 3.3644 15.0586 3.62494 17.2465C3.69589 17.8404 5.35667 17.4121 5.34616 16.7867C5.31066 14.7358 4.8083 12.7201 3.87721 10.8925C3.61443 10.3853 2.2138 10.6665 2.15861 11.2314C1.91273 13.6272 2.15499 16.048 2.87075 18.3476C3.04682 18.9126 4.53942 18.5236 4.58935 18.0086C4.68903 17.1476 4.61078 16.2753 4.35945 15.4459C4.10812 14.6164 3.68907 13.8474 3.12828 13.1865C2.82082 12.8108 1.51217 13.1156 1.47012 13.6306C1.38078 14.7291 1.37027 16.721 2.57118 17.2859C3.40683 17.6827 4.67344 17.2018 4.93622 16.3347C5.12805 15.746 3.40683 15.9694 3.21762 16.5501C3.57764 16.3189 3.6591 16.0614 3.45676 15.7618C3.38427 15.5651 3.32716 15.363 3.28595 15.1574C3.15995 14.5813 3.12537 13.9889 3.18346 13.402L1.52531 13.8487C2.0332 14.4477 2.41374 15.1439 2.64371 15.8948C2.87367 16.6457 2.94824 17.4355 2.86287 18.2162L4.58146 17.8772C3.88146 15.6584 3.63919 13.3206 3.86932 11.0054L2.15073 11.3418C3.08255 13.1728 3.58406 15.1923 3.61705 17.2465L5.33827 16.7867C5.08607 14.68 5.06228 12.5522 5.26732 10.4405L3.60917 10.8846C4.94819 12.8979 5.6731 15.257 5.69566 17.6749L7.41425 17.215C6.4258 15.1012 6.08915 12.741 6.44722 10.4352L4.78906 10.8793C6.09563 13.039 7.12674 15.3537 7.85836 17.7695L9.51651 17.2045C8.46006 15.6083 7.66769 13.8523 7.16987 12.004L5.51171 12.569L10.2576 16.6737L11.3901 15.8511C10.6001 15.815 9.82879 15.5984 9.13548 15.2178C8.86985 15.0739 8.63292 14.8824 8.43648 14.6529C7.9661 14.0931 8.24727 14.1588 8.82802 14.1115C10.3732 13.9819 11.9227 13.9101 13.4766 13.896C16.5053 13.8661 19.5325 14.0417 22.5374 14.4216C22.6004 14.1588 22.6609 13.875 22.7239 13.6017C20.8189 14.4111 18.8072 14.9421 16.7509 15.1784C14.9114 15.386 12.5779 15.6252 11.0985 14.2587C11.0117 14.4558 10.9224 14.6529 10.8357 14.8499C14.1584 13.1238 17.8168 12.141 21.5572 11.9699L21.3601 11.2288C17.6301 13.4489 13.2584 14.3409 8.95678 13.7594C8.89634 14.0222 8.83327 14.306 8.77021 14.5793C13.3783 12.6716 18.2402 11.4473 23.2022 10.945L22.4612 10.698C22.582 11.3865 21.1893 11.9488 20.7426 12.1722C20.2433 12.435 19.7335 12.6505 19.2184 12.8607C18.0656 13.336 16.8744 13.7122 15.6577 13.9854C14.4777 14.2513 13.2781 14.4217 12.0708 14.4952C11.1773 14.5504 9.28001 14.8526 9.04087 13.6411L8.71502 14.1273C11.4009 12.5696 14.3593 11.5385 17.4315 11.0895C18.7664 10.8977 20.6953 10.5035 22.0118 10.9135C23.3283 11.3234 21.749 12.2274 21.1551 12.5296C20.4516 12.9017 19.7074 13.1909 18.9372 13.3915C17.6654 13.7226 15.8627 13.9985 14.5908 13.5045C13.8524 13.2181 13.2296 12.5664 13.9391 11.849C14.4332 11.3497 15.4133 11.15 16.0624 10.9555C19.1777 10.0396 22.4813 9.97426 25.6303 10.7663C25.6303 10.5272 25.6303 10.2854 25.6303 10.0437C23.9711 11.1682 22.1246 11.9878 20.1776 12.4639C19.1476 12.7101 18.0957 12.8536 17.0373 12.8922C16.6957 12.8922 15.5894 13.0604 15.3214 12.8581C14.5751 12.301 16.0939 11.6388 16.3725 11.4995C19.8833 9.7073 24.0641 9.73621 27.6406 11.3155L28.2108 10.4694C25.7133 11.1545 23.1579 11.6076 20.577 11.8227C19.7335 11.8936 19.1475 12.8738 20.3405 12.774H20.3274Z" fill="#980C0C"/>
<path d="M7.02535 11.363C11.9511 11.5729 16.8852 11.4764 21.799 11.074C22.6451 11.0056 23.2285 10.0228 22.0355 10.1227C15.7576 10.622 9.55331 9.02163 3.28071 9.10572C2.6658 9.10572 1.42547 10.0071 2.61324 10.0806C7.91834 10.411 13.2408 10.3399 18.5352 9.86779C18.614 9.55245 18.6902 9.23448 18.7691 8.91652C16.4023 9.28967 14.0373 9.67158 11.674 10.0622C9.83449 10.3697 7.76902 10.551 6.10299 11.4813C2.68682 13.3891 9.59273 17.2625 11.1826 17.9825C11.5452 18.1454 13.1061 17.8406 12.6647 17.2283C10.728 14.5374 7.87414 12.8346 5.05711 11.2001C4.64455 10.961 3.08625 11.5969 3.57239 11.9516C5.16667 13.1266 6.98071 13.9692 8.90687 14.4297C9.20907 14.5033 10.7017 14.1669 10.2208 13.6282C9.25458 12.5469 8.11737 11.6316 6.85454 10.9189L5.48545 11.7519C6.89176 12.3173 8.36202 12.7082 9.8634 12.9161L10.7201 11.97C9.86954 11.9853 9.04298 11.688 8.39707 11.1344L7.08316 11.9385C8.10143 12.0604 9.10961 12.2553 10.0999 12.5219C10.5361 12.6401 11.5005 12.3879 11.4874 11.8255C11.4683 11.0327 11.2369 10.2595 10.8173 9.58661C10.5834 9.18193 9.55594 9.53405 9.32995 9.78107C7.30653 12.0068 13.2112 12.1461 14.2046 12.083C15.0533 12.0357 15.6315 11.0634 14.4384 11.1318C14.152 11.1475 9.97114 10.869 10.7096 10.0622L9.22221 10.2593C9.57858 10.8751 9.76621 11.5739 9.76617 12.2854L11.1537 11.589C10.1628 11.3212 9.15362 11.1262 8.13429 11.0056C7.91092 10.9767 6.24489 11.3473 6.82038 11.794C7.7301 12.5549 8.88533 12.9593 10.071 12.9318C10.4836 12.9318 11.9105 12.1146 10.9329 11.9779C9.53525 11.7931 8.16555 11.4375 6.85454 10.9189C6.40519 10.7402 4.75229 11.3236 5.48545 11.7519C6.66446 12.4285 7.7237 13.2951 8.62044 14.3167L9.93435 13.5126C8.20575 13.0997 6.57704 12.3456 5.14383 11.2947L3.66174 12.0489C6.41044 13.6413 9.15651 15.2969 11.0433 17.9168L12.5254 17.1652C11.1807 16.5667 9.93 15.7762 8.81227 14.8186C8.27766 14.3698 7.78106 13.8776 7.32755 13.347C6.90184 12.8372 6.78359 12.4404 7.3512 11.9175C7.57456 11.7099 8.38919 11.5732 8.7019 11.4997C11.921 10.7507 15.2715 10.3855 18.5352 9.87042C19.3446 9.74428 19.9831 8.81929 18.7691 8.91914C13.6227 9.37135 8.44958 9.43372 3.29385 9.10572C3.06435 9.43858 2.83748 9.76355 2.61324 10.0806C9.03826 9.99392 15.3661 11.5864 21.7963 11.074L22.0328 10.1227C17.2629 10.5084 12.4736 10.5962 7.69282 10.3855C7.03849 10.3566 5.85334 11.3105 7.02272 11.3604L7.02535 11.363Z" fill="#980C0C"/>
<path d="M2.8261 11.2497C2.47463 11.9336 2.31739 12.7007 2.37149 13.4676L4.0822 13.0209C3.68886 11.588 3.3852 10.132 3.17297 8.66133C3.09414 8.09635 1.457 8.48789 1.45438 9.00032L1.43073 12.9867L3.14932 12.6504C2.97413 11.2751 2.78931 9.90166 2.59485 8.52994L0.873629 8.98981C1.20062 10.0973 1.4163 11.2346 1.51744 12.385C1.56737 12.9631 3.24655 12.5584 3.23604 11.9225C3.20188 10.0252 3.12567 8.15679 2.4766 6.35411L1.7303 7.01369C1.42284 6.99792 1.48854 7.03208 1.92739 7.11354L2.51339 7.30275C2.88128 7.43151 3.2413 7.58393 3.59868 7.7416C4.3187 8.05693 5.02033 8.41694 5.72721 8.76119C7.04293 9.4522 8.44563 9.96307 9.89756 10.2801L10.7595 9.32617C8.63972 9.16149 6.52169 8.95477 4.40542 8.706C4.0349 8.66133 3.44364 8.706 3.18874 9.03185C2.99428 9.27887 2.92596 9.58107 3.35166 9.64151C5.59516 9.95549 7.81853 10.3995 10.0106 10.9712L10.4231 10.0751C8.73081 10.5192 6.84141 9.50223 5.13333 9.42077C4.85215 9.42077 3.36218 9.99101 4.11373 10.3247C5.22874 10.8237 6.48946 10.8902 7.65078 10.5113C7.85838 10.4482 8.84643 9.90692 8.21839 9.66516C6.76744 9.10158 5.37508 8.39747 4.06117 7.5629L2.69208 8.39592L3.42261 8.6587C3.85358 8.82163 5.54326 8.3092 4.79171 7.82831L4.17154 7.42888C3.78788 7.1845 2.20856 7.73897 2.68683 8.18044C3.86459 9.25782 4.69748 10.6594 5.08077 12.2089L6.73892 11.6413L4.05592 8.98455C3.71956 8.65082 2.21644 8.93988 2.39776 9.55216C3.09939 11.9855 5.81393 12.3087 7.96086 12.406C8.61519 12.4349 9.78719 11.481 8.63095 11.4311C6.83352 11.3496 4.68922 11.1105 4.11899 9.09229L2.46083 9.65727L5.13333 12.314C5.47494 12.6504 6.95178 12.3639 6.79148 11.7464C6.38188 10.123 5.50471 8.65556 4.26877 7.52611L2.79456 8.29081L3.41473 8.68761L4.78382 7.85722L4.05329 7.59444C3.62233 7.43414 1.93264 7.94919 2.6842 8.42745C3.9981 9.26203 5.39047 9.96613 6.84141 10.5297L7.41164 9.68355C7.09458 9.78748 6.75996 9.82706 6.4274 9.79999C6.09483 9.77291 5.77102 9.67973 5.47494 9.52588L4.45535 10.3931C6.59965 10.4955 8.48117 11.502 10.6517 10.9186C11.0485 10.8161 11.8316 10.2223 11.0643 10.0225C8.87228 9.4502 6.64892 9.00536 4.40542 8.69024L3.35429 9.62574C5.59144 9.90779 7.8391 10.1285 10.0973 10.288C10.5493 10.3195 11.921 9.518 10.9592 9.33405C9.06454 8.97141 7.41164 8.04117 5.70356 7.2318C4.52893 6.67733 2.84975 5.71555 1.5227 6.14914C1.30722 6.22009 0.650264 6.45922 0.779027 6.80872C1.4281 8.6114 1.50431 10.4877 1.53847 12.3797L3.25706 11.9172C3.15552 10.768 2.94075 9.63166 2.61587 8.52468C2.43981 7.92554 0.813189 8.36702 0.894652 8.98455C1.0821 10.3598 1.2678 11.7333 1.45175 13.105C1.52796 13.6673 3.16772 13.2784 3.17034 12.766L3.19399 8.77958L1.45438 9.10806C1.66893 10.5789 1.97523 12.035 2.37149 13.4676C2.53967 14.072 4.12424 13.6148 4.0822 13.0209C4.03269 12.4268 4.15009 11.8306 4.42119 11.2997C4.77857 10.5639 3.06523 10.7557 2.81822 11.2629L2.8261 11.2497Z" fill="#980C0C"/>
<path d="M9.52709 9.58122L15.6131 8.79288C17.2844 8.5774 19.907 7.72072 21.3943 8.7482L22.4139 7.84686L12.6542 8.34615L12.4335 9.26588C18.2147 7.34495 24.4873 8.59053 30.2238 6.42521C31.2066 6.05469 30.5365 5.48182 29.7692 5.63686C25.5647 6.5128 21.3978 7.51751 17.2686 8.65097C16.8929 8.75346 16.0704 9.36837 16.8561 9.54706C19.9411 10.2487 23.0393 9.72575 26.0771 9.0504C29.5721 8.26206 33.0645 7.45269 36.5279 6.53821L36.0707 5.74986C30.5332 8.06156 24.6923 9.56602 18.7271 10.2172C18.6482 10.5325 18.572 10.8505 18.4932 11.1684L39.253 8.33301L39.0323 7.50262C34.3547 9.74677 28.8521 8.65623 24.0983 10.7637C23.7278 10.9267 23.268 11.4286 23.9118 11.5836C29.2787 12.8638 34.8814 12.7734 40.2043 11.3208C41.237 11.0423 41.0136 10.225 39.973 10.4615C34.3788 11.7416 28.7235 12.7389 23.0288 13.4494C22.4691 13.5203 21.4732 14.4138 22.5768 14.4138C28.1373 14.4138 33.5716 13.2602 38.9771 12.0724C40.0282 11.8411 39.7838 10.9924 38.7458 11.2131C34.084 12.1932 29.2812 12.3037 24.5792 11.5389L23.9354 12.4797C28.2941 11.8333 32.6659 11.2867 37.0509 10.8399C37.0509 10.5377 37.0509 10.2355 37.0509 9.93335C34.4852 10.7491 31.7725 10.9957 29.1017 10.656C29.0387 10.9188 28.9756 11.2026 28.9151 11.4759C31.3301 10.3748 33.795 9.258 36.5043 9.33158L36.9563 8.36717L29.3592 8.78237C28.747 8.81653 27.8377 9.63378 28.9073 9.74677L38.6433 10.7637C38.5776 10.5167 38.5119 10.2697 38.4436 10.0227C31.7716 13.9644 23.6621 13.1183 16.2385 13.6754C16.1623 13.9933 16.0835 14.3087 16.0047 14.6266C21.8139 13.8908 27.6266 13.1761 33.4429 12.4823C33.4429 12.1801 33.4429 11.8779 33.4429 11.5757C27.0858 13.5215 20.4492 14.3954 13.8052 14.1615C13.6554 14.4821 13.5056 14.8027 13.3532 15.1233C19.1144 14.3633 24.7905 13.0585 30.3053 11.2262C30.7835 11.0659 31.5141 10.2802 30.5234 10.3091C25.3637 10.4618 20.2188 10.9393 15.1191 11.7387C14.5935 11.8254 13.5424 12.7372 14.6671 12.7031C19.949 12.5375 25.5384 12.2353 30.0215 9.1161C30.4472 8.81915 30.4288 8.35666 29.8244 8.37242C24.3363 8.52133 18.9068 9.5423 13.7395 11.397C13.5345 11.468 12.8749 11.983 13.3952 12.1644C20.7531 14.737 27.772 10.3538 35.0669 9.87554C35.3796 9.85451 36.3019 9.51815 35.984 9.06354C35.1299 7.83635 33.774 6.99808 32.3261 7.87051C30.8177 8.78236 31.5955 10.3958 32.6099 11.3208L33.0671 10.6297C25.6631 13.3496 17.8575 14.8159 9.97119 14.9683C9.57702 14.9683 8.10544 15.6962 9.10926 15.9248C16.5092 17.6013 24.0642 16.3268 31.3748 14.8106C31.2986 14.5242 31.2197 14.2377 31.1435 13.9513C24.2603 15.6293 17.2513 16.741 10.1867 17.2755C9.58227 17.3202 8.65991 18.1243 9.73469 18.2373C16.1423 18.9049 22.6161 18.003 28.5972 15.6094C29.3435 15.3125 29.1595 14.6792 28.3738 14.779C23.3231 15.4272 18.2891 16.1937 13.2717 17.0784C12.7462 17.173 11.695 18.0008 12.8197 18.0428C17.8363 18.2215 22.6793 16.9076 27.4593 15.5464C28.224 15.3283 28.5105 14.5268 27.4593 14.6398L24.5687 14.9499C23.7305 15.0392 23.1392 16.0299 24.3349 15.9011L27.2255 15.591C27.2255 15.2888 27.2255 14.9866 27.2255 14.6844C22.7345 15.9668 18.1963 17.2361 13.4846 17.0679L13.0326 18.0297C18.0482 17.1537 23.0823 16.3873 28.1347 15.7303C28.0611 15.4675 27.9849 15.1785 27.9113 14.9026C22.3529 17.1019 16.3422 17.9137 10.3995 17.2676C10.2471 17.5882 10.0973 17.9114 9.94754 18.232C17.1695 17.6799 24.3341 16.5373 31.3695 14.8158C32.4207 14.5531 32.1763 13.7411 31.1383 13.9565C24.2481 15.3861 17.132 16.5844 10.1578 14.9945L9.29584 15.9484C17.6417 15.7839 25.9015 14.227 33.7346 11.3419C33.9238 11.2735 34.4782 10.9135 34.1918 10.6534C33.7398 10.2382 33.0303 9.60224 33.1985 8.90587C33.3772 8.15957 34.1734 9.45246 34.3731 9.74152L35.2902 8.92952C28.521 9.36837 21.5835 13.7095 14.7748 11.334L14.428 12.1039C19.1633 10.41 24.1374 9.4778 29.1648 9.34209C29.0991 9.09508 29.0334 8.84806 28.9651 8.60104C24.9839 11.3708 20.0305 11.5757 15.3451 11.7229L14.8931 12.6873C19.8511 11.9014 24.854 11.4309 29.8717 11.2788C29.9426 10.974 30.0162 10.6665 30.0898 10.3617C24.7274 12.1474 19.208 13.4214 13.6055 14.1668C13.0484 14.2403 12.0419 15.0918 13.1535 15.1312C20.0992 15.3723 27.0367 14.4567 33.682 12.4219C34.4283 12.1959 34.7331 11.3918 33.682 11.5179C27.8675 12.2187 22.0548 12.9334 16.2438 13.6622C15.416 13.7673 14.8064 14.7134 16.0099 14.6135C23.9722 14.0144 32.3628 14.7449 39.5158 10.5194C40.0413 10.2119 39.8442 9.83086 39.3187 9.77568L29.5721 8.76397C29.4223 9.08456 29.2725 9.40516 29.1201 9.72575L36.7171 9.31056C37.3163 9.27902 38.2492 8.37768 37.1691 8.34877C33.9868 8.26206 31.0778 9.4656 28.2345 10.7611C27.9218 10.903 27.3595 11.4916 28.048 11.581C31.1477 11.99 34.2992 11.7211 37.2848 10.7926C38.0311 10.5588 38.3359 9.77831 37.2848 9.88605C32.9051 10.3293 28.5341 10.8759 24.1719 11.5258C23.8356 11.5757 22.5952 12.3142 23.5255 12.4692C28.6564 13.2924 33.8955 13.157 38.9771 12.0698C38.8982 11.7833 38.822 11.4969 38.7458 11.2105C33.64 12.3325 28.4973 13.4336 23.2417 13.4362C23.0919 13.7568 22.9395 14.0774 22.7897 14.4006C28.6459 13.6722 34.4617 12.6487 40.2148 11.334C40.1386 11.0475 40.0597 10.7611 39.9835 10.4747C35.0728 11.7988 29.9072 11.8621 24.9655 10.6586C24.9051 10.9214 24.842 11.2052 24.779 11.4785C29.509 9.37625 34.9933 10.4826 39.7129 8.21738C40.4092 7.88365 40.3146 7.27662 39.4921 7.38962L18.7323 10.225C17.9098 10.3354 17.2976 11.3077 18.4985 11.1763C24.7791 10.487 30.9285 8.90124 36.7592 6.46725C37.6999 6.07571 37.1008 5.47394 36.3046 5.67891C33.2721 6.46726 30.2185 7.18991 27.1624 7.89153C24.1062 8.59316 21.0291 9.32107 17.9177 8.61418C17.7811 8.91376 17.6549 9.2107 17.5051 9.51027C21.6378 8.3698 25.8047 7.36509 30.0057 6.49616L29.5511 5.70781C24.0064 7.81007 17.8336 6.52507 12.2075 8.39345C11.7371 8.55112 10.996 9.36311 11.9894 9.31056L21.7465 8.81653C22.0644 8.79813 23.4572 8.39082 22.766 7.91256C21.1894 6.82464 19.0004 7.42641 17.2476 7.64977L9.75834 8.61944C8.92794 8.72718 8.3288 9.72575 9.52183 9.57071L9.52709 9.58122Z" fill="#980C0C"/>
<path d="M4.02699 18.9596L7.11205 19.3669C7.58768 19.4299 9.18277 18.752 8.16317 18.434C6.59244 17.9426 4.9936 17.5459 3.37529 17.2462L2.50548 18.2028L4.18728 18.166C4.47634 18.166 5.93478 17.6877 5.20688 17.262C4.63927 16.9309 3.87457 17.0544 3.32536 17.3934C2.52387 17.8927 2.56592 18.6653 2.84972 19.4799L4.56832 19.02C4.21794 18.1143 3.87282 17.2068 3.53296 16.2976C3.31222 15.7142 1.7145 16.1399 1.81436 16.7575L2.177 18.9701C2.2716 19.5587 3.95604 19.1409 3.8956 18.5076C3.81069 17.6081 3.60474 16.7242 3.28331 15.8798C3.07309 15.3227 1.63567 15.6932 1.56209 16.2161C1.43333 17.1516 1.17055 18.4682 1.4307 19.3984C1.62253 20.0922 2.31365 20.0554 2.93381 20.0527C5.50908 20.0396 8.06595 19.5062 10.636 19.8951C11.1615 19.9739 12.6857 19.1724 11.6871 18.9622C9.67618 18.5384 7.73159 17.8454 5.90588 16.902L4.88891 17.806C8.67122 17.806 12.4518 17.7297 16.2306 17.5773C16.3804 17.2567 16.5302 16.9361 16.6826 16.6156C13.717 17.1561 10.6829 17.2076 7.70068 16.768L6.83875 17.7219L18.0122 17.7008C18.0832 17.3934 18.1568 17.0886 18.2304 16.7837C14.9024 17.4744 11.4833 17.612 8.11062 17.191L7.4668 18.1344L16.4329 16.5026C16.9585 16.408 18.0096 15.4987 16.8849 15.5408C13.6711 15.659 10.4599 15.7641 7.25132 15.5119C7.10153 15.8351 6.95175 16.1557 6.79934 16.4763L17.3947 15.5434C18.2382 15.4672 18.8242 14.4923 17.6286 14.5921L7.03584 15.525C6.44458 15.5776 5.49594 16.4027 6.58385 16.4868C9.79242 16.7496 13.0036 16.6339 16.2148 16.5157L16.6668 15.5513L7.71645 17.1832C7.40899 17.2383 6.11347 18.0057 7.07263 18.1265C10.8748 18.5972 14.7287 18.4338 18.4774 17.643C19.0397 17.5248 19.631 16.7233 18.6955 16.7259L7.52199 16.7469C7.10942 16.7469 5.68251 17.5537 6.66269 17.7008C9.91459 18.1899 13.2245 18.1446 16.4618 17.5668C16.7246 17.5195 17.3474 17.3802 17.4105 17.0413C17.4735 16.7023 17.2397 16.584 16.9138 16.5972C13.135 16.7548 9.35445 16.831 5.57214 16.8258C5.30936 16.8258 3.80625 17.3513 4.55518 17.7271C6.48069 18.7193 8.53142 19.4468 10.6517 19.8898L11.7028 18.9569C9.81082 18.6705 7.93981 18.7861 6.0399 18.9307C5.45389 18.978 3.53558 19.3669 3.17294 19.0305C3.02579 18.8912 3.13616 17.7166 3.13878 17.6851C3.1611 17.1194 3.21373 16.5554 3.29645 15.9954L1.57523 16.3344C1.89727 17.1787 2.10411 18.0626 2.19014 18.9622L3.90873 18.4997L3.54609 16.2897L1.8275 16.7496C2.17788 17.6588 2.523 18.5663 2.86286 19.472C3.08623 20.0659 4.77854 19.5824 4.58146 19.0121C4.54851 18.8085 4.46412 18.6167 4.33627 18.4548C4.20843 18.2929 4.04137 18.1664 3.85092 18.0871L4.87052 17.191L3.18871 17.2278C2.79454 17.2278 1.32296 17.9952 2.32679 18.1817C3.94591 18.4805 5.54563 18.8763 7.1173 19.3669L8.16843 18.434L5.08074 18.0136C4.71285 17.9663 4.11896 18.0136 3.86406 18.3394C3.67223 18.5838 3.60128 18.8912 4.02699 18.9491V18.9596Z" fill="#980C0C"/>
<path d="M21.8594 17.6354C24.6975 16.6533 27.6004 15.8692 30.547 15.2888C31.3353 15.1311 31.5666 14.2061 30.547 14.3848L18.9136 16.4109C18.6325 16.4608 17.965 16.6185 17.9361 16.9943C17.9072 17.37 18.4117 17.4095 18.6771 17.3622C25.1048 16.2506 31.5429 15.1233 37.7945 13.2391C38.5435 13.0157 38.8457 12.209 37.7945 12.3351C33.3717 12.8613 28.9134 13.0283 24.4636 12.8344C24.0037 12.816 22.6504 13.6779 23.6017 13.7883C29.6824 14.5031 35.779 14.151 41.8703 13.7647C41.8703 13.4625 41.8703 13.1629 41.8703 12.8607C35.6161 14.4847 29.1122 13.8829 22.7581 13.2838L22.088 14.2587C26.7336 14.4225 31.3847 14.1842 35.9892 13.5466C36.0654 13.2286 36.1443 12.9133 36.2231 12.5953C30.4223 13.6016 24.5739 14.3112 18.7008 14.7212C18.1043 14.7606 17.1661 15.612 18.2488 15.683C22.8239 15.9767 27.414 15.4307 31.7926 14.0721C32.2998 13.9145 32.9882 13.155 32.0133 13.155L16.9349 13.134C16.5801 13.134 15.4686 13.4152 15.8023 13.9591C16.5539 15.1837 18.7954 15.273 20.0462 15.4754C21.8242 15.7664 23.6213 15.9254 25.4228 15.951C29.1989 15.9972 32.9605 15.4737 36.5805 14.398C37.0903 14.2482 37.7709 13.4704 36.7986 13.4809L27.7983 13.5781C26.2374 13.5939 23.1681 13.0709 22.2116 14.7711C22.1196 14.934 22.1248 15.1259 22.3272 15.2047C27.3564 17.1532 32.9297 17.1663 37.968 15.2415C38.1151 15.1863 38.6144 14.9051 38.4935 14.6581L35.2613 8.38026C34.9722 7.82054 33.3088 8.29355 33.5427 8.84276L36.273 15.2993C36.5358 15.8879 38.0389 15.4622 37.9942 14.8394C37.798 12.1976 37.6027 9.55665 37.4082 6.91657L36.0207 7.61557C36.6146 7.72856 36.9562 10.5482 37.0719 11.0317C37.382 12.2878 37.6903 13.5448 37.9969 14.8027C38.1388 15.3729 39.6839 14.9708 39.7181 14.4637C39.8685 12.1305 39.8095 9.78848 39.542 7.46578L37.8234 7.92565C38.5122 9.74808 38.9197 11.6646 39.0322 13.6096C39.0638 14.172 40.764 13.7962 40.7508 13.1498L40.6562 8.3172L38.9376 8.77706C39.7819 10.4683 40.2379 12.3267 40.2726 14.2167L41.9912 13.7568C41.8545 11.4986 41.717 9.24219 41.5786 6.98752L39.86 7.45002C40.4885 9.30131 40.9055 11.2178 41.103 13.1629C41.1608 13.741 42.8478 13.3416 42.8215 12.703L42.5772 6.90606L40.8717 7.36593C42.049 9.66264 42.2855 12.2037 42.472 14.7396L44.1933 14.2797C43.9434 12.1178 43.8459 9.94096 43.9016 7.76535L42.1856 8.11223C42.7686 10.11 43.1428 12.1627 43.3024 14.2377C43.3445 14.7869 45.0184 14.419 45.021 13.8987C45.0362 11.7594 44.8966 9.62174 44.6032 7.50257L42.8846 7.96244C43.2192 10.1032 43.5538 12.2458 43.8884 14.3901L45.6018 13.9381C45.2864 12.0391 44.9702 10.14 44.6531 8.24099L42.9345 8.70086L44.2485 15.344C44.3667 15.9458 46.0143 15.5043 45.9697 14.8841C45.8199 12.8742 45.4074 10.8926 44.7425 8.98992L43.0239 9.44979C43.5008 10.535 43.8074 11.6873 43.9331 12.866L45.6543 12.4035C45.4251 10.4283 44.9891 8.48269 44.3536 6.5986C44.1512 5.99946 42.4405 6.48823 42.6323 7.0611C43.2742 8.9442 43.7146 10.89 43.9463 12.866C44.0146 13.4362 45.7358 13.0525 45.6675 12.4035C45.5428 11.2243 45.2351 10.0718 44.7556 8.98729C44.4928 8.4118 42.8373 8.87429 43.037 9.44716C43.7023 11.3496 44.114 13.3314 44.2616 15.3414L45.9828 14.8815C45.5431 12.6654 45.1051 10.451 44.6689 8.23836C44.5533 7.64973 42.8452 8.07018 42.9503 8.69823C43.2656 10.599 43.5819 12.4989 43.899 14.398C43.9962 14.9787 45.7174 14.5714 45.6175 13.9355C45.2777 11.7964 44.9396 9.65213 44.6032 7.50257C44.5139 6.92182 42.7953 7.32388 42.8846 7.96244C43.1686 9.99706 43.3074 12.0493 43.2998 14.1037L45.0184 13.7647C44.8599 11.6896 44.4856 9.6367 43.9016 7.63922C43.7387 7.08212 42.1961 7.46053 42.183 7.97821C42.1128 10.2319 42.2006 12.4877 42.4458 14.7291C42.5115 15.3046 44.2143 14.913 44.167 14.2692C43.9778 11.7334 43.7439 9.19226 42.564 6.89555C42.2723 6.32531 40.8191 6.71948 40.8454 7.35541L41.0898 13.1524L42.8084 12.6925C42.615 10.7471 42.2024 8.8298 41.5786 6.97701C41.3736 6.36998 39.8232 6.82722 39.86 7.4395C39.9966 9.69417 40.1342 11.9497 40.2726 14.2061C40.3067 14.7685 42.0043 14.3927 41.9912 13.7463C41.9578 11.8562 41.5016 9.99751 40.6562 8.30668C40.3672 7.72331 38.9245 8.13588 38.9376 8.76655L39.0322 13.6096L40.7508 13.1498C40.6381 11.2065 40.2305 9.29173 39.542 7.47104C39.3213 6.87978 37.7525 7.31074 37.8234 7.93091C38.0843 10.1722 38.1433 12.4325 37.9995 14.6844L39.7181 14.3349L38.5198 9.45504C38.2807 8.48275 38.257 6.89554 37.0692 6.6643C36.6488 6.58546 35.6397 6.77992 35.6818 7.3633C35.8797 10.0016 36.0751 12.6417 36.2678 15.2835L37.9811 14.8342C37.0684 12.6811 36.1574 10.5281 35.2482 8.37501L33.5296 8.8375L36.767 15.1233L37.2926 14.5399C32.897 16.1626 28.0569 16.1046 23.7015 14.377C23.7409 14.5215 23.7777 14.666 23.8172 14.8105C24.0983 14.3086 26.085 14.5662 26.6631 14.5478L29.7403 14.5136L36.1416 14.4505C36.2152 14.1431 36.2862 13.8382 36.3597 13.5334C33.1723 14.4861 29.8637 14.972 26.5369 14.9761C24.8657 14.9752 23.1969 14.8505 21.5441 14.6029C20.38 14.4269 18.0911 14.3822 17.4158 13.289L16.2832 14.1115L31.359 14.1326L31.5797 13.2155C27.4908 14.4832 23.2036 14.9883 18.932 14.7054C18.7822 15.026 18.6325 15.3492 18.48 15.6698C24.3488 15.2603 30.1927 14.5516 35.9892 13.5466C36.7933 13.4073 37.4293 12.4271 36.2231 12.5953C31.7631 13.2132 27.2579 13.4436 22.7581 13.2838C22.117 13.2628 20.9187 14.1483 22.088 14.2587C28.7653 14.8867 35.5346 15.4228 42.1042 13.7174C42.8925 13.5098 43.129 12.7477 42.1042 12.8108C36.2967 13.1813 30.455 13.5334 24.6554 12.8528L23.7909 13.8093C28.3857 14.0063 32.989 13.8306 37.5554 13.2838C37.5554 12.9816 37.5554 12.6794 37.5554 12.3772C31.4536 14.2167 25.1784 15.323 18.8979 16.4083L18.6614 17.3595L30.2974 15.3335C30.2974 15.0313 30.2974 14.7291 30.2974 14.4269C27.1967 15.0474 24.1428 15.8824 21.1578 16.9259C20.895 17.0153 20.4903 17.3122 20.7006 17.6144C20.9108 17.9166 21.5835 17.7195 21.8384 17.6328L21.8594 17.6354Z" fill="#980C0C"/>
<path d="M32.7255 14.3636C33.7728 14.9263 34.9544 15.1908 36.1416 15.1283C36.0759 14.8655 36.0076 14.6316 35.9419 14.3846C35.0301 14.9443 33.2431 14.7315 32.2025 14.8024L28.5472 15.0652C27.9507 15.1072 27.0152 16.0401 28.0952 16.027L37.3767 15.9166L37.8287 14.9522C34.779 15.2418 31.7566 15.769 28.789 16.5289C28.4132 16.6261 27.5933 17.2568 28.3791 17.425C32.0948 18.2133 35.8421 17.559 39.4159 16.4632C39.9651 16.2977 40.5826 15.6223 39.6366 15.5461C37.863 15.4068 36.0811 15.4068 34.3074 15.5461C34.0446 15.5671 32.828 16.1584 33.5059 16.4369C34.9066 17.0177 36.6278 16.4685 38.0599 16.253C39.987 15.9622 41.9141 15.6521 43.8411 15.3227C44.1565 15.2675 45.4415 14.4871 44.485 14.3793C42.4756 14.1498 40.4732 13.8652 38.4778 13.5253L37.8313 14.4661C39.826 14.1024 41.8779 14.2068 43.8254 14.7709C44.0409 14.4556 44.2563 14.1428 44.4692 13.8275C43.2942 13.9827 42.0998 13.8932 40.9611 13.5647L40.3172 14.5055C41.312 14.3041 42.3461 14.4634 43.2341 14.9548C43.3471 14.6921 43.4627 14.4293 43.5784 14.1849C41.7126 14.834 39.5499 14.8839 37.6027 15.144L31.5797 15.956C31.317 15.9928 30.1029 16.5289 30.7783 16.8469C32.0938 17.4638 33.5086 17.8419 34.9565 17.9637C35.6161 18.0241 36.7802 17.0965 35.624 16.9888C34.4168 16.8723 33.2398 16.5431 32.1473 16.0165L31.3459 16.9073L38.2938 15.9718C40.291 15.709 42.3433 15.5566 44.2563 14.8918C44.5191 14.7972 45.0631 14.3662 44.6006 14.1218C43.3529 13.4682 41.9181 13.265 40.538 13.5463C40.178 13.6146 38.9744 14.2322 39.8942 14.4897C41.3021 14.8798 42.7751 14.9773 44.2222 14.7761C44.6111 14.7262 45.7647 14.0877 44.866 13.8354C42.6501 13.2088 40.32 13.0982 38.0547 13.5122C37.7341 13.57 36.457 14.3005 37.4109 14.4555C39.4045 14.8059 41.4078 15.0906 43.4207 15.3096L44.0645 14.3688C42.6034 14.6194 41.1406 14.8585 39.676 15.0862L37.5922 15.4042C36.8196 15.5172 35.6082 15.9087 34.8671 15.6039L34.0657 16.4947C35.6941 16.366 37.3302 16.366 38.9587 16.4947L39.1794 15.5776C35.9945 16.5499 32.7202 17.178 29.4144 16.4658C29.2778 16.7654 29.1385 17.0623 29.0018 17.3619C31.8168 16.6547 34.6829 16.1697 37.5738 15.9114C38.1545 15.8562 39.1137 14.9338 38.0258 14.947L28.7443 15.0573C28.5945 15.3805 28.4421 15.7011 28.2923 16.0217L33.3194 15.6486C34.5991 15.5592 35.8683 15.5724 36.9983 14.8839C37.4529 14.6053 37.3846 14.1166 36.7986 14.1428C35.8547 14.1959 34.9152 13.9799 34.0893 13.52C33.5953 13.2573 32.0133 13.9747 32.7202 14.3531L32.7255 14.3636Z" fill="#980C0C"/>
<path d="M37.2479 15.5831C39.5353 16.3434 41.8955 16.8639 44.2905 17.1361C44.661 17.1782 45.2522 17.1361 45.5071 16.8103C45.7147 16.5475 45.7515 16.2847 45.3442 16.2032C43.3564 15.7993 41.3268 15.6387 39.3002 15.725C38.9796 15.725 38.3017 15.8301 38.165 16.1927C38.0284 16.5554 38.2754 16.6999 38.6328 16.6999L43.8569 16.6762L44.3089 15.7118C42.3616 15.8301 40.4171 15.9877 38.4804 16.2006C37.1664 16.3425 35.6055 16.2847 34.7042 17.3831C34.5097 17.6223 34.7646 17.8167 34.9801 17.8693C36.6908 18.2818 38.4199 18.0979 40.1411 17.8404C42.0358 17.5566 43.7176 16.5002 45.6596 16.6841C46.0353 16.7183 47.1022 16.3898 46.7921 15.859C46.2267 14.9018 45.4434 14.0915 44.5059 13.4939C44.2011 13.2942 42.6875 13.6306 42.9608 14.1404C43.2919 14.7606 43.6256 15.3781 43.9567 15.9956L45.1498 15.2782C43.9147 15.2546 42.6849 15.1863 41.4524 15.068C41.208 15.0444 39.8311 15.5042 40.3198 15.8931C41.1186 16.5456 42.0902 16.951 43.1158 17.0599L43.9778 16.106C42.1383 16.0613 40.4065 16.1244 38.6643 16.7446C38.1151 16.9416 37.9338 17.575 38.6643 17.5855L45.8593 17.6932C46.1457 17.6932 47.0313 17.5277 47.0523 17.0967C47.1107 16.806 47.069 16.5041 46.9341 16.24C46.7054 15.6409 45.0026 16.148 45.2155 16.6999L45.3337 17.3122L46.5267 16.7183L39.3344 16.6105C39.3344 16.8917 39.3344 17.1703 39.3344 17.4514C40.6063 16.9968 41.9622 17.0494 43.2971 17.0809C43.7439 17.0809 45.1182 16.2321 44.1591 16.127C43.34 16.0485 42.5622 15.7304 41.9228 15.2125L40.7902 16.0377C42.02 16.1559 43.2498 16.2243 44.4875 16.2479C44.7109 16.2479 45.9276 15.9851 45.6806 15.5305C45.3495 14.913 45.0184 14.2928 44.6846 13.6753L43.1447 14.3348C43.9952 14.899 44.7003 15.6563 45.2023 16.5448L46.3375 15.7223C44.7608 15.5726 43.4338 15.9615 41.9727 16.5107C40.2173 17.1676 37.8602 17.3884 36.0391 16.9469L36.3019 17.433C36.5331 17.1466 37.6447 17.2307 38.0152 17.1887C38.688 17.1151 39.358 17.0468 40.0308 16.9837C41.3745 16.8576 42.7199 16.7559 44.0671 16.6789C44.6662 16.6421 45.5965 15.7092 44.5191 15.7145L39.295 15.7381C39.0716 16.0613 38.8509 16.3872 38.6275 16.713C40.5215 16.6292 42.4187 16.7757 44.2773 17.1492L45.3285 16.2164C43.0417 15.967 40.7871 15.4799 38.6012 14.7632C38.3992 14.6981 38.1853 14.6787 37.9749 14.7064C37.7644 14.7341 37.5628 14.8083 37.3846 14.9235C37.2085 15.0496 36.8169 15.449 37.2321 15.5962L37.2479 15.5831Z" fill="#980C0C"/>
<path d="M12.8959 17.7218C15.702 17.8918 18.5167 17.8593 21.3181 17.6246C21.5126 17.6062 22.6819 17.1805 22.2326 16.8126C20.5009 15.3857 17.9046 15.8114 15.8444 16.0689C13.1499 16.4174 10.5074 17.0897 7.97403 18.0713C7.6403 18.2001 7.11474 18.8124 7.78746 18.8912C10.7786 19.2539 13.8095 19.1117 16.7536 18.4707C17.1188 18.3919 17.9624 17.6824 17.1635 17.5747C14.2098 17.1489 11.2055 17.2227 8.27623 17.7928C7.90571 17.8664 6.72057 18.4602 7.63242 18.7362C10.3667 19.5541 13.2513 19.7392 16.0677 19.2775C16.5933 19.1908 17.6444 18.2921 16.5197 18.3131C13.092 18.377 9.67432 18.7065 6.29749 19.2985C5.94273 19.359 4.72079 20.0028 5.65367 20.2393C7.31403 20.6579 9.03058 20.8087 10.7385 20.686C11.3376 20.6466 12.2653 19.7032 11.1905 19.7216L6.66275 19.8083L6.21077 20.7701C13.1036 20.2633 19.8464 18.5046 26.1086 15.5801C26.6027 15.3515 26.8812 14.7445 26.1086 14.7392C21.9423 14.7229 17.8338 15.7147 14.1336 17.6298C13.7789 17.8112 13.6501 18.2658 14.1336 18.3525C16.7039 18.8111 19.342 18.7216 21.8752 18.0897C22.4507 17.9478 23.0183 17.2409 22.0933 17.1726C19.0661 16.9414 16.0493 17.4932 13.051 17.8953L3.59083 19.1671C3.22819 19.2171 2.01414 19.9029 2.94702 20.1105C6.17678 20.841 9.49233 21.1196 12.7987 20.9383C16.2543 20.7412 19.7046 20.1342 23.1339 19.6795L33.8843 18.2526L39.0322 17.5536C40.2279 17.3933 41.4104 17.3171 42.2434 16.3554C42.2746 16.3228 42.2968 16.2827 42.308 16.2391C42.3192 16.1954 42.319 16.1496 42.3074 16.1061C42.2957 16.0626 42.2731 16.0227 42.2417 15.9904C42.2103 15.9582 42.171 15.9345 42.1278 15.9218C39.276 14.9504 36.2433 14.6281 33.251 14.9784C32.4154 15.073 31.8215 16.0663 33.0145 15.9296L38.3595 15.32C38.2859 15.0572 38.2124 14.7681 38.1362 14.4896C34.3626 16.1083 30.0477 15.0467 26.0902 15.7799C25.541 15.8823 24.5135 16.6313 25.6382 16.7443L31.1304 17.2961C31.2802 16.9729 31.4326 16.6523 31.5824 16.3317C28.7443 16.4841 25.9037 16.5078 23.063 16.4211C22.9132 16.7416 22.7634 17.0649 22.611 17.3855C25.064 17.1506 27.4956 16.7298 29.8848 16.1267L29.6562 15.2674L21.1447 17.5747C20.6191 17.7192 19.9648 18.5023 20.9239 18.4918C23.016 18.4823 25.0948 18.1599 27.0914 17.5352C27.8193 17.3066 28.1426 16.4263 27.0914 16.6286C24.4524 17.1327 21.9039 18.0301 19.5312 19.2906C19.024 19.5534 19.1869 20.029 19.7309 20.0317C22.3412 20.0625 24.9019 19.3181 27.0888 17.8926C27.7168 17.4853 27.2491 17.1043 26.6736 17.1621C22.9595 17.515 19.3104 18.3698 15.826 19.7032C15.4817 19.8346 14.9719 20.4311 15.6394 20.5231C17.7718 20.8377 19.9465 20.3841 21.7753 19.2433C22.3876 18.8623 21.9462 18.4077 21.3575 18.5102L12.7278 20.0474C11.9394 20.1893 11.2746 21.117 12.4939 20.9987C14.3666 20.8155 16.2244 20.5038 18.0544 20.0658C18.4065 19.9817 19.271 19.2775 18.4669 19.1671L15.6604 18.8019L14.7985 19.7584C16.2872 19.7077 17.7675 19.5123 19.2185 19.175C19.4445 19.1224 20.4036 18.5627 19.7887 18.3288C18.6229 17.8796 17.392 17.6222 16.1439 17.5668C15.9915 17.8874 15.8417 18.208 15.6919 18.5286C20.282 17.9638 24.8252 17.0671 29.2857 15.8456C29.6509 15.7457 30.4918 15.1071 29.6982 14.9495C28.1544 14.6369 26.5495 14.9055 25.1915 15.7037C24.6659 16.0006 24.8735 16.3948 25.3912 16.4447C27.0923 16.6199 28.796 16.7215 30.5023 16.7495C30.7783 16.7495 32.2709 16.224 31.5219 15.8456C30.0398 15.1203 27.278 14.7235 26.0902 16.2371C24.7001 18.0056 29.0702 18.0766 29.8506 18.0398C30.2606 18.0398 31.6901 17.3986 30.7126 17.0859C29.6858 16.7712 28.6076 16.6596 27.5382 16.7574C27.1597 16.7863 25.9799 17.5615 26.8943 17.7008C28.2004 17.9006 29.5327 17.8453 30.8177 17.5379C31.2013 17.4485 32.0107 16.8021 31.2302 16.6418L29.3093 16.2424C29.17 16.5419 29.0334 16.8389 28.8967 17.1384C33.2665 16.2562 37.583 15.1279 41.8256 13.7591C42.8268 13.4358 42.614 12.5687 41.5944 12.8998C37.3518 14.2686 33.0353 15.3969 28.6655 16.2791C28.2739 16.358 27.4803 17.0149 28.2556 17.1752L30.1844 17.5747L30.5943 16.6786C29.732 16.8754 28.8399 16.9048 27.9665 16.7653L27.3227 17.7087C28.1237 17.6572 28.9271 17.7625 29.6877 18.0188L30.5496 17.0649C29.9794 17.0806 28.5315 17.2357 28.0953 16.8415C27.7931 16.8415 27.8088 16.718 28.1399 16.4973C28.2941 16.1469 28.5569 16.0593 28.9283 16.2345C29.3629 16.3141 29.783 16.4594 30.1739 16.6654L31.1935 15.7615C29.4827 15.7299 27.7773 15.6274 26.0823 15.4566L26.2794 16.2003C27.0036 15.7902 27.857 15.6718 28.6655 15.8692L29.0465 14.9863C24.7351 16.1661 20.3439 17.032 15.9074 17.5773C15.3424 17.6482 14.3518 18.4891 15.4554 18.5417C16.4643 18.5873 17.459 18.7958 18.4012 19.1592L18.9715 18.3131C17.8151 18.5852 16.6348 18.7427 15.4476 18.7835C15.1191 18.7835 14.5646 18.8754 14.3701 19.1908C14.2204 19.4325 14.2177 19.6874 14.5883 19.7374L17.4237 20.1158L17.8336 19.2171C16.1569 19.6164 14.4543 19.8983 12.7383 20.0606C12.6621 20.3785 12.5832 20.6965 12.5044 21.0119L21.1342 19.4772L20.719 18.7467C19.5233 19.5033 18.0947 19.8028 16.6958 19.5902L16.5066 20.4101C19.6985 19.1987 23.04 18.4261 26.4397 18.1134C26.3005 17.8716 26.1638 17.6272 26.0245 17.3828C24.362 18.4945 22.4035 19.0805 20.4036 19.0646C20.4719 19.3117 20.5376 19.5587 20.6033 19.8083C22.5677 18.7609 24.6775 18.0125 26.8628 17.5878C26.8628 17.2856 26.8628 16.9834 26.8628 16.6838C25.1625 17.2239 23.3911 17.5073 21.6072 17.5247L21.3864 18.4445L29.8979 16.1346C30.928 15.8561 30.7073 15.0125 29.6693 15.2753C27.4292 15.8357 25.1495 16.224 22.8501 16.4368C22.2694 16.4894 21.3023 17.3644 22.3981 17.3986C25.3833 17.4906 28.3659 17.4459 31.3511 17.2856C31.9608 17.2541 32.8726 16.4316 31.8031 16.3238L26.3083 15.772L25.8564 16.7364C30.1791 15.9323 34.6648 16.9781 38.8194 15.1991C39.5552 14.8838 39.3896 14.2794 38.596 14.3713L33.251 14.9784L33.0145 15.9296C35.6241 15.6263 38.2685 15.9072 40.7561 16.7522C40.7167 16.6076 40.6799 16.4631 40.6405 16.3186C40.3067 16.7022 38.7852 16.6654 38.3306 16.7259L35.9919 17.036L31.317 17.6561L22.2142 18.8649C19.3236 19.2486 16.4172 19.7505 13.503 19.9423C10.3194 20.1342 7.12477 19.8687 4.01654 19.154L3.37272 20.0947L12.3651 18.8859C15.3608 18.4813 18.4091 17.8926 21.4364 18.1239C21.5073 17.8164 21.5809 17.5116 21.6545 17.2068C19.5402 17.7263 17.34 17.7935 15.1979 17.4039V18.1239C18.3703 16.5067 21.8858 15.6783 25.4464 15.7089C25.4464 15.4304 25.4464 15.1492 25.4464 14.8706C19.4675 17.6632 13.0288 19.3401 6.44727 19.8188C5.85338 19.8635 4.91788 20.8016 5.99529 20.7832L10.523 20.6965C10.6754 20.3759 10.8252 20.0553 10.975 19.7347C9.53964 19.8188 8.10003 19.6742 6.71005 19.3064L6.06624 20.2498C9.29945 19.6774 12.5721 19.3558 15.8549 19.288C16.0047 18.9674 16.1544 18.6468 16.3069 18.3262C13.7598 18.7358 11.1528 18.556 8.68617 17.8007C8.47069 18.116 8.25784 18.4313 8.04236 18.744C10.7001 18.2138 13.4281 18.1338 16.1124 18.5075L16.5223 17.6115C13.999 18.1533 11.4031 18.2705 8.84122 17.9583C8.77815 18.2211 8.71508 18.5049 8.65464 18.7782C10.6204 18.0182 12.6615 17.4695 14.7433 17.1411C16.4908 16.8783 19.1423 16.2529 20.6375 17.4853L21.552 16.6733C18.8953 16.891 16.2263 16.9156 13.566 16.7469C12.9065 16.7049 11.7266 17.6482 12.8959 17.7218Z" fill="#980C0C"/>
<path d="M11.8369 10.3932C13.328 10.5225 14.8301 10.3846 16.2727 9.98584C16.6248 9.89124 17.4894 9.22377 16.6853 9.08976L8.15799 7.67336C7.86893 7.9922 7.58162 8.31104 7.29606 8.62989L13.9576 9.23691L14.6277 8.26199C11.7752 8.37951 8.91788 8.2732 6.08201 7.94403C5.71149 7.89673 5.13337 7.94403 4.87058 8.26462C4.66561 8.5274 4.62094 8.79018 5.03351 8.87427L9.63482 9.67839L10.4967 8.72449C8.47871 8.57773 6.48751 8.17507 4.57101 7.5262L3.78267 8.41703C14.6443 7.74957 25.506 7.30284 36.3676 7.07684C36.3676 6.79567 36.3676 6.51712 36.3676 6.23594C31.8819 8.3382 26.6447 7.39481 22.0329 9.22115C21.5073 9.42874 21.2839 10.062 22.0329 10.062C24.9522 10.0635 27.8485 9.54559 30.5864 8.53266C31.3485 8.25148 31.1383 7.59978 30.3631 7.70227L21.728 8.84537C21.8016 9.10815 21.8752 9.39721 21.9514 9.67313C24.6341 8.68319 27.4154 7.98456 30.2474 7.58927C30.7967 7.51306 31.8241 6.65902 30.6968 6.62749C27.3329 6.53271 23.9665 6.68289 20.6244 7.07684C19.7913 7.17407 19.1869 8.12797 20.3879 8.02812C20.895 7.9887 26.1533 7.47627 26.106 7.92037L26.8523 7.39481C24.2248 8.08685 21.5327 8.50515 18.8191 8.64303C18.7455 8.95048 18.6719 9.25531 18.6009 9.56276C21.4232 8.7166 24.2727 7.9668 27.1492 7.31335C28.2004 7.07684 27.9586 6.21755 26.918 6.45405C24.0432 7.10575 21.1937 7.85468 18.3697 8.70084C17.873 8.85062 17.174 9.66788 18.149 9.61795C21.1663 9.47373 24.1606 9.01667 27.0835 8.25411C27.3043 8.1963 27.7983 8.00709 27.8298 7.72854C27.9271 6.75888 26.7577 6.64326 26.0193 6.67742C24.2218 6.751 22.4192 6.96122 20.627 7.10312L20.3747 8.02812C23.5739 7.65121 26.7963 7.50893 30.0162 7.60241C30.166 7.28181 30.3184 6.96122 30.4682 6.638C27.3231 7.08151 24.2351 7.86299 21.2577 8.96888C20.4982 9.25005 20.7058 9.89912 21.481 9.79664L30.1161 8.65354C30.0425 8.39075 29.9689 8.1017 29.8927 7.82577C27.5858 8.66687 25.1478 9.09129 22.6925 9.07924C22.6925 9.36042 22.6925 9.6416 22.6925 9.92015C27.2938 8.09644 32.4863 9.0661 37.0298 6.93494C37.5107 6.70895 37.8182 6.07827 37.0298 6.09404C26.0105 6.3323 15.0008 6.78954 4.00078 7.46576C3.73799 7.48153 2.51343 8.12272 3.21243 8.35659C5.35442 9.08472 7.58071 9.53598 9.83716 9.69941C10.297 9.73094 11.6582 8.91106 10.6991 8.74551L6.08201 7.93877L5.03088 8.87427C7.9952 9.22619 10.9825 9.34568 13.9655 9.23166C14.5646 9.20801 15.8365 8.36711 14.6356 8.25674L7.97141 7.64971C7.50103 7.60504 6.16347 8.43806 7.11211 8.60361L15.6446 10.0174C15.7813 9.7178 15.9074 9.42086 16.0572 9.12129C14.9053 9.43046 13.7071 9.52927 12.5202 9.41298C11.858 9.35254 10.6965 10.2828 11.8501 10.3879L11.8369 10.3932Z" fill="#980C0C"/>
<path d="M25.8563 7.61288C28.1022 7.51127 30.3429 7.33608 32.5783 7.08731C32.6545 6.76935 32.7333 6.45401 32.8121 6.13604C29.3451 6.6749 25.8493 7.00833 22.3429 7.13461C21.9619 7.13461 20.4719 7.92296 21.4836 8.08851C23.1707 8.38546 24.9182 8.29085 26.6236 8.30925L32.142 8.36706C32.7885 8.36706 33.9684 7.40528 32.8095 7.39214L27.7615 7.33958C26.0455 7.32119 24.2376 7.45258 22.5426 7.15564L21.6886 8.09902C25.3398 7.97271 28.9804 7.63138 32.5914 7.0768C33.4034 6.95067 34.0314 5.98626 32.8253 6.12553C30.7353 6.36729 28.64 6.5381 26.5395 6.63796C26.2163 6.65372 25.541 6.74307 25.4043 7.10834C25.2677 7.4736 25.5094 7.6339 25.8694 7.61288H25.8563Z" fill="#980C0C"/>
<path d="M28.7443 5.59744L31.7925 5.27422C31.8714 4.95625 31.9476 4.64091 32.0264 4.32295L21.7779 5.60007C21.2103 5.66839 20.2196 6.50141 21.3259 6.56185C23.5386 6.68448 25.7529 6.71864 27.9691 6.66433C28.5919 6.64857 29.8085 5.6973 28.6365 5.68941C25.5988 5.66576 22.6346 6.23863 19.6678 6.84303C18.8584 7.00858 18.6508 7.83897 19.6678 7.74963C25.2032 7.26437 30.7701 7.2547 36.3071 7.72072L36.9772 6.7458C34.3014 6.60071 31.6365 6.2971 28.9965 5.83657L28.1372 6.79047L37.9574 7.57882C38.1072 7.2556 38.257 6.935 38.4094 6.61441C35.574 6.87719 32.7412 7.08479 30.0004 6.20709L29.5904 7.10318C32.1875 6.23083 34.9757 6.09619 37.6447 6.71426C37.8602 6.39893 38.0757 6.08622 38.2885 5.77088C36.9194 5.85497 35.5451 5.8865 34.1734 5.86285C33.2457 5.84708 31.2328 6.12563 30.7572 5.10604L29.7796 5.81292C32.7736 5.59919 35.7702 5.47568 38.7694 5.4424L39.4395 4.46748L29.8269 4.77231L29.375 5.73671C33.3762 5.43422 37.3939 5.41929 41.3972 5.69204C41.6863 5.71306 43.1684 5.07976 42.4168 4.7907L40.9242 4.21258C40.5695 4.07593 39.4001 4.18105 39.3791 4.73814C39.3059 6.30132 39.5324 7.86406 40.0465 9.34208L41.7678 8.87959L40.6299 5.74197C40.4276 5.18487 38.9691 5.5554 38.9113 6.07833C38.8102 6.98733 38.7734 7.90233 38.8009 8.81652L40.3461 8.16219C39.973 7.93357 38.2438 6.67485 38.9376 6.01789C38.9928 5.96533 39.9125 8.43023 40.0492 8.81915C40.2568 9.40778 41.8597 8.97682 41.7678 8.35665C41.6337 7.44743 41.505 6.53557 41.3683 5.62372L39.7102 6.1887C40.0106 6.62143 40.2626 7.08583 40.4617 7.57356C40.693 8.13591 42.0752 7.75225 42.1803 7.23457C42.2856 6.7159 42.3104 6.18411 42.2539 5.65788L40.6089 6.236L41.2895 7.23983C41.5733 7.65502 42.8925 7.27924 42.9476 6.79573C43.0072 6.25965 43.0694 5.72358 43.1342 5.1875L41.413 5.52649C41.412 6.35098 41.5063 7.17281 41.6942 7.97562C41.8335 8.57476 43.3234 8.11489 43.4128 7.63663C43.5372 6.98843 43.6589 6.33936 43.778 5.68941L42.0594 6.0284L42.3669 7.26873C42.5088 7.83897 44.054 7.43954 44.0855 6.92975L44.188 5.28999L42.4694 5.62897C42.6781 6.42877 42.7971 7.24933 42.8241 8.07547C42.8425 8.60104 44.5401 8.26993 44.5427 7.73649L44.5506 4.95362L42.8294 5.29261C43.1272 7.16012 43.5109 9.01098 43.9804 10.8452C44.138 11.4601 45.7253 10.9897 45.699 10.3827C45.6397 8.89079 45.4373 7.40803 45.0946 5.95482C44.9579 5.36094 43.2314 5.80241 43.376 6.41469C43.7189 7.86875 43.9213 9.35241 43.9804 10.8452L45.7069 10.3932C45.2374 8.55199 44.8519 6.69762 44.5506 4.83012C44.4613 4.26514 42.832 4.65931 42.8294 5.16911C42.8294 6.09935 42.8294 7.03223 42.8294 7.96248L44.5506 7.62349C44.5258 6.79715 44.4068 5.97634 44.1959 5.17699C44.0487 4.60938 42.5088 5.00618 42.4773 5.51598L42.3748 7.15574L44.0934 6.81938L43.7859 5.57642C43.6388 4.9799 42.1593 5.43452 42.0673 5.91541C41.9464 6.56448 41.8229 7.21355 41.7021 7.86262L43.4207 7.52363C43.2336 6.72164 43.1401 5.90066 43.1421 5.07713C43.1421 4.53843 41.4813 4.89581 41.4209 5.41349C41.3604 5.93117 41.2974 6.48564 41.2369 7.02172L42.8951 6.57762L42.1856 5.56328C41.8729 5.10341 40.4722 5.56328 40.5274 6.12826C40.5733 6.56735 40.5485 7.01095 40.4538 7.44217L42.1856 7.11369C41.9534 6.55197 41.6609 6.01713 41.3131 5.51861C41.0057 5.0745 39.5709 5.51861 39.655 6.08359C39.7864 6.99456 39.9195 7.90642 40.0544 8.81915L41.773 8.35665C41.4393 7.40801 41.2028 5.69993 40.3198 5.07976C39.7181 4.66194 38.8588 4.81698 38.2517 5.13757C36.2073 6.24388 37.5659 8.12278 38.9823 8.99521C39.408 9.25799 40.5406 8.92689 40.5248 8.34877C40.5037 7.51595 40.5406 6.68267 40.6352 5.85497L38.9113 6.1887L40.0465 9.34208C40.2646 9.9386 41.9675 9.4472 41.7678 8.87959C41.2672 7.48537 41.038 6.00827 41.0924 4.52792L39.5499 5.05348L41.0425 5.62897L42.0621 4.725C37.9133 4.44464 33.7496 4.46396 29.6036 4.78282C29.0071 4.82749 28.0768 5.77876 29.1516 5.7446L38.7694 5.43189C39.09 5.43189 39.7706 5.32415 39.9046 4.96414C40.0387 4.60412 39.7969 4.45434 39.4395 4.45697C36.2861 4.49376 33.145 4.62515 30.0161 4.85114C29.8191 4.86428 28.8494 5.15859 29.0386 5.55802C29.5983 6.73791 30.9989 6.73791 32.142 6.78784C34.1129 6.86554 36.0864 6.84098 38.0546 6.71426C38.4541 6.69061 39.5972 5.97585 38.6985 5.7735C35.599 5.07281 32.3668 5.23643 29.3539 6.24651C28.9519 6.38053 28.1819 6.90084 28.944 7.14523C31.9476 8.09913 35.0905 7.85474 38.1808 7.56831C38.772 7.51312 39.7207 6.69324 38.6328 6.60652L28.8126 5.81818C28.3501 5.78139 26.9968 6.60652 27.9533 6.77208C30.7192 7.25454 33.5114 7.57218 36.315 7.72335C36.9641 7.75751 38.1545 6.84565 36.9851 6.74843C31.3005 6.27806 25.586 6.29565 19.9043 6.80098C19.9043 7.10055 19.9043 7.40275 19.9043 7.70495C22.5689 7.16099 25.2414 6.65382 27.9743 6.65382L28.6418 5.6789C26.4274 5.73496 24.213 5.7008 21.9987 5.57642L21.5467 6.54083L31.7952 5.26371C32.6229 5.16122 33.2273 4.18367 32.0291 4.31244L28.9808 4.63566C28.1451 4.725 27.5539 5.71569 28.7469 5.58693L28.7443 5.59744Z" fill="#980C0C"/>
</svg>
