<svg width="57" height="59" viewBox="0 0 57 59" fill="none" xmlns="http://www.w3.org/2000/svg">
<path d="M28.6306 58.121C44.0725 58.121 56.5906 45.2191 56.5906 29.3037C56.5906 13.3883 44.0725 0.486328 28.6306 0.486328C13.1887 0.486328 0.670593 13.3883 0.670593 29.3037C0.670593 45.2191 13.1887 58.121 28.6306 58.121Z" fill="url(#paint0_linear_17_20903)"/>
<path d="M30.1796 34.4878C30.2009 35.287 30.03 36.0793 29.6824 36.794C29.3445 37.4536 28.8594 38.021 28.2672 38.4497C27.6477 38.9228 26.9468 39.2706 26.2017 39.4747C25.3872 39.7151 24.5436 39.8345 23.6964 39.8295H13.962V19.0739H24.8056C25.4627 19.0429 26.1178 19.1712 26.7181 19.4484C27.2744 19.7554 27.768 20.1703 28.1715 20.6704C28.5624 21.182 28.8722 21.7542 29.0895 22.3656C29.3056 22.9988 29.4156 23.6654 29.4146 24.3367C29.4112 25.3515 29.1401 26.3462 28.6305 27.2145C28.1445 28.1023 27.3836 28.7964 26.4695 29.1856C27.5733 29.5113 28.5416 30.2044 29.2234 31.1567C29.8868 32.1295 30.2226 33.2995 30.1796 34.4878ZM17.8634 22.5233V27.7467H23.0844C23.7177 27.7562 24.3291 27.5084 24.7865 27.0568C25.0266 26.7947 25.2116 26.4843 25.3301 26.1452C25.4485 25.8061 25.4979 25.4454 25.475 25.0857C25.5011 24.7305 25.4588 24.3734 25.3505 24.0352C25.2422 23.6969 25.07 23.384 24.8439 23.1146C24.6393 22.8936 24.3929 22.7183 24.1198 22.5996C23.8467 22.4809 23.5529 22.4214 23.2565 22.4247L17.8634 22.5233ZM26.24 33.7191C26.245 33.3547 26.18 32.993 26.0487 32.6547C25.9359 32.3348 25.7745 32.0354 25.5706 31.7677C25.3625 31.5164 25.1093 31.3089 24.8247 31.1567C24.5319 31.0135 24.2118 30.9394 23.8876 30.9398H17.8634V36.4195H23.6964C24.0388 36.418 24.3772 36.3442 24.6909 36.2026C25.003 36.0779 25.2841 35.8826 25.5132 35.631C25.7348 35.38 25.9156 35.0938 26.0487 34.7835C26.18 34.4452 26.245 34.0834 26.24 33.7191Z" fill="white"/>
<path d="M38.6709 39.8291C37.592 39.8288 36.5246 39.6008 35.5345 39.1589C34.6591 38.8043 33.8613 38.2728 33.1881 37.5958C32.5148 36.9189 31.9796 36.11 31.614 35.2167C31.2555 34.2819 31.0737 33.285 31.0785 32.2798C31.0723 31.2635 31.2474 30.2546 31.5949 29.3035C31.9377 28.3708 32.4625 27.5205 33.1369 26.8051C33.8112 26.0897 34.6207 25.5246 35.5154 25.1445C36.5218 24.7167 37.6015 24.5022 38.6901 24.5137C39.773 24.496 40.8476 24.7108 41.8456 25.1445C43.2563 25.8051 44.4324 26.9023 45.2104 28.2834C45.9883 29.6646 46.3297 31.2612 46.1869 32.8514C46.2099 33.0412 46.2099 33.2332 46.1869 33.423H34.9799C35.0215 33.9652 35.1643 34.494 35.4007 34.9802C35.6032 35.4218 35.8893 35.8171 36.2421 36.1432C36.9493 36.786 37.8619 37.137 38.8048 37.1287C39.5342 37.1332 40.2524 36.9431 40.8894 36.5768C41.4892 36.2756 41.9593 35.7559 42.209 35.1182L45.3836 36.0249C44.8231 37.1967 43.9379 38.1707 42.8401 38.8238C41.5667 39.5482 40.124 39.896 38.6709 39.8291ZM42.4958 30.8803C42.4466 29.8596 42.0146 28.8985 41.291 28.1997C40.5948 27.5361 39.6764 27.1758 38.7283 27.1944C38.2492 27.1829 37.7732 27.277 37.3322 27.4703C36.9053 27.639 36.5152 27.8936 36.1848 28.2194C35.8506 28.5534 35.5784 28.9475 35.3815 29.3823C35.1628 29.8521 35.033 30.3605 34.999 30.8803H42.4958Z" fill="white"/>
<path d="M33.8132 20.0596H43.3755V22.5234H33.8132V20.0596Z" fill="white"/>
<defs>
<linearGradient id="paint0_linear_17_20903" x1="48.4053" y1="8.9226" x2="7.66173" y2="48.454" gradientUnits="userSpaceOnUse">
<stop stop-color="#006EF5"/>
<stop offset="0.78" stop-color="#2131AE"/>
<stop offset="1" stop-color="#2B1E99"/>
</linearGradient>
</defs>
</svg>
