<svg width="57" height="59" viewBox="0 0 57 59" fill="none" xmlns="http://www.w3.org/2000/svg">
<path d="M28.6306 0.451172C13.1883 0.451172 0.670593 13.3527 0.670593 29.2685C0.670593 45.1844 13.1883 58.0859 28.6306 58.0859C44.0729 58.0859 56.5906 45.1844 56.5906 29.2685C56.5906 13.3527 44.0729 0.451172 28.6306 0.451172Z" fill="url(#paint0_linear_17_20889)"/>
<path d="M32.415 36.9062H39.6511L40.7876 29.3301H32.415V25.1891C32.415 22.0422 33.4132 19.2512 36.2693 19.2512H40.8589V12.6405C40.0523 12.5282 38.3467 12.2832 35.1243 12.2832C28.3944 12.2832 24.4492 15.9459 24.4492 24.2914V29.3316H17.5305V36.9076H24.4478V57.7311C25.8179 57.9414 27.2061 58.0855 28.6306 58.0855C29.9182 58.0855 31.175 57.9645 32.415 57.7916V36.9062Z" fill="white"/>
<defs>
<linearGradient id="paint0_linear_17_20889" x1="9.04881" y1="9.08629" x2="53.1509" y2="51.8763" gradientUnits="userSpaceOnUse">
<stop stop-color="#2AA4F4"/>
<stop offset="1" stop-color="#007AD9"/>
</linearGradient>
</defs>
</svg>
