<svg width="63" height="63" viewBox="0 0 63 63" fill="none" xmlns="http://www.w3.org/2000/svg">
<path d="M0.568848 58.9991C0.568848 46.0482 0.568848 33.0958 0.568848 20.145C0.599764 20.0945 0.645326 20.0473 0.661598 19.9936C1.26854 17.823 2.71186 16.7083 4.95413 16.6823C5.33652 16.6774 5.71728 16.6823 6.11432 16.6823C6.18591 16.3439 6.24449 16.0705 6.30307 15.7955C7.30379 11.0278 9.33616 6.74993 12.4327 2.98298C13.3439 1.87324 14.8263 1.86673 15.7619 2.95532C16.172 3.43209 16.5723 3.92187 16.9189 4.4442C17.7536 5.70527 18.5526 6.98913 19.3857 8.29576C19.4638 8.13142 19.55 7.95568 19.6298 7.77831C20.6305 5.50187 21.9078 3.39466 23.4439 1.43878C23.9288 0.822071 24.4511 0.285097 25.2224 0.0507812C25.4258 0.0507812 25.6292 0.0507812 25.8326 0.0507812C26.3208 0.356693 26.9245 0.564975 27.2776 0.98479C29.663 3.82749 31.4448 7.02818 32.5139 10.5787C33.1062 12.5476 33.4804 14.5816 33.9686 16.6595C34.0174 16.6628 34.1964 16.6839 34.3754 16.6839C39.6182 16.6856 44.8594 16.6807 50.1022 16.6953C50.5366 16.697 50.6717 16.5521 50.7791 16.1421C51.4804 13.4784 53.861 11.5729 56.5215 11.4997C59.3902 11.42 61.8375 13.1009 62.7292 15.7695C62.8496 16.1291 62.9456 16.4968 63.053 16.8597C63.053 30.258 63.053 43.6563 63.053 57.0546C62.9505 57.3979 62.8561 57.7445 62.7455 58.0862C61.8733 60.7646 59.5008 62.4129 56.4987 62.4129C39.8232 62.4145 23.1478 62.4145 6.4723 62.4129C5.8621 62.4129 5.2519 62.4227 4.64171 62.408C2.86807 62.3657 1.35153 61.2381 0.783637 59.5539C0.721804 59.3652 0.640444 59.1829 0.568848 58.9991ZM5.79213 18.8074C3.6296 18.5113 2.6126 19.4485 2.62236 21.6111C2.67443 33.7076 2.64677 45.8042 2.6484 57.9023C2.6484 59.5328 3.4506 60.3334 5.07942 60.335C8.55673 60.3366 12.034 60.335 15.5113 60.335C15.7261 60.335 15.9409 60.335 16.1899 60.335C16.1899 59.2968 16.1883 58.3449 16.1899 57.393C16.2013 51.3984 20.7688 46.8309 26.7699 46.8195C29.3522 46.8146 31.9346 46.8195 34.5186 46.8179C36.2369 46.8179 37.0277 46.0385 37.0277 44.3381C37.0293 36.0573 37.0277 27.7765 37.0277 19.4941C37.0277 19.2761 37.0277 19.058 37.0277 18.8025C35.9554 18.8025 34.9514 18.8025 33.884 18.8025C33.884 19.0743 33.8905 19.3135 33.8823 19.551C33.8059 21.8975 33.513 24.2032 32.5399 26.3706C31.5457 28.5852 29.9901 30.2075 27.603 30.9235C27.2792 31.0211 26.9489 31.0943 26.5925 31.1855C26.5925 33.3334 26.5925 35.4406 26.5925 37.5494C26.5925 38.8886 26.6023 40.2294 26.5844 41.5686C26.5763 42.2097 26.1564 42.6409 25.5885 42.6588C25.0288 42.6751 24.5797 42.2471 24.5179 41.6272C24.5 41.4465 24.5097 41.2627 24.5097 41.0788C24.5097 38.0132 24.5097 34.9492 24.5097 31.8835C24.5097 31.646 24.5097 31.4084 24.5097 31.1529C23.0029 30.9349 21.7565 30.3068 20.6647 29.3679C19.0879 31.6492 17.8399 32.6093 15.6985 33.1007C15.2298 33.2081 15.1338 33.3952 15.1355 33.8248C15.1501 36.9295 15.1436 40.0358 15.142 43.1404C15.142 43.3829 15.1469 43.6302 15.1094 43.8694C15.0248 44.4048 14.6717 44.7009 14.151 44.7253C13.6303 44.7497 13.2512 44.4812 13.1194 43.9589C13.0608 43.7262 13.0575 43.4773 13.0575 43.2348C13.0543 40.0895 13.0575 36.9425 13.051 33.7971C13.051 33.5433 13.1666 33.2487 12.7158 33.1544C9.77712 32.5425 7.97908 30.6355 6.91489 27.9425C5.98251 25.5814 5.76122 23.1048 5.7905 20.5924C5.79864 20.0132 5.79213 19.429 5.79213 18.8074ZM46.3873 18.796C46.3873 19.0857 46.3873 19.3444 46.3873 19.6031C46.3873 27.8221 46.3954 36.0426 46.3759 44.2616C46.3743 45.1679 46.319 46.0971 46.1221 46.979C45.0449 51.7808 40.9704 55.0629 36.0449 55.1182C33.2998 55.1491 30.5547 55.1198 27.8097 55.128C26.6478 55.1312 25.6959 55.8163 25.6178 56.8333C25.53 57.9756 25.5983 59.1309 25.5983 60.3024C34.434 60.3024 43.224 60.3024 52.1606 60.3024C50.4943 58.5255 50.5529 56.4134 50.5562 54.2883C50.5741 42.7206 50.5643 31.1513 50.5643 19.5836C50.5643 19.3281 50.5643 19.0743 50.5643 18.796C49.134 18.796 47.7997 18.796 46.3873 18.796ZM60.9734 51.4749C60.9734 51.1186 60.9734 50.8761 60.9734 50.632C60.9734 39.8551 60.9734 29.0766 60.9734 18.2997C60.9734 18.0361 60.9832 17.7709 60.9637 17.5089C60.8547 16.0802 60.2184 14.9412 58.9899 14.1911C57.61 13.3482 56.1618 13.314 54.7608 14.1081C53.3126 14.9282 52.6471 16.2267 52.6471 17.8929C52.6536 28.8944 52.6504 39.8942 52.652 50.8956C52.652 51.0632 52.6797 51.2292 52.6976 51.4294C55.4735 49.4295 58.1893 49.4426 60.9734 51.4749ZM39.1105 18.8009C39.1105 19.1198 39.1105 19.3818 39.1105 19.6422C39.1105 27.8611 39.1121 36.0817 39.1105 44.3006C39.1105 47.184 37.4068 48.8926 34.5381 48.8942C31.9557 48.8958 29.3734 48.8828 26.791 48.9023C26.1646 48.9072 25.5267 48.956 24.9149 49.0829C22.5652 49.5727 20.7753 50.8777 19.4866 52.8906C18.0091 55.1979 18.2499 57.7591 18.2955 60.2862C20.0593 60.2862 21.7549 60.2862 23.4895 60.2862C23.4895 59.3277 23.4878 58.4165 23.4895 57.5053C23.4976 54.7814 25.2241 53.0517 27.9447 53.0468C30.5271 53.0419 33.1094 53.0484 35.6918 53.0435C36.1588 53.0419 36.6323 53.0452 37.0895 52.9719C41.4276 52.2853 44.2882 48.9381 44.2947 44.5122C44.3061 36.15 44.298 27.7895 44.2964 19.4274C44.2964 19.2305 44.2768 19.032 44.2654 18.8009C42.552 18.8009 40.8744 18.8009 39.1105 18.8009ZM14.1006 4.21314C13.9964 4.34494 13.946 4.40677 13.8955 4.47023C9.65508 9.79603 7.58692 15.8427 7.92701 22.6574C8.02952 24.693 8.42493 26.6863 9.48911 28.4762C10.2881 29.8186 11.388 30.7787 13.0559 31.1122C13.0559 30.1994 13.0055 29.3288 13.0722 28.4681C13.1275 27.7505 12.8834 27.2493 12.3611 26.779C11.6224 26.1135 10.9292 25.3959 10.2474 24.6718C9.8357 24.2357 9.86662 23.6418 10.2555 23.2464C10.6412 22.8526 11.2286 22.8282 11.6874 23.2057C11.9055 23.3863 12.0991 23.5979 12.3009 23.798C12.8981 24.3919 13.4953 24.9875 14.1331 25.6237C14.9239 24.8166 15.6399 24.0698 16.3754 23.3424C16.888 22.8347 17.5063 22.8054 17.9407 23.2334C18.3866 23.6711 18.3638 24.2715 17.8561 24.7939C17.2476 25.4203 16.665 26.081 15.9914 26.6326C15.29 27.207 15.0525 27.8709 15.129 28.7496C15.1957 29.5225 15.1436 30.3052 15.1436 31.0992C16.5267 30.8275 17.547 30.1603 18.3638 29.018C19.5468 27.3648 19.9959 25.4577 20.2074 23.4856C20.7184 18.7228 19.8267 14.2025 17.7666 9.89692C16.8033 7.87432 15.609 5.9998 14.1006 4.21314ZM26.5941 29.0132C26.7422 28.9953 26.822 28.9953 26.8968 28.9757C28.677 28.5234 29.7818 27.3079 30.5385 25.723C31.4497 23.8175 31.7556 21.7673 31.7881 19.6894C31.8858 13.4621 29.9722 7.88408 26.202 2.93254C26.0019 2.66893 25.7806 2.4216 25.5479 2.14172C23.3495 4.80869 21.7305 7.69207 20.6761 10.8846C20.6028 11.1043 20.6598 11.4021 20.7411 11.6315C22.5359 16.6449 23.0387 21.7299 21.654 26.932C21.6117 27.0931 21.6491 27.3453 21.7516 27.4657C22.4643 28.2874 23.3658 28.7984 24.5081 29.0278C24.5081 28.2777 24.5065 27.5715 24.5081 26.8669C24.5097 26.2177 24.4837 25.5651 24.5276 24.9192C24.5683 24.335 25.0516 23.9314 25.5885 23.9493C26.1369 23.9689 26.5421 24.3838 26.5828 24.981C26.5974 25.2039 26.5909 25.4268 26.5909 25.6514C26.5942 26.7644 26.5941 27.8725 26.5941 29.0132ZM52.6536 56.1303C52.6341 58.4312 54.4549 60.3024 56.7444 60.3333C59.0501 60.3643 60.9637 58.4865 60.9702 56.1889C60.9767 53.8994 59.1298 52.0444 56.8322 52.033C54.5184 52.0184 52.6748 53.8262 52.6536 56.1303Z" fill="#980C0C"/>
<path d="M6.80766 56.1826C7.85394 56.1826 8.80747 56.1777 9.75938 56.1842C10.5193 56.1907 10.944 56.5471 10.9619 57.1768C10.9814 57.831 10.5356 58.2491 9.77077 58.2557C8.49017 58.267 7.20957 58.2687 5.9306 58.2557C5.12839 58.2475 4.73787 57.8521 4.72973 57.045C4.71834 55.7677 4.71834 54.4887 4.72973 53.2114C4.73624 52.4791 5.13653 52.0398 5.75974 52.0333C6.41225 52.0268 6.79789 52.4661 6.8044 53.2472C6.81417 54.1974 6.80766 55.1477 6.80766 56.1826Z" fill="#980C0C"/>
</svg>
