<svg width="63" height="63" viewBox="0 0 63 63" fill="none" xmlns="http://www.w3.org/2000/svg">
<path d="M2.6055 60.2706C2.6055 45.5128 2.6055 30.8606 2.6055 16.1221C2.87188 16.1221 3.11381 16.1221 3.35574 16.1221C8.2484 16.1221 13.1423 16.1221 18.035 16.1221C18.2023 16.1221 18.3696 16.1273 18.5369 16.1209C19.1893 16.0951 19.6294 15.7091 19.6397 15.1596C19.65 14.6114 19.2086 14.2009 18.5678 14.1674C18.4429 14.161 18.3168 14.1648 18.192 14.1648C12.8181 14.1648 7.44411 14.1648 2.07017 14.1648C0.915848 14.1648 0.622444 14.4569 0.622444 15.6023C0.622444 30.656 0.622444 45.7085 0.622444 60.7622C0.622444 61.9294 0.910702 62.2254 2.04572 62.2254C19.5265 62.2254 37.0073 62.2279 54.4893 62.2241C58.5571 62.2228 61.7228 59.7726 62.5991 55.9274C62.7458 55.2827 62.8037 54.6045 62.8037 53.9418C62.8153 38.7632 62.8153 23.5847 62.8102 8.40611C62.8089 4.36149 60.333 1.17521 56.4698 0.343897C55.524 0.140573 54.5138 0.108401 53.5435 0.16631C51.9979 0.258964 50.8758 1.53553 50.8166 3.08878C50.8102 3.27666 50.814 3.46454 50.814 3.65243C50.814 17.3279 50.814 31.0035 50.814 44.679C50.814 47.0622 51.9581 48.2539 54.3632 48.1779C57.6524 48.0737 59.9006 50.1739 60.5929 52.4581C61.7781 56.3701 58.8955 60.259 54.7699 60.2629C42.7879 60.2758 30.8059 60.268 18.8251 60.268C13.6815 60.268 8.53666 60.268 3.39306 60.268C3.1447 60.2706 2.8989 60.2706 2.6055 60.2706ZM60.8503 48.9784C58.9715 47.0275 56.8237 46.1897 54.313 46.2361C53.0313 46.2592 52.7726 45.9838 52.7726 44.7098C52.7726 31.015 52.7726 17.3202 52.7726 3.6254C52.7726 3.41693 52.752 3.2046 52.7829 2.99999C52.8601 2.4891 53.1651 2.13521 53.6825 2.10948C54.3478 2.07602 55.0311 2.05157 55.6835 2.15966C58.8106 2.67956 60.849 5.10787 60.8503 8.27742C60.8541 21.5759 60.8516 34.8731 60.8516 48.1715C60.8503 48.3748 60.8503 48.5782 60.8503 48.9784Z" fill="#980C0C"/>
<path d="M9.65504 53.2559C8.98716 53.2559 8.42351 53.2508 7.86115 53.2572C7.11734 53.265 6.65021 53.6472 6.65021 54.2352C6.6515 54.8233 7.11863 55.2094 7.86372 55.2107C12.0653 55.2146 16.2682 55.212 20.4699 55.212C28.7277 55.212 36.9855 55.212 45.2446 55.212C46.2586 55.212 46.7644 54.8722 46.7425 54.2057C46.7206 53.5635 46.2393 53.2559 45.2523 53.2547C44.107 53.2547 42.9604 53.2547 41.7301 53.2547C41.7301 52.9613 41.7301 52.7193 41.7301 52.4774C41.7301 48.1986 41.7186 43.9185 41.7417 39.6396C41.7456 38.9563 41.5062 38.5213 40.9387 38.1469C37.3458 35.7803 33.776 33.379 30.1844 31.0099C29.8048 30.7603 29.6568 30.499 29.6748 30.0499C29.7095 29.1543 29.6928 28.2547 29.6825 27.3578C29.6735 26.5767 29.3055 26.197 28.5282 26.1958C22.6331 26.1906 16.7367 26.1906 10.8415 26.1958C9.9922 26.197 9.65762 26.5831 9.65762 27.5187C9.65633 35.8061 9.65633 44.0935 9.65633 52.3809C9.65504 52.6473 9.65504 52.9136 9.65504 53.2559ZM27.6814 28.1852C27.6814 36.5679 27.6814 44.8862 27.6814 53.2173C26.3328 53.2173 25.0266 53.2173 23.6613 53.2173C23.6613 52.9574 23.6613 52.7322 23.6613 52.507C23.6613 50.816 23.6664 49.1251 23.6587 47.4342C23.6548 46.6144 23.2894 46.2464 22.4709 46.2425C20.9447 46.2335 19.4185 46.2348 17.8923 46.2425C17.0429 46.2464 16.6865 46.6132 16.6839 47.4779C16.6787 49.1689 16.6826 50.8598 16.6826 52.5507C16.6826 52.7708 16.6826 52.9921 16.6826 53.2161C14.9505 53.2161 13.311 53.2161 11.6497 53.2161C11.6497 44.8579 11.6497 36.5396 11.6497 28.1865C17.003 28.1852 22.3229 28.1852 27.6814 28.1852ZM29.7224 33.0702C29.9566 33.2092 30.1342 33.3057 30.3028 33.4164C33.2922 35.4046 36.2738 37.4018 39.2735 39.3745C39.6531 39.6242 39.7818 39.888 39.7805 40.3345C39.7638 44.4023 39.7702 48.4701 39.7702 52.5379C39.7702 52.7592 39.7702 52.9806 39.7702 53.2212C36.3755 53.2212 33.0644 53.2212 29.7224 53.2212C29.7224 46.5076 29.7224 39.8288 29.7224 33.0702ZM21.6563 48.2307C21.6563 49.9345 21.6563 51.5714 21.6563 53.2161C20.641 53.2161 19.6694 53.2161 18.6747 53.2161C18.6747 51.5393 18.6747 49.9024 18.6747 48.2307C19.6797 48.2307 20.65 48.2307 21.6563 48.2307Z" fill="#980C0C"/>
<path d="M14.5526 6.12189C14.7907 6.46033 14.9619 6.79234 15.2128 7.04586C17.6861 9.53465 20.1724 12.0093 22.6547 14.4878C26.4227 18.2506 30.2176 21.9876 33.9405 25.7929C34.8529 26.7259 35.8155 27.2728 37.1114 27.4092C38.5617 27.5611 39.9952 27.8647 41.4352 28.1054C42.2768 28.2457 42.8341 27.709 42.6951 26.8816C42.3875 25.0529 42.1005 23.2217 41.7454 21.4021C41.6604 20.9659 41.4262 20.4884 41.1148 20.1757C35.8271 14.861 30.5175 9.5694 25.2117 4.27266C23.9995 3.06301 22.7911 1.85078 21.5763 0.644991C20.8904 -0.0357599 20.4555 -0.0383339 19.7709 0.643704C18.2305 2.17507 16.6914 3.70644 15.1639 5.25197C14.94 5.47717 14.7894 5.77701 14.5526 6.12189ZM33.7617 22.5642C29.2615 18.0691 24.7369 13.5471 20.2663 9.08168C21.373 7.97626 22.5479 6.80264 23.6675 5.68435C28.1599 10.1691 32.6858 14.6885 37.1744 19.1694C36.0484 20.2903 34.8709 21.4613 33.7617 22.5642ZM35.2493 24.2731C36.4666 23.048 37.6467 21.859 38.8345 20.6647C39.5281 21.1589 39.9811 21.8152 40.0519 22.7855C40.1278 23.8266 40.3761 24.8561 40.5666 25.9949C39.4123 25.7993 38.3957 25.5523 37.3662 25.4738C36.3997 25.3991 35.7293 24.9629 35.2493 24.2731ZM22.1709 4.05004C20.9561 5.26484 19.785 6.43846 18.695 7.52843C18.2099 7.06645 17.681 6.55942 17.2152 6.11545C18.3669 4.965 19.5392 3.79266 20.6923 2.63963C21.1787 3.10162 21.6986 3.59835 22.1709 4.05004Z" fill="#980C0C"/>
<path d="M43.7297 14.1663C42.8314 14.1663 41.9332 14.1624 41.0337 14.1676C40.2435 14.1714 39.7648 14.5536 39.7751 15.1597C39.7867 15.7465 40.25 16.1184 41.0015 16.121C42.8404 16.1262 44.6794 16.1262 46.5183 16.121C47.2685 16.1184 47.7344 15.7465 47.7447 15.1597C47.7562 14.5536 47.2762 14.1701 46.4874 14.1663C45.5686 14.1624 44.6498 14.1663 43.7297 14.1663Z" fill="#980C0C"/>
<path d="M22.7075 34.2235C22.7075 34.5362 22.6908 34.8502 22.7114 35.1617C22.75 35.7536 23.1798 36.1744 23.7048 36.1616C24.2119 36.1487 24.6301 35.7485 24.6545 35.1835C24.6829 34.5169 24.6829 33.8491 24.6545 33.1825C24.6301 32.6201 24.2041 32.2212 23.6958 32.2135C23.1695 32.207 22.7461 32.6291 22.7101 33.2224C22.6908 33.5557 22.7075 33.8902 22.7075 34.2235Z" fill="#980C0C"/>
<path d="M15.6813 34.1631C15.6813 34.4964 15.6633 34.8309 15.6852 35.163C15.7238 35.7549 16.1549 36.1757 16.6799 36.1616C17.1882 36.1487 17.6039 35.7485 17.6283 35.1823C17.6567 34.5157 17.6566 33.8478 17.6271 33.1812C17.6026 32.6201 17.1754 32.2199 16.6683 32.2135C16.1652 32.207 15.7354 32.6072 15.689 33.1619C15.662 33.4926 15.6839 33.8285 15.6839 34.1618C15.6826 34.1631 15.6826 34.1631 15.6813 34.1631Z" fill="#980C0C"/>
<path d="M22.7154 41.2882C22.7154 41.6215 22.6858 41.9587 22.7218 42.2881C22.7784 42.8042 23.2147 43.2005 23.6921 43.1722C24.2455 43.1388 24.6071 42.817 24.6444 42.274C24.6946 41.5688 24.6907 40.8559 24.647 40.1494C24.6135 39.6063 24.2609 39.2782 23.7088 39.2344C23.2095 39.1958 22.763 39.6127 22.7167 40.1622C22.6858 40.5354 22.7102 40.9125 22.7102 41.287C22.7128 41.2882 22.7141 41.2882 22.7154 41.2882Z" fill="#980C0C"/>
<path d="M15.6878 41.2123C15.6878 41.5662 15.653 41.9252 15.6955 42.274C15.7624 42.817 16.0983 43.1387 16.6516 43.1722C17.129 43.2005 17.5897 42.8054 17.6193 42.2894C17.6592 41.5623 17.6618 40.8288 17.6168 40.1017C17.5859 39.5883 17.111 39.1971 16.6349 39.2344C16.0828 39.2782 15.7547 39.6063 15.6929 40.1494C15.653 40.4994 15.6852 40.8571 15.6852 41.2123C15.6865 41.2123 15.6865 41.2123 15.6878 41.2123Z" fill="#980C0C"/>
<path d="M33.7502 41.1787C33.7502 41.512 33.7321 41.8466 33.754 42.1786C33.7926 42.7705 34.2237 43.1913 34.7488 43.1772C35.2571 43.1643 35.6727 42.7641 35.6972 42.1979C35.7255 41.5313 35.7255 40.8634 35.6959 40.1968C35.6714 39.6357 35.2442 39.2355 34.7372 39.2291C34.234 39.2226 33.8042 39.6229 33.7579 40.1775C33.7309 40.5082 33.7527 40.8441 33.7527 41.1774C33.7514 41.1787 33.7502 41.1787 33.7502 41.1787Z" fill="#980C0C"/>
<path d="M33.7566 48.2296C33.7566 48.5835 33.7219 48.9425 33.7643 49.2912C33.8325 49.833 34.1684 50.156 34.7217 50.1882C35.1992 50.2165 35.6573 49.8201 35.6882 49.3028C35.7294 48.5963 35.7268 47.8847 35.6933 47.1782C35.6663 46.6274 35.203 46.2118 34.7037 46.2517C34.1517 46.2954 33.8235 46.6249 33.763 47.1679C33.7244 47.5179 33.7553 47.8757 33.7553 48.2309C33.7553 48.2296 33.7553 48.2296 33.7566 48.2296Z" fill="#980C0C"/>
</svg>
